<svg xmlns="http://www.w3.org/2000/svg" width="40" height="32" viewBox="0 0 40 32"><path d="M37.778 8C39.006 8 40 9.074 40 10.4v19.2c0 1.326-.994 2.4-2.222 2.4H2.22C.994 32 0 30.926 0 29.6V10.4C0 9.074.994 8 2.222 8h35.556zm-22.909 3.5H12a.5.5 0 0 0-.403.796l4.742 6.453a.5.5 0 0 1-.403.796h-2.31a.5.5 0 0 0-.5.5v1.12a.5.5 0 0 0 .5.5h4.102a.5.5 0 0 1 .5.5v.198a.5.5 0 0 1-.5.5h-4.104a.5.5 0 0 0-.5.5v1.12a.5.5 0 0 0 .5.5h4.101a.5.5 0 0 1 .5.5V28a.5.5 0 0 0 .5.5h2.55a.5.5 0 0 0 .5-.5v-2.52a.5.5 0 0 1 .5-.5h4.13a.5.5 0 0 0 .5-.5v-1.12a.5.5 0 0 0-.5-.5h-4.13a.5.5 0 0 1-.5-.5v-.195a.5.5 0 0 1 .5-.5h4.13a.5.5 0 0 0 .5-.5v-1.12a.5.5 0 0 0-.5-.5h-2.343a.5.5 0 0 1-.403-.796l4.744-6.453A.5.5 0 0 0 28 11.5h-2.87a.5.5 0 0 0-.41.214l-4.31 6.175a.5.5 0 0 1-.82 0l-4.31-6.175a.5.5 0 0 0-.41-.214zM37 4a1 1 0 0 1 0 2H3a1 1 0 1 1 0-2h34zm-4-4a1 1 0 0 1 0 2H7a1 1 0 1 1 0-2h26z"/></svg>