<svg width="30" height="30" viewBox="0 0 30 30" xmlns="http://www.w3.org/2000/svg"><path d="M25 0a5 5 0 0 1 5 5v20a5 5 0 0 1-5 5H5a5 5 0 0 1-5-5V5a5 5 0 0 1 5-5h20zM10.646 7.641A9.003 9.003 0 0 0 14 24.996a9.003 9.003 0 0 0 8.354-5.646A9 9 0 0 1 10.613 7.725zm9.854.355l-1.065 2.7a1.303 1.303 0 0 1-.735.734L16 12.496l2.7 1.065c.336.132.602.398.735.734l1.065 2.7 1.065-2.7c.132-.336.398-.602.734-.734l2.7-1.065-2.7-1.066a1.303 1.303 0 0 1-.734-.734l-1.065-2.7zm-4.829-3l-.548 1.388a1 1 0 0 1-.563.564l-1.389.548 1.389.547a1 1 0 0 1 .563.564l.548 1.389.548-1.39a1 1 0 0 1 .563-.563l1.39-.547-1.39-.548a1 1 0 0 1-.563-.564l-.548-1.388z" fill="#000" fill-rule="evenodd"/></svg>