<svg width="32" height="26" viewBox="0 0 32 26" xmlns="http://www.w3.org/2000/svg"><path d="M24 0H8a8 8 0 0 0-8 8v10a8 8 0 0 0 8 8h16a8 8 0 0 0 8-8V8a8 8 0 0 0-8-8zm-5 5a2 2 0 0 1 2 2h3.5a.5.5 0 1 1 0 1H21a2 2 0 0 1-2 2H9a2 2 0 0 1-2-2V7a2 2 0 0 1 2-2h10zM9.5 8a.5.5 0 0 1 0-1H20a1 1 0 0 0-1-1H9a1 1 0 0 0-1 1v1a1 1 0 0 0 1 1h10a1 1 0 0 0 1-1H9.5zm4.5 4a2 2 0 0 1 2 2v5a2 2 0 0 1-2 2H9a2 2 0 0 1-2-2v-5a2 2 0 0 1 2-2h5zm11-.9v3.4a2.9 2.9 0 0 1-2.9 2.9h-.801l.001 2.1c-.673-.383-1.173-.75-1.5-1.1-.327-.35-.76-.984-1.3-1.9.52-.961.953-1.628 1.3-2 .347-.372.847-.705 1.5-1l-.001 2.1h.801a1.1 1.1 0 0 0 1.1-1.1v-3.4H25zM11.5 18h-2a.5.5 0 1 0 0 1h2a.5.5 0 1 0 0-1zm2-2h-4a.5.5 0 1 0 0 1h4a.5.5 0 1 0 0-1zm0-2h-4a.5.5 0 1 0 0 1h4a.5.5 0 1 0 0-1z" fill="#000" fill-rule="evenodd"/></svg>