<svg xmlns="http://www.w3.org/2000/svg" width="40" height="33" viewBox="0 0 40 33"><path d="M21.448 33c2.358 0 4.418-.258 6.181-.774s3.138-1.238 4.127-2.167c.988-.928 1.482-2.006 1.482-3.233 0-.813-.136-1.49-.407-2.029a6.123 6.123 0 0 0-.954-1.401 14.48 14.48 0 0 1-.962-1.152 2.089 2.089 0 0 1-.417-1.282c0-.424.229-.81.685-1.16.457-.35 1.046-.7 1.769-1.05a96.781 96.781 0 0 0 2.297-1.151 13.51 13.51 0 0 0 2.289-1.497 7.327 7.327 0 0 0 1.768-2.08c.463-.809.694-1.78.694-2.915 0-1.674-.413-3.19-1.24-4.549-.826-1.358-2.005-2.53-3.537-3.516-1.531-.986-3.36-1.74-5.487-2.262C27.609.261 25.25 0 22.66 0c-3.386 0-6.467.398-9.241 1.195S8.259 3.133 6.26 4.617c-2 1.485-3.544 3.256-4.63 5.314C.543 11.989 0 14.267 0 16.767c0 2.43.514 4.64 1.543 6.629 1.029 1.989 2.491 3.7 4.387 5.133 1.895 1.433 4.155 2.536 6.78 3.31 2.623.774 5.536 1.161 8.738 1.161zm1.63-22.613c-.752 0-1.405-.27-1.96-.809-.554-.538-.832-1.186-.832-1.943 0-.768.278-1.418.832-1.952.555-.533 1.208-.8 1.96-.8.774 0 1.43.264 1.968.792.537.527.806 1.18.806 1.96 0 .757-.269 1.405-.806 1.943-.538.54-1.194.809-1.968.809zM14.218 13c-.971 0-1.792-.33-2.462-.99-.67-.658-1.006-1.47-1.006-2.433 0-.951.335-1.754 1.006-2.407.67-.654 1.49-.98 2.462-.98.947 0 1.76.326 2.436.98.676.653 1.014 1.456 1.014 2.407 0 .963-.338 1.775-1.014 2.434a3.365 3.365 0 0 1-2.436.989zm16.714-1.204a2.21 2.21 0 0 1-1.604-.654 2.132 2.132 0 0 1-.667-1.582c0-.607.222-1.132.667-1.573.445-.442.98-.662 1.604-.662.624 0 1.153.22 1.586.662.434.441.65.966.65 1.573a2.16 2.16 0 0 1-.65 1.582 2.153 2.153 0 0 1-1.586.654zM7.837 18.813c-.763 0-1.413-.27-1.95-.808-.538-.54-.807-1.181-.807-1.926 0-.734.275-1.37.824-1.91.549-.538 1.193-.807 1.933-.807.751 0 1.393.26 1.925.782.531.522.797 1.167.797 1.935a2.65 2.65 0 0 1-.797 1.926 2.605 2.605 0 0 1-1.925.808zm13.316 7.91c-.82 0-1.57-.2-2.245-.602a4.687 4.687 0 0 1-1.63-1.607 4.215 4.215 0 0 1-.616-2.245c0-.814.206-1.556.616-2.227.41-.67.953-1.206 1.63-1.607a4.318 4.318 0 0 1 2.245-.602c.82 0 1.572.2 2.254.602a4.592 4.592 0 0 1 1.63 1.607c.404.671.607 1.413.607 2.227 0 .837-.2 1.591-.598 2.262a4.453 4.453 0 0 1-1.622 1.599 4.445 4.445 0 0 1-2.271.593z"/></svg>