<svg xmlns="http://www.w3.org/2000/svg" width="260" height="480" viewBox="0 0 260 480"><g fill="#FFF" fill-rule="evenodd"><rect width="119" height="479" x="140.5" y=".5" fill-opacity=".2" stroke="#FFF" stroke-opacity=".6" rx="16"/><path d="M200 211c25.957 0 47 21.043 47 47s-21.043 47-47 47-47-21.043-47-47 21.043-47 47-47zm0 2c-24.853 0-45 20.147-45 45s20.147 45 45 45 45-20.147 45-45-20.147-45-45-45z"/><path d="M147 256a2 2 0 1 1 0 4 2 2 0 0 1 0-4zm0 1a1 1 0 1 0 0 2 1 1 0 0 0 0-2z" opacity=".8"/><circle cx="200" cy="205" r="2" opacity=".8"/><path d="M200 233c2.756 0 5 2.239 5 5v40c0 2.754-2.239 5-5 5l-.216-.005A5.004 5.004 0 0 1 195 278v-40c0-2.754 2.239-5 5-5zm0 1c-2.21 0-4 1.794-4 4.01v39.98c0 2.148 1.688 3.9 3.8 4.005l.2.005c2.21 0 4-1.794 4-4.01v-39.98a4.008 4.008 0 0 0-4-4.01z" opacity=".8"/><rect width="119" height="479" x=".5" y=".5" fill-opacity=".2" stroke="#FFF" stroke-opacity=".6" rx="16"/><path d="M29 166c12.703 0 23 10.297 23 23s-10.297 23-23 23-23-10.297-23-23 10.297-23 23-23zm0 2c-11.598 0-21 9.402-21 21s9.402 21 21 21 21-9.402 21-21-9.402-21-21-21z"/><path fill-opacity=".8" d="M38.17 186v3.93c0 1.32.55 1.93 1.38 1.93.89 0 1.42-.61 1.42-1.93V186h1.23v3.85c0 2.08-1.07 3-2.69 3-1.56 0-2.57-.87-2.57-2.99V186h1.23zm-20.1 0 .88 2.71c.24.79.45 1.59.62 2.34h.03c.18-.73.41-1.56.67-2.35l.93-2.7h1.6l.39 6.74h-1.2l-.13-2.75c-.04-.87-.09-1.92-.08-2.83h-.03c-.22.82-.5 1.73-.8 2.58l-.98 2.92h-.95l-.9-2.88c-.26-.86-.5-1.78-.68-2.62h-.02c-.03.88-.07 1.95-.12 2.87l-.15 2.71H16l.45-6.74h1.62zm10.49 0v1.01h-2.69v1.74h2.54v1h-2.54v1.98h2.84v1.01h-4.07V186h3.92zm2.83 0 1.74 2.89c.45.75.84 1.53 1.15 2.26h.02c-.08-.9-.11-1.77-.11-2.8V186h1.14v6.74h-1.27l-1.76-2.96c-.43-.74-.88-1.57-1.21-2.33l-.03.01c.05.87.06 1.76.06 2.87v2.41h-1.13V186h1.4z"/><path d="M91 166c12.703 0 23 10.297 23 23s-10.297 23-23 23-23-10.297-23-23 10.297-23 23-23zm0 2c-11.598 0-21 9.402-21 21s9.402 21 21 21 21-9.402 21-21-9.402-21-21-21z"/><path d="m83 185 7.275 4.2L83 193.397V185zm12.807.488v7.71H94.36v-7.71h1.446zm3.252 0v7.71h-1.446v-7.71h1.446z" opacity=".8"/><path d="M60 45c29.823 0 54 24.177 54 54s-24.177 54-54 54S6 128.823 6 99s24.177-54 54-54zm0 2C31.281 47 8 70.281 8 99s23.281 52 52 52 52-23.281 52-52-23.281-52-52-52zm0 98a2 2 0 1 1 0 4 2 2 0 0 1 0-4zm48-48a2 2 0 1 1 0 4 2 2 0 0 1 0-4zm-96 0a2 2 0 1 1 0 4 2 2 0 0 1 0-4zm48-48a2 2 0 1 1 0 4 2 2 0 0 1 0-4z"/><path d="M60 72c14.912 0 27 12.088 27 27s-12.088 27-27 27-27-12.088-27-27 12.088-27 27-27zm0 1c-14.36 0-26 11.64-26 26s11.64 26 26 26 26-11.64 26-26-11.64-26-26-26z" opacity=".8"/></g></svg>