<svg xmlns="http://www.w3.org/2000/svg" width="44" height="44" viewBox="0 0 44 44"><g fill="none" fill-rule="evenodd"><path fill="#FFF" d="M12.559 0h18.882c4.367 0 5.95.455 7.547 1.309a8.902 8.902 0 0 1 3.703 3.703C43.545 6.608 44 8.192 44 12.559v18.882c0 4.367-.455 5.95-1.309 7.547a8.902 8.902 0 0 1-3.703 3.703c-1.596.854-3.18 1.309-7.547 1.309H12.559c-4.367 0-5.95-.455-7.547-1.309a8.902 8.902 0 0 1-3.703-3.703C.455 37.392 0 35.808 0 31.441V12.559c0-4.367.455-5.95 1.309-7.547a8.902 8.902 0 0 1 3.703-3.703C6.608.455 8.192 0 12.559 0z"/><path fill="#121418" d="m22.394 31.122 1.752 1.458c.188.157.228.43.092.633l-1.753 2.625a.478.478 0 0 1-.794 0l-1.753-2.625a.478.478 0 0 1 .092-.633l1.752-1.458a.478.478 0 0 1 .612 0zM13.33 17.035c4.397 0 7.962 3.56 7.962 7.95 0 4.39-3.565 7.95-7.962 7.95s-7.962-3.56-7.962-7.95c0-4.39 3.565-7.95 7.962-7.95zm17.516 0c4.397 0 7.962 3.56 7.962 7.95 0 4.39-3.565 7.95-7.962 7.95s-7.962-3.56-7.962-7.95c0-4.39 3.565-7.95 7.962-7.95zM13.33 19.42a5.57 5.57 0 0 0-5.573 5.565 5.57 5.57 0 0 0 5.573 5.565 5.57 5.57 0 0 0 5.573-5.565 5.57 5.57 0 0 0-5.573-5.565zm17.516 0a5.57 5.57 0 0 0-5.573 5.565 5.57 5.57 0 0 0 5.573 5.565 5.57 5.57 0 0 0 5.573-5.565 5.57 5.57 0 0 0-5.573-5.565zm3.722-10.075c.593-.26 1.288 0 1.563.588.279.597.02 1.307-.578 1.585L22.656 16.89l-.025.011a1.19 1.19 0 0 1-.544.1c-.18.01-.366-.022-.542-.1l-.025-.01-12.898-5.374a1.191 1.191 0 0 1-.577-1.585c.275-.589.97-.848 1.562-.588l.025.011 12.455 5.189 12.457-5.189z"/></g></svg>