<svg xmlns="http://www.w3.org/2000/svg" width="500" height="500" viewBox="0 0 500 500">
  <path fill="#FFF" fill-rule="evenodd" d="M358.283734,5.76590796e-15 C407.909289,-3.35015857e-15 425.904714,5.16705062 444.047075,14.8696915 C462.189436,24.5723324 476.427668,38.8105636 486.130308,56.9529247 C495.832949,75.0952858 501,93.0907112 501,142.716266 L501,357.283734 C501,406.909289 495.832949,424.904714 486.130308,443.047075 C476.427668,461.189436 462.189436,475.427668 444.047075,485.130308 C425.904714,494.832949 407.909289,500 358.283734,500 L143.716266,500 C94.0907112,500 76.0952858,494.832949 57.9529247,485.130308 C39.8105636,475.427668 25.5723324,461.189436 15.8696915,443.047075 C6.16705062,424.904714 1,406.909289 1,357.283734 L1,142.716266 C1,93.0907112 6.16705062,75.0952858 15.8696915,56.9529247 C25.5723324,38.8105636 39.8105636,24.5723324 57.9529247,14.8696915 C76.0952858,5.16705062 94.0907112,3.35015857e-15 143.716266,-5.76590796e-15 L358.283734,5.76590796e-15 Z M254.841106,368.200922 C252.616031,366.346692 249.383969,366.346692 247.158894,368.200922 L247.158894,368.200922 L225.141852,386.548456 C222.786265,388.511446 222.289787,391.93468 223.990657,394.485985 L223.990657,394.485985 L246.007698,427.511547 C246.447107,428.170661 247.012685,428.736239 247.671799,429.175648 C250.428971,431.013763 254.154187,430.268719 255.992302,427.511547 L255.992302,427.511547 L278.009343,394.485985 C279.710213,391.93468 279.213735,388.511446 276.858148,386.548456 L276.858148,386.548456 Z M141,185 C85.771525,185 41,229.771525 41,285 C41,340.228475 85.771525,385 141,385 C196.228475,385 241,340.228475 241,285 C241,229.771525 196.228475,185 141,185 Z M361,185 C305.771525,185 261,229.771525 261,285 C261,340.228475 305.771525,385 361,385 C416.228475,385 461,340.228475 461,285 C461,229.771525 416.228475,185 361,185 Z M141,215 C179.659932,215 211,246.340068 211,285 C211,323.659932 179.659932,355 141,355 C102.340068,355 71,323.659932 71,285 C71,246.340068 102.340068,215 141,215 Z M361,215 C399.659932,215 431,246.340068 431,285 C431,323.659932 399.659932,355 361,355 C322.340068,355 291,323.659932 291,285 C291,246.340068 322.340068,215 361,215 Z M409.10106,87.6550015 C405.647936,80.2497526 396.918763,76.9883689 389.476501,80.2595716 L389.476501,80.2595716 L389.167169,80.3996586 L250.356,145.126696 L111.54598,80.3996586 L111.236648,80.2595716 C103.794386,76.9883689 95.0652136,80.2497526 91.6120894,87.6550015 C88.1110051,95.163101 91.3593327,104.087808 98.8674322,107.588892 L98.8674322,107.588892 L243.876678,175.207814 L244.18601,175.347901 C246.192298,176.229753 248.29211,176.636859 250.356281,176.616016 C252.42104,176.636859 254.520852,176.229753 256.527139,175.347901 L256.527139,175.347901 L256.836471,175.207814 L401.845717,107.588892 L402.143763,107.445972 C409.439239,103.850068 412.555463,95.062993 409.10106,87.6550015 Z"/>
</svg>
