<svg width="18" height="16" viewBox="0 0 18 16" xmlns="http://www.w3.org/2000/svg"><g fill="#FFF" fill-rule="evenodd"><path d="M3 0h12a3 3 0 0 1 3 3v10a3 3 0 0 1-3 3H3a3 3 0 0 1-3-3V3a3 3 0 0 1 3-3z" fill-rule="nonzero" opacity=".3"/><path d="M8 3h7a1 1 0 0 1 0 2H8a1 1 0 1 1 0-2zm0 8h7a1 1 0 0 1 0 2H8a1 1 0 0 1 0-2zM3 3h2a1 1 0 1 1 0 2H3a1 1 0 1 1 0-2zm0 8h2a1 1 0 0 1 0 2H3a1 1 0 0 1 0-2z" opacity=".5"/><path d="M8 7h7a1 1 0 0 1 0 2H8a1 1 0 1 1 0-2zM3 7h2a1 1 0 1 1 0 2H3a1 1 0 1 1 0-2z"/></g></svg>