<svg width="20" height="20" viewBox="0 0 20 20" xmlns="http://www.w3.org/2000/svg"><g fill="#FFF" fill-rule="evenodd">

<path d="M3 20a3 3 0 0 1-3-3V3a3 3 0 0 1 3-3h1.5a.5.5 0 0 1 0 1H3a2 2 0 0 0-1.995 1.85L1 3v14a2 2 0 0 0 2 2h1.5a.5.5 0 1 1 0 1H3zm12.41-.008A.5.5 0 0 1 15.5 19H17a2 2 0 0 0 2-2V3a2 2 0 0 0-2-2h-1.5l-.09-.008a.5.5 0 0 1-.402-.402L15 .5a.5.5 0 0 1 .5-.5H17a3 3 0 0 1 3 3v14a3 3 0 0 1-3 3h-1.5z" opacity=".5"/>

<path d="M4.5 13h11a.5.5 0 1 1 0 1h-11a.5.5 0 1 1 0-1zm0 3h6a.5.5 0 1 1 0 1h-6a.5.5 0 1 1 0-1zm0-6h11a.5.5 0 1 1 0 1h-11a.5.5 0 1 1 0-1z"/>

<path d="M5 3h10a1 1 0 0 1 1 1v3a1 1 0 0 1-1 1H5a1 1 0 0 1-1-1V4a1 1 0 0 1 1-1z" opacity=".75"/></g></svg>