<svg xmlns="http://www.w3.org/2000/svg" width="520" height="180" viewBox="0 0 520 180"><g fill="none" fill-rule="evenodd"><path fill="#303438" d="M128.61 42.974a20.232 20.232 0 0 1 8.416 8.417c1.94 3.628 2.974 7.227 2.974 17.152v42.914c0 9.925-1.033 13.524-2.974 17.152a20.232 20.232 0 0 1-8.417 8.417c-3.628 1.94-7.227 2.974-17.152 2.974H68.543c-9.925 0-13.524-1.033-17.152-2.974a20.232 20.232 0 0 1-8.417-8.417c-1.907-3.564-2.937-7.1-2.973-16.636L40 68.543c0-9.925 1.033-13.524 2.974-17.152a20.232 20.232 0 0 1 8.417-8.417c3.564-1.907 7.1-2.937 16.636-2.973l43.43-.001c9.925 0 13.524 1.033 17.152 2.974zm-37.716 67.758a1.086 1.086 0 0 0-1.388 0l-3.984 3.314a1.086 1.086 0 0 0-.208 1.438l3.983 5.965a1.086 1.086 0 0 0 1.806 0l3.983-5.965a1.086 1.086 0 0 0-.208-1.438zM70.295 78.715c-9.993 0-18.095 8.09-18.095 18.068 0 9.98 8.102 18.069 18.095 18.069 9.994 0 18.095-8.09 18.095-18.069 0-9.978-8.101-18.068-18.095-18.068zm39.81 0c-9.994 0-18.095 8.09-18.095 18.068 0 9.98 8.101 18.069 18.095 18.069 9.993 0 18.095-8.09 18.095-18.069 0-9.978-8.102-18.068-18.095-18.068zm-39.81 5.42c6.996 0 12.667 5.663 12.667 12.648 0 6.986-5.671 12.648-12.667 12.648-6.995 0-12.666-5.662-12.666-12.648 0-6.985 5.67-12.647 12.666-12.647zm39.81 0c6.995 0 12.666 5.663 12.666 12.648 0 6.986-5.67 12.648-12.666 12.648s-12.667-5.662-12.667-12.648c0-6.985 5.671-12.647 12.667-12.647zm12.01-21.56a2.717 2.717 0 0 0-3.551-1.337l-.056.026-28.309 11.793-28.308-11.793-.056-.026a2.717 2.717 0 0 0-3.551 1.337 2.708 2.708 0 0 0 1.312 3.602L88.91 78.389l.056.025c.401.177.824.248 1.234.226.412.022.834-.05 1.235-.226l.056-.025 29.313-12.212.153-.077a2.708 2.708 0 0 0 1.16-3.525z"/><g fill-rule="nonzero"><path fill="#303438" d="M446.464 86.464a5 5 0 0 1 6.89-.172l.182.172 25 25a5 5 0 0 1-6.89 7.244l-.182-.172-25-25a5 5 0 0 1 0-7.072z"/><path fill="#303438" d="M478.536 61.464a5 5 0 0 0-6.89-.172l-.182.172-50 50a5 5 0 0 0 6.89 7.244l.182-.172 50-50a5 5 0 0 0 0-7.072z"/><path fill="#7F8994" d="M268.536 61.464a5 5 0 0 0-6.89-.172l-.182.172-50 50a5 5 0 0 0 6.89 7.244l.182-.172 50-50a5 5 0 0 0 0-7.072z"/><path fill="#303438" d="M265 60a5 5 0 0 0-4.995 4.783L260 65v50a5 5 0 0 0 9.995.217L270 115V65a5 5 0 0 0-5-5zM425 60a5 5 0 0 0-4.995 4.783L420 65v50a5 5 0 0 0 9.995.217L430 115V65a5 5 0 0 0-5-5z"/><path fill="#7F8994" d="M161.464 61.464a5 5 0 0 1 6.89-.172l.182.172 50 50a5 5 0 0 1-6.89 7.244l-.182-.172-50-50a5 5 0 0 1 0-7.072z"/><path fill="#303438" d="M265 110a5 5 0 0 0-.217 9.995L265 120h66a5 5 0 0 0 .217-9.995L331 110h-66z"/><path fill="#7F8994" d="M330 60c-16.569 0-30 13.431-30 30 0 16.569 13.431 30 30 30 16.569 0 30-13.431 30-30 0-16.569-13.431-30-30-30zm0 10c11.046 0 20 8.954 20 20s-8.954 20-20 20-20-8.954-20-20 8.954-20 20-20z"/><path fill="#7F8994" d="M380 60c-16.569 0-30 13.431-30 30 0 16.569 13.431 30 30 30 16.569 0 30-13.431 30-30 0-16.569-13.431-30-30-30zm0 10c11.046 0 20 8.954 20 20s-8.954 20-20 20-20-8.954-20-20 8.954-20 20-20z"/></g></g></svg>