<svg xmlns="http://www.w3.org/2000/svg" width="500" height="500" viewBox="0 0 500 500">
  <defs>
    <linearGradient id="vlook-color-a" x1="50%" x2="50%" y1="0%" y2="98.196%">
      <stop offset="0%" stop-color="#6649F5"/>
      <stop offset="100%" stop-color="#0B72D9"/>
    </linearGradient>
  </defs>
  <g fill="none" fill-rule="evenodd">
    <path fill="url(#vlook-color-a)" d="M142.716266,-5.76590796e-15 L357.283734,5.76590796e-15 C406.909289,-3.35015857e-15 424.904714,5.16705062 443.047075,14.8696915 C461.189436,24.5723324 475.427668,38.8105636 485.130308,56.9529247 C494.832949,75.0952858 500,93.0907112 500,142.716266 L500,357.283734 C500,406.909289 494.832949,424.904714 485.130308,443.047075 C475.427668,461.189436 461.189436,475.427668 443.047075,485.130308 C424.904714,494.832949 406.909289,500 357.283734,500 L142.716266,500 C93.0907112,500 75.0952858,494.832949 56.9529247,485.130308 C38.8105636,475.427668 24.5723324,461.189436 14.8696915,443.047075 C5.16705062,424.904714 2.23343905e-15,406.909289 -3.84393864e-15,357.283734 L3.84393864e-15,142.716266 C-2.23343905e-15,93.0907112 5.16705062,75.0952858 14.8696915,56.9529247 C24.5723324,38.8105636 38.8105636,24.5723324 56.9529247,14.8696915 C75.0952858,5.16705062 93.0907112,3.35015857e-15 142.716266,-5.76590796e-15 Z"/>
    <path fill="#FFF" d="M213.841106,289.210226 L235.858148,307.557761 C238.213735,309.52075 238.710213,312.943984 237.009343,315.49529 L214.992302,348.520852 C213.154187,351.278024 209.428971,352.023067 206.671799,350.184952 C206.012685,349.745543 205.447107,349.179965 205.007698,348.520852 L182.990657,315.49529 C181.289787,312.943984 181.786265,309.52075 184.141852,307.557761 L206.158894,289.210226 C208.383969,287.355996 211.616031,287.355996 213.841106,289.210226 Z M100,106.009304 C155.228475,106.009304 200,150.780829 200,206.009304 C200,261.237779 155.228475,306.009304 100,306.009304 C44.771525,306.009304 0,261.237779 0,206.009304 C0,150.780829 44.771525,106.009304 100,106.009304 Z M320,106.009304 C375.228475,106.009304 420,150.780829 420,206.009304 C420,261.237779 375.228475,306.009304 320,306.009304 C264.771525,306.009304 220,261.237779 220,206.009304 C220,150.780829 264.771525,106.009304 320,106.009304 Z M100,136.009304 C61.3400675,136.009304 30,167.349372 30,206.009304 C30,244.669237 61.3400675,276.009304 100,276.009304 C138.659932,276.009304 170,244.669237 170,206.009304 C170,167.349372 138.659932,136.009304 100,136.009304 Z M320,136.009304 C281.340068,136.009304 250,167.349372 250,206.009304 C250,244.669237 281.340068,276.009304 320,276.009304 C358.659932,276.009304 390,244.669237 390,206.009304 C390,167.349372 358.659932,136.009304 320,136.009304 Z M348.476501,1.26887585 C355.918763,-2.00232688 364.647936,1.25905681 368.10106,8.66430568 C371.602144,16.1724052 368.353817,25.0971121 360.845717,28.5981964 L360.845717,28.5981964 L215.836471,96.2171183 L215.527139,96.3572052 C213.520852,97.2390572 211.42104,97.6461628 209.356281,97.6253204 C207.29211,97.6461628 205.192298,97.2390572 203.18601,96.3572052 L202.876678,96.2171183 L57.8674322,28.5981964 C50.3593327,25.0971121 47.1110051,16.1724052 50.6120894,8.66430568 C54.0652136,1.25905681 62.7943858,-2.00232688 70.2366482,1.26887585 L70.5459801,1.4089628 L209.356,66.136 L348.167169,1.4089628 Z" transform="translate(40 78.99)"/>
  </g>
</svg>
