<?xml version="1.0" encoding="UTF-8"?>
<svg width="154.821075px" height="25.0021886px" viewBox="0 0 154.821075 25.0021886" version="1.1" xmlns="http://www.w3.org/2000/svg" xmlns:xlink="http://www.w3.org/1999/xlink">
    <title>bing</title>
    <g id="Other-Icons" stroke="none" stroke-width="1" fill="none" fill-rule="evenodd">
        <g id="画板" transform="translate(-880.000000, -131.000000)" fill-rule="nonzero">
            <g id="bing" transform="translate(880.000000, 131.000000)">
                <g id="编组">
                    <polygon id="路径" fill="#F26522" points="11.35 0 0 0 0 11.35 11.35 11.35"></polygon>
                    <polygon id="路径" fill="#8DC63F" points="23.88 0 12.53 0 12.53 11.35 23.88 11.35"></polygon>
                    <polygon id="路径" fill="#00AEEF" points="11.35 12.53 0 12.53 0 23.88 11.35 23.88"></polygon>
                    <polygon id="路径" fill="#FFC20E" points="23.88 12.53 12.53 12.53 12.53 23.88 23.88 23.88"></polygon>
                </g>
                <path d="M84.6289561,8.06008022 C85.5980661,8.07744187 86.5559018,8.28102595 87.45,8.66092526 L87.45,12.4216925 C87.1976461,12.1445945 86.9392533,11.8993769 86.6667356,11.712021 C86.3770486,11.5128611 86.0320305,11.3520165 85.6573416,11.2092431 C85.3049215,11.0795698 84.9326413,11.012149 84.56,11.01 C84.2247607,11.01 83.9554646,11.0681327 83.771155,11.1934633 C83.9624423,12.158308 84.3988277,12.3585715 85.0781885,12.6267667 C86.1391987,13.0578021 86.8784235,13.545924 87.3112121,14.0786271 C87.7702095,14.6553161 88,15.3364009 88,16.15 C88,17.2717413 87.565867,18.1819536 86.7017028,18.8709493 C85.8850716,19.5220472 84.775331,19.86 83.375539,19.8599801 C82.2613053,19.8500385 81.1609772,19.5999197 80.15,19.1250995 L80.15,15.4059278 C80.7744349,15.9542089 81.450878,16.4112512 82.2393597,16.6895563 C82.6779975,16.8474659 83.0899594,16.93 83.45,16.93 C83.8774373,16.93 84.1972526,16.8868264 84.4037562,16.7705146 C84.55,16.2402335 84.4665124,16.0874307 84.3246559,15.9598596 C84.0674299,15.7515634 83.6004096,15.5146798 82.9180607,15.2416918 C81.9305019,14.8311336 81.2416532,14.3544139 80.821185,13.8343611 C80.373695,13.2808867 80.15,12.6009467 80.15,11.75 C80.15,10.6624168 80.5817444,9.7613189 81.4376525,9.0695656 C82.2692764,8.40426646 83.3196379,8.06 84.6289561,8.06008022 Z M74.39,8.09 C76.1489925,8.09 77.5136858,8.63290128 78.5110732,9.67412988 C79.5021922,10.7088146 80,12.1190894 80,13.9 C80,15.7111094 79.4617874,17.1535191 78.4094987,18.2275621 C77.2700573,19.3413078 75.7178621,19.9291764 74.1266107,19.8499896 C72.39098,19.8472884 71.0229276,19.3191244 69.9983423,18.305439 C68.9235879,17.1656305 68.3686895,15.6528005 68.4500101,14.1061066 C68.4526975,12.261073 68.9909487,10.8045313 70.0310498,9.73192708 C71.0771979,8.65308691 72.5316775,8.09 74.39,8.09 Z M74.4417117,11.1281871 L74.27,11.13 C73.549825,11.13 72.9910923,11.3602131 72.5919428,11.8326758 C72.15737,12.354181 71.97,13.0943326 71.97,14.04 C71.97,14.9610427 72.154082,15.6795803 72.5791584,16.1740568 C72.9802648,16.64065 73.5525664,16.84 74.29,16.84 C74.9847986,16.84 75.5325004,16.6344486 75.9036369,16.1826303 C76.3057043,15.6931569 76.49,14.9427002 76.49,13.98 C76.49,13.0312374 76.3078957,12.2925071 75.8903717,11.8053957 C75.4930493,11.3481816 74.9041214,11.0978873 74.27,11.13 Z M93.7096745,8.08121848 L93.9948173,8.09001287 C95.7479756,8.09306096 97.1188645,8.63734295 98.1029763,9.67612768 C99.0827405,10.7103232 99.59,12.1203367 99.59,13.9 C99.59,15.7111094 99.0517874,17.1535191 97.9994511,18.2276086 C96.8625685,19.3385573 95.3148191,19.9261925 93.72717,19.8499906 C91.980656,19.8474165 90.612824,19.3190219 89.5883423,18.305439 C88.5135879,17.1656305 87.9586895,15.6528005 88.0400101,14.1061066 C88.0426975,12.261073 88.5809487,10.8045313 89.6210498,9.73192708 C90.6562039,8.72582894 92.0098251,8.1470157 93.4257374,8.08640443 L93.7096745,8.08121848 Z M94.0417092,11.1281841 L93.87,11.13 C93.1557896,11.13 92.5918009,11.3555626 92.1928127,11.8199177 C91.729118,12.449938 91.5043214,13.2244602 91.56,14.04 C91.56,14.9610427 91.744082,15.6795803 92.1691584,16.1740568 C92.5706881,16.6411424 93.1438957,16.84 93.89,16.84 C94.5847986,16.84 95.1325004,16.6344486 95.5036369,16.1826303 C95.9057043,15.6931569 96.09,14.9427002 96.09,13.98 C96.09,13.0287 95.896583,12.289434 95.4870129,11.8014356 C95.0930493,11.3481816 94.5041214,11.0978873 93.87,11.13 Z M58.5505811,8.08000034 C59.5920962,8.08121075 60.6178494,8.34822944 61.53,8.85817429 L61.53,12.6259732 C61.0397453,12.0336543 60.4113825,11.5819535 59.7071256,11.3053568 C59.3823786,11.1777388 59.0367679,11.1114968 58.69,11.11 C57.8941401,11.11 57.243058,11.3600065 56.7551357,11.8815786 C56.2540662,12.4172046 56,13.1469311 56,14.05 C56,14.93555 56.2297363,15.6355967 56.7097007,16.1327027 C57.135483,16.5736915 57.7105944,16.7948641 58.41655,16.8337155 C59.0338254,16.8125465 59.3311449,16.748408 59.6398004,16.6336009 C60.3990444,16.3402567 61.0268189,15.8828966 61.52,15.2559276 L61.52,18.9581619 C61.0447462,19.2727734 60.4641462,19.5357131 59.8280977,19.6681751 C59.2634652,19.7932029 58.6865579,19.8542203 58.1080654,19.8500835 C56.595548,19.9096505 55.1257031,19.3397426 54.0406447,18.2676547 C53.0018437,17.1938918 52.4456135,15.7432548 52.500005,14.2505052 C52.5018769,12.4661592 53.0315762,11.0002047 54.0778345,9.84609453 C55.1249757,8.67896842 56.6123389,8.08 58.5505811,8.08000034 Z M104.606901,3.20482595 L104.833525,3.21001263 C105.153816,3.21061121 105.431774,3.2324329 105.66467,3.26419979 C106.102878,3.32135736 106.447595,3.44198855 106.7,3.57089924 L106.7,6.135 L110.04,5.1142536 L110.04,8.34 L112.5,8.34 L112.5,11.31 L110.05,11.31 L110.05,15.61 C110.05,16.0794322 110.10094,16.4325165 110.274498,16.6287131 C110.420966,16.7942851 110.659725,16.8473379 110.956884,16.849897 C111.233675,16.8212715 111.500547,16.7305601 111.737568,16.5844068 L112.5,16.1142717 L112.5,19.2564049 C112.074915,19.5481464 111.774702,19.6553945 111.335435,19.7408077 C110.943023,19.81711 110.572424,19.85 110.18,19.85 C108.999552,19.85 108.117449,19.5190295 107.52003,18.8863364 C106.951669,18.2611392 106.63,17.3486844 106.63,16.09 L106.63,11.31 L104.02,11.31 L104.02,19.61 L100.57,19.61 L100.57,11.31 L98.85,11.31 L98.85,8.33 L100.57,8.33 L100.57,7.40918717 C100.529515,6.2717546 100.968349,5.16936643 101.779822,4.37087647 C102.590398,3.57326964 103.698165,3.15232093 104.833525,3.21001263 Z M105.1,6.22 C104.759018,6.22 104.487743,6.31102415 104.296096,6.51968434 C104.092885,6.76581268 104.02,7.12512414 104.02,7.59 L104.02,8.34 L106.62,8.34 L106.619,6.769 L105.970484,6.43420984 C105.75459,6.32266075 105.519986,6.25336492 105.280405,6.22941334 Z M67.9013175,8.15000174 C68.4019948,8.15132098 68.8793764,8.25201351 69.32,8.46772128 L69.32,12.5460431 C68.9450222,11.7626245 68.1803273,11.3299351 67.3926311,11.3498404 C66.9330612,11.35 66.5663186,11.5524923 66.2704344,11.9223475 C65.9247557,12.3544459 65.76,13.0273534 65.76,13.91 L65.76,19.61 L62.34,19.61 L62.34,8.32 L65.76,8.32 L65.76,8.91840546 C66.5417336,8.34456996 67.1664469,8.15 67.9013175,8.15000174 Z M34.9526346,4.27 L38.7363416,14.046878 L42.7962317,4.27 L47.05,4.27 L47.05,19.6 L43.57,19.6 L43.57,10.4727487 L39.9288526,19.6 L37.6036569,19.6 L33.8632204,10.4085114 L33.8386661,19.6 L30.54,19.6 L30.54,4.27 L34.9526346,4.27 Z M51.8,8.33 L51.8,19.6 L48.38,19.6 L48.38,8.33 L51.8,8.33 Z M50.0931777,3.96000744 C50.6051887,3.94750105 51.1014942,4.13798676 51.4737076,4.4900805 C51.8476786,4.8438368 52.0657171,5.33172295 52.0798125,5.84630929 C52.08,6.40694705 51.8868339,6.8571413 51.4902255,7.22639675 C51.1194987,7.57064307 50.6439196,7.76 50.1,7.76 C49.5522792,7.76 49.0863735,7.57002628 48.7192907,7.21594699 C48.3699096,6.89066106 48.1810627,6.50128422 48.1387649,6.05010785 C48.127816,5.29608709 48.3449715,4.85186751 48.7292907,4.49405301 C49.1135697,4.13627602 49.5633629,3.96149652 50.0931777,3.96000744 Z" id="形状" stroke="#FFFFFF" fill="#000000"></path>
                <path d="M148.51,8.38 C149.517043,8.38 150.352069,8.65749181 151.01736,9.20527407 L151.034082,8.62 L154.320537,8.62 L154.31,18.43 C154.31,20.4533192 153.776205,21.955067 152.763226,22.9626194 C151.753314,23.9671213 150.247724,24.4990904 148.215445,24.5000044 C146.85166,24.5303084 145.497764,24.2449589 144.26,23.664281 L144.26,20.3209995 C145.541964,21.2352043 146.773996,21.69 147.91,21.69 C148.946281,21.69 149.74184,21.4611442 150.26631,20.9453912 C150.700243,20.5186701 150.93435,19.9074971 151.000332,19.1278658 L151.013,18.925 L150.93211,18.996038 C150.797983,19.1062874 150.657777,19.2081366 150.512314,19.301101 L150.290278,19.4338234 C149.618498,19.8085445 148.850159,20.0016302 148.056755,19.9703178 C146.762744,20.0059588 145.5235,19.4456314 144.695509,18.4496349 C143.816676,17.3069481 143.37949,15.9075947 143.450007,14.4870918 C143.452079,12.6371569 143.899704,11.1821126 144.780312,10.0867215 C145.695984,8.94771508 146.921157,8.38 148.51,8.38 Z M149.07,11.21 C148.377435,11.21 147.830519,11.4643566 147.436572,11.9715469 C146.967249,12.6688969 146.739741,13.5012038 146.79,14.37 C146.79,15.2390205 146.985355,15.9321564 147.386803,16.4557842 C147.760749,16.9230458 148.252907,17.15 148.87,17.15 C149.512442,17.15 150.029246,16.9215656 150.423712,16.4707477 C150.847097,15.9795995 151.04,15.363305 151.04,14.6 L151.04,13.29 C151.04,12.7141561 150.84725,12.218374 150.465686,11.812455 C150.107828,11.4153819 149.604934,11.1982232 149.07,11.21 Z M122,4.57 C123.500559,4.57 124.68638,4.91478528 125.56,5.57 C126.496752,6.2725641 126.96,7.18756345 126.96,8.31 C126.96,9.22494253 126.694286,10.0242857 126.18,10.71 C125.919811,11.0393245 125.623812,11.3179233 125.295068,11.5488562 C125.792612,11.7676353 126.218264,12.0663486 126.576512,12.44943 C127.253785,13.1381819 127.6,14.0525912 127.6,15.17 C127.6,16.5426298 127.054717,17.6651685 125.977258,18.5044524 C124.946624,19.307262 123.636357,19.74 122.05,19.74 L117,19.74 L117,4.57 L122,4.57 Z M121.55,13.38 L120.35,13.38 L120.35,16.86 L121.85,16.86 C122.582609,16.86 123.160969,16.7153763 123.555941,16.3792303 C123.926632,16.0625969 124.1,15.6252668 124.1,15.08 C124.1,14.5331655 123.930197,14.1103102 123.547116,13.8339893 C123.104449,13.5146888 122.432782,13.38 121.55,13.38 Z M121.56,7.46 L120.35,7.46 L120.35,10.49 L121.37,10.49 C122.047272,10.49 122.585232,10.3417915 122.969697,10.0359319 C123.327971,9.72913223 123.49,9.3111081 123.49,8.78 C123.49,8.35779643 123.370012,8.02783663 123.084427,7.81394154 C122.745975,7.56045074 122.230745,7.46 121.56,7.46 Z M131.620494,8.62 L131.609506,19.74 L128.32,19.74 L128.32,8.62 L131.620494,8.62 Z M139.076777,8.38000409 C140.350257,8.38154145 141.31094,8.8165513 141.977222,9.64367819 C142.616404,10.4261261 142.96,11.5542283 142.96,13.06 L142.96,19.74 L139.67,19.74 L139.67,13.54 C139.67,12.7259835 139.549234,12.1061741 139.261452,11.6975236 C139.018645,11.3527367 138.647455,11.2 138.17,11.2 C137.621503,11.2 137.167782,11.4127554 136.812449,11.8220752 C136.469641,12.2291447 136.273002,12.7371356 136.2504,13.2653544 L136.249967,19.74 L132.95,19.74 L132.95,8.62 L136.25,8.62 L136.25,9.40395136 C136.453961,9.22696075 136.673483,9.07043213 136.905355,8.93633712 C137.555238,8.56050128 138.302135,8.36070958 139.076777,8.38000409 Z M129.98,3.89 C130.493016,3.89 130.936112,4.05646048 131.299704,4.39311966 C131.675085,4.74069422 131.86,5.18437318 131.86,5.7 C131.86,6.19997696 131.68252,6.61837573 131.299704,6.98688034 C130.986962,7.27645653 130.614635,7.44684884 130.182763,7.48963419 C129.435822,7.50249575 129.010994,7.31137123 128.677818,7.00370466 C128.299323,6.66726475 128.11,6.2348913 128.11,5.7 C128.11,5.17043732 128.294915,4.74069422 128.670296,4.39311966 C129.034853,4.05556708 129.465971,3.89 129.98,3.89 Z" id="形状" stroke="#FFFFFF" fill="#000000"></path>
            </g>
        </g>
    </g>
</svg>