<svg xmlns="http://www.w3.org/2000/svg" width="144" height="28" viewBox="0 0 144 28"><g fill="none" fill-rule="evenodd"><rect width="144" height="28" fill="#303438" rx="8"/><path fill="#E0E4E8" fill-rule="nonzero" d="M32.03 20.26c1.372-2.016 1.708-5.152 1.75-7.476h.672c.602 1.68 1.4 3.094 2.45 4.228-1.078.742-2.352 1.288-3.724 1.624a6.55 6.55 0 0 1 .952 1.512c1.512-.462 2.884-1.106 4.06-1.96 1.12.84 2.45 1.47 4.074 1.89.238-.434.686-1.12 1.05-1.456-1.484-.336-2.758-.854-3.808-1.554 1.344-1.372 2.324-3.164 2.898-5.502l-1.148-.462-.308.07h-7.154V9.746c3.066-.126 6.384-.462 8.834-1.19l-1.372-1.344c-2.156.644-5.866.98-9.184 1.078v3.766c0 2.142-.112 5.152-1.512 7.196.42.182 1.162.7 1.47 1.008zm6.132-4.284c-.896-.896-1.582-1.96-2.072-3.192h4.13a8.84 8.84 0 0 1-2.058 3.192zm7.238-2.562c.476-.77.882-1.792 1.218-2.898h1.232c-.196.56-.406 1.092-.602 1.484l1.204.406c.42-.784.896-1.988 1.232-3.066l-1.022-.308-.238.07h-1.428c.126-.56.238-1.106.336-1.666l-1.484-.28c-.294 1.974-.812 3.962-1.61 5.222.322.238.924.784 1.162 1.036zm12.124-.588V11.58h-3.542v-.658h2.646V8.024h-2.646v-.868h-1.484v.868h-2.674v2.898h2.674v.658h-3.374v1.246h8.4zm-5.026-2.982h-1.33v-.742h1.33v.742zm2.702 0h-1.218v-.742H55.2v.742zm-9.142 10.388c.238-.308.672-.672 3.136-2.562-.168-.322-.364-.924-.448-1.358l-1.19.882V12.28H46.1v5.278c0 .784-.56 1.386-.882 1.652.252.224.686.728.84 1.022zm5.166-2.506v-3.15h3.85v3.15h1.582v-4.424h-6.958v4.424h1.526zm-1.554 2.576c3.486-.784 4.284-2.31 4.284-3.934v-1.386h-1.526v1.33c0 1.078-.448 2.058-3.64 2.702.28.28.728.938.882 1.288zm6.916-.07.756-1.134c-.686-.49-2.058-1.12-3.08-1.484l-.714 1.022c1.036.42 2.38 1.106 3.038 1.596zM65 15.472c.98 0 1.792-.812 1.792-1.792S65.98 11.888 65 11.888s-1.792.812-1.792 1.792.812 1.792 1.792 1.792zM75.346 19v-4.2h3.682v-1.736h-3.682v-2.702h4.312V8.626h-6.384V19h2.072zm9.1.196c.966 0 1.96-.336 2.73-.868l-.7-1.26c-.56.35-1.12.546-1.764.546-1.162 0-2.002-.672-2.17-1.96h4.83c.056-.182.098-.56.098-.952 0-2.156-1.12-3.738-3.276-3.738-1.862 0-3.654 1.582-3.654 4.116 0 2.59 1.708 4.116 3.906 4.116zm1.26-4.914h-3.192c.154-1.134.882-1.722 1.708-1.722 1.008 0 1.484.672 1.484 1.722zm6.874 4.914c.966 0 1.96-.336 2.73-.868l-.7-1.26c-.56.35-1.12.546-1.764.546-1.162 0-2.002-.672-2.17-1.96h4.83c.056-.182.098-.56.098-.952 0-2.156-1.12-3.738-3.276-3.738-1.862 0-3.654 1.582-3.654 4.116 0 2.59 1.708 4.116 3.906 4.116zm1.26-4.914h-3.192c.154-1.134.882-1.722 1.708-1.722 1.008 0 1.484.672 1.484 1.722zm6.216 4.914c.812 0 1.596-.448 2.17-1.008h.056l.154.812h1.666V7.828h-2.044v2.758l.07 1.232c-.56-.518-1.106-.854-1.988-.854-1.694 0-3.29 1.568-3.29 4.116 0 2.576 1.26 4.116 3.206 4.116zm.532-1.694c-1.036 0-1.624-.812-1.624-2.436 0-1.568.742-2.408 1.624-2.408.49 0 .994.154 1.47.588v3.444c-.462.588-.924.812-1.47.812zm9.66 1.694c1.722 0 3.332-1.554 3.332-4.256 0-2.394-1.162-3.976-3.094-3.976-.77 0-1.554.378-2.17.938l.056-1.26V7.828h-2.058V19h1.61l.182-.826h.056c.63.658 1.386 1.022 2.086 1.022zm-.462-1.694c-.42 0-.924-.154-1.414-.588V13.47c.532-.546 1.008-.812 1.54-.812 1.078 0 1.554.826 1.554 2.324 0 1.708-.728 2.52-1.68 2.52zm7.28 1.694c.896 0 1.68-.448 2.366-1.036h.056l.14.84h1.68v-4.578c0-2.268-1.022-3.458-3.01-3.458-1.232 0-2.352.462-3.276 1.036l.742 1.358c.728-.42 1.428-.742 2.156-.742.966 0 1.302.588 1.344 1.358-3.164.336-4.522 1.218-4.522 2.898 0 1.33.924 2.324 2.324 2.324zm.672-1.61c-.602 0-1.036-.266-1.036-.882 0-.7.644-1.232 2.562-1.47v1.582c-.504.49-.938.77-1.526.77zm9.002 1.61c.868 0 1.82-.294 2.576-.952l-.826-1.358c-.434.364-.966.63-1.526.63-1.12 0-1.946-.952-1.946-2.436 0-1.47.812-2.436 2.016-2.436.434 0 .798.182 1.19.518l.98-1.33c-.574-.49-1.316-.868-2.282-.868-2.128 0-4.004 1.512-4.004 4.116 0 2.604 1.652 4.116 3.822 4.116zm6.076-.196v-1.988l1.106-1.26L135.826 19h2.226l-2.94-4.606 2.688-3.234h-2.254l-2.674 3.374h-.056V7.828h-2.03V19h2.03z"/><path fill="#FFF" d="M9.28 3h9.44c2.184 0 2.976.227 3.774.654a4.45 4.45 0 0 1 1.852 1.852c.427.798.654 1.59.654 3.774v9.44c0 2.184-.227 2.976-.654 3.774a4.45 4.45 0 0 1-1.852 1.852c-.798.427-1.59.654-3.774.654H9.28c-2.184 0-2.976-.227-3.774-.654a4.45 4.45 0 0 1-1.852-1.852C3.227 21.696 3 20.904 3 18.72V9.28c0-2.184.227-2.976.654-3.774a4.45 4.45 0 0 1 1.852-1.852C6.304 3.227 7.096 3 9.28 3z"/><path fill="#303438" d="m14.197 18.72.876.73a.239.239 0 0 1 .046.315l-.876 1.313a.239.239 0 0 1-.398 0l-.876-1.313a.239.239 0 0 1 .046-.316l.876-.729a.239.239 0 0 1 .306 0zm-4.532-7.282a3.978 3.978 0 0 1 3.98 3.975 3.978 3.978 0 0 1-3.98 3.975 3.978 3.978 0 0 1-3.981-3.975 3.978 3.978 0 0 1 3.981-3.975zm8.758 0a3.978 3.978 0 0 1 3.981 3.975 3.978 3.978 0 0 1-3.981 3.975 3.978 3.978 0 0 1-3.98-3.975 3.978 3.978 0 0 1 3.98-3.975zM9.665 12.63a2.785 2.785 0 0 0-2.787 2.783 2.785 2.785 0 0 0 2.787 2.782 2.785 2.785 0 0 0 2.787-2.782 2.785 2.785 0 0 0-2.787-2.783zm8.758 0a2.785 2.785 0 0 0-2.787 2.783 2.785 2.785 0 0 0 2.787 2.782 2.785 2.785 0 0 0 2.787-2.782 2.785 2.785 0 0 0-2.787-2.783zm1.133-5.355a.598.598 0 0 1 .493 1.086l-5.772 2.687-.013.006a.595.595 0 0 1-.208.05h-.037c-.014 0-.026 0-.04-.002a.575.575 0 0 1-.207-.048l-.012-.006-5.772-2.687a.596.596 0 0 1 .493-1.086l.012.005 5.525 2.572 5.526-2.572z"/></g></svg>