<svg width="1080" height="1080" viewBox="0 0 1080 1080" fill="none" xmlns="http://www.w3.org/2000/svg"><g clip-path="url(#clip0_4577_231)"><path fill="#85CCFF" d="M0 0h1080v1080H0z"/><path fill="#69B7FF" d="M0 0h455v1080H0z"/><path d="M403.443 454.158L1080 540.352V1080H-1V628.419S277.784 463.64 403.443 454.158z" fill="#499EFF"/><path d="M372 1081l356-585.5 352 44.5v541H372z" fill="#69B7FF"/><path d="M695.507 135.851c0-4.589 4.043-8.127 8.591-7.519l201.135 26.901a7.586 7.586 0 0 1 6.581 7.519v295.007c0 4.589-4.043 8.127-8.592 7.519l-201.135-26.901a7.586 7.586 0 0 1-6.58-7.519V135.851zM931 167.668c0-4.589 4.043-8.127 8.592-7.519l201.138 26.901a7.592 7.592 0 0 1 6.58 7.519v295.006c0 4.589-4.05 8.128-8.59 7.519l-201.14-26.901a7.585 7.585 0 0 1-6.58-7.519V167.668zM695.507-193.149c0-4.589 4.043-8.127 8.591-7.519l201.135 26.901a7.586 7.586 0 0 1 6.581 7.519v295.007c0 4.589-4.043 8.127-8.592 7.519l-201.135-26.901a7.586 7.586 0 0 1-6.58-7.519v-295.007z" fill="#D3EBFF"/><path d="M931-161.332c0-4.589 4.043-8.127 8.592-7.519l201.138 26.901a7.592 7.592 0 0 1 6.58 7.519v295.006c0 4.589-4.05 8.128-8.59 7.519l-201.14-26.901a7.585 7.585 0 0 1-6.58-7.519v-295.006z" fill="#fff"/><path d="M-1 1079.78h690.323l75.859-181.843 250.588-197.923c4.39-4.009 2.67-11.287-3.05-12.904L637.157 580.973a7.582 7.582 0 0 0-5.898.755L272.486 791.946a7.595 7.595 0 0 0-2.855 2.969L-1 1079.78z" fill="#2462FF"/><path d="M1017.68 708.353l-339.431 212.82c-5.642 3.537-12.972-.518-12.972-7.177a8.47 8.47 0 0 1 3.812-7.075l336.311-221.54c7.55-4.974 17.61.442 17.61 9.484v3.867c0 3.909-2.01 7.544-5.33 9.621z" fill="#1744D8"/><path d="M273.075 809.641l379.9 113.161c6.136 1.828 12.301-2.769 12.301-9.171a9.57 9.57 0 0 0-6.719-9.135L279.7 786.271c-7.312-2.282-14.74 3.181-14.74 10.841v1.645c0 5.023 3.301 9.45 8.115 10.884z" fill="#69B7FF"/><path d="M1014.21 667.327l-367.224-91.806a11.36 11.36 0 0 0-8.381 1.153l-355.91 203.001c-8.731 4.98-7.166 18.011 2.496 20.781l375.208 107.577c3.104.89 6.441.416 9.175-1.303L1017.5 687.958c8.47-5.325 6.41-18.205-3.29-20.631z" fill="#D3EBFF"/><path d="M462.28 851.23l180.284-276.814-371.576 211.935c-4.365 2.49-3.582 9.006 1.249 10.391L462.28 851.23z" fill="#85CCFF"/><path d="M236.194 775.137L102.151 334.343c-2.634-8.662 1.968-17.872 10.477-20.966l16.056-5.838 150.473 474.132-8.634 5.756c-12.669 8.447-29.899 2.279-34.329-12.29z" fill="#2462FF"/><path d="M640.062 565.817l-110.6-380.358c-1.802-6.197-8.4-9.649-14.518-7.595l-392.799 131.83c-5.84 1.96-9.053 8.218-7.241 14.106l140.209 455.68c2.138 6.95 10.165 10.128 16.481 6.525l363.19-207.153a11.355 11.355 0 0 0 5.278-13.035z" fill="#A8D8FF"/><path d="M503.547 217.801L153.096 340.859a11.357 11.357 0 0 0-7.119 13.964l106.625 357.194c2.01 6.733 9.591 10.043 15.896 6.941l337.077-165.863a11.357 11.357 0 0 0 5.873-13.419l-93.251-314.39c-1.846-6.224-8.525-9.636-14.65-7.485z" fill="#fff"/><path d="M593.298 520.297L251.327 672.581a11.355 11.355 0 0 0-6.275 13.578l7.585 25.789c1.988 6.76 9.587 10.096 15.909 6.985l337.398-166.021a11.357 11.357 0 0 0 6.004-12.944l-3.013-12.051c-1.712-6.848-9.19-10.492-15.637-7.62zM838.362 646.5l-188.477-45.307a11.379 11.379 0 0 0-7.984 1.007l-26.685 14.128a7.586 7.586 0 0 0-2.828 2.596L477.582 828.158a1.896 1.896 0 0 0 1.061 2.847l29.592 8.658a11.38 11.38 0 0 0 8.95-1.104L838.878 649.98c1.472-.863 1.144-3.081-.516-3.48z" fill="#85CCFF"/><path d="M475.837 830.184l137.626-211.623-292.06 166.44 154.434 45.183z" fill="#69B7FF"/></g><defs><clipPath id="clip0_4577_231"><path fill="#fff" d="M0 0h1080v1080H0z"/></clipPath></defs></svg>