<svg xmlns="http://www.w3.org/2000/svg" width="102" height="32" viewBox="0 0 102 32"><g fill="none"><circle cx="16" cy="16" r="16" fill="#C71D23"/><path fill="#FFF" d="M24.099 14.223h-9.087a.79.79 0 0 0-.79.79v1.975a.79.79 0 0 0 .79.79h5.531a.79.79 0 0 1 .79.79v.395a2.37 2.37 0 0 1-2.37 2.37h-7.507a.79.79 0 0 1-.79-.79v-7.506a2.37 2.37 0 0 1 2.37-2.37h11.06c.437 0 .79-.354.791-.79l.001-1.975a.79.79 0 0 0-.789-.79H13.037a5.926 5.926 0 0 0-5.926 5.925V24.1c0 .436.354.79.79.79h11.655a5.333 5.333 0 0 0 5.333-5.333v-4.543a.79.79 0 0 0-.79-.79z"/><path fill="#000" d="M46.096 28.089c2.416 0 4.345-.47 5.786-1.408 1.442-.939 2.162-2.154 2.162-3.647 0-2.407-1.803-3.61-5.41-3.61H46.41c-.741 0-1.273-.072-1.595-.217-.322-.144-.483-.385-.483-.722 0-.337.105-.618.314-.842.08-.097.185-.129.314-.097a5.462 5.462 0 0 0 1.474.217c1.659 0 3.007-.397 4.046-1.191 1.039-.795 1.558-1.97 1.558-3.527 0-.577-.104-1.09-.314-1.54-.016-.032-.012-.068.012-.108a.12.12 0 0 1 .11-.06h.555c.402 0 .74-.137 1.014-.41a1.37 1.37 0 0 0 .411-1.01v-.338c0-.385-.137-.718-.41-.999a1.36 1.36 0 0 0-1.015-.42H48.85c-.112 0-.233-.017-.362-.049a6.977 6.977 0 0 0-2.053-.289c-1.047 0-2.005.18-2.875.542-.87.36-1.59.939-2.162 1.733-.572.794-.858 1.737-.858 2.828 0 .754.177 1.444.532 2.07a4.694 4.694 0 0 0 1.328 1.516c.033.016.049.04.049.073 0 .032-.016.064-.049.096-.45.32-.813.71-1.087 1.167-.274.458-.41.927-.41 1.408 0 1.027.41 1.822 1.232 2.383.032.016.048.044.048.084a.15.15 0 0 1-.048.109c-.645.32-1.132.714-1.462 1.18-.33.465-.495.978-.495 1.54 0 .802.274 1.476.821 2.021.548.546 1.252.935 2.114 1.168.862.233 1.856.349 2.983.349zm.126-12.8c-.528 0-.957-.185-1.285-.554-.328-.37-.493-.9-.493-1.591 0-.676.165-1.199.493-1.568.328-.37.757-.554 1.285-.554.529 0 .957.18 1.286.542.328.362.492.888.492 1.58 0 .691-.164 1.222-.492 1.59-.329.37-.757.555-1.286.555zM46.72 25.6c-.915 0-1.641-.131-2.179-.394-.538-.262-.807-.656-.807-1.18 0-.424.185-.822.554-1.194.048-.051.12-.076.217-.076h.072c.402.084 1.012.127 1.83.127h1.325c.706 0 1.224.076 1.553.228.33.152.494.432.494.838 0 .474-.285.868-.855 1.181-.57.313-1.305.47-2.204.47zM58.335 6.4c.718 0 1.308-.214 1.771-.643.463-.428.694-.98.694-1.656 0-.675-.231-1.232-.694-1.668-.463-.437-1.053-.655-1.771-.655-.734 0-1.336.218-1.807.655-.47.436-.706.993-.706 1.668 0 .676.236 1.228.706 1.656.47.429 1.073.643 1.807.643zm.719 15.644c.377 0 .703-.138.978-.416.275-.277.412-.606.412-.987V9.581c0-.38-.137-.71-.412-.987a1.33 1.33 0 0 0-.978-.416h-1.485a1.32 1.32 0 0 0-.99.416 1.373 1.373 0 0 0-.401.987v11.06c0 .38.133.71.4.987.268.278.598.416.99.416h1.486zm10.263.712c.599 0 1.19-.057 1.773-.17.378-.064.67-.274.875-.628.142-.242.213-.492.213-.75a2.93 2.93 0 0 0-.024-.362l-.094-.387a1.284 1.284 0 0 0-.592-.81 2.098 2.098 0 0 0-1.064-.327c-1.087-.048-1.631-.773-1.631-2.176v-5.198c0-.113.055-.17.165-.17h1.68c.378 0 .705-.14.98-.422.276-.282.414-.617.414-1.004v-.604c0-.387-.138-.721-.414-1.003a1.327 1.327 0 0 0-.98-.424h-1.68c-.11 0-.165-.056-.165-.169V6.05c0-.403-.138-.742-.414-1.016a1.345 1.345 0 0 0-.981-.41h-.804c-.394 0-.741.132-1.04.398-.3.266-.481.6-.544 1.004l-.26 2.127c-.016.113-.087.177-.213.194l-.544.048a1.45 1.45 0 0 0-.993.496 1.523 1.523 0 0 0-.402 1.051v.411c0 .387.138.722.414 1.004.275.282.603.423.98.423h.308c.11 0 .166.056.166.17v5.246c0 1.757.394 3.123 1.182 4.098.788.975 2.018 1.463 3.689 1.463zm11.642-.356c1.261 0 2.507-.294 3.738-.883.347-.159.567-.437.662-.835.047-.127.071-.254.071-.382a1.39 1.39 0 0 0-.213-.715l-.07-.144a1.39 1.39 0 0 0-.829-.668 1.955 1.955 0 0 0-.52-.071c-.205 0-.403.032-.592.095a4.903 4.903 0 0 1-1.656.287c-1.861 0-2.989-.835-3.383-2.506a.133.133 0 0 1 .023-.13.145.145 0 0 1 .119-.06h6.506c.41 0 .773-.132 1.088-.394.316-.263.481-.593.497-.99v-.454c0-2.004-.505-3.626-1.514-4.867-1.01-1.24-2.476-1.86-4.4-1.86-.837 0-1.645.17-2.426.512-.78.342-1.474.82-2.082 1.432-.607.612-1.096 1.384-1.466 2.314-.371.93-.556 1.945-.556 3.042 0 2.243.658 4.016 1.975 5.32 1.317 1.305 2.993 1.957 5.028 1.957zm1.699-8.889h-4.272c-.11 0-.164-.04-.164-.122 0-.667.304-1.26.91-1.781.436-.39.958-.586 1.565-.586.7 0 1.225.208 1.576.622.35.415.54.972.571 1.672v.024c0 .114-.062.171-.186.171zM95.892 22.4c1.262 0 2.508-.294 3.738-.883.347-.159.568-.437.662-.835a1.07 1.07 0 0 0 .071-.382 1.39 1.39 0 0 0-.213-.715l-.07-.144a1.39 1.39 0 0 0-.829-.668 1.955 1.955 0 0 0-.52-.071c-.205 0-.402.032-.592.095a4.903 4.903 0 0 1-1.656.287c-1.86 0-2.989-.835-3.383-2.506a.133.133 0 0 1 .024-.13.145.145 0 0 1 .118-.06h6.506c.41 0 .773-.132 1.089-.394a1.31 1.31 0 0 0 .496-.99v-.454c0-2.004-.504-3.626-1.514-4.867-1.01-1.24-2.476-1.86-4.4-1.86a5.98 5.98 0 0 0-2.425.512 6.69 6.69 0 0 0-2.082 1.432c-.608.612-1.096 1.384-1.467 2.314-.37.93-.556 1.945-.556 3.042 0 2.243.658 4.016 1.975 5.32 1.317 1.305 2.993 1.957 5.028 1.957zm1.343-8.889h-4.272c-.109 0-.163-.04-.163-.122 0-.667.303-1.26.91-1.781.436-.39.958-.586 1.565-.586.7 0 1.225.208 1.575.622.35.415.541.972.572 1.672v.024c0 .114-.062.171-.187.171z"/></g></svg>