<svg xmlns="http://www.w3.org/2000/svg" width="40" height="38" viewBox="0 0 40 38"><path d="M32.87 0H7.145C3.2.005.005 3.185 0 7.11v23.803C.018 34.83 3.21 37.995 7.144 38H32.87c3.928-.013 7.11-3.177 7.129-7.087V7.11C39.995 3.19 36.808.013 32.87 0zM11.225 26.103H8.598V15.831c-.273.192-.574.39-.904.581-.6.366-1.229.679-1.882.937l-.636.206v-2.604l.273-.127a9.887 9.887 0 0 0 2.382-1.545 5.945 5.945 0 0 0 1.411-1.7l.132-.263h1.859l-.01 14.787zm13.298 0h-10.07v-.468a3.414 3.414 0 0 1 .23-1.359 6.73 6.73 0 0 1 1.2-1.972 18.135 18.135 0 0 1 2.287-2.145 18.475 18.475 0 0 0 2.956-2.829 3.065 3.065 0 0 0 .706-1.76 1.8 1.8 0 0 0-.58-1.36 2.147 2.147 0 0 0-1.562-.561 2.19 2.19 0 0 0-1.633.6 2.303 2.303 0 0 0-.607 1.704v.515l-2.724-.28.042-.469a4.717 4.717 0 0 1 1.51-3.279 5.088 5.088 0 0 1 3.455-1.138 4.86 4.86 0 0 1 3.482 1.232 4.056 4.056 0 0 1 1.308 3.063 4.6 4.6 0 0 1-.376 1.813 6.747 6.747 0 0 1-1.21 1.812 28.82 28.82 0 0 1-2.672 2.474c-1.008.843-1.657 1.405-1.93 1.7l-.118.126h6.32l-.014 2.581zm9.454-1.143a5.148 5.148 0 0 1-3.67 1.405 4.832 4.832 0 0 1-3.346-1.203 4.624 4.624 0 0 1-1.525-3.106l-.047-.468 2.588-.342.09.426c.085.681.383 1.319.852 1.822.384.35.891.535 1.411.515.63.01 1.235-.24 1.671-.693.46-.452.712-1.075.692-1.719a2.135 2.135 0 0 0-.626-1.592 2.194 2.194 0 0 0-1.619-.619 4.476 4.476 0 0 0-1.078.169l-.663.178.334-2.632.47.051h.222c.6.015 1.192-.148 1.699-.468.45-.296.701-.814.654-1.35.02-.449-.15-.886-.47-1.203a1.789 1.789 0 0 0-1.31-.468 1.854 1.854 0 0 0-1.33.496 2.678 2.678 0 0 0-.707 1.593l-.075.468-2.64-.468.085-.469a4.813 4.813 0 0 1 1.576-2.908 4.569 4.569 0 0 1 3.054-1.05 5.007 5.007 0 0 1 2.301.534 4.003 4.003 0 0 1 1.652 1.5c.374.607.573 1.305.574 2.018a3.352 3.352 0 0 1-.56 1.874c-.2.307-.45.579-.739.805.47.237.881.576 1.2.993.52.727.784 1.605.749 2.497a4.529 4.529 0 0 1-1.469 3.414z"/></svg>