<svg xmlns="http://www.w3.org/2000/svg" width="40" height="40" viewBox="0 0 40 40"><path d="M20 0C8.954 0 0 8.955 0 20c0 11.044 8.955 20 20 20s20-8.956 20-20C40 8.954 31.045 0 20 0zm-9.937 15.631c0-1.468.406-2.644 1.222-3.53.815-.883 1.919-1.325 3.31-1.325 1.328 0 2.36.401 3.1 1.202.736.804 1.105 1.913 1.105 3.327 0 1.451-.408 2.616-1.228 3.488-.82.874-1.912 1.31-3.278 1.31-1.282 0-2.31-.41-3.078-1.228-.77-.819-1.153-1.9-1.153-3.244zm3.424 12.129 10.56-16.284a1 1 0 0 1 .839-.456h.922a.796.796 0 0 1 .667 1.23L15.9 28.524a1 1 0 0 1-.839.455h-.911a.79.79 0 0 1-.663-1.22zm15.21.147c-.827.878-1.92 1.316-3.28 1.316-1.273 0-2.297-.412-3.07-1.234-.774-.822-1.159-1.905-1.159-3.251 0-1.484.413-2.664 1.241-3.54.826-.877 1.926-1.314 3.302-1.314 1.328 0 2.361.394 3.1 1.181.737.788 1.107 1.898 1.107 3.326.002 1.467-.415 2.64-1.238 3.516h-.003zM16.52 15.256c0 1.273-.903 2.305-2.016 2.305-1.114 0-2.017-1.032-2.017-2.305 0-1.274.903-2.306 2.017-2.306 1.113 0 2.016 1.032 2.016 2.306zm11.036 9.305c0 1.273-.903 2.305-2.018 2.305-1.114 0-2.018-1.032-2.018-2.305 0-1.274.904-2.306 2.018-2.306 1.115 0 2.018 1.032 2.018 2.306z"/></svg>