<svg width="60" height="60" viewBox="0 0 60 60" xmlns="http://www.w3.org/2000/svg"><path d="M21.394 8.126h-1.395a2.501 2.501 0 0 1 0-5.002H40a2.501 2.501 0 0 1 0 5.002h-1.395v3.518c0 4.387.015 6.165.443 7.848.427 1.688 1.264 3.263 3.36 7.133l2.865 5.291c2.512 4.635 4.53 8.363 5.625 11.378 1.117 3.082 1.518 6.075-.12 8.805l-.004.011-.038.053v.01c-1.653 2.704-4.48 3.758-7.74 4.234-3.194.47-7.462.47-12.78.47h-.434c-5.322 0-9.585 0-12.78-.47-3.26-.476-6.087-1.53-7.737-4.237l-.007-.008-.038-.063c-1.639-2.73-1.237-5.723-.12-8.805 1.095-3.015 3.113-6.739 5.625-11.374l2.861-5.295c2.097-3.866 2.933-5.445 3.36-7.133.428-1.683.443-3.46.443-7.848V8.126h.004zm4.864 0v3.848c0 3.956 0 6.375-.6 8.726-.526 2.089-1.5 4.012-3.038 6.863 2.107.296 4.616 1.657 7.38 3.232 4.331 2.471 7.462 1.913 9.39.48l-1.41-2.606c-1.886-3.484-3.045-5.618-3.637-7.969-.6-2.348-.6-4.77-.6-8.726V8.126h-7.486zm-1.434 26.462c-1.273.38-2.01 1.68-1.666 2.939.343 1.258 1.644 2.025 2.942 1.734l.022-.004c1.274-.38 2.01-1.68 1.667-2.938-.344-1.26-1.644-2.026-2.942-1.735l-.023.004zm8.316 11.965a4.011 4.011 0 0 0 1.899 2.44 4.146 4.146 0 0 0 3.102.402l.03-.012c2.069-.664 3.249-2.798 2.688-4.861-.56-2.064-2.666-3.339-4.797-2.905l-.037.006c-2.182.582-3.472 2.788-2.885 4.93z" fill="#000"/></svg>