<svg width="30" height="30" viewBox="0 0 30 30" xmlns="http://www.w3.org/2000/svg"><path d="M25 0a5 5 0 0 1 5 5v20a5 5 0 0 1-5 5H5a5 5 0 0 1-5-5V5a5 5 0 0 1 5-5h20zM8.5 15.5a2.5 2.5 0 1 0 0 5H13a2.5 2.5 0 0 1 2.5-2.5h6a2.5 2.5 0 0 1 2.5 2.5v1a2.5 2.5 0 0 1-2.5 2.5h-6a2.5 2.5 0 0 1-2.5-2.5H8.3A3.51 3.51 0 0 1 5 18a3.5 3.5 0 0 1 3.3-3.494l13.2-.006a2.5 2.5 0 1 0 0-5H17a2.5 2.5 0 0 1-2.5 2.5h-6A2.5 2.5 0 0 1 6 9.5v-1A2.5 2.5 0 0 1 8.5 6h6A2.5 2.5 0 0 1 17 8.5h4.8v.013a3.5 3.5 0 0 1 0 6.974v.013H8.5z" fill="#000" fill-rule="evenodd"/></svg>