<svg width="32" height="26" viewBox="0 0 32 26" xmlns="http://www.w3.org/2000/svg"><path d="M24 0H8a8 8 0 0 0-8 8v10a8 8 0 0 0 8 8h16a8 8 0 0 0 8-8V8a8 8 0 0 0-8-8zm-1 5a2 2 0 0 1 2 2v10a2 2 0 0 1-2 2h-3a2 2 0 0 1-2 2H9a2 2 0 0 1-2-2V9a2 2 0 0 1 2-2h4a2 2 0 0 1 2-2h8zm-5 3H9a1 1 0 0 0-1 1v10a1 1 0 0 0 1 1h9a1 1 0 0 0 1-1V9a1 1 0 0 0-1-1zm-6.25 3l1.75 2.206L15.25 11H17v6h-1.75v-3.441l-1.75 2.206-1.75-2.206V17H10v-6h1.75zm10.55-1h-1.6v3.5H19l2.5 2.5 2.5-2.5h-1.7V10z" fill="#000" fill-rule="evenodd"/></svg>