<svg width="20" height="19" viewBox="0 0 20 19" xmlns="http://www.w3.org/2000/svg"><path d="M15.08 7.257a.525.525 0 0 0 .017.008L10 18.926l-.005.01a.12.12 0 0 1-.112.064.122.122 0 0 1-.105-.075L4.855 7.35a.474.474 0 0 0 .038-.045l10.187-.049zM4.147 7.31l4.606 10.83L0 7.33l4.147-.02zM20 7.234L11.04 18.13l4.756-10.877L20 7.234zM4.223.789l-.147 5.865-4.031.02L4.223.789zM9.522.432a.45.45 0 0 1 .745.007l4.266 6.165-9.197.044L9.514.444l.008-.012zm6.343.31l3.945 5.837-3.945.019V.74zM10.74 0l4.494.48v6.012L10.78.057l-.015-.022A1.13 1.13 0 0 0 10.739 0zM9.042.005c-.016.02-.032.042-.046.064l-4.282 6.36L4.863.48 9.042.005z" fill="#000" fill-rule="nonzero"/></svg>