<svg width="30" height="30" viewBox="0 0 30 30" xmlns="http://www.w3.org/2000/svg"><path d="M25 0a5 5 0 0 1 5 5v20a5 5 0 0 1-5 5H5a5 5 0 0 1-5-5V5a5 5 0 0 1 5-5h20zM15 22a1 1 0 0 1 1 1v1a1 1 0 0 1-2 0v-1a1 1 0 0 1 1-1zm6.364-2.05l.707.707a1 1 0 0 1-1.414 1.414l-.707-.707a1 1 0 1 1 1.414-1.414zm-11.314 0a1 1 0 0 1 0 1.414l-.707.707a1 1 0 1 1-1.414-1.414l.707-.707a1 1 0 0 1 1.414 0zM15 10a5 5 0 1 1 0 10 5 5 0 0 1 0-10zm9 4a1 1 0 0 1 0 2h-1a1 1 0 0 1 0-2h1zM7 14a1 1 0 0 1 0 2H6a1 1 0 0 1 0-2h1zm15.071-6.071a1 1 0 0 1 0 1.414l-.707.707a1 1 0 1 1-1.414-1.414l.707-.707a1 1 0 0 1 1.414 0zm-12.728 0l.707.707a1 1 0 1 1-1.414 1.414l-.707-.707A1 1 0 0 1 9.343 7.93zM15 5a1 1 0 0 1 1 1v1a1 1 0 0 1-2 0V6a1 1 0 0 1 1-1z" fill="#000" fill-rule="evenodd"/></svg>