<svg xmlns="http://www.w3.org/2000/svg" width="30" height="30" viewBox="0 0 30 30"><path fill-rule="evenodd" d="M24 0a6 6 0 0 1 6 6v18a6 6 0 0 1-6 6H6a6 6 0 0 1-6-6V6a6 6 0 0 1 6-6h18Zm-7 6H9.75a2 2 0 0 0-1.995 1.85L7.75 8l-.001.482h1.059l.164.008c.432.041.822.242 1.111.555.3.323.491.768.491 1.265 0 .495-.19.94-.49 1.264-.29.314-.68.515-1.112.555l-.164.008H7.749v1.034h1.059l.163.008c.432.04.822.242 1.113.556.3.324.49.77.49 1.265 0 .495-.19.94-.49 1.264-.29.313-.68.514-1.112.555l-.164.007H7.749v1.035h1.059l.163.008c.432.04.822.242 1.112.555.3.324.491.77.491 1.265 0 .495-.19.94-.49 1.265-.29.313-.68.514-1.112.555l-.164.007H7.749L7.75 22a2 2 0 0 0 1.85 1.995l.15.005H22a2 2 0 0 0 1.995-1.85L24 22V8a2 2 0 0 0-1.85-1.995L22 6h-1v7.159L19.6 12l-.116-.062c-.279-.127-.616-.127-.855 0l-.096.062L17 13.16V6ZM8.808 18.861H6.766c-.423 0-.766.37-.766.828 0 .456.344.827.766.827h2.042c.424 0 .766-.37.766-.827 0-.457-.343-.828-.766-.828Zm0-4.69H6.766c-.422 0-.766.37-.766.829 0 .457.344.826.766.826h2.042c.424 0 .766-.37.766-.826 0-.458-.343-.829-.766-.829Zm0-4.688H6.766c-.423 0-.766.37-.766.827 0 .421.292.77.67.822l.096.005h2.042c.424 0 .766-.37.766-.827 0-.458-.342-.827-.766-.827Z"/></svg>