<svg width="30" height="30" viewBox="0 0 30 30" xmlns="http://www.w3.org/2000/svg"><path d="M24 0a6 6 0 0 1 6 6v18a6 6 0 0 1-6 6H6a6 6 0 0 1-6-6V6a6 6 0 0 1 6-6h18zM13.999 8v1h-4a2 2 0 0 0-2 2v10a2 2 0 0 0 2 2h10a2 2 0 0 0 2-2v-4h1v4a3 3 0 0 1-3 3h-10a3 3 0 0 1-3-3V11a3 3 0 0 1 3-3h4zm10-2c.055 0 .107.004.158.012l.018.004.02.003a.993.993 0 0 1 .08.019l.016.005.014.004a.993.993 0 0 1 .072.027l.026.01.013.007a.995.995 0 0 1 .024.01l.046.026.024.013a.999.999 0 0 1 .488.79l-.001.011a.523.523 0 0 1 .003.06l-.002 6a1 1 0 0 1-2-.001V9.414l-6.293 6.293a1 1 0 0 1-1.414-1.414L21.583 8H18a1 1 0 0 1 0-2h6z" fill="#000" fill-rule="evenodd"/></svg>