<svg width="30" height="30" viewBox="0 0 30 30" xmlns="http://www.w3.org/2000/svg"><g fill="none" fill-rule="evenodd"><rect fill="#000" width="30" height="30" rx="6"/><path d="M25 7.425v13.172c0 1.158-.762 2.171-1.857 2.469l-3.375.916a.314.314 0 0 1-.393-.31V7.695c0-.14.09-.264.22-.306l3.788-1.185C24.188 5.952 25 6.567 25 7.425zm-6.875.557V23.68c0 .21-.193.362-.39.31l-5.079-1.353a.636.636 0 0 1-.467-.619V6.32c0-.21.194-.362.391-.31l5.078 1.353a.636.636 0 0 1 .467.619zm-7.188-1.656v15.882a.319.319 0 0 1-.251.313l-4.192.854C5.721 23.533 5 22.928 5 22.124V9.494c0-1.155.76-2.169 1.854-2.466l3.69-1.01a.313.313 0 0 1 .393.308z" fill="#FFF" fill-rule="nonzero"/></g></svg>