<svg width="700" height="140" viewBox="0 0 700 140" xmlns="http://www.w3.org/2000/svg"><title>icon-set</title><g fill="none" fill-rule="evenodd"><g transform="translate(40 40)"><rect fill="#000" width="60" height="60" rx="10"/><path d="M22 16h26a2 2 0 1 1 0 4H22a2 2 0 1 1 0-4Zm-10 0h2a2 2 0 1 1 0 4h-2a2 2 0 1 1 0-4Zm0 12h2a2 2 0 1 1 0 4h-2a2 2 0 1 1 0-4Zm0 12h2a2 2 0 1 1 0 4h-2a2 2 0 1 1 0-4Zm10-12h26a2 2 0 1 1 0 4H22a2 2 0 1 1 0-4Zm0 12h26a2 2 0 1 1 0 4H22a2 2 0 1 1 0-4Z" fill="#FFF"/></g><g transform="translate(120 40)"><rect fill="#000" width="60" height="60" rx="10"/><path d="M46 16a4 4 0 0 1 4 4v22a4 4 0 0 1-4 4H18a4 4 0 0 1-3.995-3.8L14 42h27a5 5 0 0 0 5-5V16Zm-6-4a4 4 0 0 1 4 4v20a4 4 0 0 1-4 4H14a4 4 0 0 1-4-4V16a4 4 0 0 1 4-4h26ZM21.479 22.939a2 2 0 0 0-2.69.876l-4.724 9.29a2 2 0 0 0 1.782 2.907h22.577a2 2 0 0 0 1.561-3.25l-4.056-5.065a2 2 0 0 0-2.64-.435l-4.698 3.007a2 2 0 0 1-2.798-.664l-3.5-5.904a2 2 0 0 0-.814-.762ZM32 16a4 4 0 1 0 0 8 4 4 0 0 0 0-8Z" fill="#FFF"/></g><g transform="translate(360 40)"><rect fill="#000" width="60" height="60" rx="10"/><path d="M31.667 11.667V15a1.667 1.667 0 0 1-3.334 0v-3.333a1.667 1.667 0 0 1 3.334 0ZM30 43.333c-.92 0-1.667.747-1.667 1.667v3.333a1.667 1.667 0 0 0 3.334 0V45c0-.92-.747-1.667-1.667-1.667ZM15.858 15.858a1.667 1.667 0 0 0 0 2.357l2.357 2.357a1.667 1.667 0 1 0 2.357-2.357l-2.357-2.357a1.667 1.667 0 0 0-2.357 0Zm23.57 23.57c-.65.65-.65 1.706 0 2.357l2.357 2.357a1.667 1.667 0 1 0 2.357-2.357l-2.357-2.357a1.666 1.666 0 0 0-2.357 0ZM10 30c0 .92.746 1.667 1.667 1.667H15a1.667 1.667 0 0 0 0-3.334h-3.333c-.92 0-1.667.747-1.667 1.667Zm33.333 0c0 .92.747 1.667 1.667 1.667h3.333a1.667 1.667 0 0 0 0-3.334H45c-.92 0-1.667.747-1.667 1.667ZM15.858 44.142a1.667 1.667 0 0 0 2.357 0l2.357-2.357a1.667 1.667 0 0 0-2.357-2.357l-2.357 2.357a1.667 1.667 0 0 0 0 2.357Zm23.57-23.57c.65.65 1.706.65 2.357 0l2.357-2.357a1.667 1.667 0 1 0-2.357-2.357l-2.357 2.357a1.666 1.666 0 0 0 0 2.357ZM40 30c0 5.523-4.477 10-10 10s-10-4.477-10-10 4.477-10 10-10 10 4.477 10 10Z" fill="#FFF" fill-rule="nonzero"/></g><g transform="translate(440 40)"><rect fill="#000" width="60" height="60" rx="10"/><path d="M34.675 12C42.353 14.214 48 21.21 48 29.6 48 39.76 39.765 48 29.604 48c-8.39 0-15.39-5.651-17.604-13.325 2.453 1.41 5.256 2.282 8.288 2.282 9.211 0 16.672-7.467 16.672-16.673 0-3.032-.87-5.837-2.285-8.284Zm-15.19 10.485 1.414 3.586 3.586 1.414L20.9 28.9l-1.414 3.586-1.414-3.586-3.586-1.414 3.586-1.414 1.414-3.586Zm8.172-6.828 1.131 2.868 2.869 1.132-2.869 1.131-1.131 2.869-1.132-2.869-2.868-1.131 2.868-1.132 1.132-2.868Zm-9-2 .848 2.151 2.152.849-2.152.848-.848 2.152-.849-2.152-2.151-.848 2.151-.849.849-2.151Z" fill="#FFF" fill-rule="nonzero"/></g><g transform="translate(600 40)"><rect fill="#000" width="60" height="60" rx="10"/><path d="M30 8a2 2 0 0 1 2 2v2.216c8.32.906 14.938 7.483 15.906 15.784H50a2 2 0 1 1 0 4h-2.07c-.877 8.404-7.537 15.087-15.93 16.002V50a2 2 0 1 1-4 0v-2.004C19.634 47.057 13.002 40.385 12.127 32H10a2 2 0 1 1 0-4h2.15c.967-8.282 7.556-14.848 15.85-15.778V10a2 2 0 0 1 2-2Zm2 6.23V16a2 2 0 1 1-4 0v-1.764c-7.188.91-12.89 6.588-13.834 13.765L16 28a2 2 0 1 1 0 4h-1.86c.857 7.28 6.6 13.063 13.86 13.981V44a2 2 0 1 1 4 0v1.988c7.287-.895 13.058-6.69 13.918-13.987L44 32a2 2 0 1 1 0-4h1.89c-.946-7.195-6.675-12.884-13.89-13.77Zm-5.971 8.95a8 8 0 1 1 8 13.857 8 8 0 0 1-8-13.856Z" fill="#FFF" fill-rule="nonzero"/></g><g transform="translate(520 40)"><rect fill="#000" width="60" height="60" rx="10"/><path d="M16.04 34c.745 0 1.355.61 1.355 1.356v10.072l2.35-2.35c.52-.543 1.38-.543 1.854 0 .52.542.52 1.401 0 1.92l-4.588 4.588a1.3 1.3 0 0 1-.949.407h-.135c-.34 0-.678-.136-.95-.407L10.39 45c-.52-.543-.52-1.401 0-1.921.542-.52 1.401-.52 1.92 0l2.374 2.373V35.356c0-.746.61-1.356 1.356-1.356ZM48 42a2 2 0 1 1 0 4H26a2 2 0 1 1 0-4h22Zm-8-7a2 2 0 1 1 0 4H26a2 2 0 1 1 0-4h14Zm8-7a2 2 0 1 1 0 4H26a2 2 0 1 1 0-4h22ZM16.062 10c.34 0 .7.136.95.407l4.587 4.587c.52.52.52 1.379 0 1.921-.475.543-1.333.543-1.853 0l-2.35-2.35v10.072a1.36 1.36 0 0 1-1.356 1.356 1.36 1.36 0 0 1-1.356-1.356V14.542l-2.373 2.373c-.52.52-1.379.52-1.921 0-.52-.52-.52-1.378 0-1.92l4.587-4.588c.272-.271.61-.407.95-.407h.135ZM40 21a2 2 0 1 1 0 4H26a2 2 0 1 1 0-4h14Zm8-7a2 2 0 1 1 0 4H26a2 2 0 1 1 0-4h22Z" fill="#FFF" fill-rule="nonzero"/></g><g transform="translate(200 40)"><rect fill="#000" width="60" height="60" rx="10"/><path d="M40 10a4 4 0 0 1 4 4v8h2a4 4 0 0 1 4 4v12a4 4 0 0 1-4 4h-2v2a4 4 0 0 1-4 4H20a4 4 0 0 1-4-4v-2h-2a4 4 0 0 1-4-4V26a4 4 0 0 1 4-4h2v-8a4 4 0 0 1 4-4h20Zm2 26H18v8a2 2 0 0 0 2 2h20a2 2 0 0 0 2-2v-8Zm-4 4v2H22v-2h16Zm7-14h-2a1 1 0 0 0 0 2h2a1 1 0 0 0 0-2Zm-6.745 0a1 1 0 1 0 0 2 1 1 0 0 0 0-2ZM40 12H20a2 2 0 0 0-2 2v8h24v-8a2 2 0 0 0-1.85-1.995L40 12Z" fill="#FFF" fill-rule="nonzero"/></g><g transform="translate(280 40)"><rect fill="#000" width="60" height="60" rx="10"/><path d="m37.153 12 12.095 5.459a1 1 0 0 1 .562 1.142l-1.959 8.267a2 2 0 0 1-2.448 1.475l-2.185-.567.783 18.13a2 2 0 0 1-1.998 2.086H18.044l-.08-.001a2 2 0 0 1-1.918-2.08l.736-18.135-2.185.567-.04.01a2 2 0 0 1-2.408-1.485L10.19 18.6a1 1 0 0 1 .562-1.142L22.847 12c.835 2.356 3.854 3.84 7.208 3.84 3.353 0 6.262-1.484 7.098-3.84Zm1.52 30h-18a1 1 0 1 0 0 2h18a1 1 0 0 0 0-2Zm0-4h-18a1 1 0 1 0 0 2h18a1 1 0 0 0 0-2Zm-8.334-18h-1.352a2 2 0 0 0-1.808 1.145l-6.153 13.017A1.288 1.288 0 0 0 22.191 36h.757a2 2 0 0 0 1.813-1.156l1.21-2.598h7.405l1.131 2.562A2 2 0 0 0 36.337 36h.781a1.318 1.318 0 0 0 1.19-1.883l-6.163-12.975A2 2 0 0 0 30.34 20Zm-.666 3.626 2.615 5.934h-5.179l2.564-5.934Z" fill="#FFF" fill-rule="nonzero"/></g></g></svg>