<svg width="30" height="30" viewBox="0 0 30 30" xmlns="http://www.w3.org/2000/svg"><path d="M25 0a5 5 0 0 1 5 5v20a5 5 0 0 1-5 5H5a5 5 0 0 1-5-5V5a5 5 0 0 1 5-5h20zm-.41 20.956l-7.846-13.7c-.96-1.675-2.528-1.675-3.488 0l-7.846 13.7C4.45 22.632 5.235 24 7.153 24h15.695c1.917 0 2.701-1.368 1.743-3.044zm-10.668-9.813c.282-.307.64-.46 1.078-.46.438 0 .796.151 1.078.454.28.304.42.683.42 1.14 0 .392-.585 3.28-.78 5.38h-1.41c-.171-2.1-.806-4.988-.806-5.38 0-.45.14-.828.42-1.134zm2.136 9.989c-.296.29-.65.436-1.058.436-.408 0-.761-.145-1.058-.436a1.424 1.424 0 0 1-.442-1.056c0-.411.147-.767.442-1.065.297-.298.65-.447 1.058-.447.409 0 .762.149 1.058.447.296.298.443.654.443 1.065 0 .413-.147.765-.443 1.056z" fill="#000" fill-rule="evenodd"/></svg>