<?xml version="1.0" encoding="UTF-8"?>
<svg width="30px" height="30px" viewBox="0 0 30 30" version="1.1" xmlns="http://www.w3.org/2000/svg" xmlns:xlink="http://www.w3.org/1999/xlink">
    <title>icon-new-version</title>
    <g id="Icons" stroke="none" stroke-width="1" fill="none" fill-rule="evenodd">
        <g id="画板" transform="translate(-690, -402)" fill="#000000">
            <g id="icon-new-version" transform="translate(690, 402)">
                <path d="M25,0 C27.7614237,0 30,2.23857625 30,5 L30,25 C30,27.7614237 27.7614237,30 25,30 L5,30 C2.23857625,30 0,27.7614237 0,25 L0,5 C0,2.23857625 2.23857625,0 5,0 L25,0 Z M15,25 C9.5,25 5,20.5 5,15 C5,9.5 9.5,5 15,5 C20.5,5 25,9.5 25,15 C25,20.5 20.5,25 15,25 Z M15.8846154,11.4521739 L18.0961538,13.6623188 C18.45,14.015942 18.9807692,14.015942 19.3346154,13.6623188 C19.6884615,13.3086957 19.6884615,12.7782609 19.3346154,12.4246377 L16.2384615,9.33043478 C15.5307692,8.62318841 14.4692308,8.62318841 13.7615385,9.33043478 L10.6653846,12.4246377 C10.3115385,12.7782609 10.3115385,13.3086957 10.6653846,13.6623188 C11.0192308,14.015942 11.55,14.015942 11.9038462,13.6623188 L14.1153846,11.4521739 L14.1153846,20.115942 C14.1153846,20.6463768 14.4692308,21 15,21 C15.5307692,21 15.8846154,20.6463768 15.8846154,20.115942 L15.8846154,11.4521739 Z" id="形状"></path>
            </g>
        </g>
    </g>
</svg>