<svg width="30" height="30" viewBox="0 0 30 30" xmlns="http://www.w3.org/2000/svg"><path d="M5 0h20a5 5 0 0 1 5 5v20a5 5 0 0 1-5 5H5a5 5 0 0 1-5-5V5a5 5 0 0 1 5-5zm10.626 5C20.795 5 25 9.262 25 14.5S20.795 24 15.626 24c-4.05 0-7.51-2.616-8.817-6.27l1.325-.768c1.026 3.198 3.997 5.518 7.49 5.518 4.34 0 7.875-3.581 7.875-7.98 0-4.399-3.534-7.98-7.875-7.98-2.98 0-5.58 1.688-6.916 4.17l1.247.41a.625.625 0 0 1 .14 1.12L7.22 14.057a.625.625 0 0 1-.917-.297L5.039 10.56a.625.625 0 0 1 .777-.823l1.445.476C8.809 7.123 11.977 5 15.626 5zm-.5 4.18c.69 0 1.25.56 1.25 1.25v4.361l2.4 1.403a1.25 1.25 0 0 1 .457 1.697l-.013.023a1.248 1.248 0 0 1-1.714.461l-3.01-1.757a1.247 1.247 0 0 1-.594-.83l-.009-.049a1.26 1.26 0 0 1-.017-.21v-5.1c0-.69.56-1.249 1.25-1.249z" fill="#000" fill-rule="evenodd"/></svg>