<svg width="30" height="30" viewBox="0 0 30 30" xmlns="http://www.w3.org/2000/svg"><path d="M24 0a6 6 0 0 1 6 6v18a6 6 0 0 1-6 6H6a6 6 0 0 1-6-6V6a6 6 0 0 1 6-6h18zM12.5 23h5a.5.5 0 1 1 0 1h-5a.5.5 0 1 1 0-1zm0-17c1.044 0 1.964.534 2.501 1.343A2.989 2.989 0 0 1 17.5 6H23a2 2 0 0 1 2 2v12a2 2 0 0 1-2 2H7a2 2 0 0 1-2-2V8a2 2 0 0 1 2-2h5.5zm0 1H7a1 1 0 0 0-1 1v12a1 1 0 0 0 1 1h7.5V9a2 2 0 0 0-2-2zM23 7h-5.5a2 2 0 0 0-2 2v12H23a1 1 0 0 0 1-1V8a1 1 0 0 0-1-1zm-2.25 5.356l-.001 4.728H22V18h-5v-.915l1.249-.001v-4.119l-.624.001v-.61h3.125zM19.5 9c.69 0 1.25.546 1.25 1.22 0 .436-.238.84-.625 1.057a1.276 1.276 0 0 1-1.25 0 1.215 1.215 0 0 1-.625-1.057c0-.674.56-1.22 1.25-1.22z" fill="#000" fill-rule="evenodd"/></svg>