<svg xmlns="http://www.w3.org/2000/svg" width="30" height="30" viewBox="0 0 30 30"><path fill-rule="evenodd" d="M25 0a5 5 0 0 1 5 5v20a5 5 0 0 1-5 5H5a5 5 0 0 1-5-5V5a5 5 0 0 1 5-5h20Zm-8.049 10.006a3.602 3.602 0 0 0-4.866-1.009l-.171.114-.098.067a3.645 3.645 0 0 0-1.488 2.353c-.153.878.019 1.78.48 2.536l.12.186 6.394 9.194a3.615 3.615 0 0 0 2.773 1.548l.218.005.218-.008a3.6 3.6 0 0 0 1.621-.515l.208-.136.097-.067a3.645 3.645 0 0 0 1.488-2.352 3.664 3.664 0 0 0-.478-2.536l-.121-.186-6.395-9.194Zm-3.853.504a1.8 1.8 0 0 1 2.273.41l.1.13 1.087 1.564-3.06 2.158-1.088-1.565-.094-.148a1.83 1.83 0 0 1 .409-2.288l.129-.1.097-.067.147-.094Zm-6.012.836a.979.979 0 0 0-1.046.692l-.027.115c-.041.238.017.48.16.672.118.16.288.273.478.322l.116.021 1.103.125a.98.98 0 0 0 1.072-.807.874.874 0 0 0-.638-.994l-.116-.021-1.102-.125Zm3.522-5.65a.916.916 0 0 0-1.182-.288l-.099.06a.929.929 0 0 0-.289 1.184l.063.105.78 1.121a.916.916 0 0 0 1.27.213.93.93 0 0 0 .294-1.176l-.058-.1-.78-1.12Zm5.91-.681a.957.957 0 0 0-1.07.63l-.031.114-.222 1.023a.893.893 0 0 0 .13.684c.133.2.342.338.578.38a.957.957 0 0 0 1.07-.63l.032-.113.222-1.023a.893.893 0 0 0-.13-.685.882.882 0 0 0-.579-.38Z"/></svg>