<svg width="30" height="30" viewBox="0 0 30 30" xmlns="http://www.w3.org/2000/svg"><path d="M5 0h20a5 5 0 0 1 5 5v20a5 5 0 0 1-5 5H5a5 5 0 0 1-5-5V5a5 5 0 0 1 5-5zm7.826 14.565a1.74 1.74 0 1 0 0-3.478 1.74 1.74 0 0 0 0 3.478zm4.348 0a1.74 1.74 0 1 0 0-3.478 1.74 1.74 0 0 0 0 3.478zm-4.348 4.348a1.74 1.74 0 1 0 0-3.478 1.74 1.74 0 0 0 0 3.478zm4.348 0a1.74 1.74 0 1 0 0-3.478 1.74 1.74 0 0 0 0 3.478zm3.84-4.783a1.304 1.304 0 1 0 0-2.608 1.304 1.304 0 0 0 0 2.608zm0 4.348a1.304 1.304 0 1 0 0-2.608 1.304 1.304 0 0 0 0 2.608zm.001 3.742a1.205 1.205 0 1 0 0-2.41 1.205 1.205 0 0 0 0 2.41zm-12.03-8.09a1.304 1.304 0 1 0 0-2.608 1.304 1.304 0 0 0 0 2.608zm0-3.94a1.205 1.205 0 1 0 0-2.41 1.205 1.205 0 0 0 0 2.41zm0 8.288a1.304 1.304 0 1 0 0-2.608 1.304 1.304 0 0 0 0 2.608zm0 3.742a1.205 1.205 0 1 0 0-2.41 1.205 1.205 0 0 0 0 2.41zm8.189.099a1.304 1.304 0 1 0 0-2.609 1.304 1.304 0 0 0 0 2.609zm-4.348 0a1.304 1.304 0 1 0 0-2.609 1.304 1.304 0 0 0 0 2.609zm4.348-12.03a1.304 1.304 0 1 0 0-2.609 1.304 1.304 0 0 0 0 2.609zm3.841-.099a1.205 1.205 0 1 0 0-2.41 1.205 1.205 0 0 0 0 2.41zm-8.189.099a1.304 1.304 0 1 0 0-2.609 1.304 1.304 0 0 0 0 2.609zm11.304 3.407a.87.87 0 1 0 0-1.74.87.87 0 0 0 0 1.74zm0 4.347a.87.87 0 1 0 0-1.739.87.87 0 0 0 0 1.74zM5.87 13.696a.87.87 0 1 0 0-1.74.87.87 0 0 0 0 1.74zm6.956-6.957a.87.87 0 1 0 0-1.739.87.87 0 0 0 0 1.74zm4.348 0a.87.87 0 1 0 0-1.739.87.87 0 0 0 0 1.74zM12.826 25a.87.87 0 1 0 0-1.74.87.87 0 0 0 0 1.74zm4.348 0a.87.87 0 1 0 0-1.74.87.87 0 0 0 0 1.74zM5.87 18.043a.87.87 0 1 0 0-1.739.87.87 0 0 0 0 1.74z" fill="#000" fill-rule="evenodd"/></svg>