<svg width="30" height="30" viewBox="0 0 30 30" xmlns="http://www.w3.org/2000/svg"><path d="M25 0a5 5 0 0 1 5 5v20a5 5 0 0 1-5 5H5a5 5 0 0 1-5-5V5a5 5 0 0 1 5-5h20zM15 25C9.5 25 5 20.5 5 15S9.5 5 15 5s10 4.5 10 10-4.5 10-10 10zm0-1.6c4.62 0 8.4-3.78 8.4-8.4 0-4.62-3.78-8.4-8.4-8.4-4.62 0-8.4 3.78-8.4 8.4 0 4.62 3.78 8.4 8.4 8.4zm.885-11.948l2.211 2.21a.856.856 0 0 0 1.239 0 .854.854 0 0 0 0-1.237L16.238 9.33c-.707-.707-1.769-.707-2.476 0l-3.097 3.095a.854.854 0 0 0 0 1.237.856.856 0 0 0 1.239 0l2.211-2.21v8.664c0 .53.354.884.885.884.53 0 .885-.354.885-.884v-8.664z" fill="#000" fill-rule="evenodd"/></svg>