<svg width="30" height="30" viewBox="0 0 30 30" xmlns="http://www.w3.org/2000/svg"><path d="M24 0a6 6 0 0 1 6 6v18a6 6 0 0 1-6 6H6a6 6 0 0 1-6-6V6a6 6 0 0 1 6-6h18zm-2 6H8a3 3 0 0 0-3 3v12a3 3 0 0 0 3 3h14a3 3 0 0 0 3-3V9a3 3 0 0 0-3-3zm-7 14v1H8v-1h7zm7-2v1H8v-1h14zm-6-4v2H8v-2h8zm6.4-6l.061.003.053.008.017.003a.6.6 0 0 1 .02.006l.013.003a.595.595 0 0 1 .054.018l.012.005.014.006.048.024.033.02a.6.6 0 0 1 .254.345l.004.015c.006.024.01.05.013.075l.001.018.002.023V12.2a.6.6 0 1 1-1.2 0l.001-2.152-2.776 2.776a.6.6 0 1 1-.848-.848L20.95 9.2H18.8a.6.6 0 0 1 0-1.2h3.6zM11 9v3H8V9h3z" fill="#000" fill-rule="evenodd"/></svg>