<svg width="30" height="30" viewBox="0 0 30 30" xmlns="http://www.w3.org/2000/svg"><path d="M25 0a5 5 0 0 1 5 5v20a5 5 0 0 1-5 5H5a5 5 0 0 1-5-5V5a5 5 0 0 1 5-5h20zm-9.499 8a7.508 7.508 0 0 0-6.692 4.115l-1.154-.375a.5.5 0 0 0-.62.662l1.006 2.512a.5.5 0 0 0 .73.238l2.29-1.442a.5.5 0 0 0-.111-.899l-.984-.32A6.307 6.307 0 0 1 15.5 9.2c3.473 0 6.3 2.827 6.3 6.3s-2.827 6.3-6.3 6.3a6.311 6.311 0 0 1-5.796-3.832l-1.208.213C9.577 20.996 12.31 23 15.501 23c4.136 0 7.5-3.364 7.5-7.5 0-4.135-3.364-7.5-7.5-7.5zm-.4 3.3a1 1 0 0 0-1 1v4a1 1 0 0 0 .312.726c.06.06.128.112.204.156l1.732 1a1 1 0 0 0 1-1.732l-1.248-.721V12.3a1 1 0 0 0-1-1z" fill="#000" fill-rule="evenodd"/></svg>