<?xml version="1.0" encoding="UTF-8"?>
<svg width="60px" height="60px" viewBox="0 0 60 60" version="1.1" xmlns="http://www.w3.org/2000/svg" xmlns:xlink="http://www.w3.org/1999/xlink">
    <title>logo-update</title>
    <g id="Other-Icons" stroke="none" stroke-width="1" fill="none" fill-rule="evenodd">
        <g id="Artboard" transform="translate(-120, -120)" fill="#303438" fill-rule="nonzero">
            <path d="M150,180 C133.5,180 120,166.5 120,150 C120,133.5 133.5,120 150,120 C166.5,120 180,133.5 180,150 C180,166.5 166.5,180 150,180 Z M150,175.2 C163.86,175.2 175.2,163.86 175.2,150 C175.2,136.14 163.86,124.8 150,124.8 C136.14,124.8 124.8,136.14 124.8,150 C124.8,163.86 136.14,175.2 150,175.2 Z M152.653846,139.356522 L159.288462,145.986957 C160.35,147.047826 161.942308,147.047826 163.003846,145.986957 C164.065385,144.926087 164.065385,143.334783 163.003846,142.273913 L153.715385,132.991304 C151.592308,130.869565 148.407692,130.869565 146.284615,132.991304 L136.996154,142.273913 C135.934615,143.334783 135.934615,144.926087 136.996154,145.986957 C138.057692,147.047826 139.65,147.047826 140.711538,145.986957 L147.346154,139.356522 L147.346154,165.347826 C147.346154,166.93913 148.407692,168 150,168 C151.592308,168 152.653846,166.93913 152.653846,165.347826 L152.653846,139.356522 Z" id="logo-update"></path>
        </g>
    </g>
</svg>