<svg xmlns="http://www.w3.org/2000/svg" width="130" height="80" viewBox="0 0 130 80"><path d="M120.625 0H9.375A9.375 9.375 0 0 0 0 9.375v61.25A9.375 9.375 0 0 0 9.375 80h111.25A9.375 9.375 0 0 0 130 70.625V9.375A9.375 9.375 0 0 0 120.625 0zM9.375 6.25h111.25c1.726 0 3.125 1.4 3.125 3.125v61.25c0 1.726-1.4 3.125-3.125 3.125H9.375a3.125 3.125 0 0 1-3.125-3.125V9.375c0-1.726 1.4-3.125 3.125-3.125z"/><path d="M18.75 61.25v-42.5h12.5l12.5 15.625 12.5-15.625h12.5v42.5h-12.5V36.875L43.75 52.5l-12.5-15.625V61.25h-12.5zm78.125 0-18.75-20.625h12.5V18.75h12.5v21.875h12.5L96.875 61.25z"/></svg>