<svg xmlns="http://www.w3.org/2000/svg" width="35" height="40" viewBox="0 0 35 40"><path d="M13.393 40c1.108 0 2.1-.252 2.976-.757a5.587 5.587 0 0 0 2.068-2.041c.503-.856.754-1.827.754-2.914V19.223l.126.051c.212.091.422.2.628.324.773.466 1.378 1.057 1.816 1.772.18.269.37.49.57.662.2.172.442.258.725.258.31 0 .564-.086.764-.258.2-.173.383-.387.55-.642.464-.754.98-1.345 1.547-1.773.567-.428 1.275-.642 2.126-.642.85 0 1.584.223 2.203.67.618.448 1.166 1.035 1.642 1.764.22.28.448.498.687.651.238.154.518.23.84.23.413 0 .78-.153 1.102-.46.322-.306.483-.722.483-1.245 0-1.368-.225-2.811-.676-4.332-.451-1.52-1.131-3.006-2.04-4.456-.908-1.45-2.058-2.763-3.45-3.939-1.39-1.175-3.027-2.111-4.908-2.808-1.344-.497-2.822-.817-4.435-.959l-.3-.024V1.744c0-.511-.161-.93-.483-1.255C18.386.163 17.98 0 17.49 0s-.895.163-1.217.489c-.322.326-.483.744-.483 1.255v2.324l-.29.023c-1.607.142-3.082.462-4.426.96-1.881.696-3.52 1.632-4.919 2.807-1.398 1.176-2.55 2.489-3.459 3.939-.908 1.45-1.585 2.935-2.03 4.456C.223 17.773 0 19.217 0 20.585c0 .523.161.939.483 1.245.322.307.69.46 1.102.46.322 0 .599-.092.83-.278.233-.185.458-.418.677-.7.503-.715 1.057-1.283 1.662-1.705.606-.422 1.334-.632 2.184-.632.863 0 1.575.214 2.136.642.56.428 1.072 1.012 1.536 1.753.168.269.354.49.56.662.207.172.458.258.754.258.297 0 .545-.083.744-.249.2-.166.384-.383.551-.651a5.396 5.396 0 0 1 1.836-1.792c.206-.125.415-.233.627-.324l.108-.044v15.04c0 .664-.22 1.226-.657 1.686-.439.46-1.018.69-1.74.69-.721 0-1.304-.233-1.749-.7a2.369 2.369 0 0 1-.667-1.696c0-.575-.16-1.032-.483-1.37-.322-.339-.728-.508-1.217-.508-.49 0-.896.17-1.218.508-.322.338-.483.802-.483 1.39 0 1.06.251 2.025.754 2.893a5.615 5.615 0 0 0 2.068 2.07c.876.511 1.874.767 2.995.767z"/></svg>