<svg width="60" height="60" viewBox="0 0 60 60" xmlns="http://www.w3.org/2000/svg"><path d="M1.364 3.757C.61 3.757 0 3.147 0 2.394v-1.03C0 .61.61 0 1.364 0h57.272C59.39 0 60 .61 60 1.364v1.03c0 .753-.61 1.363-1.364 1.363H56.25v33.817a3.754 3.754 0 0 1-3.75 3.758l-18.196-.001 14.858 15.648c.508.536.498 1.38-.024 1.902l-.72.722a1.364 1.364 0 0 1-1.958-.028l-15.468-16.41a1.364 1.364 0 0 0-1.984 0L13.54 59.574a1.364 1.364 0 0 1-1.958.028l-.72-.722a1.364 1.364 0 0 1-.024-1.902l14.857-15.648H7.5a3.754 3.754 0 0 1-3.75-3.757V3.757H1.364zm46.534 9.394h-9.546a2.727 2.727 0 0 0-2.727 2.727v9.575a2.727 2.727 0 0 0 2.727 2.728h9.546a2.727 2.727 0 0 0 2.727-2.728v-9.575a2.727 2.727 0 0 0-2.727-2.727zM26.76 24.423H10.74c-.753 0-1.364.61-1.364 1.364v1.03c0 .753.61 1.364 1.364 1.364H26.76c.753 0 1.364-.61 1.364-1.364v-1.03c0-.753-.61-1.364-1.364-1.364zm0-11.272H10.74c-.753 0-1.364.61-1.364 1.364v1.03c0 .753.61 1.363 1.364 1.363H26.76c.753 0 1.364-.61 1.364-1.363v-1.03c0-.753-.61-1.364-1.364-1.364z" fill="#303438" fill-rule="nonzero"/></svg>