<?xml version="1.0" encoding="UTF-8"?>
<svg width="60px" height="60px" viewBox="0 0 60 60" version="1.1" xmlns="http://www.w3.org/2000/svg" xmlns:xlink="http://www.w3.org/1999/xlink">
    <title>qico-types-light</title>
    <g id="Other-Icons" stroke="none" stroke-width="1" fill="none" fill-rule="evenodd">
        <g id="Artboard" transform="translate(-20, -20)" fill="#303438" fill-rule="nonzero">
            <path d="M78.1246701,59.8150046 C78.6113391,59.8150046 79.0780755,60.0083344 79.4222025,60.3524635 C79.7663295,60.6965927 79.959658,61.1633321 79.959658,61.6500042 L79.959658,78.1650004 C79.959658,78.6516726 79.7663294,79.1184119 79.4222025,79.4625411 C79.0780755,79.8066703 78.6113391,80 78.1246701,80 L21.8350422,80 C20.8200488,80 20.0000542,79.1800002 20.0000542,78.1700004 L20.0000542,61.6500042 C20.0000542,61.1633321 20.1933828,60.6965927 20.5375097,60.3524635 C20.8816367,60.0083344 21.3483731,59.8150046 21.8350422,59.8150046 Z M78.1496699,20.0000138 C79.1713899,20.0000138 79.9996577,20.8282868 79.9996577,21.8500133 L79.9996577,36.8850099 L76.2996822,36.8850099 L76.2996822,23.6500129 L58.2498014,23.6500129 L58.2498014,50.8500067 L61.49978,50.8500067 L61.49978,54.5500058 L56.3998137,54.5500058 C55.3998203,54.5500058 54.5498259,53.7000061 54.5498259,52.7000063 L54.5498259,21.8500133 C54.5498259,20.8000136 55.3998203,20.0000138 56.3998137,20.0000138 Z M47.5048725,39.9300092 C47.9915415,39.9300092 48.4582778,40.123339 48.8024048,40.4674681 C49.1465318,40.8115973 49.3398603,41.2783366 49.3398603,41.7650088 L49.3398603,52.7050062 C49.3398603,53.1916784 49.1465318,53.6584177 48.8024048,54.0025469 C48.4582779,54.3466761 47.9915415,54.5400059 47.5048725,54.5400059 L21.8350422,54.5400059 C20.8200488,54.5400059 20.0000474,53.720006 20.0000474,52.7050062 L20.0000474,41.7700087 C19.9987258,41.2824709 20.1914677,40.814446 20.5357388,40.4692347 C20.8800099,40.1240233 21.3475056,39.9300092 21.8350422,39.9300092 Z M64.9097574,30.6750113 C65.4409461,30.4356786 66.0652139,30.5557309 66.4697471,30.9750113 L79.4846611,43.9850083 C79.9046583,44.4050082 80.1446567,44.9950081 79.9046583,45.5550079 C79.6646599,46.1350077 79.0646639,46.4050077 78.4646678,46.4000077 L74.5296939,46.4000077 L76.7296793,51.5950065 C76.8897338,51.9442064 76.8897338,52.3458064 76.7296793,52.6950063 C76.6001317,53.0406662 76.331765,53.3162877 75.9896842,53.4550061 L73.7296991,54.4150058 C73.3805014,54.5750614 72.9789041,54.5750614 72.6297064,54.4150058 C72.2920046,54.2731822 72.0204875,54.0088087 71.8697114,53.675006 L69.7897252,48.7600071 L66.4697471,52.0800064 C66.0547498,52.5000063 65.2247553,52.9050062 64.6847589,52.5050063 C64.1797623,52.1350064 64.0297633,51.5200065 64.0297633,50.9200066 L64.0297633,31.975011 C64.0181491,31.3990314 64.3706945,30.8782225 64.9097574,30.6750113 Z M47.5098724,20.0000068 C47.9960829,20.0000068 48.4623068,20.1935011 48.8056402,20.5377748 C49.1489736,20.8820484 49.3411888,21.3488015 49.3398672,21.8350133 L49.3398672,32.7750109 C49.3398672,33.7884531 48.5183083,34.6100104 47.5048725,34.6100104 L21.8350422,34.6100104 C20.8200488,34.6100104 20.0000268,33.7850106 20.0000268,32.7750109 L20.0000268,21.8400134 C19.997386,21.3520692 20.1896968,20.883266 20.5342586,20.5377631 C20.8788204,20.1922602 21.3470956,19.9986733 21.8350422,20.0000068 Z" id="qico-types-light"></path>
        </g>
    </g>
</svg>