<svg width="60" height="60" viewBox="0 0 60 60" xmlns="http://www.w3.org/2000/svg"><path d="M45 0a6 6 0 0 1 6 6v12h3a6 6 0 0 1 6 6v24a6 6 0 0 1-6 6h-3a6 6 0 0 1-6 6H15a6 6 0 0 1-6-6H6a6 6 0 0 1-6-6V24a6 6 0 0 1 6-6h3V6a6 6 0 0 1 6-6h30zm3 48H12v6a3 3 0 0 0 3 3h30a3 3 0 0 0 3-3v-6zM14.142 24H7.5v18h4.108v-6.569h2.614c1.92 0 3.472-.53 4.655-1.59 1.182-1.06 1.774-2.41 1.774-4.048 0-1.793-.574-3.207-1.72-4.241C17.782 24.517 16.186 24 14.141 24zm15.405 0h-6.242v18h5.788c3.486 0 5.762-1.19 6.829-3.569.444-1.017.667-2.931.667-5.741 0-2.621-.24-4.406-.72-5.354C34.765 25.112 32.658 24 29.546 24zM52.5 24H40.176v18h4.108v-7.19h6.882v-3.44h-6.882V27.57H52.5V24zm-23.62 3.595c1.28 0 2.205.302 2.774.905s.853 1.534.853 2.793v3.285c0 1.258-.266 2.215-.8 2.87-.533.655-1.45.983-2.747.983h-1.547V27.595zm-14.818-.026c.729 0 1.316.181 1.76.543.445.362.667.897.667 1.604 0 .655-.213 1.176-.64 1.564-.427.388-.987.582-1.68.582h-2.561V27.57zM45 3H15a3 3 0 0 0-3 3v12h36V6a3 3 0 0 0-2.824-2.995L45 3z" fill="#000" fill-rule="nonzero"/></svg>