<svg xmlns="http://www.w3.org/2000/svg" width="40" height="31" viewBox="0 0 40 31"><path d="m33.928 22.913 2.117-8.697.13.002c.694 0 1.331-.173 1.912-.518a3.95 3.95 0 0 0 1.392-1.389c.347-.58.521-1.227.521-1.94 0-.7-.17-1.342-.513-1.922a3.883 3.883 0 0 0-1.384-1.39 3.704 3.704 0 0 0-1.929-.517 3.59 3.59 0 0 0-1.896.518c-.57.345-1.026.81-1.368 1.397a3.734 3.734 0 0 0-.513 1.915c0 .61.126 1.172.377 1.686l.008.017-4.52 3.294c-.445.317-.808.262-1.09-.165l-5.318-8.012.059-.034a3.904 3.904 0 0 0 1.376-1.389c.341-.58.512-1.227.512-1.94 0-.69-.17-1.328-.512-1.914A3.883 3.883 0 0 0 21.913.518 3.632 3.632 0 0 0 20.008 0c-.705 0-1.346.173-1.92.518a3.904 3.904 0 0 0-1.377 1.389A3.721 3.721 0 0 0 16.2 3.83c0 .712.173 1.359.52 1.94a3.99 3.99 0 0 0 1.384 1.388l.053.03-5.327 8.049c-.13.186-.274.299-.432.337-.157.038-.36-.03-.61-.205L7.234 12.04l.052-.111a3.82 3.82 0 0 0 .317-1.557c0-.69-.171-1.329-.513-1.915A3.883 3.883 0 0 0 5.714 7.06a3.632 3.632 0 0 0-1.904-.518c-.706 0-1.346.172-1.922.518A3.904 3.904 0 0 0 .513 8.449 3.721 3.721 0 0 0 0 10.372c0 .712.174 1.358.521 1.94.347.58.806 1.043 1.376 1.388a3.62 3.62 0 0 0 1.913.518l.147-.003h.02l2.128 8.698h27.823zM28.328 31c1.29 0 2.295-.318 3.011-.953.716-.636 1.226-1.578 1.53-2.827l.489-1.973h-26.7l.473 1.973c.304 1.249.814 2.191 1.53 2.827.716.635 1.726.953 3.028.953h16.638z"/></svg>