<svg xmlns="http://www.w3.org/2000/svg" width="44" height="45" viewBox="0 0 44 45"><path fill="#303438" d="M34.698 21.311c.229-.224.39-.514.444-.842a1.51 1.51 0 0 0-.83-1.599l-10.006-4.988 1.739-10.856c.104-.656-.178-1.245-.784-1.545-.606-.3-1.223-.071-1.704.398l-7.697 7.52L5.527 4.562c-.607-.302-1.445-.288-1.926.182l.029.03c-.48.47-.54 1.246-.23 1.838l4.968 10.223-7.702 7.406c-.48.47-.714 1.074-.406 1.665.306.592.851.81 1.523.71l11.144-1.675 5.138 9.814c.31.591.973.92 1.645.816.335-.051.635-.206.864-.43.229-.224.388-.516.44-.843l1.764-10.823 11.056-1.737a1.58 1.58 0 0 0 .864-.428zm-7.287 3.21-1.642.33c-.846.101-1.637.766-1.773 1.597l-.22 1.352 13.879 15.386a2.595 2.595 0 0 0 3.047.598c.567-.272 1.153-.623 1.586-1.047.576-.564 1.06-1.306 1.433-1.99.573-1.054.304-2.363-.622-3.134L27.411 24.52zM37.705 8.71a.295.295 0 0 0-.028-.184.3.3 0 0 0-.318-.157l-2.16.355-.994-1.909a.28.28 0 0 0-.304-.154c-.13.022-.201.128-.222.257l-.335 2.063-2.193.417c-.13.022-.261.12-.282.249l.007.001c-.02.129.061.258.18.316l1.977 1.044-.349 2.046c-.02.129.013.25.13.309.118.058.23.03.324-.062l1.56-1.535 1.957.96a.31.31 0 0 0 .44-.225.296.296 0 0 0-.029-.183l-.986-1.907 1.539-1.535a.302.302 0 0 0 .086-.166zM18.442 1.779a.25.25 0 0 0-.024-.155.255.255 0 0 0-.269-.133l-1.83.3-.842-1.617a.237.237 0 0 0-.258-.13c-.11.018-.17.108-.188.217l-.283 1.749-1.859.353c-.11.018-.221.1-.24.21l.008.001c-.018.11.051.219.15.268l1.676.885-.295 1.733c-.017.11.011.212.11.262.1.05.195.026.274-.053l1.323-1.3 1.657.813a.263.263 0 0 0 .374-.19.25.25 0 0 0-.025-.156l-.836-1.615 1.304-1.301a.255.255 0 0 0 .073-.14zM2.685 12.63a.194.194 0 0 0-.313.012l-.774 1.16-1.344-.37a.18.18 0 0 0-.207.074c-.046.07-.026.15.026.215l.837 1.057-.759 1.203c-.047.07-.057.174-.005.24l.004-.003c.053.066.15.084.229.055l1.361-.465.823 1.056c.052.066.125.103.205.074.079-.03.114-.093.11-.177l-.05-1.397 1.313-.491a.195.195 0 0 0-.015-.37l-1.34-.373-.06-1.387a.194.194 0 0 0-.04-.113z"/></svg>