<svg xmlns="http://www.w3.org/2000/svg" width="40" height="40" viewBox="0 0 40 40"><path d="M20 40c2.743 0 5.322-.525 7.737-1.574a20.482 20.482 0 0 0 6.378-4.331 20.37 20.37 0 0 0 4.321-6.369C39.48 25.32 40 22.743 40 20c0-2.743-.521-5.319-1.564-7.726a20.407 20.407 0 0 0-4.331-6.379 20.373 20.373 0 0 0-6.389-4.331C25.302.52 22.723 0 19.979 0c-2.716 0-5.28.521-7.695 1.564a20.373 20.373 0 0 0-6.389 4.331 20.407 20.407 0 0 0-4.331 6.379C.52 14.68 0 17.257 0 20c0 2.743.525 5.319 1.574 7.726a20.516 20.516 0 0 0 4.331 6.369 20.482 20.482 0 0 0 6.379 4.33C14.698 39.476 17.27 40 20 40zm-3.827-6.626a.976.976 0 0 1-.803-.432c-.192-.274-.205-.63-.04-1.07l3.58-9.588h-6.708a.976.976 0 0 1-.69-.257.87.87 0 0 1-.277-.669c0-.274.11-.542.329-.802L22.51 6.893c.288-.357.607-.532.957-.525.35.007.62.151.813.432.192.282.206.642.041 1.08l-3.6 9.59h6.728c.274 0 .504.085.689.256a.846.846 0 0 1 .278.648c0 .289-.11.563-.33.824L17.12 32.86c-.288.357-.603.528-.946.514z"/></svg>