<svg xmlns="http://www.w3.org/2000/svg" width="40" height="39" viewBox="0 0 40 39"><path d="M36.206 35.609c.744 0 1.401-.16 1.972-.48a3.459 3.459 0 0 0 1.339-1.327c.322-.565.483-1.216.483-1.953V3.759c0-.736-.161-1.388-.483-1.953A3.459 3.459 0 0 0 38.177.48C37.608.16 36.95 0 36.208 0c-.757 0-1.417.16-1.981.48a3.477 3.477 0 0 0-1.33 1.326c-.322.565-.483 1.217-.483 1.954v28.089c0 .737.161 1.388.483 1.953a3.477 3.477 0 0 0 1.33 1.327c.564.32 1.224.48 1.98.48zm-6.285-4.276a2.03 2.03 0 0 0-.01-.203 1.835 1.835 0 0 1-.009-.184V4.663c0-.037.003-.077.01-.12a.843.843 0 0 0 .009-.12 43.749 43.749 0 0 1-5.207 2.24 49.481 49.481 0 0 1-5.411 1.594 45.49 45.49 0 0 1-5.114.903v17.436c1.76.197 3.53.507 5.309.93 1.779.425 3.542.953 5.29 1.586a45.99 45.99 0 0 1 5.133 2.22zm-18.243-4.755V9.16H7.736c-2.517 0-4.435.633-5.756 1.899C.66 12.324 0 14.16 0 16.569v2.6c0 2.408.66 4.245 1.98 5.51 1.32 1.266 3.24 1.899 5.756 1.899h3.942zM15.118 39c.77 0 1.448-.175 2.037-.525a2.987 2.987 0 0 0 1.274-1.502c.26-.652.285-1.444.074-2.378l-1.172-5.327c-.322-.135-.808-.245-1.46-.331a32.905 32.905 0 0 0-2.045-.203 27.608 27.608 0 0 0-1.869-.074H7.513l3.403 7.188c.483.996 1.035 1.77 1.655 2.323.62.553 1.469.829 2.548.829z"/></svg>