<svg xmlns="http://www.w3.org/2000/svg" width="40" height="40" viewBox="0 0 40 40"><g fill="none" fill-rule="evenodd"><path fill="#000" fill-rule="nonzero" d="M19.981 4.032c-11.646 0-15.95 10.126-15.95 15.886 0 5.696 4.178 15.95 15.634 15.95 0 0 2.848.062 2.848-2.533 0-2.594-1.266-1.772-1.266-3.607 0-1.836 1.266-2.658 1.899-2.658.632 0 4.683.316 6.962-.57 2.278-.886 5.886-3.67 5.886-8.354 0-4.178-4.367-14.114-16.013-14.114Zm-9.747 15.886c-1.519 0-2.785-1.266-2.785-2.785 0-1.52 1.266-2.785 2.785-2.785 1.52 0 2.785 1.266 2.785 2.785a2.769 2.769 0 0 1-2.785 2.785Zm5.253-6.836c-1.519 0-2.784-1.266-2.784-2.785 0-1.519 1.265-2.784 2.784-2.784 1.52 0 2.785 1.265 2.785 2.784 0 1.52-1.266 2.785-2.785 2.785Zm8.861 0c-1.519 0-2.785-1.266-2.785-2.785 0-1.519 1.266-2.784 2.785-2.784 1.52 0 2.785 1.265 2.785 2.784a2.769 2.769 0 0 1-2.785 2.785Zm5.317 6.836c-1.52 0-2.785-1.266-2.785-2.785 0-1.52 1.266-2.785 2.785-2.785 1.519 0 2.784 1.266 2.784 2.785a2.769 2.769 0 0 1-2.784 2.785Z"/><path d="M0 0h40v40H0z"/></g></svg>