<svg width="500" height="206" viewBox="0 0 500 206" xmlns="http://www.w3.org/2000/svg" xmlns:xlink="http://www.w3.org/1999/xlink"><defs><path d="M51.278 0H480.77c6.686 0 9.11.696 11.555 2.003a13.63 13.63 0 0 1 5.67 5.67c1.308 2.445 2.004 4.87 2.004 11.556v167.542c0 6.686-.696 9.11-2.003 11.555a13.63 13.63 0 0 1-5.67 5.67c-2.445 1.308-4.87 2.004-11.556 2.004H19.229c-6.686 0-9.11-.696-11.555-2.003a13.63 13.63 0 0 1-5.67-5.67C.695 195.881 0 193.456 0 186.77V51.278c0-17.83 1.857-24.296 5.343-30.815 3.486-6.518 8.602-11.634 15.12-15.12C26.982 1.857 33.447 0 51.278 0z" id="a"/><path d="M0 0h464.227v108H0V0z" id="b"/><path d="M38.018 0h31.964c13.22 0 18.013 1.376 22.846 3.961 4.833 2.585 8.626 6.378 11.21 11.21C106.625 20.006 108 24.8 108 38.019v31.964c0 13.22-1.376 18.013-3.961 22.846-2.585 4.833-6.378 8.626-11.21 11.21C87.994 106.625 83.2 108 69.981 108H38.018c-13.22 0-18.013-1.376-22.846-3.961-4.833-2.585-8.626-6.378-11.21-11.21C1.375 87.994 0 83.2 0 69.981V38.018c0-13.22 1.376-18.013 3.961-22.846 2.585-4.833 6.378-8.626 11.21-11.21C20.006 1.375 24.8 0 38.019 0z" id="c"/><radialGradient cy="100%" fx="50%" fy="100%" r="72.558%" gradientTransform="matrix(0 -1 2.39932 0 -1.9 1.5)" id="e"><stop stop-color="#04ADBF" stop-opacity=".45" offset="0%"/><stop stop-color="#9A4EE6" stop-opacity=".18" offset="30.303%"/><stop stop-color="#9A4EE6" stop-opacity=".1" offset="59.775%"/><stop stop-color="#9A4EE6" stop-opacity="0" offset="100%"/></radialGradient></defs><g fill="none" xlink:href="#a" fill-rule="evenodd"><use fill="#1C1E1F" xlink:href="#a"/><g xlink:href="#b"><g transform="translate(18 18)"><mask id="d" fill="#fff"><use xlink:href="#c"/></mask><g mask="url(#d)"><path fill="#FFF" d="M0 0h108v108H0z"/><path fill="url(#e)" d="M0 64.8h108V108H0z"/></g><g mask="url(#d)" fill="#000"><path d="M54.697 74.817c.093.07.175.151.244.244l4.64 6.26c.353.475.406 1.108.14 1.635l-4.677 9.23a1.17 1.17 0 0 1-2.088 0l-4.676-9.23a1.561 1.561 0 0 1 .138-1.635l4.641-6.26a1.17 1.17 0 0 1 1.638-.244zm21.191-34.1c10.577 0 19.152 8.589 19.152 19.184 0 10.596-8.575 19.185-19.152 19.185-10.577 0-19.152-8.59-19.152-19.185 0-10.595 8.575-19.185 19.152-19.185zm-43.776.05c10.577 0 19.152 8.578 19.152 19.158 0 10.58-8.575 19.158-19.152 19.158-10.577 0-19.152-8.577-19.152-19.158 0-10.58 8.575-19.158 19.152-19.158zm0 5.865c-7.34 0-13.29 5.951-13.29 13.293s5.95 13.293 13.29 13.293c7.34 0 13.29-5.951 13.29-13.293s-5.95-13.293-13.29-13.293zm43.776-.043c-7.34 0-13.29 5.96-13.29 13.312 0 7.352 5.95 13.312 13.29 13.312 7.34 0 13.29-5.96 13.29-13.312 0-7.352-5.95-13.312-13.29-13.312zm15.82-23.66a2.927 2.927 0 0 1-1.517 3.851L55.115 42.032c-.373.162-.76.24-1.143.243h-.06a2.918 2.918 0 0 1-1.143-.243L17.693 26.78a2.927 2.927 0 0 1 2.335-5.369l33.914 14.747L87.856 21.41a2.927 2.927 0 0 1 3.852 1.518z"/></g></g><g fill-rule="nonzero"><path d="M445.164 69.508a5.487 5.487 0 0 1 7.569-.19l.198.19 27.46 27.499a5.505 5.505 0 0 1 0 7.778 5.487 5.487 0 0 1-7.568.19l-.199-.19-27.46-27.5a5.505 5.505 0 0 1 0-7.777z" fill="#A5B4C2"/><path d="M480.391 42.008a5.487 5.487 0 0 0-7.568-.189l-.199.19-54.92 54.998a5.505 5.505 0 0 0 0 7.778 5.487 5.487 0 0 0 7.568.19l.199-.19 54.92-54.999a5.505 5.505 0 0 0 0-7.778z" fill="#A5B4C2"/><path d="M210.223 41.181a5.488 5.488 0 0 0-7.4 1.674l-.135.213-32.952 54.998a5.504 5.504 0 0 0 1.883 7.546 5.488 5.488 0 0 0 7.401-1.673l.135-.213 32.952-54.999a5.504 5.504 0 0 0-1.884-7.546z" fill="#FFF"/><path d="M138.667 41.181a5.488 5.488 0 0 1 7.401 1.674l.134.213 32.953 54.998a5.504 5.504 0 0 1-1.884 7.546 5.488 5.488 0 0 1-7.401-1.673l-.134-.213-32.953-54.999a5.504 5.504 0 0 1 1.884-7.546z" fill="#FFF"/><path d="M240.35 40.398a5.496 5.496 0 0 0-5.487 5.26l-.005.24v54.998c0 3.037 2.459 5.5 5.492 5.5a5.496 5.496 0 0 0 5.487-5.262l.005-.238V45.897c0-3.037-2.459-5.5-5.492-5.5z" fill="#A5B4C2"/><path d="M223.874 40.398a5.496 5.496 0 0 0-5.487 5.26l-.005.24v5.5c0 3.037 2.458 5.5 5.492 5.5a5.496 5.496 0 0 0 5.487-5.262l.005-.239v-5.5c0-3.037-2.46-5.5-5.492-5.5z" fill="#FFF"/><path d="M421.587 40.398a5.496 5.496 0 0 1 5.492 5.5v54.998l-.005.238a5.496 5.496 0 0 1-5.487 5.262 5.496 5.496 0 0 1-5.492-5.5v-7.659a38.36 38.36 0 0 0 5.492-19.84 38.36 38.36 0 0 0-5.491-19.841v-7.659l.004-.238a5.496 5.496 0 0 1 5.487-5.261zM280.193 95.397a38.684 38.684 0 0 0 11.741 11l-51.584-.001-.238-.005a5.497 5.497 0 0 1-5.254-5.495c0-3.038 2.459-5.5 5.492-5.5z" fill="#A5B4C2"/><path d="M311.746 40.398c-18.199 0-32.952 14.774-32.952 32.999s14.753 32.999 32.952 32.999c18.2 0 32.953-14.774 32.953-33 0-18.224-14.754-32.998-32.953-32.998zm0 11c12.133 0 21.969 9.849 21.969 21.999 0 12.15-9.836 21.999-21.969 21.999-12.132 0-21.968-9.85-21.968-22s9.836-21.999 21.968-21.999zM383.143 40.398c-18.199 0-32.952 14.774-32.952 32.999s14.753 32.999 32.952 32.999c18.2 0 32.952-14.774 32.952-33 0-18.224-14.753-32.998-32.952-32.998zm0 11c12.133 0 21.968 9.849 21.968 21.999 0 12.15-9.835 21.999-21.968 21.999s-21.968-9.85-21.968-22 9.835-21.999 21.968-21.999z" fill="#FFF"/></g><g fill="#A5B4C2" fill-rule="nonzero"><path d="M470.057 28.121c.603 0 .972-.387.972-1.02v-5.449h1.53c.445 0 .773-.34.773-.79 0-.458-.328-.798-.773-.798h-4.987c-.445 0-.779.34-.779.797 0 .451.334.791.78.791h1.517v5.45c0 .632.363 1.02.967 1.02zM474.926 28.121c.562 0 .885-.369.885-1.008v-4.025h.046l1.4 3.562c.23.586.505.786.903.786.393 0 .662-.188.89-.786l1.395-3.562h.053v4.025c0 .657.293 1.008.844 1.008.562 0 .885-.369.885-1.008v-5.86c0-.796-.416-1.253-1.143-1.253-.65 0-1.031.293-1.348 1.143l-1.547 4.002h-.064l-1.553-3.997c-.31-.837-.715-1.148-1.336-1.148-.714 0-1.16.475-1.16 1.254v5.86c0 .656.293 1.007.85 1.007z"/></g></g><g fill-rule="nonzero"><g fill="#04B1CC"><path d="M59.207 160.874c.854 0 1.391-.574 1.391-1.49V146.47h3.797c.757 0 1.257-.476 1.257-1.184s-.5-1.196-1.257-1.196H54.043c-.744 0-1.27.488-1.27 1.196 0 .696.526 1.184 1.27 1.184h3.784v12.915c0 .928.525 1.49 1.38 1.49zM79.348 160.874c.867 0 1.38-.562 1.38-1.514v-13.88c0-.952-.513-1.513-1.38-1.513-.878 0-1.391.561-1.391 1.514v5.542h-7.63v-5.542c0-.953-.512-1.514-1.379-1.514-.879 0-1.392.561-1.392 1.514v13.879c0 .952.513 1.514 1.392 1.514.867 0 1.38-.562 1.38-1.514v-5.994h7.629v5.994c0 .952.513 1.514 1.391 1.514zM84.475 158.774c0 1.367.66 1.978 2.1 1.978h7.214c.782 0 1.282-.452 1.282-1.16 0-.72-.5-1.172-1.282-1.172h-6.555v-5.017h6.201c.72 0 1.197-.427 1.197-1.11 0-.684-.476-1.124-1.197-1.124h-6.2v-4.748h6.579c.757 0 1.257-.452 1.257-1.16s-.5-1.172-1.257-1.172h-7.239c-1.44 0-2.1.623-2.1 1.978v12.707zM99.38 160.874c.818 0 1.257-.513 1.257-1.477v-10.242h.11l3.711 8.899c.44 1.074.891 1.428 1.6 1.428.695 0 1.135-.342 1.586-1.428l3.711-8.9h.11v10.243c0 .976.415 1.477 1.22 1.477.83 0 1.27-.513 1.27-1.477v-13.672c0-1.136-.573-1.782-1.562-1.782-.903 0-1.367.378-1.88 1.696l-4.407 10.706h-.097l-4.42-10.693c-.512-1.319-1-1.71-1.867-1.71-.989 0-1.587.66-1.587 1.783v13.672c0 .976.427 1.477 1.245 1.477zM117.727 158.774c0 1.367.66 1.978 2.1 1.978h7.214c.782 0 1.282-.452 1.282-1.16 0-.72-.5-1.172-1.282-1.172h-6.555v-5.017h6.201c.72 0 1.197-.427 1.197-1.11 0-.684-.476-1.124-1.197-1.124h-6.2v-4.748h6.579c.757 0 1.257-.452 1.257-1.16s-.5-1.172-1.257-1.172h-7.239c-1.44 0-2.1.623-2.1 1.978v12.707zM29.165 185.874c.88 0 1.392-.562 1.392-1.514v-4.59h3.503c3.406 0 5.603-2.038 5.603-5.347 0-3.21-2.185-5.334-5.53-5.334h-4.138c-1.587 0-2.21.598-2.21 2.148v13.123c0 .952.514 1.514 1.38 1.514zm1.392-8.362v-6.128h3.308c1.917 0 3.015 1.123 3.015 3.064 0 2.27-1.11 3.064-4.016 3.064h-2.307zM41.629 185.898c.744 0 1.16-.366 1.452-1.318l1.148-3.443h6.03l1.148 3.443c.28.94.72 1.318 1.464 1.318.794 0 1.319-.464 1.319-1.196 0-.305-.073-.635-.208-1.038l-4.577-12.951c-.415-1.233-1.014-1.758-2.124-1.758-1.111 0-1.71.537-2.137 1.758l-4.577 12.951c-.159.464-.232.781-.232 1.074 0 .708.525 1.16 1.294 1.16zm3.259-6.885l2.295-7.043h.134l2.283 7.043h-4.712zM55.752 178.586c0 4.773 2.442 7.52 6.75 7.52 2.015 0 3.638-.586 4.798-1.66.916-.818 1.49-1.905 1.49-2.723 0-.708-.452-1.172-1.185-1.172-.512 0-.83.232-1.27.867-.903 1.55-2.111 2.27-3.698 2.27-2.649 0-4.126-1.843-4.126-5.175v-2.222c0-3.26 1.49-5.115 4.126-5.115 1.563 0 2.686.733 3.65 2.32.44.647.793.854 1.33.854.696 0 1.172-.451 1.172-1.172 0-.732-.512-1.77-1.33-2.588-1.184-1.196-2.881-1.83-4.956-1.83-4.285 0-6.75 2.77-6.75 7.446v2.38zM82.742 185.813c.818 0 1.38-.55 1.38-1.33 0-.416-.123-.697-.684-1.454l-4.87-6.713 4.504-4.908c.5-.537.634-.793.634-1.16 0-.683-.525-1.22-1.22-1.22-.428 0-.77.195-1.245.732l-6.507 6.97h-.146v-6.25c0-.952-.513-1.513-1.38-1.513-.879 0-1.391.561-1.391 1.514v13.879c0 .952.525 1.514 1.404 1.514.866 0 1.367-.562 1.367-1.514v-4.248l1.916-1.965 4.76 6.69c.501.683.953.976 1.478.976zM87.234 185.898c.745 0 1.16-.366 1.453-1.318l1.147-3.443h6.03l1.148 3.443c.28.94.72 1.318 1.465 1.318.793 0 1.318-.464 1.318-1.196 0-.305-.073-.635-.207-1.038l-4.578-12.951c-.415-1.233-1.013-1.758-2.124-1.758-1.11 0-1.709.537-2.136 1.758l-4.578 12.951c-.159.464-.232.781-.232 1.074 0 .708.525 1.16 1.294 1.16zm3.26-6.885l2.294-7.043h.135l2.282 7.043h-4.712zM101.333 178.684c0 4.65 2.588 7.422 6.934 7.422 3.723 0 6.396-2.405 6.396-5.774v-1.587c0-1.233-.561-1.795-1.818-1.795h-3.565c-.806 0-1.282.403-1.282 1.099s.476 1.099 1.282 1.099h2.722v1.306c0 1.965-1.452 3.283-3.65 3.283-2.685 0-4.248-1.855-4.248-5.065v-2.442c0-3.26 1.502-5.054 4.163-5.054 1.733 0 2.869.904 3.845 2.442.342.513.647.708 1.11.708.697 0 1.16-.464 1.16-1.184 0-.806-.61-1.868-1.537-2.71-1.16-1.099-2.784-1.673-4.737-1.673-4.26 0-6.775 2.784-6.775 7.386v2.539zM117.727 183.774c0 1.367.66 1.978 2.1 1.978h7.214c.782 0 1.282-.452 1.282-1.16 0-.72-.5-1.172-1.282-1.172h-6.555v-5.017h6.201c.72 0 1.197-.427 1.197-1.11 0-.684-.476-1.124-1.197-1.124h-6.2v-4.748h6.579c.757 0 1.257-.452 1.257-1.16s-.5-1.172-1.257-1.172h-7.239c-1.44 0-2.1.623-2.1 1.978v12.707z"/></g><g fill="#7F8994"><path d="M319.503 185.249v-6.218h1.033c.505 0 .798-.277.798-.724 0-.456-.293-.724-.798-.724h-1.057v-.822c0-.74.292-1.066.878-1.066.35 0 .44.048.757.048.35 0 .578-.236.578-.602 0-.236-.114-.431-.325-.586-.245-.163-.619-.252-1.107-.252-1.71 0-2.564.79-2.564 2.523v.757h-.586c-.504 0-.797.268-.797.724 0 .456.3.724.797.724h.586v6.218c0 .634.334 1 .904 1 .57 0 .903-.366.903-1zM326.314 177.404c-2.246 0-3.849 1.432-3.849 3.881v1.148c0 2.482 1.603 3.898 3.85 3.898 2.237 0 3.84-1.416 3.84-3.898v-1.156c0-2.441-1.603-3.873-3.84-3.873zm0 1.464c1.237 0 1.986.969 1.986 2.499v1c0 1.555-.749 2.507-1.986 2.507-1.228 0-2.002-.952-2.002-2.506v-1.001c0-1.53.774-2.499 2.002-2.499zM333.891 185.249v-4.175c0-1.351.627-2.018 1.855-2.035.31-.008.546-.057.708-.17.196-.13.293-.334.293-.62 0-.268-.105-.487-.3-.618-.163-.13-.4-.195-.684-.195-.798 0-1.449.415-1.84 1.229h-.065v-.26c-.024-.578-.333-.912-.87-.912-.57 0-.904.366-.904 1.001v6.755c0 .634.318 1 .895 1 .578 0 .912-.366.912-1zM344.527 186.25c.57 0 .928-.383.928-.993v-8.61h2.531c.505 0 .838-.318.838-.79 0-.472-.333-.797-.838-.797h-6.901c-.496 0-.846.325-.846.797 0 .464.35.79.846.79h2.523v8.61c0 .618.35.993.92.993zM348.523 188.439a.67.67 0 0 0 .204.488c.211.212.594.326 1.074.326 1.554 0 2.482-.75 3.133-2.605l2.726-7.715c.082-.236.122-.406.122-.553 0-.488-.374-.846-.87-.846-.464 0-.766.285-.928.879l-1.888 6.152h-.074l-1.871-6.152c-.163-.594-.472-.88-.944-.88-.521 0-.904.367-.904.855 0 .147.033.326.106.545l2.637 7.35c0 .04-.106.455-.122.48-.195.658-.651 1.082-1.172 1.082-.212 0-.366-.033-.513-.033-.431 0-.716.252-.716.627zM359.306 188.26v-3.386h.09c.382.904 1.269 1.416 2.45 1.416 2.034 0 3.287-1.424 3.287-3.76v-1.342c0-2.328-1.237-3.752-3.247-3.752-1.221 0-2.19.57-2.54 1.497h-.089v-.528c-.024-.586-.342-.912-.887-.912-.561 0-.87.358-.87 1.001v9.766c0 .643.325 1 .895 1 .577 0 .911-.357.911-1zm0-5.673v-1.318c0-1.473.757-2.344 2.002-2.344 1.27 0 1.986.904 1.986 2.515v.846c0 1.595-.717 2.515-1.962 2.515-1.204 0-2.026-.887-2.026-2.214zM370.577 177.404c-2.246 0-3.85 1.432-3.85 3.881v1.148c0 2.482 1.604 3.898 3.85 3.898 2.238 0 3.841-1.416 3.841-3.898v-1.156c0-2.441-1.603-3.873-3.84-3.873zm0 1.464c1.237 0 1.986.969 1.986 2.499v1c0 1.555-.749 2.507-1.986 2.507-1.229 0-2.002-.952-2.002-2.506v-1.001c0-1.53.773-2.499 2.002-2.499zM378.154 185.249v-4.175c0-1.351.626-2.018 1.855-2.035.31-.008.545-.057.708-.17.195-.13.293-.334.293-.62 0-.268-.106-.487-.301-.618-.163-.13-.399-.195-.684-.195-.797 0-1.448.415-1.839 1.229h-.065v-.26c-.024-.578-.334-.912-.87-.912-.57 0-.904.366-.904 1.001v6.755c0 .634.317 1 .895 1 .578 0 .912-.366.912-1zM387.04 185.053h.09v.383c.04.512.358.814.854.814.562 0 .88-.358.88-.977v-4.923c0-1.872-1.213-2.914-3.386-2.914-.895 0-1.579.155-2.1.44-.724.39-1.066.878-1.066 1.375 0 .39.26.66.66.66.309 0 .52-.082.74-.294.496-.504.968-.749 1.652-.749 1.099 0 1.693.505 1.693 1.473v.765h-2.149c-1.92.008-3.076.977-3.076 2.564 0 1.562 1.131 2.62 2.808 2.62 1.066 0 1.928-.44 2.4-1.237zm-3.393-1.473c0-.79.553-1.237 1.513-1.237h1.897v.928c0 .928-.806 1.644-1.856 1.644-.928 0-1.554-.537-1.554-1.335zM395.024 188.203l3.597-12.76c.024-.066.04-.18.049-.27.008-.422-.35-.78-.798-.78-.374 0-.675.22-.773.57l-3.589 12.76a.78.78 0 0 0 .749 1.058c.366 0 .667-.22.765-.578zM404.342 186.25c.545 0 .838-.342.838-.985v-6.828h.073l2.474 5.933c.293.716.594.952 1.066.952.464 0 .757-.228 1.058-.952l2.474-5.933h.073v6.828c0 .65.277.985.814.985.554 0 .847-.342.847-.985v-9.115c0-.757-.383-1.188-1.042-1.188-.602 0-.912.252-1.253 1.131l-2.938 7.137h-.065l-2.946-7.129c-.342-.878-.668-1.139-1.245-1.139-.66 0-1.058.44-1.058 1.188v9.115c0 .65.285.985.83.985zM421.22 185.053h.09v.383c.04.512.358.814.854.814.562 0 .879-.358.879-.977v-4.923c0-1.872-1.213-2.914-3.385-2.914-.896 0-1.58.155-2.1.44-.724.39-1.066.878-1.066 1.375 0 .39.26.66.659.66.31 0 .52-.082.74-.294.497-.504.969-.749 1.653-.749 1.098 0 1.692.505 1.692 1.473v.765h-2.148c-1.92.008-3.076.977-3.076 2.564 0 1.562 1.13 2.62 2.807 2.62 1.066 0 1.929-.44 2.401-1.237zm-3.394-1.473c0-.79.554-1.237 1.514-1.237h1.896v.928c0 .928-.805 1.644-1.855 1.644-.928 0-1.555-.537-1.555-1.335zM427.039 185.249v-4.175c0-1.351.626-2.018 1.855-2.035.31-.008.545-.057.708-.17.196-.13.293-.334.293-.62 0-.268-.106-.487-.3-.618-.164-.13-.4-.195-.685-.195-.797 0-1.448.415-1.839 1.229h-.065v-.26c-.024-.578-.333-.912-.87-.912-.57 0-.904.366-.904 1.001v6.755c0 .634.317 1 .895 1 .578 0 .912-.366.912-1zM433.28 185.249v-2.124l.839-.798 2.645 3.402c.26.333.512.48.813.48.456 0 .83-.383.83-.83 0-.228-.105-.48-.317-.74l-2.628-3.37 2.335-2.368c.236-.244.334-.456.334-.7a.731.731 0 0 0-.757-.757c-.277 0-.513.122-.806.423l-3.198 3.256h-.09v-5.705c0-.635-.333-1.001-.903-1.001-.578 0-.903.366-.903 1v9.832c0 .634.334 1 .911 1 .57 0 .896-.366.896-1zM445.17 184.801h.09v.529c.032.586.35.92.879.92.57 0 .879-.358.879-1.001v-9.831c0-.635-.326-1.001-.904-1.001-.578 0-.903.366-.903 1v3.427h-.09c-.333-.879-1.27-1.408-2.465-1.408-2.002 0-3.288 1.432-3.288 3.678v1.498c0 2.246 1.261 3.678 3.255 3.678 1.245 0 2.287-.61 2.547-1.489zm-3.955-2.458v-.96c0-1.538.716-2.458 1.937-2.458 1.213 0 2.059.912 2.059 2.214v1.326c0 1.44-.781 2.344-2.018 2.344-1.245 0-1.978-.911-1.978-2.466zM452.853 177.404c-2.247 0-3.85 1.432-3.85 3.881v1.148c0 2.482 1.603 3.898 3.85 3.898 2.237 0 3.84-1.416 3.84-3.898v-1.156c0-2.441-1.603-3.873-3.84-3.873zm0 1.464c1.237 0 1.985.969 1.985 2.499v1c0 1.555-.748 2.507-1.985 2.507-1.23 0-2.002-.952-2.002-2.506v-1.001c0-1.53.773-2.499 2.002-2.499zM459.632 184.72c.317 1.18.642 1.53 1.334 1.53.692 0 .993-.326 1.31-1.53l1.36-4.916h.065l1.391 4.916c.326 1.204.66 1.53 1.343 1.53.643 0 .968-.334 1.286-1.53l1.587-5.868c.065-.22.09-.374.09-.496 0-.489-.35-.83-.88-.83-.44 0-.757.333-.879.92l-1.261 5.72h-.081l-1.44-5.322c-.278-1.025-.562-1.318-1.189-1.318-.635 0-.911.293-1.18 1.318l-1.408 5.322H461l-1.205-5.705c-.114-.61-.44-.935-.911-.935-.554 0-.928.366-.928.895 0 .122.024.268.073.488l1.604 5.81zM478.495 185.257v-4.9c0-1.855-1.057-2.92-2.897-2.92-1.285 0-2.238.626-2.588 1.676h-.09v-.692c-.015-.594-.333-.928-.878-.928-.553 0-.895.366-.895.977v6.779c0 .634.325 1 .903 1 .57 0 .903-.366.903-1v-3.874c0-1.49.79-2.393 2.035-2.393 1.09 0 1.693.668 1.693 1.88v4.387c0 .634.333 1 .911 1 .57 0 .903-.357.903-.992z"/></g><path d="M143.19 174.075l6.674-6.653 6.714 6.714c.447.468 1.2.468 1.668 0a1.167 1.167 0 0 0 0-1.668l-6.714-6.714 6.673-6.693c.468-.468.489-1.221 0-1.669a1.156 1.156 0 0 0-1.688 0l-6.674 6.653-6.754-6.734a1.167 1.167 0 0 0-1.668 0c-.468.448-.448 1.2.02 1.648l6.734 6.775-6.653 6.653c-.468.447-.468 1.22.02 1.688.469.468 1.201.468 1.649 0z" fill="#7F8994"/><g fill="#9A4EE6"><path d="M176.511 160.874c.855 0 1.392-.574 1.392-1.49V146.47h3.796c.757 0 1.258-.476 1.258-1.184s-.5-1.196-1.258-1.196h-10.351c-.745 0-1.27.488-1.27 1.196 0 .696.525 1.184 1.27 1.184h3.784v12.915c0 .928.525 1.49 1.38 1.49zM190.61 160.874c.843 0 1.392-.574 1.38-1.453l-.025-5.603 4.456-7.36c.39-.648.5-.94.5-1.307 0-.72-.512-1.233-1.257-1.233-.586 0-.989.317-1.428 1.11l-3.577 6.263h-.11l-3.54-6.262c-.44-.818-.817-1.11-1.428-1.11-.769 0-1.282.512-1.282 1.269 0 .354.11.634.476 1.245l4.48 7.385-.036 5.603c-.012.879.537 1.453 1.391 1.453zM200.718 160.874c.879 0 1.391-.562 1.391-1.514v-4.59h3.504c3.406 0 5.603-2.038 5.603-5.347 0-3.21-2.185-5.334-5.53-5.334h-4.138c-1.587 0-2.21.598-2.21 2.148v13.123c0 .952.513 1.514 1.38 1.514zm1.391-8.362v-6.128h3.309c1.916 0 3.015 1.123 3.015 3.064 0 2.27-1.111 3.064-4.016 3.064h-2.308zM213.682 158.774c0 1.367.659 1.978 2.1 1.978h7.214c.781 0 1.281-.452 1.281-1.16 0-.72-.5-1.172-1.281-1.172h-6.555v-5.017h6.2c.72 0 1.197-.427 1.197-1.11 0-.684-.476-1.124-1.196-1.124h-6.201v-4.748h6.58c.756 0 1.256-.452 1.256-1.16s-.5-1.172-1.257-1.172h-7.239c-1.44 0-2.1.623-2.1 1.978v12.707zM226.414 157.321c0 .708.427 1.477 1.245 2.222 1.074.989 2.905 1.563 4.98 1.563 3.821 0 6.25-1.941 6.25-5.042 0-2.405-1.391-3.845-4.419-4.602l-2.624-.66c-1.55-.39-2.344-1.195-2.344-2.318 0-1.465 1.245-2.405 3.162-2.405 1.562 0 2.795.72 3.454 1.94.305.489.684.709 1.197.709.683 0 1.147-.464 1.147-1.148 0-.781-.44-1.599-1.22-2.307-1.075-.976-2.747-1.514-4.627-1.514-3.577 0-5.945 1.954-5.945 4.932 0 2.32 1.392 3.82 4.175 4.504l2.637.684c1.83.464 2.66 1.245 2.66 2.49 0 1.526-1.244 2.405-3.356 2.405-1.612 0-2.869-.598-3.772-1.794-.525-.66-.928-.904-1.453-.904-.659 0-1.147.513-1.147 1.245zM241.721 158.774c0 1.367.66 1.978 2.1 1.978h7.214c.782 0 1.282-.452 1.282-1.16 0-.72-.5-1.172-1.282-1.172h-6.555v-5.017h6.201c.72 0 1.197-.427 1.197-1.11 0-.684-.477-1.124-1.197-1.124h-6.2v-4.748h6.579c.757 0 1.257-.452 1.257-1.16s-.5-1.172-1.257-1.172h-7.24c-1.44 0-2.099.623-2.099 1.978v12.707zM259.922 160.874c.854 0 1.392-.574 1.392-1.49V146.47h3.796c.757 0 1.257-.476 1.257-1.184s-.5-1.196-1.257-1.196h-10.352c-.744 0-1.27.488-1.27 1.196 0 .696.526 1.184 1.27 1.184h3.785v12.915c0 .928.524 1.49 1.379 1.49zM273.46 160.874c.854 0 1.391-.574 1.391-1.49V146.47h3.797c.756 0 1.257-.476 1.257-1.184s-.5-1.196-1.257-1.196h-10.352c-.745 0-1.27.488-1.27 1.196 0 .696.525 1.184 1.27 1.184h3.784v12.915c0 .928.525 1.49 1.38 1.49zM283.2 160.874c.867 0 1.38-.562 1.38-1.514v-13.88c0-.952-.513-1.513-1.38-1.513-.878 0-1.39.561-1.39 1.514v13.879c0 .952.524 1.514 1.39 1.514zM290.989 159.397v-10.645h.122l7.019 10.84c.647.976 1.038 1.282 1.758 1.282.928 0 1.404-.586 1.404-1.673v-13.757c0-.916-.489-1.477-1.319-1.477s-1.294.561-1.294 1.477v10.608h-.134l-6.958-10.718c-.598-.903-1.025-1.367-1.746-1.367-.976 0-1.477.598-1.477 1.721v13.709c0 .915.489 1.477 1.319 1.477s1.306-.562 1.306-1.477zM304.429 153.684c0 4.65 2.588 7.422 6.933 7.422 3.724 0 6.397-2.405 6.397-5.774v-1.587c0-1.233-.562-1.795-1.819-1.795h-3.564c-.806 0-1.282.403-1.282 1.099s.476 1.099 1.282 1.099h2.722v1.306c0 1.965-1.453 3.283-3.65 3.283-2.686 0-4.248-1.855-4.248-5.065v-2.442c0-3.26 1.501-5.054 4.162-5.054 1.734 0 2.87.904 3.846 2.442.341.513.647.708 1.11.708.696 0 1.16-.464 1.16-1.184 0-.806-.61-1.868-1.538-2.71-1.16-1.099-2.783-1.673-4.736-1.673-4.26 0-6.775 2.784-6.775 7.386v2.539zM173.289 185.874c.879 0 1.391-.562 1.391-1.514v-4.59h3.504c3.405 0 5.603-2.038 5.603-5.347 0-3.21-2.185-5.334-5.53-5.334h-4.138c-1.587 0-2.21.598-2.21 2.148v13.123c0 .952.513 1.514 1.38 1.514zm1.391-8.362v-6.128h3.308c1.917 0 3.016 1.123 3.016 3.064 0 2.27-1.111 3.064-4.017 3.064h-2.307zM196.53 184.555c0-.72-.524-1.208-1.293-1.208h-6.213V170.48c0-.953-.513-1.514-1.38-1.514-.879 0-1.391.561-1.391 1.514v13.293c0 1.367.659 1.978 2.1 1.978h6.884c.769 0 1.294-.476 1.294-1.197zM211.326 179.99v-9.534c0-.928-.537-1.49-1.392-1.49-.867 0-1.38.562-1.38 1.49v9.326c0 2.405-1.464 3.907-3.771 3.907-2.32 0-3.772-1.49-3.772-3.907v-9.326c0-.928-.537-1.49-1.392-1.49-.866 0-1.38.562-1.38 1.49v9.497c0 3.699 2.43 6.153 6.544 6.153 3.943 0 6.543-2.442 6.543-6.116zM214 182.321c0 .708.426 1.477 1.244 2.222 1.074.989 2.906 1.563 4.98 1.563 3.822 0 6.25-1.941 6.25-5.042 0-2.405-1.39-3.845-4.418-4.602l-2.625-.66c-1.55-.39-2.344-1.195-2.344-2.318 0-1.465 1.246-2.405 3.162-2.405 1.563 0 2.796.72 3.455 1.94.305.489.683.709 1.196.709.684 0 1.147-.464 1.147-1.148 0-.781-.439-1.599-1.22-2.307-1.074-.976-2.747-1.514-4.627-1.514-3.576 0-5.945 1.954-5.945 4.932 0 2.32 1.392 3.82 4.175 4.504l2.637.684c1.831.464 2.661 1.245 2.661 2.49 0 1.526-1.245 2.405-3.357 2.405-1.611 0-2.868-.598-3.772-1.794-.525-.66-.928-.904-1.452-.904-.66 0-1.148.513-1.148 1.245z"/></g></g></g></svg>