<svg width="24" height="24" viewBox="0 0 24 24" xmlns="http://www.w3.org/2000/svg" xmlns:xlink="http://www.w3.org/1999/xlink"><defs><path d="M8.46 0h7.08c2.941 0 4.008.306 5.084.882a5.997 5.997 0 0 1 2.494 2.494C23.694 4.452 24 5.52 24 8.461v7.078c0 2.942-.306 4.009-.882 5.085a5.997 5.997 0 0 1-2.494 2.494c-1.076.576-2.143.882-5.085.882H8.461c-2.942 0-4.009-.306-5.085-.882a5.997 5.997 0 0 1-2.494-2.494C.306 19.548 0 18.48 0 15.539V8.461c0-2.942.306-4.009.882-5.085A5.997 5.997 0 0 1 3.376.882C4.452.306 5.52 0 8.461 0z" id="a"/><radialGradient cy="100%" fx="50%" fy="100%" r="72.558%" gradientTransform="matrix(0 -1 2.39932 0 -1.9 1.5)" id="c"><stop stop-color="#04ADBF" stop-opacity=".45" offset="0%"/><stop stop-color="#9A4EE6" stop-opacity=".18" offset="30.303%"/><stop stop-color="#9A4EE6" stop-opacity=".1" offset="59.775%"/><stop stop-color="#9A4EE6" stop-opacity="0" offset="100%"/></radialGradient></defs><g fill="none" fill-rule="evenodd"><mask id="b" fill="#fff"><use xlink:href="#a"/></mask><g mask="url(#b)"><path fill="#FFF" d="M0 0h24v24H0z"/><path fill="url(#c)" d="M0 14.4h24V24H0z"/></g><g mask="url(#b)" fill="#000"><path d="M12.179 17.137l.756.715a.26.26 0 0 1 .046.321l-.756 1.286a.26.26 0 0 1-.45 0l-.756-1.286a.26.26 0 0 1 .046-.321l.756-.715a.26.26 0 0 1 .358 0zM7.223 9.272a4.34 4.34 0 0 1 4.343 4.336 4.34 4.34 0 0 1-4.343 4.336 4.34 4.34 0 0 1-4.343-4.336 4.34 4.34 0 0 1 4.343-4.336zm9.554 0a4.34 4.34 0 0 1 4.343 4.336 4.34 4.34 0 0 1-4.343 4.336 4.34 4.34 0 0 1-4.343-4.336 4.34 4.34 0 0 1 4.343-4.336zm-9.554 1.3a3.038 3.038 0 0 0-3.04 3.036 3.038 3.038 0 0 0 3.04 3.036 3.038 3.038 0 0 0 3.04-3.036 3.038 3.038 0 0 0-3.04-3.035zm9.554 0a3.038 3.038 0 0 0-3.04 3.036 3.038 3.038 0 0 0 3.04 3.036 3.038 3.038 0 0 0 3.04-3.036 3.038 3.038 0 0 0-3.04-3.035zm3.496-6.117a.655.655 0 0 1 .6.698.655.655 0 0 1-.363.537l-8.197 3.998a.649.649 0 0 1-.314.065.647.647 0 0 1-.312-.065L3.49 5.69a.648.648 0 0 1-.3-.871l.044-.077a.647.647 0 0 1 .493-.287.648.648 0 0 1 .334.064L12 8.39l7.939-3.871a.648.648 0 0 1 .334-.064z"/></g></g></svg>