<svg width="500" height="206" viewBox="0 0 500 206" xmlns="http://www.w3.org/2000/svg" xmlns:xlink="http://www.w3.org/1999/xlink"><defs><path d="M51.278 0H480.77c6.686 0 9.11.696 11.555 2.003a13.63 13.63 0 0 1 5.67 5.67c1.308 2.445 2.004 4.87 2.004 11.556v167.542c0 6.686-.696 9.11-2.003 11.555a13.63 13.63 0 0 1-5.67 5.67c-2.445 1.308-4.87 2.004-11.556 2.004H19.229c-6.686 0-9.11-.696-11.555-2.003a13.63 13.63 0 0 1-5.67-5.67C.695 195.881 0 193.456 0 186.77V51.278c0-17.83 1.857-24.296 5.343-30.815 3.486-6.518 8.602-11.634 15.12-15.12C26.982 1.857 33.447 0 51.278 0z" id="a"/><path d="M30.782 0h46.436c10.704 0 14.585 1.114 18.498 3.207 3.913 2.093 6.984 5.164 9.077 9.077 2.093 3.913 3.207 7.794 3.207 18.498v46.436c0 10.704-1.114 14.585-3.207 18.498-2.093 3.913-5.164 6.984-9.077 9.077-3.913 2.093-7.794 3.207-18.498 3.207H30.782c-10.704 0-14.585-1.114-18.498-3.207-3.913-2.093-6.984-5.164-9.077-9.077C1.114 91.803 0 87.922 0 77.218V30.782c0-10.704 1.114-14.585 3.207-18.498C5.3 8.371 8.371 5.3 12.284 3.207 16.197 1.114 20.078 0 30.782 0z" id="b"/><radialGradient cy="100%" fx="50%" fy="100%" r="72.558%" gradientTransform="matrix(0 -1 2.39932 0 -1.9 1.5)" id="d"><stop stop-color="#04ADBF" stop-opacity=".45" offset="0%"/><stop stop-color="#9A4EE6" stop-opacity=".18" offset="30.303%"/><stop stop-color="#9A4EE6" stop-opacity=".1" offset="59.775%"/><stop stop-color="#9A4EE6" stop-opacity="0" offset="100%"/></radialGradient></defs><g fill="none" xlink:href="#a" fill-rule="evenodd"><use fill="#1C1E1F" xlink:href="#a"/><g transform="translate(18 18)"><mask id="c" fill="#fff"><use xlink:href="#b"/></mask><g mask="url(#c)"><path fill="#FFF" d="M0 0h108v108H0z"/><path fill="url(#d)" d="M0 64.8h108V108H0z"/></g><g mask="url(#c)" fill="#000"><path d="M54.749 76.39l4.304 3.58a1.17 1.17 0 0 1 .225 1.55l-4.304 6.447a1.17 1.17 0 0 1-1.948 0l-4.304-6.446a1.17 1.17 0 0 1 .225-1.55l4.304-3.582a1.17 1.17 0 0 1 1.498 0zM32.503 41.812c10.793 0 19.543 8.736 19.543 19.513 0 10.777-8.75 19.514-19.543 19.514S12.96 72.103 12.96 61.326s8.75-19.513 19.543-19.513zm42.994 0c10.793 0 19.543 8.736 19.543 19.513 0 10.777-8.75 19.514-19.543 19.514s-19.543-8.737-19.543-19.514 8.75-19.513 19.543-19.513zm-42.994 5.854c-7.555 0-13.68 6.115-13.68 13.66 0 7.543 6.125 13.659 13.68 13.659s13.68-6.116 13.68-13.66c0-7.544-6.125-13.66-13.68-13.66zm42.994 0c-7.555 0-13.68 6.115-13.68 13.66 0 7.543 6.125 13.659 13.68 13.659s13.68-6.116 13.68-13.66c0-7.544-6.125-13.66-13.68-13.66zm9.136-24.73a2.934 2.934 0 0 1 3.835 1.444 2.924 2.924 0 0 1-1.417 3.89l-31.658 13.19-.06.027a2.92 2.92 0 0 1-1.334.243c-.443.024-.9-.053-1.333-.243l-.044-.02-.032-.014L20.948 28.27a2.924 2.924 0 0 1-1.417-3.89 2.934 2.934 0 0 1 3.835-1.444l.06.028L54 35.7l30.574-12.736z"/></g></g><g fill-rule="nonzero"><path d="M445.164 69.508a5.487 5.487 0 0 1 7.569-.19l.198.19 27.46 27.499a5.505 5.505 0 0 1 0 7.778 5.487 5.487 0 0 1-7.568.19l-.199-.19-27.46-27.5a5.505 5.505 0 0 1 0-7.777z" fill="#A5B4C2"/><path d="M480.391 42.008a5.487 5.487 0 0 0-7.568-.189l-.199.19-54.92 54.998a5.505 5.505 0 0 0 0 7.778 5.487 5.487 0 0 0 7.568.19l.199-.19 54.92-54.999a5.505 5.505 0 0 0 0-7.778z" fill="#A5B4C2"/><path d="M210.223 41.181a5.488 5.488 0 0 0-7.4 1.674l-.135.213-32.952 54.998a5.504 5.504 0 0 0 1.883 7.546 5.488 5.488 0 0 0 7.401-1.673l.135-.213 32.952-54.999a5.504 5.504 0 0 0-1.884-7.546z" fill="#FFF"/><path d="M138.667 41.181a5.488 5.488 0 0 1 7.401 1.674l.134.213 32.953 54.998a5.504 5.504 0 0 1-1.884 7.546 5.488 5.488 0 0 1-7.401-1.673l-.134-.213-32.953-54.999a5.504 5.504 0 0 1 1.884-7.546z" fill="#FFF"/><path d="M240.35 40.398a5.496 5.496 0 0 0-5.487 5.26l-.005.24v54.998c0 3.037 2.459 5.5 5.492 5.5a5.496 5.496 0 0 0 5.487-5.262l.005-.238V45.897c0-3.037-2.459-5.5-5.492-5.5z" fill="#A5B4C2"/><path d="M223.874 40.398a5.496 5.496 0 0 0-5.487 5.26l-.005.24v5.5c0 3.037 2.458 5.5 5.492 5.5a5.496 5.496 0 0 0 5.487-5.262l.005-.239v-5.5c0-3.037-2.46-5.5-5.492-5.5z" fill="#FFF"/><path d="M421.587 40.398a5.496 5.496 0 0 1 5.492 5.5v54.998l-.005.238a5.496 5.496 0 0 1-5.487 5.262 5.496 5.496 0 0 1-5.492-5.5v-7.659a38.36 38.36 0 0 0 5.492-19.84 38.36 38.36 0 0 0-5.491-19.841v-7.659l.004-.238a5.496 5.496 0 0 1 5.487-5.261zM280.193 95.397a38.684 38.684 0 0 0 11.741 11l-51.584-.001-.238-.005a5.497 5.497 0 0 1-5.254-5.495c0-3.038 2.459-5.5 5.492-5.5z" fill="#A5B4C2"/><path d="M311.746 40.398c-18.199 0-32.952 14.774-32.952 32.999s14.753 32.999 32.952 32.999c18.2 0 32.953-14.774 32.953-33 0-18.224-14.754-32.998-32.953-32.998zm0 11c12.133 0 21.969 9.849 21.969 21.999 0 12.15-9.836 21.999-21.969 21.999-12.132 0-21.968-9.85-21.968-22s9.836-21.999 21.968-21.999zM383.143 40.398c-18.199 0-32.952 14.774-32.952 32.999s14.753 32.999 32.952 32.999c18.2 0 32.952-14.774 32.952-33 0-18.224-14.753-32.998-32.952-32.998zm0 11c12.133 0 21.968 9.849 21.968 21.999 0 12.15-9.835 21.999-21.968 21.999s-21.968-9.85-21.968-22 9.835-21.999 21.968-21.999z" fill="#FFF"/></g><g fill="#A5B4C2" fill-rule="nonzero"><path d="M470.057 28.121c.603 0 .972-.387.972-1.02v-5.449h1.53c.445 0 .773-.34.773-.79 0-.458-.328-.798-.773-.798h-4.987c-.445 0-.779.34-.779.797 0 .451.334.791.78.791h1.517v5.45c0 .632.363 1.02.967 1.02zM474.926 28.121c.562 0 .885-.369.885-1.008v-4.025h.046l1.4 3.562c.23.586.505.786.903.786.393 0 .662-.188.89-.786l1.395-3.562h.053v4.025c0 .657.293 1.008.844 1.008.562 0 .885-.369.885-1.008v-5.86c0-.796-.416-1.253-1.143-1.253-.65 0-1.031.293-1.348 1.143l-1.547 4.002h-.064l-1.553-3.997c-.31-.837-.715-1.148-1.336-1.148-.715 0-1.16.475-1.16 1.254v5.86c0 .656.293 1.007.85 1.007z"/></g><g fill-rule="nonzero"><g fill="#04B3CC"><path d="M56.377 161.114c.854 0 1.391-.574 1.391-1.49V146.71h3.797c.757 0 1.257-.476 1.257-1.184s-.5-1.196-1.257-1.196H51.213c-.744 0-1.27.488-1.27 1.196 0 .696.526 1.184 1.27 1.184h3.784v12.915c0 .928.525 1.49 1.38 1.49zM76.518 161.114c.867 0 1.38-.561 1.38-1.514v-13.879c0-.952-.513-1.513-1.38-1.513-.878 0-1.391.561-1.391 1.513v5.542h-7.63v-5.542c0-.952-.512-1.513-1.379-1.513-.879 0-1.392.561-1.392 1.513v13.88c0 .952.513 1.513 1.392 1.513.867 0 1.38-.561 1.38-1.514v-5.993h7.629v5.993c0 .953.513 1.514 1.391 1.514zM81.645 159.015c0 1.367.66 1.977 2.1 1.977h7.214c.782 0 1.282-.452 1.282-1.16 0-.72-.5-1.171-1.282-1.171h-6.555v-5.018h6.201c.72 0 1.197-.427 1.197-1.11 0-.684-.476-1.123-1.197-1.123h-6.2v-4.749h6.579c.757 0 1.257-.452 1.257-1.16s-.5-1.171-1.257-1.171h-7.239c-1.44 0-2.1.622-2.1 1.977v12.708zM96.55 161.114c.818 0 1.257-.513 1.257-1.477v-10.242h.11l3.711 8.9c.44 1.074.891 1.428 1.6 1.428.695 0 1.135-.342 1.586-1.429l3.711-8.899h.11v10.242c0 .977.415 1.477 1.22 1.477.83 0 1.27-.513 1.27-1.477v-13.672c0-1.135-.573-1.782-1.562-1.782-.903 0-1.367.379-1.88 1.697l-4.407 10.705h-.097l-4.42-10.693c-.512-1.318-1-1.709-1.867-1.709-.989 0-1.587.66-1.587 1.782v13.672c0 .977.427 1.477 1.245 1.477zM114.897 159.015c0 1.367.66 1.977 2.1 1.977h7.214c.782 0 1.282-.452 1.282-1.16 0-.72-.5-1.171-1.282-1.171h-6.555v-5.018h6.201c.72 0 1.197-.427 1.197-1.11 0-.684-.477-1.123-1.197-1.123h-6.2v-4.749h6.579c.757 0 1.257-.452 1.257-1.16s-.5-1.171-1.257-1.171h-7.24c-1.44 0-2.099.622-2.099 1.977v12.708zM26.335 186.114c.88 0 1.392-.562 1.392-1.514v-4.59h3.503c3.406 0 5.603-2.038 5.603-5.346 0-3.21-2.185-5.335-5.53-5.335h-4.138c-1.586 0-2.209.599-2.209 2.149V184.6c0 .952.513 1.514 1.38 1.514zm1.392-8.362v-6.128h3.308c1.917 0 3.015 1.123 3.015 3.064 0 2.27-1.11 3.064-4.016 3.064h-2.307zM38.799 186.138c.744 0 1.16-.366 1.452-1.318l1.148-3.442h6.03l1.148 3.442c.28.94.72 1.318 1.464 1.318.794 0 1.319-.463 1.319-1.196 0-.305-.073-.635-.208-1.037l-4.577-12.952c-.415-1.233-1.014-1.758-2.124-1.758-1.111 0-1.71.537-2.137 1.758l-4.577 12.952c-.159.463-.232.78-.232 1.074 0 .708.525 1.16 1.294 1.16zm3.259-6.884l2.295-7.044h.134l2.283 7.044h-4.712zM52.922 178.826c0 4.773 2.442 7.52 6.75 7.52 2.015 0 3.638-.586 4.798-1.66.916-.818 1.49-1.905 1.49-2.722 0-.708-.452-1.172-1.185-1.172-.512 0-.83.232-1.27.866-.903 1.55-2.111 2.27-3.698 2.27-2.649 0-4.126-1.842-4.126-5.175v-2.221c0-3.26 1.49-5.115 4.126-5.115 1.563 0 2.686.732 3.65 2.32.44.646.793.854 1.33.854.696 0 1.172-.452 1.172-1.172 0-.733-.512-1.77-1.33-2.588-1.184-1.196-2.881-1.831-4.956-1.831-4.285 0-6.75 2.77-6.75 7.446v2.38zM79.912 186.053c.818 0 1.38-.55 1.38-1.33 0-.416-.123-.696-.684-1.453l-4.87-6.714 4.504-4.907c.5-.537.634-.794.634-1.16 0-.684-.525-1.22-1.22-1.22-.428 0-.77.195-1.245.732l-6.507 6.97h-.146v-6.25c0-.952-.513-1.514-1.38-1.514-.879 0-1.391.562-1.391 1.514v13.88c0 .951.525 1.513 1.404 1.513.866 0 1.367-.562 1.367-1.514v-4.248l1.916-1.965 4.76 6.69c.501.683.953.976 1.478.976zM84.404 186.138c.745 0 1.16-.366 1.453-1.318l1.147-3.442h6.03l1.148 3.442c.28.94.72 1.318 1.465 1.318.793 0 1.318-.463 1.318-1.196 0-.305-.073-.635-.207-1.037l-4.578-12.952c-.415-1.233-1.013-1.758-2.124-1.758-1.11 0-1.709.537-2.136 1.758l-4.578 12.952c-.159.463-.232.78-.232 1.074 0 .708.525 1.16 1.294 1.16zm3.26-6.884l2.294-7.044h.135l2.282 7.044h-4.712zM98.503 178.924c0 4.65 2.588 7.422 6.934 7.422 3.723 0 6.396-2.405 6.396-5.774v-1.587c0-1.233-.561-1.794-1.818-1.794h-3.565c-.806 0-1.282.403-1.282 1.098 0 .696.476 1.099 1.282 1.099h2.722v1.306c0 1.965-1.452 3.284-3.65 3.284-2.685 0-4.248-1.856-4.248-5.066v-2.442c0-3.259 1.502-5.053 4.163-5.053 1.733 0 2.869.903 3.845 2.441.342.513.647.708 1.11.708.697 0 1.16-.464 1.16-1.184 0-.806-.61-1.868-1.537-2.71-1.16-1.098-2.784-1.672-4.737-1.672-4.26 0-6.775 2.783-6.775 7.385v2.54zM114.897 184.014c0 1.368.66 1.978 2.1 1.978h7.214c.782 0 1.282-.452 1.282-1.16 0-.72-.5-1.172-1.282-1.172h-6.555v-5.017h6.201c.72 0 1.197-.427 1.197-1.11 0-.684-.477-1.124-1.197-1.124h-6.2v-4.748h6.579c.757 0 1.257-.452 1.257-1.16s-.5-1.172-1.257-1.172h-7.24c-1.44 0-2.099.623-2.099 1.978v12.707z"/></g><g fill="#A5B4C2"><path d="M316.673 185.489v-6.217h1.033c.505 0 .798-.277.798-.725 0-.455-.293-.724-.798-.724h-1.058v-.822c0-.74.293-1.066.88-1.066.35 0 .439.049.756.049.35 0 .578-.236.578-.602 0-.236-.114-.432-.326-.586-.244-.163-.618-.253-1.106-.253-1.71 0-2.564.79-2.564 2.523v.757h-.586c-.504 0-.797.269-.797.724 0 .456.3.725.797.725h.586v6.217c0 .635.334 1 .903 1 .57 0 .904-.365.904-1zM323.484 177.644c-2.246 0-3.85 1.432-3.85 3.882v1.147c0 2.482 1.604 3.898 3.85 3.898 2.238 0 3.841-1.416 3.841-3.898v-1.155c0-2.442-1.603-3.874-3.84-3.874zm0 1.465c1.237 0 1.986.968 1.986 2.498v1.001c0 1.554-.749 2.507-1.986 2.507-1.229 0-2.002-.953-2.002-2.507v-1c0-1.53.773-2.5 2.002-2.5zM331.06 185.489v-4.175c0-1.35.627-2.018 1.856-2.034.31-.008.545-.057.708-.171.195-.13.293-.334.293-.619 0-.268-.106-.488-.301-.618-.163-.13-.399-.195-.684-.195-.797 0-1.448.415-1.839 1.228h-.065v-.26c-.024-.578-.334-.912-.87-.912-.57 0-.904.367-.904 1.001v6.755c0 .635.317 1 .895 1 .578 0 .912-.365.912-1zM341.697 186.49c.57 0 .928-.383.928-.993v-8.61h2.53c.505 0 .839-.317.839-.79 0-.471-.334-.797-.838-.797h-6.901c-.497 0-.847.326-.847.798 0 .464.35.79.847.79h2.522v8.61c0 .618.35.992.92.992zM345.693 188.679a.67.67 0 0 0 .203.488c.212.212.594.326 1.075.326 1.554 0 2.482-.749 3.133-2.604l2.726-7.715c.081-.236.122-.407.122-.553 0-.489-.374-.847-.87-.847-.465 0-.766.285-.929.88l-1.888 6.151h-.073l-1.872-6.152c-.162-.594-.472-.879-.944-.879-.52 0-.903.366-.903.855 0 .146.033.325.106.545l2.637 7.348c0 .041-.106.456-.122.48-.196.66-.651 1.083-1.172 1.083-.212 0-.367-.033-.513-.033-.431 0-.716.253-.716.627zM356.476 188.5v-3.385h.09c.382.903 1.269 1.416 2.449 1.416 2.034 0 3.288-1.425 3.288-3.76v-1.343c0-2.327-1.237-3.751-3.248-3.751-1.22 0-2.189.57-2.539 1.497h-.09v-.53c-.024-.585-.34-.91-.886-.91-.562 0-.87.358-.87 1v9.766c0 .643.325 1.001.894 1.001.578 0 .912-.358.912-1.001zm0-5.672v-1.319c0-1.472.757-2.343 2.002-2.343 1.27 0 1.985.903 1.985 2.514v.847c0 1.595-.716 2.514-1.96 2.514-1.205 0-2.027-.887-2.027-2.213zM367.747 177.644c-2.246 0-3.85 1.432-3.85 3.882v1.147c0 2.482 1.604 3.898 3.85 3.898 2.238 0 3.841-1.416 3.841-3.898v-1.155c0-2.442-1.603-3.874-3.841-3.874zm0 1.465c1.237 0 1.986.968 1.986 2.498v1.001c0 1.554-.75 2.507-1.986 2.507-1.229 0-2.002-.953-2.002-2.507v-1c0-1.53.773-2.5 2.002-2.5zM375.323 185.489v-4.175c0-1.35.627-2.018 1.856-2.034.31-.008.545-.057.708-.171.195-.13.293-.334.293-.619 0-.268-.106-.488-.301-.618-.163-.13-.4-.195-.684-.195-.797 0-1.448.415-1.84 1.228h-.064v-.26c-.025-.578-.334-.912-.871-.912-.57 0-.903.367-.903 1.001v6.755c0 .635.317 1 .895 1 .578 0 .911-.365.911-1zM384.21 185.294h.09v.382c.04.513.358.814.854.814.562 0 .879-.358.879-.977v-4.923c0-1.872-1.213-2.913-3.385-2.913-.896 0-1.58.154-2.1.439-.724.39-1.066.879-1.066 1.375 0 .39.26.66.66.66.308 0 .52-.082.74-.294.496-.504.968-.748 1.652-.748 1.098 0 1.692.504 1.692 1.473v.765h-2.148c-1.92.008-3.076.976-3.076 2.563 0 1.563 1.13 2.62 2.807 2.62 1.066 0 1.93-.439 2.401-1.236zm-3.393-1.473c0-.79.553-1.237 1.513-1.237h1.896v.927c0 .928-.805 1.644-1.855 1.644-.928 0-1.554-.537-1.554-1.334zM392.193 188.443l3.597-12.76c.025-.065.041-.18.05-.269.007-.423-.35-.781-.798-.781-.375 0-.676.22-.773.57l-3.59 12.76a.78.78 0 0 0 .749 1.058c.367 0 .668-.22.765-.578zM401.511 186.49c.546 0 .839-.342.839-.985v-6.828h.073l2.474 5.933c.293.716.594.952 1.066.952.464 0 .757-.228 1.058-.952l2.474-5.933h.073v6.828c0 .651.277.985.814.985.553 0 .846-.342.846-.985v-9.114c0-.757-.382-1.188-1.041-1.188-.603 0-.912.252-1.254 1.13l-2.937 7.138h-.066l-2.946-7.13c-.341-.878-.667-1.138-1.245-1.138-.659 0-1.058.439-1.058 1.188v9.114c0 .651.285.985.83.985zM418.39 185.294h.09v.382c.04.513.357.814.854.814.561 0 .879-.358.879-.977v-4.923c0-1.872-1.213-2.913-3.386-2.913-.895 0-1.579.154-2.1.439-.724.39-1.065.879-1.065 1.375 0 .39.26.66.659.66.309 0 .52-.082.74-.294.497-.504.969-.748 1.652-.748 1.099 0 1.693.504 1.693 1.473v.765h-2.148c-1.921.008-3.077.976-3.077 2.563 0 1.563 1.132 2.62 2.808 2.62 1.066 0 1.929-.439 2.4-1.236zm-3.394-1.473c0-.79.554-1.237 1.514-1.237h1.896v.927c0 .928-.806 1.644-1.855 1.644-.928 0-1.555-.537-1.555-1.334zM424.208 185.489v-4.175c0-1.35.627-2.018 1.856-2.034.31-.008.545-.057.708-.171.195-.13.293-.334.293-.619 0-.268-.106-.488-.301-.618-.163-.13-.399-.195-.684-.195-.797 0-1.448.415-1.84 1.228h-.064v-.26c-.025-.578-.334-.912-.87-.912-.57 0-.904.367-.904 1.001v6.755c0 .635.317 1 .895 1 .578 0 .911-.365.911-1zM430.45 185.489v-2.124l.838-.798 2.645 3.402c.26.334.513.48.814.48.456 0 .83-.382.83-.83 0-.228-.106-.48-.317-.74l-2.629-3.37 2.336-2.368c.236-.244.334-.455.334-.7a.731.731 0 0 0-.757-.756c-.277 0-.513.122-.806.423l-3.198 3.255h-.09v-5.705c0-.634-.333-1-.903-1-.578 0-.903.366-.903 1v9.831c0 .635.333 1 .911 1 .57 0 .895-.365.895-1zM442.34 185.041h.09v.53c.032.585.35.919.878.919.57 0 .88-.358.88-1.001v-9.83c0-.635-.326-1.002-.904-1.002-.578 0-.903.367-.903 1.001v3.426h-.09c-.334-.879-1.27-1.407-2.466-1.407-2.002 0-3.288 1.432-3.288 3.678v1.497c0 2.246 1.262 3.679 3.256 3.679 1.245 0 2.286-.61 2.547-1.49zm-3.955-2.457v-.96c0-1.539.716-2.458 1.937-2.458 1.212 0 2.059.911 2.059 2.213v1.327c0 1.44-.782 2.344-2.019 2.344-1.245 0-1.977-.912-1.977-2.466zM450.022 177.644c-2.246 0-3.85 1.432-3.85 3.882v1.147c0 2.482 1.604 3.898 3.85 3.898 2.238 0 3.841-1.416 3.841-3.898v-1.155c0-2.442-1.603-3.874-3.84-3.874zm0 1.465c1.237 0 1.986.968 1.986 2.498v1.001c0 1.554-.749 2.507-1.986 2.507-1.229 0-2.002-.953-2.002-2.507v-1c0-1.53.773-2.5 2.002-2.5zM456.801 184.96c.318 1.18.643 1.53 1.335 1.53.691 0 .993-.326 1.31-1.53l1.359-4.915h.065l1.392 4.915c.325 1.204.659 1.53 1.343 1.53.642 0 .968-.334 1.285-1.53l1.587-5.867c.065-.22.09-.375.09-.497 0-.488-.35-.83-.88-.83-.439 0-.756.334-.878.92l-1.261 5.72h-.082l-1.44-5.322c-.277-1.025-.562-1.318-1.188-1.318-.635 0-.912.293-1.18 1.318l-1.408 5.323h-.082l-1.204-5.705c-.114-.61-.44-.936-.912-.936-.553 0-.927.366-.927.895 0 .122.024.269.073.488l1.603 5.811zM475.665 185.497v-4.899c0-1.855-1.058-2.921-2.897-2.921-1.286 0-2.238.626-2.588 1.676h-.09v-.692c-.016-.594-.333-.928-.878-.928-.554 0-.896.367-.896.977v6.779c0 .635.326 1 .904 1 .57 0 .903-.365.903-1v-3.874c0-1.489.79-2.392 2.035-2.392 1.09 0 1.692.667 1.692 1.88v4.386c0 .635.334 1 .912 1 .57 0 .903-.357.903-.992z"/></g><path d="M140.36 174.076l6.674-6.653 6.714 6.714c.447.468 1.2.468 1.668 0a1.167 1.167 0 0 0 0-1.669l-6.714-6.713 6.673-6.694c.468-.468.488-1.22 0-1.668a1.156 1.156 0 0 0-1.688 0l-6.674 6.653-6.754-6.735a1.167 1.167 0 0 0-1.668 0c-.468.448-.448 1.2.02 1.648l6.734 6.775-6.653 6.653c-.468.448-.468 1.22.02 1.689.469.468 1.201.468 1.649 0z" fill="#A5B4C2"/><g fill="#8D5EEB"><path d="M169.08 159.015c0 1.367.658 1.977 2.099 1.977h7.214c.781 0 1.282-.452 1.282-1.16 0-.72-.5-1.171-1.282-1.171h-6.555v-5.018h6.201c.72 0 1.196-.427 1.196-1.11 0-.684-.476-1.123-1.196-1.123h-6.201v-4.749h6.58c.756 0 1.257-.452 1.257-1.16s-.5-1.171-1.257-1.171h-7.24c-1.44 0-2.099.622-2.099 1.977v12.708zM185.339 159.637v-10.644h.122l7.02 10.84c.646.976 1.037 1.281 1.757 1.281.928 0 1.404-.586 1.404-1.672v-13.757c0-.916-.489-1.477-1.319-1.477s-1.294.561-1.294 1.477v10.607h-.134l-6.958-10.717c-.598-.904-1.025-1.367-1.746-1.367-.976 0-1.477.598-1.477 1.72v13.71c0 .915.489 1.476 1.319 1.476s1.306-.561 1.306-1.477zM211.218 161.114c.867 0 1.38-.561 1.38-1.514v-13.879c0-.952-.513-1.513-1.38-1.513-.88 0-1.392.561-1.392 1.513v5.542h-7.63v-5.542c0-.952-.512-1.513-1.379-1.513-.878 0-1.391.561-1.391 1.513v13.88c0 .952.513 1.513 1.391 1.513.867 0 1.38-.561 1.38-1.514v-5.993h7.63v5.993c0 .953.512 1.514 1.39 1.514zM216.37 161.139c.744 0 1.159-.367 1.452-1.319l1.147-3.442H225l1.148 3.442c.28.94.72 1.319 1.465 1.319.793 0 1.318-.464 1.318-1.197 0-.305-.073-.634-.207-1.037l-4.578-12.952c-.415-1.233-1.013-1.758-2.124-1.758-1.11 0-1.709.537-2.136 1.758l-4.578 12.952c-.159.464-.232.78-.232 1.074 0 .708.525 1.16 1.294 1.16zm3.258-6.885l2.295-7.044h.135l2.282 7.044h-4.712zM234.057 159.637v-10.644h.122l7.02 10.84c.646.976 1.037 1.281 1.757 1.281.928 0 1.404-.586 1.404-1.672v-13.757c0-.916-.488-1.477-1.318-1.477-.83 0-1.294.561-1.294 1.477v10.607h-.135l-6.958-10.717c-.598-.904-1.025-1.367-1.745-1.367-.977 0-1.477.598-1.477 1.72v13.71c0 .915.488 1.476 1.318 1.476.83 0 1.306-.561 1.306-1.477zM247.522 153.827c0 4.773 2.44 7.52 6.75 7.52 2.014 0 3.638-.587 4.797-1.661.916-.818 1.49-1.904 1.49-2.722 0-.708-.452-1.172-1.184-1.172-.513 0-.83.232-1.27.867-.903 1.55-2.112 2.27-3.699 2.27-2.649 0-4.126-1.843-4.126-5.176v-2.221c0-3.26 1.49-5.115 4.126-5.115 1.563 0 2.686.732 3.65 2.32.44.646.794.854 1.33.854.697 0 1.173-.452 1.173-1.172 0-.733-.513-1.77-1.331-2.588-1.184-1.196-2.88-1.831-4.956-1.831-4.285 0-6.75 2.771-6.75 7.446v2.38zM263.586 159.015c0 1.367.66 1.977 2.1 1.977h7.214c.781 0 1.282-.452 1.282-1.16 0-.72-.5-1.171-1.282-1.171h-6.555v-5.018h6.2c.721 0 1.197-.427 1.197-1.11 0-.684-.476-1.123-1.196-1.123h-6.201v-4.749h6.58c.756 0 1.257-.452 1.257-1.16s-.5-1.171-1.258-1.171h-7.238c-1.44 0-2.1.622-2.1 1.977v12.708zM278.49 161.114c.819 0 1.258-.513 1.258-1.477v-10.242h.11l3.71 8.9c.44 1.074.892 1.428 1.6 1.428.696 0 1.135-.342 1.587-1.429l3.71-8.899h.11v10.242c0 .977.416 1.477 1.221 1.477.83 0 1.27-.513 1.27-1.477v-13.672c0-1.135-.574-1.782-1.563-1.782-.903 0-1.367.379-1.88 1.697l-4.406 10.705h-.098l-4.419-10.693c-.513-1.318-1-1.709-1.867-1.709-.99 0-1.587.66-1.587 1.782v13.672c0 .977.427 1.477 1.245 1.477zM296.838 159.015c0 1.367.659 1.977 2.1 1.977h7.214c.781 0 1.282-.452 1.282-1.16 0-.72-.5-1.171-1.282-1.171h-6.555v-5.018h6.2c.721 0 1.197-.427 1.197-1.11 0-.684-.476-1.123-1.196-1.123h-6.201v-4.749h6.58c.756 0 1.257-.452 1.257-1.16s-.5-1.171-1.258-1.171h-7.239c-1.44 0-2.1.622-2.1 1.977v12.708zM313.098 159.637v-10.644h.122l7.019 10.84c.647.976 1.037 1.281 1.758 1.281.927 0 1.403-.586 1.403-1.672v-13.757c0-.916-.488-1.477-1.318-1.477-.83 0-1.294.561-1.294 1.477v10.607h-.134l-6.958-10.717c-.598-.904-1.026-1.367-1.746-1.367-.976 0-1.477.598-1.477 1.72v13.71c0 .915.488 1.476 1.318 1.476.83 0 1.307-.561 1.307-1.477zM331.787 161.114c.854 0 1.391-.574 1.391-1.49V146.71h3.797c.756 0 1.257-.476 1.257-1.184s-.5-1.196-1.257-1.196h-10.352c-.745 0-1.27.488-1.27 1.196 0 .696.525 1.184 1.27 1.184h3.784v12.915c0 .928.525 1.49 1.38 1.49zM170.459 186.114c.878 0 1.391-.562 1.391-1.514v-4.59h3.504c3.405 0 5.603-2.038 5.603-5.346 0-3.21-2.185-5.335-5.53-5.335h-4.138c-1.587 0-2.21.599-2.21 2.149V184.6c0 .952.513 1.514 1.38 1.514zm1.391-8.362v-6.128h3.308c1.917 0 3.015 1.123 3.015 3.064 0 2.27-1.11 3.064-4.016 3.064h-2.307zM193.7 184.796c0-.72-.524-1.209-1.293-1.209h-6.214v-12.866c0-.952-.512-1.514-1.379-1.514-.879 0-1.392.562-1.392 1.514v13.293c0 1.368.66 1.978 2.1 1.978h6.885c.769 0 1.294-.476 1.294-1.196zM208.496 180.23v-9.533c0-.928-.537-1.49-1.392-1.49-.867 0-1.38.562-1.38 1.49v9.326c0 2.404-1.464 3.906-3.771 3.906-2.32 0-3.772-1.49-3.772-3.906v-9.326c0-.928-.537-1.49-1.392-1.49-.867 0-1.38.562-1.38 1.49v9.497c0 3.698 2.43 6.152 6.544 6.152 3.943 0 6.543-2.441 6.543-6.116zM211.389 178.924c0 4.65 2.588 7.422 6.933 7.422 3.723 0 6.397-2.405 6.397-5.774v-1.587c0-1.233-.562-1.794-1.82-1.794h-3.564c-.805 0-1.281.403-1.281 1.098 0 .696.476 1.099 1.281 1.099h2.723v1.306c0 1.965-1.453 3.284-3.65 3.284-2.686 0-4.248-1.856-4.248-5.066v-2.442c0-3.259 1.501-5.053 4.162-5.053 1.734 0 2.869.903 3.846 2.441.341.513.646.708 1.11.708.696 0 1.16-.464 1.16-1.184 0-.806-.61-1.868-1.538-2.71-1.16-1.098-2.783-1.672-4.736-1.672-4.26 0-6.775 2.783-6.775 7.385v2.54zM229.174 186.114c.867 0 1.38-.562 1.38-1.514v-13.879c0-.952-.513-1.514-1.38-1.514-.879 0-1.391.562-1.391 1.514v13.88c0 .951.525 1.513 1.391 1.513zM236.962 184.637v-10.645h.122l7.02 10.84c.647.977 1.037 1.282 1.757 1.282.928 0 1.404-.586 1.404-1.672v-13.758c0-.915-.488-1.477-1.318-1.477-.83 0-1.294.562-1.294 1.477v10.608h-.134l-6.958-10.717c-.599-.904-1.026-1.368-1.746-1.368-.977 0-1.477.598-1.477 1.722v13.708c0 .915.488 1.477 1.318 1.477.83 0 1.306-.562 1.306-1.477z"/></g></g></g></svg>