<svg width="500" height="500" viewBox="0 0 500 500" xmlns="http://www.w3.org/2000/svg"><path d="M358.284 0c49.625 0 67.62 5.167 85.763 14.87 18.142 9.702 32.38 23.94 42.083 42.083C495.833 75.095 501 93.09 501 142.716v214.568c0 49.625-5.167 67.62-14.87 85.763-9.702 18.142-23.94 32.38-42.083 42.083-18.142 9.703-36.138 14.87-85.763 14.87H143.716c-49.625 0-67.62-5.167-85.763-14.87-18.142-9.702-32.38-23.94-42.083-42.083C6.167 424.905 1 406.91 1 357.284V142.716c0-49.625 5.167-67.62 14.87-85.763 9.702-18.142 23.94-32.38 42.083-42.083C76.095 5.167 94.09 0 143.716 0h214.568zM254.472 353.659a5.429 5.429 0 0 0-6.944 0l-19.916 16.571a5.429 5.429 0 0 0-1.042 7.188l19.915 29.828a5.429 5.429 0 0 0 9.03 0l19.915-29.828a5.429 5.429 0 0 0-1.042-7.188zM151.476 193.577c-49.968 0-90.476 40.447-90.476 90.34 0 49.894 40.508 90.341 90.476 90.341 49.969 0 90.476-40.447 90.476-90.34 0-49.894-40.507-90.341-90.476-90.341zm199.048 0c-49.969 0-90.476 40.447-90.476 90.34 0 49.894 40.507 90.341 90.476 90.341 49.968 0 90.476-40.447 90.476-90.34 0-49.894-40.508-90.341-90.476-90.341zm-199.048 27.102c34.978 0 63.334 28.313 63.334 63.238 0 34.926-28.356 63.24-63.334 63.24s-63.333-28.314-63.333-63.24c0-34.925 28.355-63.238 63.333-63.238zm199.048 0c34.978 0 63.333 28.313 63.333 63.238 0 34.926-28.355 63.24-63.333 63.24-34.978 0-63.334-28.314-63.334-63.24 0-34.925 28.356-63.238 63.334-63.238zM109.176 106.192c-6.733-2.954-14.63-.006-17.756 6.685-3.17 6.783-.233 14.846 6.56 18.007l146.566 61.062.28.126a13.519 13.519 0 0 0 6.173 1.126c2.056.11 4.165-.245 6.171-1.126l.28-.126 146.565-61.062c6.794-3.161 9.73-11.224 6.561-18.007-3.125-6.691-11.023-9.64-17.756-6.685l-.28.126-141.543 58.97-141.541-58.97z" fill="#FFF" fill-rule="evenodd"/></svg>