<svg xmlns="http://www.w3.org/2000/svg" width="105" height="32" viewBox="0 0 105 32"><g fill="none" fill-rule="evenodd"><path fill="#161514" d="M16.288 0C7.294 0 0 7.293 0 16.29c0 7.197 4.667 13.302 11.14 15.456.815.15 1.112-.353 1.112-.785 0-.386-.014-1.411-.022-2.77-4.531.984-5.487-2.184-5.487-2.184-.741-1.882-1.809-2.383-1.809-2.383-1.479-1.01.112-.99.112-.99 1.635.115 2.495 1.679 2.495 1.679 1.453 2.489 3.813 1.77 4.741 1.353.148-1.052.569-1.77 1.034-2.177-3.617-.411-7.42-1.809-7.42-8.051 0-1.778.635-3.233 1.677-4.371-.168-.412-.727-2.069.16-4.311 0 0 1.367-.438 4.479 1.67a15.602 15.602 0 0 1 4.078-.549 15.62 15.62 0 0 1 4.078.549c3.11-2.108 4.475-1.67 4.475-1.67.889 2.242.33 3.899.163 4.311 1.044 1.138 1.674 2.593 1.674 4.371 0 6.258-3.809 7.635-7.437 8.038.584.503 1.105 1.497 1.105 3.017 0 2.177-.02 3.934-.02 4.468 0 .436.294.943 1.12.784 6.468-2.159 11.131-8.26 11.131-15.455C32.579 7.293 25.285 0 16.288 0"/><path fill="#11110F" d="M45.614 7c3.263 0 4.554.718 4.766.868.077.055.1.137.1.204l-.628 2.642c0 .145-.151.307-.315.257-.521-.16-1.34-.493-3.242-.493-2.197 0-4.537.646-4.537 5.556 0 4.909 2.248 5.492 3.856 5.492 1.364 0 1.857-.167 1.857-.167v-3.397h-2.197a.263.263 0 0 1-.263-.262v-2.734c0-.145.118-.262.263-.262h5.63c.146 0 .264.117.264.262v8.528c0 .05-.009.156-.086.199l-.023.015c-.223.148-2.044 1.292-4.925 1.292C42.414 25 38 23.862 38 16.225 38 8.588 41.856 7 45.614 7zm39.316 6.074c.144 0 .262.118.262.263v7.047c0 1.103.3 1.614 1.435 1.614 1.134 0 1.933-.58 1.933-.58v-8.081c0-.145.118-.263.262-.263h3.146c.145 0 .262.118.262.263l.001 11.062a.263.263 0 0 1-.262.263l-2.03.01a.277.277 0 0 1-.232-.143c-.036-.071-.116-.672-.116-.672l-.027.018c-.223.145-1.8 1.121-3.721 1.121-2.53 0-4.368-.802-4.368-4.079v-7.58c0-.145.118-.263.262-.263zm12.372-5.422c.145 0 .262.117.262.263v5.58s1.215-.792 3.002-.792c1.788 0 4.434.664 4.434 5.744s-1.657 6.535-4.546 6.535c-2.46 0-3.76-1.224-3.76-1.224s-.08.672-.135.76c-.055.09-.13.14-.23.14h-2.206a.263.263 0 0 1-.262-.264V7.914c0-.145.118-.262.262-.262zM63.191 9.75c.137 0 .199.06.199.177v1.256l.001.202v.603l.001.19.001.803v.066h2.378c.145 0 .262.117.262.263v2.538a.263.263 0 0 1-.262.264h-2.378v4.632c0 .7.396 1.239 1.564 1.239.365 0 .72-.056.858-.056.14 0 .263.118.263.263l-.003 2.23c0 .104-.055.201-.149.236-.155.057-1.099.308-1.887.308-1.725 0-4.282-.355-4.282-3.977v-4.875h-1.662a.262.262 0 0 1-.262-.264v-2.026c0-.12.08-.22.19-.251.11-.032 1.734-.421 1.734-.421V9.925c0-.12.067-.176.193-.176zm7.833-2.097c.145 0 .261.117.261.263V14h4.942l-.001-5.584v-.502c0-.146.118-.263.262-.263h3.17c.146 0 .262.117.262.263v16.48a.263.263 0 0 1-.262.263h-3.177a.263.263 0 0 1-.263-.264v-.63l.001-.175v-.625l.001-.235v-.5l.001-.263v-.542l.001-.276v-.556l.001-.277v-.542l.001-.262v-.5l.001-.235v-.625l.001-.176v-.63h-4.94v7.05a.262.262 0 0 1-.262.263h-3.17a.263.263 0 0 1-.262-.264V7.914c0-.145.118-.262.262-.262zM56.398 13.05c.145 0 .262.118.262.262v10.924c0 .268-.077.42-.39.42h-2.846c-.26 0-.461-.095-.461-.415V13.342c0-.145.13-.293.275-.293zm44.946 5.595c0-2.684-1.092-3.024-2.224-2.923a4.21 4.21 0 0 0-1.626.524v5.218s.74.492 1.831.525c1.526.046 2.019-.513 2.019-3.344zM54.842 8.027c1.13 0 2.045.916 2.045 2.05a2.048 2.048 0 0 1-2.045 2.052 2.048 2.048 0 0 1-2.043-2.051c0-1.135.915-2.05 2.043-2.05z"/></g></svg>