<?xml version="1.0" encoding="UTF-8"?>
<svg width="32px" height="26px" viewBox="0 0 32 26" version="1.1" xmlns="http://www.w3.org/2000/svg" xmlns:xlink="http://www.w3.org/1999/xlink">
    <title>icon-pic-in-pic</title>
    <g id="Icons" stroke="none" stroke-width="1" fill="none" fill-rule="evenodd">
        <g id="画板" transform="translate(-792, -615)">
            <g id="icon-pic-in-pic" transform="translate(792, 615)">
                <path d="M24,0 C28.418278,8.11624501e-16 32,3.581722 32,8 L32,18 C32,22.418278 28.418278,26 24,26 L8,26 C3.581722,26 -1.0658141e-14,22.418278 -1.0658141e-14,18 L-1.0658141e-14,8 C-1.0658141e-14,3.581722 3.581722,-8.11624501e-16 8,0 Z M22,14 L17,14 C15.8954305,14 15,14.8954305 15,16 L15,19 C15,20.1045695 15.8954305,21 17,21 L22,21 C23.1045695,21 24,20.1045695 24,19 L24,16 C24,14.8954305 23.1045695,14 22,14 Z M9,10 L8,10 L8,16 C8,17.6568542 9.34314575,19 11,19 L13,19 L13,18 L11,18 C9.8954305,18 9,17.1045695 9,16 L9,10 Z M20,5 L13,5 L13,6 L20,6 L20.1492623,6.00548574 C21.1841222,6.08183488 22,6.9456382 22,8 L22,12 L23,12 L23,8 C23,6.34314575 21.6568542,5 20,5 Z M10.1213203,5.70710678 C9.73079605,5.31658249 9.09763107,5.31658249 8.70710678,5.70710678 C8.31658249,6.09763107 8.31658249,6.73079605 8.70710678,7.12132034 L11.793,10.207 L10,12 L15,12 L15,7 L13.207,8.793 Z" id="形状结合" fill="#000000"></path>
                <g id="编组-3" transform="translate(8, 5)"></g>
            </g>
        </g>
    </g>
</svg>