<svg xmlns="http://www.w3.org/2000/svg" width="30" height="30" viewBox="0 0 30 30"><path fill-rule="evenodd" d="M25 0a5 5 0 0 1 5 5v20a5 5 0 0 1-5 5H5a5 5 0 0 1-5-5V5a5 5 0 0 1 5-5h20ZM8.02 17a.68.68 0 0 0-.67.578l-.008.1v5.047L6.155 21.54l-.082-.07a.693.693 0 0 0-.878.07.687.687 0 0 0-.07.875l.07.085 2.294 2.294.085.073a.665.665 0 0 0 .288.122l.101.009h.068l.103-.009a.657.657 0 0 0 .29-.122l.082-.073 2.293-2.294.07-.082a.693.693 0 0 0-.07-.878.624.624 0 0 0-.843-.073l-.083.073-1.175 1.175v-5.036l-.008-.1A.68.68 0 0 0 8.02 17ZM24 21H13a1 1 0 0 0-.117 1.993L13 23h11a1 1 0 0 0 .117-1.993L24 21Zm-4-3.5h-7a1 1 0 0 0-.117 1.993L13 19.5h7a1 1 0 0 0 .117-1.993L20 17.5Zm4-3.5H13a1 1 0 0 0-.117 1.993L13 16h11a1 1 0 0 0 .117-1.993L24 14ZM8.031 5h-.068a.656.656 0 0 0-.39.13l-.084.073-2.294 2.294c-.26.271-.26.7 0 .96a.693.693 0 0 0 .878.07l.082-.07 1.187-1.186v5.048a.68.68 0 0 0 .678.678.68.68 0 0 0 .67-.579l.008-.1V7.283l1.175 1.176c.26.27.69.27.926 0a.693.693 0 0 0 .07-.878l-.07-.083-2.293-2.294a.642.642 0 0 0-.372-.195L8.03 5ZM20 10.5h-7a1 1 0 0 0-.117 1.993L13 12.5h7a1 1 0 0 0 .117-1.993L20 10.5ZM24 7H13a1 1 0 0 0-.117 1.993L13 9h11a1 1 0 0 0 .117-1.993L24 7Z"/></svg>