<?xml version="1.0" encoding="UTF-8"?>
<svg width="32px" height="26px" viewBox="0 0 32 26" version="1.1" xmlns="http://www.w3.org/2000/svg" xmlns:xlink="http://www.w3.org/1999/xlink">
    <title>icon-full-screen</title>
    <g id="Icons" stroke="none" stroke-width="1" fill="none" fill-rule="evenodd">
        <g id="画板" transform="translate(-632, -615)" fill="#000000">
            <g id="icon-full-screen" transform="translate(632, 615)">
                <path d="M24,0 C28.418278,8.11624501e-16 32,3.581722 32,8 L32,18 C32,22.418278 28.418278,26 24,26 L8,26 C3.581722,26 -1.0658141e-14,22.418278 -1.0658141e-14,18 L-1.0658141e-14,8 C-1.0658141e-14,3.581722 3.581722,-8.11624501e-16 8,0 Z M21,6 L11,6 C9.34314575,6 8,7.34314575 8,9 L8,17 C8,18.6568542 9.34314575,20 11,20 L21,20 C22.6568542,20 24,18.6568542 24,17 L24,9 C24,7.34314575 22.6568542,6 21,6 Z M21,12.5072021 C21.5522847,12.5072021 22,12.9549174 22,13.5072021 L22,16.5 C22,17.3284271 21.3284271,18 20.5,18 L17,18 C16.4477153,18 16,17.5522847 16,17 C16,16.4477153 16.4477153,16 17,16 L20,15.9992021 L20,13.5072021 C20,12.9943663 20.3860402,12.571695 20.8833789,12.5139299 Z M14.9803467,8.00438225 C15.5326314,8.00438225 15.9803467,8.4520975 15.9803467,9.00438225 C15.9803467,9.556667 15.5326314,10.0043823 14.9803467,10.0043823 L12.0003467,10.0044063 L12,12.5664063 C12,13.0792421 11.6139598,13.5019134 11.1166211,13.5596785 L11,13.5664063 C10.4477153,13.5664063 10,13.118691 10,12.5664063 L10,9.50438225 C10,8.67595513 10.6715729,8.00438225 11.5,8.00438225 Z" id="形状结合"></path>
            </g>
        </g>
    </g>
</svg>