<?xml version="1.0" encoding="UTF-8"?>
<svg width="32px" height="26px" viewBox="0 0 32 26" version="1.1" xmlns="http://www.w3.org/2000/svg" xmlns:xlink="http://www.w3.org/1999/xlink">
    <title>icon-copy</title>
    <g id="Icons" stroke="none" stroke-width="1" fill="none" fill-rule="evenodd">
        <g id="画板" transform="translate(-696, -615)" fill="#000000">
            <g id="icon-copy" transform="translate(696, 615)">
                <path d="M24,0 C28.418278,8.11624501e-16 32,3.581722 32,8 L32,18 C32,22.418278 28.418278,26 24,26 L8,26 C3.581722,26 -1.0658141e-14,22.418278 -1.0658141e-14,18 L-1.0658141e-14,8 C-1.0658141e-14,3.581722 3.581722,-8.11624501e-16 8,0 Z M22,5 L14,5 C12.8954305,5 12,5.8954305 12,7 L10,7 C8.8954305,7 8,7.8954305 8,9 L8,19 C8,20.1045695 8.8954305,21 10,21 L18,21 C19.1045695,21 20,20.1045695 20,19 L22,19 C23.1045695,19 24,18.1045695 24,17 L24,7 C24,5.8954305 23.1045695,5 22,5 Z M18,8 C18.5522847,8 19,8.44771525 19,9 L19,19 C19,19.5522847 18.5522847,20 18,20 L10,20 C9.44771525,20 9,19.5522847 9,19 L9,9 C9,8.44771525 9.44771525,8 10,8 Z M13.5,17 L11.5,17 C11.2238576,17 11,17.2238576 11,17.5 C11,17.7761424 11.2238576,18 11.5,18 L13.5,18 C13.7761424,18 14,17.7761424 14,17.5 C14,17.2238576 13.7761424,17 13.5,17 Z M16.5,14 L11.5,14 C11.2238576,14 11,14.2238576 11,14.5 C11,14.7761424 11.2238576,15 11.5,15 L16.5,15 C16.7761424,15 17,14.7761424 17,14.5 C17,14.2238576 16.7761424,14 16.5,14 Z M16.5,11 L11.5,11 C11.2238576,11 11,11.2238576 11,11.5 C11,11.7761424 11.2238576,12 11.5,12 L16.5,12 C16.7761424,12 17,11.7761424 17,11.5 C17,11.2238576 16.7761424,11 16.5,11 Z" id="形状结合"></path>
            </g>
        </g>
    </g>
</svg>