<svg xmlns="http://www.w3.org/2000/svg" width="30" height="30" viewBox="0 0 30 30"><path fill-rule="evenodd" d="M24 0a6 6 0 0 1 6 6v18a6 6 0 0 1-6 6H6a6 6 0 0 1-6-6V6a6 6 0 0 1 6-6h18Zm-9 5C9.482 5 5 9.482 5 15s4.482 10 10 10 10-4.482 10-10S20.518 5 15 5ZM9.286 9.286c-.161-.161 7.928 3.464 7.928 3.464s3.572 7.946 3.482 7.946a1.457 1.457 0 0 0-.212-.112l-.222-.104c-1.664-.767-7.512-3.248-7.512-3.248s-.79-1.86-1.616-3.782l-.225-.524c-.789-1.83-1.548-3.565-1.623-3.64Zm6.946 4.732-2.125 2.107c.59.268 3.572 1.643 3.697 1.696-.304-.66-1.25-3.071-1.572-3.803Z"/></svg>