<svg xmlns="http://www.w3.org/2000/svg" width="37" height="40" viewBox="0 0 37 40"><path d="M2.547 8.127c.136 0 .265-.017.387-.05.122-.034.251-.105.387-.213l6.642-4.872c.326-.242.49-.539.49-.89 0-.377-.177-.727-.53-1.05C9.527.7 9.028.437 8.424.261A6.451 6.451 0 0 0 6.622 0C5.589 0 4.656.243 3.82.728a5.522 5.522 0 0 0-1.996 1.971 5.237 5.237 0 0 0-.744 2.74 6 6 0 0 0 .092 1.07c.06.338.146.62.254.85.109.243.258.431.448.566.19.135.415.202.673.202zm31.947 0c.23 0 .445-.07.642-.212s.356-.327.479-.556c.095-.216.173-.495.234-.839a6.17 6.17 0 0 0 .092-1.082c0-.997-.248-1.91-.744-2.739A5.498 5.498 0 0 0 33.19.728 5.491 5.491 0 0 0 30.399 0C29.8 0 29.2.088 28.596.263c-.605.175-1.104.438-1.498.788-.367.324-.55.674-.55 1.052 0 .35.17.647.51.89l6.662 4.871c.136.108.261.179.377.213.115.033.248.05.397.05zM33.587 40c.442.006.819-.145 1.131-.455.312-.31.469-.68.469-1.112 0-.432-.163-.802-.49-1.112l-2.951-2.897.095-.095a18.33 18.33 0 0 0 3.733-5.62c.95-2.225 1.426-4.597 1.426-7.117 0-2.534-.475-4.91-1.426-7.127A18.36 18.36 0 0 0 31.6 8.612a18.769 18.769 0 0 0-5.909-3.962c-2.241-.957-4.632-1.435-7.172-1.435-2.567 0-4.964.478-7.192 1.435A18.834 18.834 0 0 0 5.44 8.612a18.642 18.642 0 0 0-3.993 5.853C.482 16.682 0 19.058 0 21.592c0 2.52.482 4.892 1.447 7.116a18.613 18.613 0 0 0 3.753 5.62l.076.078-2.953 2.915c-.313.31-.469.68-.469 1.112A1.546 1.546 0 0 0 3.434 40a1.584 1.584 0 0 0 1.13-.476l3.105-3.063.1.072c1.1.781 2.286 1.442 3.56 1.98 2.227.944 4.624 1.416 7.191 1.416 2.54 0 4.931-.472 7.172-1.415 1.28-.54 2.473-1.2 3.576-1.98l.089-.064 3.08 3.054c.325.31.709.469 1.15.476zM18.5 23.856H9.943a1.33 1.33 0 0 1-.999-.424 1.41 1.41 0 0 1-.407-1.011c0-.391.136-.725.407-1.001.272-.276.605-.414.999-.414h7.11v-9.927c0-.39.14-.721.418-.99.279-.27.622-.405 1.029-.405.407 0 .747.135 1.019.404.271.27.407.6.407.991v11.342c0 .39-.136.728-.407 1.01a1.354 1.354 0 0 1-1.019.425z"/></svg>