<svg xmlns="http://www.w3.org/2000/svg" width="40" height="34" viewBox="0 0 40 34"><path d="M37.477 34c.686 0 1.278-.275 1.776-.825.498-.55.747-1.233.747-2.049 0-.647-.197-1.382-.592-2.204a16.837 16.837 0 0 0-1.494-2.495 30.61 30.61 0 0 0-1.854-2.35 22.858 22.858 0 0 0-1.669-1.748c-1.346-1.255-2.788-2.223-4.328-2.903a24.829 24.829 0 0 0-4.687-1.544 100.76 100.76 0 0 0-4.638-.912 35.682 35.682 0 0 1-4.231-.98c-1.314-.396-2.462-.972-3.445-1.73-.984-.756-1.734-1.815-2.252-3.174-.116-.31-.055-.55.185-.719.239-.168.501-.11.786.175 1.06 1.088 2.17 1.887 3.328 2.398 1.158.512 2.352.861 3.581 1.049 1.23.188 2.484.33 3.765.427 1.281.097 2.581.262 3.901.495a17.01 17.01 0 0 1 3.979 1.243c1.332.596 2.659 1.508 3.978 2.738.337.285.67.372 1 .262.33-.11.534-.346.611-.708.04-.26.071-.586.097-.981.026-.395.04-.8.04-1.214 0-3.003-.648-5.495-1.942-7.476-1.294-1.98-3.08-3.466-5.356-4.456-2.277-.99-4.898-1.486-7.86-1.486-.984 0-2.01.061-3.077.184a894.38 894.38 0 0 0-3.154.37 24.75 24.75 0 0 1-2.91.184c-.984 0-1.993-.058-3.028-.175a10.56 10.56 0 0 1-3.047-.825C4.69 2.137 3.746 1.454 2.853.522 2.452.095 2.005-.07 1.513.027 1.024.124.7.503.544 1.163a23.944 23.944 0 0 0-.417 3.068A39.315 39.315 0 0 0 0 7.144c0 3.47.492 6.612 1.475 9.428.983 2.815 2.39 5.233 4.221 7.253 1.831 2.02 4.024 3.573 6.58 4.66 2.555 1.088 5.405 1.631 8.549 1.631 2.057 0 3.843-.255 5.356-.767 1.514-.511 2.789-1.13 3.824-1.854 1.035-.725 1.853-1.437 2.455-2.136l.069-.08.026.035c.237.326.455.655.652.986a20.338 20.338 0 0 1 1.436 2.942 58.683 58.683 0 0 1 1.242 3.496c.143.453.356.777.641.97.285.195.602.292.951.292z"/></svg>