<svg xmlns="http://www.w3.org/2000/svg" width="39" height="40" viewBox="0 0 39 40"><path d="M29.264 26.08c1.842 0 3.498-.424 4.967-1.27a9.459 9.459 0 0 0 3.486-3.44C38.572 19.924 39 18.3 39 16.499c0-1.813-.449-3.44-1.346-4.882-.897-1.442-2.116-2.576-3.658-3.404-1.541-.827-3.287-1.234-5.238-1.222-1.096-2.227-2.601-3.948-4.516-5.165S20.165 0 17.757 0c-1.59 0-3.095.292-4.516.876a12.353 12.353 0 0 0-3.794 2.436 12.639 12.639 0 0 0-2.691 3.641 12.594 12.594 0 0 0-1.247 4.508c-1.661.474-2.995 1.369-4 2.683C.502 15.458 0 16.979 0 18.706c0 1.46.337 2.744 1.012 3.851.674 1.107 1.613 1.971 2.818 2.591 1.204.621 2.595.931 4.172.931h21.262zm-7.822 8.96c.289-.085.512-.262.668-.53l2.204-3.868a1.1 1.1 0 0 0 .126-.84c-.072-.28-.246-.505-.523-.675a1.036 1.036 0 0 0-.813-.1c-.277.079-.494.258-.65.538l-2.24 3.887a1.062 1.062 0 0 0-.109.812c.072.286.241.508.506.666a1 1 0 0 0 .83.11zm3.983 4.91c.27-.074.485-.244.641-.512l5.04-8.815a1.067 1.067 0 0 0-.361-1.478 1.013 1.013 0 0 0-.822-.118 1.07 1.07 0 0 0-.66.538l-5.003 8.76c-.145.28-.184.56-.118.84.067.28.232.504.497.675a.997.997 0 0 0 .786.11zM7.849 35.057a1.05 1.05 0 0 0 .641-.529l2.222-3.869c.156-.28.199-.563.126-.849a1.067 1.067 0 0 0-1.328-.766c-.27.079-.484.258-.64.538L6.63 33.47a1.094 1.094 0 0 0-.118.813c.066.285.238.508.515.666a.986.986 0 0 0 .822.11zm3.992 4.9c.27-.079.485-.246.641-.502l5.022-8.833c.169-.267.217-.538.144-.812a1.051 1.051 0 0 0-.505-.648.982.982 0 0 0-.813-.118c-.29.079-.506.252-.65.52l-5.022 8.778c-.145.28-.184.56-.118.84.067.28.238.505.515.675a.97.97 0 0 0 .786.1z"/></svg>