<svg xmlns="http://www.w3.org/2000/svg" width="44" height="45" viewBox="0 0 44 45"><path fill="#303438" d="M22.021.035c12.235 0 22.112 9.877 22 22 0 12.122-9.878 22-22 22s-22-9.878-22-22c0-12.123 9.878-22 22-22zm9.877 12.235c-.112-.225-.56-.225-.897-.113l-13.694 4.49a1.356 1.356 0 0 0-.786.786l-4.49 13.693c-.224.337-.112.674.113.898.112.225.561.225.898.112l13.693-4.49a1.35 1.35 0 0 0 .786-.785l4.49-13.693c.224-.337.112-.674-.113-.898zm-9.877 6.397c1.908 0 3.367 1.572 3.367 3.368 0 1.908-1.459 3.367-3.367 3.367s-3.367-1.571-3.367-3.367c0-1.908 1.571-3.368 3.367-3.368z"/></svg>