<svg xmlns="http://www.w3.org/2000/svg" width="44" height="44" viewBox="0 0 44 44"><path fill="#303438" d="M1 2.775a1 1 0 0 1-1-1V1a1 1 0 0 1 1-1h42a1 1 0 0 1 1 1v.775a1 1 0 0 1-1 1h-1.75v24.98c0 1.532-1.231 2.775-2.75 2.775l-13.181-.001 10.706 10.805a1 1 0 0 1 0 1.408l-.537.541a1 1 0 0 1-1.414.007l-.006-.007-11.358-11.46a1 1 0 0 0-1.414-.007l-.006.006L9.932 43.283a1 1 0 0 1-1.42 0l-.537-.541a1 1 0 0 1 0-1.408L18.68 30.529H5.5c-1.519 0-2.75-1.242-2.75-2.775V2.775H1zm34.125 6.939h-7a2 2 0 0 0-1.995 1.85l-.005.15v7.102a2 2 0 0 0 1.85 1.994l.15.006h7a2 2 0 0 0 1.995-1.851l.005-.15v-7.101a2 2 0 0 0-2-2zm-15.5 8.326H7.875a1 1 0 0 0-.993.884l-.007.116v.776a1 1 0 0 0 .883.993l.117.007h11.75a1 1 0 0 0 .993-.884l.007-.116v-.776a1 1 0 0 0-1-1zm0-8.326H7.875a1 1 0 0 0-.993.883l-.007.117v.775a1 1 0 0 0 .883.994l.117.006h11.75a1 1 0 0 0 .993-.883l.007-.117v-.775a1 1 0 0 0-1-1z"/></svg>