<svg width="296" height="133" viewBox="0 0 296 133" xmlns="http://www.w3.org/2000/svg" xmlns:xlink="http://www.w3.org/1999/xlink"><defs><linearGradient x1="9.791%" y1="47.804%" x2="89.585%" y2="51.646%" id="b"><stop stop-color="#04B1CC" offset="0%"/><stop stop-color="#9A4EE6" offset="100%"/></linearGradient><path d="M9.18 24H4.308L.204 7.008h4.344L6.852 19.44H6.9L9.18 7.008h4.176L9.18 24zm5.664 0V7.008h3.888v13.44h4.536V24h-8.424zm21.792-8.544c0 1.344-.152 2.572-.456 3.684-.304 1.112-.736 2.06-1.296 2.844a5.952 5.952 0 0 1-2.052 1.824c-.808.432-1.716.648-2.724.648-1.008 0-1.916-.216-2.724-.648a5.952 5.952 0 0 1-2.052-1.824c-.56-.784-.992-1.732-1.296-2.844-.304-1.112-.456-2.34-.456-3.684 0-1.344.148-2.564.444-3.66.296-1.096.724-2.032 1.284-2.808a5.88 5.88 0 0 1 2.052-1.8c.808-.424 1.724-.636 2.748-.636 1.008 0 1.916.212 2.724.636a5.88 5.88 0 0 1 2.052 1.8c.56.776.992 1.712 1.296 2.808.304 1.096.456 2.316.456 3.66zm-3.936 0c0-.736-.056-1.42-.168-2.052a6.647 6.647 0 0 0-.492-1.644c-.216-.464-.484-.828-.804-1.092a1.718 1.718 0 0 0-1.128-.396c-.432 0-.812.132-1.14.396-.328.264-.6.628-.816 1.092-.216.464-.376 1.012-.48 1.644a12.657 12.657 0 0 0-.156 2.052c0 .736.052 1.424.156 2.064.104.64.264 1.192.48 1.656.216.464.488.832.816 1.104.328.272.708.408 1.14.408.432 0 .808-.136 1.128-.408.32-.272.588-.64.804-1.104.216-.464.38-1.016.492-1.656.112-.64.168-1.328.168-2.064zm18.624 0c0 1.344-.152 2.572-.456 3.684-.304 1.112-.736 2.06-1.296 2.844a5.952 5.952 0 0 1-2.052 1.824c-.808.432-1.716.648-2.724.648-1.008 0-1.916-.216-2.724-.648a5.952 5.952 0 0 1-2.052-1.824c-.56-.784-.992-1.732-1.296-2.844-.304-1.112-.456-2.34-.456-3.684 0-1.344.148-2.564.444-3.66.296-1.096.724-2.032 1.284-2.808a5.88 5.88 0 0 1 2.052-1.8c.808-.424 1.724-.636 2.748-.636 1.008 0 1.916.212 2.724.636a5.88 5.88 0 0 1 2.052 1.8c.56.776.992 1.712 1.296 2.808.304 1.096.456 2.316.456 3.66zm-3.936 0c0-.736-.056-1.42-.168-2.052a6.647 6.647 0 0 0-.492-1.644c-.216-.464-.484-.828-.804-1.092a1.718 1.718 0 0 0-1.128-.396c-.432 0-.812.132-1.14.396-.328.264-.6.628-.816 1.092-.216.464-.376 1.012-.48 1.644a12.657 12.657 0 0 0-.156 2.052c0 .736.052 1.424.156 2.064.104.64.264 1.192.48 1.656.216.464.488.832.816 1.104.328.272.708.408 1.14.408.432 0 .808-.136 1.128-.408.32-.272.588-.64.804-1.104.216-.464.38-1.016.492-1.656.112-.64.168-1.328.168-2.064zM61.212 24l-3.624-7.896h-.072V24h-3.864V7.008h3.864v7.08h.072l3.504-7.08h4.296l-4.368 7.776L65.652 24h-4.44z" id="a"/><path d="M183.18 24h-4.872l-4.104-16.992h4.344l2.304 12.432h.048l2.28-12.432h4.176L183.18 24zm5.664 0V7.008h3.888v13.44h4.536V24h-8.424zm21.792-8.544c0 1.344-.152 2.572-.456 3.684-.304 1.112-.736 2.06-1.296 2.844a5.952 5.952 0 0 1-2.052 1.824c-.808.432-1.716.648-2.724.648-1.008 0-1.916-.216-2.724-.648a5.952 5.952 0 0 1-2.052-1.824c-.56-.784-.992-1.732-1.296-2.844-.304-1.112-.456-2.34-.456-3.684 0-1.344.148-2.564.444-3.66.296-1.096.724-2.032 1.284-2.808a5.88 5.88 0 0 1 2.052-1.8c.808-.424 1.724-.636 2.748-.636 1.008 0 1.916.212 2.724.636a5.88 5.88 0 0 1 2.052 1.8c.56.776.992 1.712 1.296 2.808.304 1.096.456 2.316.456 3.66zm-3.936 0c0-.736-.056-1.42-.168-2.052a6.647 6.647 0 0 0-.492-1.644c-.216-.464-.484-.828-.804-1.092a1.718 1.718 0 0 0-1.128-.396c-.432 0-.812.132-1.14.396-.328.264-.6.628-.816 1.092-.216.464-.376 1.012-.48 1.644a12.657 12.657 0 0 0-.156 2.052c0 .736.052 1.424.156 2.064.104.64.264 1.192.48 1.656.216.464.488.832.816 1.104.328.272.708.408 1.14.408.432 0 .808-.136 1.128-.408.32-.272.588-.64.804-1.104.216-.464.38-1.016.492-1.656.112-.64.168-1.328.168-2.064zm18.624 0c0 1.344-.152 2.572-.456 3.684-.304 1.112-.736 2.06-1.296 2.844a5.952 5.952 0 0 1-2.052 1.824c-.808.432-1.716.648-2.724.648-1.008 0-1.916-.216-2.724-.648a5.952 5.952 0 0 1-2.052-1.824c-.56-.784-.992-1.732-1.296-2.844-.304-1.112-.456-2.34-.456-3.684 0-1.344.148-2.564.444-3.66.296-1.096.724-2.032 1.284-2.808a5.88 5.88 0 0 1 2.052-1.8c.808-.424 1.724-.636 2.748-.636 1.008 0 1.916.212 2.724.636a5.88 5.88 0 0 1 2.052 1.8c.56.776.992 1.712 1.296 2.808.304 1.096.456 2.316.456 3.66zm-3.936 0c0-.736-.056-1.42-.168-2.052a6.647 6.647 0 0 0-.492-1.644c-.216-.464-.484-.828-.804-1.092a1.718 1.718 0 0 0-1.128-.396c-.432 0-.812.132-1.14.396-.328.264-.6.628-.816 1.092-.216.464-.376 1.012-.48 1.644a12.657 12.657 0 0 0-.156 2.052c0 .736.052 1.424.156 2.064.104.64.264 1.192.48 1.656.216.464.488.832.816 1.104.328.272.708.408 1.14.408.432 0 .808-.136 1.128-.408.32-.272.588-.64.804-1.104.216-.464.38-1.016.492-1.656.112-.64.168-1.328.168-2.064zM235.212 24l-3.624-7.896h-.072V24h-3.864V7.008h3.864v7.08h.072l3.504-7.08h4.296l-4.368 7.776L239.652 24h-4.44z" id="c"/></defs><g fill="none" fill-rule="evenodd"><g fill-rule="nonzero"><g transform="translate(27.796 101.448)"><use fill="#333" xlink:href="#a"/><path stroke="#000" d="M33.064 6.745l.323.182a6.423 6.423 0 0 1 1.902 1.768c.597.827 1.054 1.817 1.373 2.967.316 1.142.474 2.407.474 3.794s-.157 2.66-.474 3.816c-.319 1.166-.775 2.168-1.371 3.003a6.451 6.451 0 0 1-2.223 1.974c-.883.472-1.872.707-2.96.707-1.088 0-2.077-.235-2.96-.707a6.451 6.451 0 0 1-2.223-1.974 8.815 8.815 0 0 1-1.157-2.31V24.5h-9.424V6.508h4.888v13.44h4.53a10.196 10.196 0 0 1-.208-.676c-.317-1.157-.474-2.429-.474-3.816 0-1.386.153-2.65.461-3.79.311-1.152.765-2.143 1.362-2.97a6.38 6.38 0 0 1 2.225-1.95c.882-.464 1.877-.694 2.98-.694 1.087 0 2.075.23 2.956.693zm14.688 0l.323.182a6.423 6.423 0 0 1 1.902 1.768c.597.827 1.054 1.817 1.373 2.967.316 1.142.474 2.407.474 3.794s-.157 2.66-.474 3.816c-.319 1.166-.775 2.168-1.371 3.003a6.451 6.451 0 0 1-2.223 1.974c-.883.472-1.872.707-2.96.707-1.088 0-2.077-.235-2.96-.707a6.451 6.451 0 0 1-2.223-1.974c-.596-.835-1.052-1.837-1.371-3.003-.317-1.157-.474-2.429-.474-3.816 0-1.386.153-2.65.461-3.79.311-1.152.765-2.143 1.362-2.97a6.38 6.38 0 0 1 2.225-1.95c.882-.464 1.877-.694 2.98-.694 1.087 0 2.075.23 2.956.693zM5.04 6.917l1.834 9.895 1.814-9.894.075-.41h5.23l-.151.62-4.176 16.991-.094.381H3.914l-.092-.383L-.282 7.125l-.15-.617h5.396zm52.976 5.179l2.628-5.31.138-.278h5.46l-.418.745-4.238 7.544 4.513 8.978.364.725H60.89l-.133-.291-2.742-5.974V24.5h-4.864V6.508h4.864zm-28.734-1.038l-.098.084a2.609 2.609 0 0 0-.579.829c-.195.42-.343.925-.44 1.514-.1.604-.149 1.261-.149 1.971 0 .71.05 1.371.15 1.984.097.597.244 1.105.44 1.525.185.4.413.708.681.93.238.197.505.293.821.293.314 0 .575-.094.804-.289.262-.223.488-.532.675-.934.196-.422.348-.932.452-1.531.107-.61.161-1.27.161-1.978s-.054-1.363-.16-1.965a6.158 6.158 0 0 0-.453-1.52c-.186-.4-.41-.704-.67-.917a1.219 1.219 0 0 0-.809-.282c-.319 0-.588.094-.826.286zm14.688 0l-.098.084a2.609 2.609 0 0 0-.579.829c-.195.42-.343.925-.44 1.514-.1.604-.149 1.261-.149 1.971 0 .71.05 1.371.15 1.984.097.597.244 1.105.44 1.525.185.4.413.708.681.93.238.197.505.293.821.293.314 0 .575-.094.804-.289.262-.223.488-.532.675-.934.196-.422.348-.932.452-1.531.107-.61.161-1.27.161-1.978s-.054-1.363-.16-1.965a6.158 6.158 0 0 0-.453-1.52c-.186-.4-.41-.704-.67-.917a1.219 1.219 0 0 0-.809-.282c-.319 0-.588.094-.826.286z" fill="url(#b)" fill-rule="evenodd"/></g><g transform="translate(27.796 101.448)"><use fill="#333" xlink:href="#c"/><path stroke="#000" d="M207.064 6.745l.323.182a6.423 6.423 0 0 1 1.902 1.768c.597.827 1.054 1.817 1.373 2.967.316 1.142.474 2.407.474 3.794s-.157 2.66-.474 3.816c-.319 1.166-.775 2.168-1.371 3.003a6.451 6.451 0 0 1-2.223 1.974c-.883.472-1.872.707-2.96.707-1.088 0-2.077-.235-2.96-.707a6.451 6.451 0 0 1-2.223-1.974 8.815 8.815 0 0 1-1.157-2.31V24.5h-9.424V6.508h4.888v13.44h4.53a10.197 10.197 0 0 1-.208-.676c-.317-1.157-.474-2.429-.474-3.816 0-1.386.153-2.65.461-3.79.311-1.152.765-2.143 1.362-2.97a6.38 6.38 0 0 1 2.225-1.95c.882-.464 1.877-.694 2.98-.694 1.087 0 2.075.23 2.956.693zm14.688 0l.323.182a6.423 6.423 0 0 1 1.902 1.768c.597.827 1.054 1.817 1.373 2.967.316 1.142.474 2.407.474 3.794s-.157 2.66-.474 3.816c-.319 1.166-.775 2.168-1.371 3.003a6.451 6.451 0 0 1-2.223 1.974c-.883.472-1.872.707-2.96.707-1.088 0-2.077-.235-2.96-.707a6.451 6.451 0 0 1-2.223-1.974c-.596-.835-1.052-1.837-1.371-3.003-.317-1.157-.474-2.429-.474-3.816 0-1.386.153-2.65.461-3.79.311-1.152.765-2.143 1.362-2.97a6.38 6.38 0 0 1 2.225-1.95c.882-.464 1.877-.694 2.98-.694 1.087 0 2.075.23 2.956.693zm-42.712.172l1.834 9.895 1.814-9.894.075-.41h5.23l-.151.62-4.176 16.991-.094.381h-5.658l-.092-.383-4.104-16.992-.15-.617h5.396zm52.976 5.179l2.628-5.31.138-.278h5.46l-.418.745-4.238 7.544 4.513 8.978.364.725h-5.572l-.133-.291-2.742-5.974V24.5h-4.864V6.508h4.864zm-28.734-1.038l-.098.084a2.609 2.609 0 0 0-.579.829c-.195.42-.343.925-.44 1.514-.1.604-.149 1.261-.149 1.971 0 .71.05 1.371.15 1.984.097.597.244 1.105.44 1.525.185.4.413.708.681.93.238.197.505.293.821.293.314 0 .575-.094.804-.289.262-.223.488-.532.675-.934.196-.422.348-.932.452-1.531.107-.61.161-1.27.161-1.978s-.054-1.363-.16-1.965a6.158 6.158 0 0 0-.453-1.52c-.186-.4-.41-.704-.67-.917a1.219 1.219 0 0 0-.809-.282c-.319 0-.588.094-.826.286zm14.688 0l-.098.084a2.609 2.609 0 0 0-.579.829c-.195.42-.343.925-.44 1.514-.1.604-.149 1.261-.149 1.971 0 .71.05 1.371.15 1.984.097.597.244 1.105.44 1.525.185.4.413.708.681.93.238.197.505.293.821.293.314 0 .575-.094.804-.289.262-.223.488-.532.675-.934.196-.422.348-.932.452-1.531.107-.61.161-1.27.161-1.978s-.054-1.363-.16-1.965a6.158 6.158 0 0 0-.453-1.52c-.186-.4-.41-.704-.67-.917a1.219 1.219 0 0 0-.809-.282c-.319 0-.588.094-.826.286z" fill="url(#b)" fill-rule="evenodd"/></g></g><g stroke="#000" stroke-width=".952"><g fill="#FFF" fill-rule="nonzero"><path d="M38.02 8.778l3.255 13.477.142.588h-4.164l-.084-.372-.468-2.084h-2.265l-.469 2.084-.083.372h-4.032l.143-.588 3.274-13.478.088-.363h4.575zm-3.042 8.297h1.149l-.56-2.955zM45.457 11.935h1.714v3.275h-1.714v3.483c0 .395.058.66.145.788.058.084.15.126.331.126.198 0 .348-.03.454-.083l.688-.344v3.395l-.25.135c-.211.114-.487.203-.833.275-.336.07-.673.105-1.01.105-1.132 0-1.995-.319-2.553-.977-.54-.637-.798-1.553-.798-2.735V15.21h-1.199v-3.275h1.18V9.537h3.845z"/><path d="M53.472 12.027l.212.118c.486.287.902.663 1.245 1.125.384.517.679 1.133.884 1.846.203.704.304 1.465.304 2.283 0 .818-.1 1.576-.304 2.274-.206.706-.5 1.319-.884 1.836-.392.527-.88.943-1.457 1.243-.584.302-1.24.453-1.961.453-.722 0-1.376-.151-1.954-.455a4.426 4.426 0 0 1-1.46-1.235c-.399-.518-.7-1.133-.907-1.842a8.107 8.107 0 0 1-.305-2.274c0-.818.101-1.579.304-2.283.206-.714.505-1.332.897-1.85.398-.525.887-.94 1.464-1.239.584-.303 1.24-.453 1.96-.453.722 0 1.378.15 1.962.453zm-2.208 3.216c-.1.088-.19.221-.265.404a3.35 3.35 0 0 0-.198.75c-.047.298-.07.626-.07.983s.023.684.07.982c.045.29.112.539.198.75.076.183.165.316.265.404.07.063.146.09.247.09.115 0 .196-.028.266-.09.1-.088.19-.22.264-.404a3.35 3.35 0 0 0 .199-.75c.047-.298.07-.625.07-.982s-.023-.685-.07-.983a3.35 3.35 0 0 0-.199-.75 1.068 1.068 0 0 0-.264-.404.375.375 0 0 0-.266-.09c-.1 0-.176.028-.247.09zM69.248 12.005l.156.11c.352.268.63.61.829 1.022.213.44.357.939.433 1.494.073.53.109 1.078.109 1.645v6.567h-3.902v-6.586c0-.361-.053-.67-.157-.928-.053-.134-.118-.176-.281-.176-.196 0-.324.076-.436.268-.15.256-.23.616-.23 1.083v6.339h-3.884v-6.586c0-.364-.05-.675-.15-.935-.049-.13-.108-.17-.268-.17-.196 0-.324.077-.437.27-.15.255-.23.615-.23 1.082v6.339h-3.883V11.935h3.864v.325a.752.752 0 0 1 .052-.048c.497-.427 1.127-.638 1.87-.638.826 0 1.475.21 1.924.65.178.175.334.368.464.578a3.115 3.115 0 0 1 1.416-1.046 3.105 3.105 0 0 1 1.09-.182c.657 0 1.211.14 1.651.43zM79.737 8.57c.677.342 1.22.778 1.62 1.308l.216.285-.213.286-1.656 2.227-.388.522-.38-.528c-.367-.51-.845-.754-1.48-.754-.32 0-.583.081-.804.242a2.148 2.148 0 0 0-.622.744c-.18.336-.313.734-.4 1.196a8.3 8.3 0 0 0-.134 1.53c0 .545.042 1.057.126 1.536.08.463.209.86.382 1.197.166.32.369.57.61.754.212.163.468.244.785.244.244 0 .44-.03.59-.089v-1.757h-1.446v-3.598h5.063v7.888l-.186.143a5.784 5.784 0 0 1-1.7.873c-.661.22-1.428.329-2.301.329-.924 0-1.757-.189-2.493-.567a5.386 5.386 0 0 1-1.857-1.574c-.5-.664-.88-1.456-1.143-2.373-.26-.907-.39-1.91-.39-3.006 0-1.095.13-2.1.39-3.014.262-.92.638-1.72 1.13-2.396a5.333 5.333 0 0 1 1.806-1.596c.712-.38 1.503-.57 2.366-.57.984 0 1.821.17 2.509.518zM86.632 22.843h-3.96V11.935h3.96zM85.52 7.669l.097.048c.22.117.412.267.573.45a2.334 2.334 0 0 1 .575 1.541c0 .599-.195 1.122-.58 1.548-.396.437-.919.66-1.533.66-.614 0-1.136-.223-1.533-.66a2.238 2.238 0 0 1-.58-1.548 2.334 2.334 0 0 1 .575-1.542 2.028 2.028 0 0 1 1.538-.685c.31 0 .6.062.868.188zM91.943 11.935h1.713v3.275h-1.713v3.483c0 .395.057.66.145.788.058.084.15.126.33.126.198 0 .348-.03.454-.083l.689-.344v3.395l-.25.135c-.212.114-.488.203-.833.275-.337.07-.674.105-1.011.105-1.131 0-1.995-.319-2.552-.977-.54-.637-.798-1.553-.798-2.735V15.21h-1.2v-3.275h1.18V9.537h3.846zM44.02 26.166l.305.163c.69.392 1.252.871 1.68 1.438l.216.285-.213.286-2.07 2.784-.388.522-.38-.528c-.481-.669-1.115-.992-1.946-.992-.425 0-.779.109-1.076.325-.32.234-.59.555-.812.97-.23.431-.4.94-.511 1.53-.114.604-.17 1.249-.17 1.934 0 .687.053 1.334.159 1.94.103.59.267 1.099.49 1.53.214.415.479.741.794.983.287.22.633.33 1.055.33.358 0 .642-.052.857-.15V37.12H40.2v-4.26h6.092v9.682l-.187.143c-.583.446-1.28.803-2.09 1.073-.813.271-1.76.405-2.84.405-1.135 0-2.158-.23-3.06-.695a6.614 6.614 0 0 1-2.28-1.934c-.616-.817-1.086-1.794-1.41-2.927-.322-1.123-.483-2.365-.483-3.724s.16-2.604.482-3.735c.324-1.139.788-2.125 1.394-2.957a6.548 6.548 0 0 1 2.219-1.96c.871-.467 1.84-.7 2.9-.7 1.213 0 2.241.21 3.083.635zM52.646 38.619h-5.52v-3.783h5.52z"/><path d="M61.346 26.02c.79.327 1.458.777 1.997 1.351l.266.283-.223.317-1.975 2.808-.352.5-.399-.464a2.557 2.557 0 0 0-.843-.654 2.246 2.246 0 0 0-.985-.227c-.32 0-.601.098-.858.302-.214.169-.331.474-.331.959 0 .388.117.662.354.861.317.267.804.57 1.453.902.394.198.808.43 1.24.7.458.285.876.634 1.253 1.046.386.421.704.922.955 1.501.257.595.384 1.29.384 2.08 0 .965-.154 1.823-.464 2.574-.311.751-.734 1.379-1.27 1.88a5.327 5.327 0 0 1-1.84 1.122c-.686.249-1.4.373-2.137.373-1.081 0-2.073-.204-2.97-.614-.881-.403-1.598-.878-2.149-1.429l-.279-.279.223-.326 1.95-2.855.332-.484.405.423c.326.34.7.612 1.125.817.412.2.826.298 1.244.298.34 0 .611-.105.839-.321.216-.206.327-.5.327-.916 0-.42-.132-.727-.404-.96-.347-.296-.871-.622-1.563-.968-.48-.231-.931-.488-1.354-.77a5.288 5.288 0 0 1-1.176-1.071 4.79 4.79 0 0 1-.807-1.478c-.193-.561-.287-1.216-.287-1.963 0-1.001.167-1.873.507-2.614.337-.735.783-1.342 1.336-1.817a5.47 5.47 0 0 1 1.823-1.04 6.207 6.207 0 0 1 1.997-.335c.98 0 1.866.162 2.656.488z"/><path d="M69.088 30.386h2.142v3.855h-2.142v4.473c0 .516.076.868.202 1.052.096.14.248.21.512.21s.47-.042.62-.117l.689-.344v3.98l-.25.135c-.253.136-.588.245-1.01.333a6.062 6.062 0 0 1-1.239.129c-1.382 0-2.428-.387-3.1-1.18-.653-.772-.969-1.89-.969-3.341v-5.33h-1.499v-3.855h1.475v-2.998h4.569z"/><path d="M78.366 30.425a3.917 3.917 0 0 1 1.621 1.272c.407.547.695 1.207.868 1.975.167.743.25 1.59.25 2.544v7.566h-4.022v-.48c-.072.065-.15.128-.231.187-.556.405-1.26.603-2.1.603-.418 0-.842-.072-1.27-.215a3.345 3.345 0 0 1-1.22-.733c-.369-.341-.668-.786-.9-1.328-.233-.549-.347-1.21-.347-1.984 0-.932.172-1.717.525-2.349a4.259 4.259 0 0 1 1.365-1.497 5.327 5.327 0 0 1 1.866-.771 9.699 9.699 0 0 1 2.013-.213c-.032-.327-.123-.55-.259-.682-.184-.179-.433-.27-.774-.27-.381 0-.719.084-1.02.25-.322.179-.599.404-.83.677l-.395.464-.355-.494-1.642-2.285-.216-.3.239-.284a5.638 5.638 0 0 1 2.063-1.532c.813-.36 1.627-.54 2.441-.54.902 0 1.68.137 2.33.419zm-1.64 7.932c-.24 0-.473.021-.697.063-.188.036-.346.1-.48.195a.97.97 0 0 0-.304.354c-.073.14-.113.34-.113.602 0 .382.073.629.193.758a.545.545 0 0 0 .426.193.846.846 0 0 0 .485-.134c.15-.1.269-.23.359-.393.104-.188.183-.406.237-.656.056-.26.084-.516.084-.768v-.214zM89.932 30.02c.11.01.233.036.369.075l.368.105-.024.383-.238 3.736-.036.57-.554-.14a7.48 7.48 0 0 0-.347-.077 1.846 1.846 0 0 0-.347-.027.942.942 0 0 0-.56.164 1.715 1.715 0 0 0-.475.515 2.758 2.758 0 0 0-.322.812 4.316 4.316 0 0 0-.118 1.008v6.638h-4.711V30.386h4.592v.563c.525-.621 1.21-.944 2.046-.944.142 0 .26.005.357.014z"/></g><path d="M63.635 48.032l1.835 1.849h2.592c.802 0 1.57.32 2.137.89.566.57.884 1.343.884 2.148v2.612l1.833 1.846a3.037 3.037 0 0 1 .887 2.147 3.051 3.051 0 0 1-.882 2.148l-1.834 1.846v2.613c0 .805-.318 1.577-.884 2.147-.566.57-1.335.89-2.137.89h-2.593l-1.834 1.845a3.018 3.018 0 0 1-2.137.891 3.005 3.005 0 0 1-2.136-.89l-1.837-1.845h-2.592c-.802 0-1.571-.321-2.138-.891a3.046 3.046 0 0 1-.883-2.147v-2.613l-1.837-1.846a3.05 3.05 0 0 1 0-4.295l1.837-1.846V52.92a3.052 3.052 0 0 1 .882-2.15 3.02 3.02 0 0 1 2.139-.893h2.596l1.833-1.845a3.01 3.01 0 0 1 4.269 0zm-3.715 4.705c-4.745 1.41-6.364 7.271-3.001 10.864 1.404 1.5 3.205 2.207 5.367 2.155 2.602-.062 4.534-1.325 5.8-3.72.767-1.451-.038-3.048-1.688-3.388a11.936 11.936 0 0 0-3.216-.209c-.31.03-.611.122-.892.275-.143.074-.21.25-.182.519.012.114.093.189.243.214.553.087 1.088.143 1.964.216a6.875 6.875 0 0 0 .548.018c.443.005.645.014.904.058 1.106.184 1.546 1.186.974 2.157-.114.191-.248.37-.395.53a4.343 4.343 0 0 1-2.202 1.313c-1.528.376-2.987.36-4.393-.086-1.763-.56-2.824-1.898-2.86-3.657a5.9 5.9 0 0 1 .76-2.975c.185-.34.263-.647.239-.967a15.723 15.723 0 0 1-.028-.541l-.003-.053a37.94 37.94 0 0 0-.014-.333l-.03-.616.604.127c.175.037.349.084.548.151.58.235 1.047.29 1.545.153.421-.101.857-.13 1.276-.084a2.34 2.34 0 0 0 1.446-.36c.112-.067.204-.119.411-.236l.285-.16.584-.334.12.66.034.17c.03.144.041.21.05.302.044.48.254.788.5.846.49.114.929-.066 1.172-.473.296-.497.164-1.087-.35-1.46-1.881-1.365-3.917-1.727-6.12-1.076z" fill="#E9A014"/><path d="M23.236 17.01c2.98 3.35 2.622 8.24-.382 10.931a7.572 7.572 0 0 0-1.112 1.223c1.156-1.003 3.056-1.886 6.085-3.054l.655-.25.625-.239.02.668c.158 4.939-3.314 8.254-8.556 8.215l-.456-.003-.016-.456c-.012-.345-.015-.67-.005-.974-.608 2.27-1.1 4.4-1.484 6.441.729-.987 1.856-1.863 3.482-2.85.603-.37 1.07-.716 2.102-1.525l.006-.005c.475-.373.69-.539.96-.741l.612-.458.141.751c1.176 6.26-1.67 10.653-7.653 11.72l-.485.086-.05-.353a47.333 47.333 0 0 0-.132 4.05c.01.983.06 1.864.18 2.983.23-1 .686-1.907 1.397-2.746a106.1 106.1 0 0 0 2.129-2.619l.522-.661.522-.661 1.038-1.309.466-.586.333.67c3.12 6.28 1.672 11.551-4.186 15.1l-.01.007c-.224.128-.405.16-.76.165.213 2.773 1.088 4.959 3.264 8.603-1.015-2.58-.806-5.284.655-8.16.399-.787.623-1.504 1.026-3.104l.011-.045c.197-.78.29-1.13.42-1.56l.174-.578.521.304c4.756 2.775 6.124 9.986 2.928 15.124a.673.673 0 0 1-.16.206l-.01.01-.001.001c-1.442 2.238-1.67 2.735-1.493 3.308.155.499.613.992 2.207 2.424 1.258 1.131 2.335 1.997 4.735 3.853l.09.07c.865.669 1.362 1.055 1.846 1.438l.003-.003a21.542 21.542 0 0 1-.109-.217c0-.002 0-.002-.002-.003-.252-.511-.375-.71-.552-.861-4.228-3.574-5.573-7.814-3.939-12.99.286-.904.422-1.856.521-3.317l.045-.71c.058-.95.09-1.382.15-1.906l.074-.66.6.283c6.615 3.113 9.248 11.163 5.867 18.05-.978 1.993-1.166 2.514-1.036 2.89.13.378.656.686 2.606 1.508 1.938.817 3.611 1.447 7.033 2.683l.238.086c1.158.418 1.828.661 2.464.896l-.558-.33-.104-.06a46.013 46.013 0 0 0-1.704-.977c-3.957-2.143-6.018-4.815-6.142-8.76-.033-1.064-.164-1.938-.53-3.865-.052-.27-.076-.393-.103-.54-.13-.67-.264-1.227-.567-2.389-.178-.686-.243-.94-.33-1.297l-.15-.621.638.033c5.46.288 10.996 5.616 11.518 10.952.114 1.178.085 2.372-.057 4.054-.025.296-.047.541-.095 1.058a89.93 89.93 0 0 0-.126 1.429c-.1 1.344.105 1.794 1.089 1.987.788.143 1.439.516 1.986 1.191l.863 1.067-1.339-.303c-.26-.06-.487-.106-.94-.195l-.04-.008c-1.2-.237-1.732-.365-2.38-.605-1.303-.483-2.061-.12-2.947 1.252-4.471 6.954-13.51 8.602-19.992 3.72l-.517-.39.526-.377c.852-.61 4.076-2.898 4.805-3.42.89-.637 1.671-1.201 2.412-1.745 2.284-1.68 4.748-2.261 7.401-1.792l-1.201-.501-6.516-2.719c-.346.302-.987.863-1.245 1.107-.229.217-.434.425-.62.629-5.237 5.827-13.533 5.88-18.71 1.033l-.473-.443.564-.32c.635-.358 3.43-1.92 4.176-2.343 1.047-.592 1.94-1.108 2.786-1.61 3.37-2 6.85-1.862 10.787.064.24.117.463.21.797.336a22.1 22.1 0 0 1-.603-.508c-.528-.463-.96-.834-1.919-1.65l-.021-.018c-2.412-2.052-3.47-2.999-4.698-4.27-1.067-1.11-1.839-1.284-3.218-.734-4.003 1.592-7.5 1.595-10.765-.36-2.258-1.354-3.916-3.3-5.113-5.867l-.29-.622.684-.054c.728-.057 1.34-.115 2.597-.242 3.15-.317 4.481-.411 6.197-.373 2.527.057 4.28 1.278 6.557 4.013-.76-1.671-1.677-3.68-2.051-4.49a196.658 196.658 0 0 0-1.831-3.86c-.133-.275-.703-.575-1.445-.779-.455-.125-.852-.2-1.698-.334l-.036-.005c-1.065-.17-1.54-.263-2.12-.446-4.349-1.359-7.29-6.103-6.688-10.667l.081-.619.576.243c.316.134.647.275 1.044.446l1.05.451c1.763.76 2.79 1.187 3.914 1.616 1.915.734 3.095 1.93 3.896 3.812-.459-2.643-.638-5.344-.565-8.158l-.428-.125c-5.844-1.709-8.53-7.382-6.052-12.704l.275-.59.48.44c.429.396 1.9 1.765 2.113 1.962.839.775 1.5 1.374 2.152 1.944 1.017.889 1.66 1.832 1.984 2.91.224-1.697.535-3.45.919-5.262.195-.923.395-1.713.729-2.87a1.883 1.883 0 0 1-.084.13l-.191.283-.329-.09c-4.182-1.153-6.052-7.058-3.288-11.466l.4-.64.405.638c.365.576.727 1.059 1.492 2.02l.276.349c1.47 1.858 2.333 3.329 2.509 4.764.121-.426.222-.796.325-1.195.134-.529.082-1.218-.13-1.695-1.26-2.78-.848-5.27 1.198-7.628.404-.465.698-.953 1.204-1.927l.095-.183c.234-.451.363-.693.518-.958l.33-.57z" fill="#DA203E"/><path d="M101.264 17.087c.154.265.283.507.517.958l.096.183c.505.974.8 1.462 1.203 1.927 2.047 2.358 2.458 4.847 1.2 7.625-.213.48-.265 1.17-.132 1.696.104.4.204.77.326 1.197.175-1.435 1.038-2.906 2.509-4.764l.276-.348c.764-.962 1.126-1.445 1.492-2.021l.404-.637.401.639c2.763 4.408.894 10.313-3.288 11.466l-.33.09-.19-.282c-.031-.045-.06-.09-.084-.131.333 1.157.534 1.947.729 2.87.384 1.812.695 3.565.919 5.262.323-1.078.967-2.021 1.983-2.91.702-.613 1.402-1.248 2.345-2.123-.018.017 1.493-1.388 1.922-1.782l.478-.44.275.59c2.308 4.953.143 10.276-5.017 12.346l-1.012.35-.45.156c.071 2.805-.108 5.498-.566 8.135.802-1.882 1.982-3.08 3.897-3.813 1.123-.429 2.15-.856 3.914-1.616l1.05-.451c.397-.17.727-.312 1.044-.446l.575-.243.082.62c.602 4.563-2.34 9.307-6.686 10.665-.583.184-1.057.278-2.122.447l-.036.005c-.847.135-1.243.21-1.698.334-.742.204-1.312.504-1.446.782a196.57 196.57 0 0 0-1.83 3.857c-.375.81-1.29 2.819-2.052 4.49 2.28-2.736 4.032-3.956 6.557-4.013 1.716-.038 3.048.056 6.198.373 1.257.127 1.868.185 2.597.242l.684.054-.29.622c-1.198 2.567-2.855 4.513-5.113 5.868-3.266 1.954-6.763 1.951-10.766.359-1.379-.55-2.15-.375-3.218.734-1.227 1.271-2.286 2.218-4.697 4.27l-.022.018a147.5 147.5 0 0 0-1.92 1.651c-.189.166-.37.319-.602.507a8.65 8.65 0 0 0 .796-.335c3.938-1.927 7.42-2.065 10.789-.065.846.502 1.739 1.018 2.786 1.61.746.422 3.54 1.985 4.176 2.344l.564.319-.473.443c-5.178 4.847-13.473 4.794-18.71-1.032a11.745 11.745 0 0 0-.62-.63 59.656 59.656 0 0 0-1.246-1.107 147233.057 147233.057 0 0 0-7.717 3.22c2.654-.47 5.118.112 7.4 1.792.742.544 1.523 1.108 2.414 1.745.729.522 3.953 2.81 4.805 3.42l.526.377-.517.39c-6.482 4.882-15.521 3.234-19.992-3.72-.886-1.371-1.645-1.735-2.948-1.252-.647.24-1.18.368-2.38.605l-.039.008c-.453.09-.68.136-.94.195l-1.34.303.864-1.067c.515-.637 1.126-1.005 1.863-1.166l.116-.024c.99-.194 1.196-.644 1.095-1.987a89.9 89.9 0 0 0-.125-1.43c-.048-.517-.07-.762-.095-1.058-.142-1.682-.171-2.876-.058-4.055.523-5.335 6.058-10.663 11.519-10.95l.638-.034-.15.62c-.087.358-.152.612-.33 1.298-.303 1.162-.438 1.72-.567 2.387l-.103.542c-.366 1.927-.497 2.801-.53 3.865-.125 3.945-2.186 6.617-6.143 8.76-.482.26-.9.5-1.703.976l-.104.061-.558.33a413.1 413.1 0 0 1 2.464-.896l.238-.086c3.421-1.236 5.095-1.866 7.032-2.683 1.95-.822 2.477-1.13 2.607-1.507.13-.377-.059-.898-1.037-2.892-3.38-6.886-.748-14.936 5.867-18.05l.6-.282.075.66c.06.524.092.957.15 1.905.022.368.031.515.045.711.099 1.461.235 2.413.52 3.317 1.635 5.176.29 9.416-3.937 12.989-.178.151-.301.351-.554.862l-.001.003-.11.217.004.003c.484-.383.98-.77 1.845-1.438l.09-.07c2.4-1.856 3.478-2.722 4.736-3.854 1.594-1.431 2.051-1.924 2.206-2.423.179-.573-.051-1.071-1.492-3.308h-.001l-.011-.011a.591.591 0 0 1-.138-.168c-3.218-5.176-1.85-12.387 2.907-15.162l.52-.304.175.577a31.95 31.95 0 0 1 .43 1.606c.404 1.6.628 2.317 1.026 3.103 1.46 2.876 1.67 5.58.656 8.16 2.09-3.501 2.98-5.656 3.235-8.279v-.324c-.336-.006-.515-.04-.742-.17-5.487-3.325-7.115-8.17-4.704-13.966l.512-1.12.321-.703.483.603.417.522c.33.415 1.472 1.864 1.667 2.11a106.101 106.101 0 0 0 2.128 2.62v-.002c.711.84 1.168 1.747 1.398 2.747.12-1.119.17-2 .18-2.983a47.225 47.225 0 0 0-.132-4.038l-.043.342-.493-.088c-5.982-1.066-8.829-5.459-7.653-11.719l.141-.75.612.457c.27.202.485.368.96.74l.007.006c1.032.809 1.499 1.154 2.102 1.525l-.003-.001c1.635.992 2.763 1.873 3.486 2.86a87.412 87.412 0 0 0-1.485-6.448c.01.304.006.628-.006.972l-.016.456-.456.003c-4.891.037-8.274-2.855-8.545-7.337l-.011-.856-.01-.7.654.248c3.417 1.297 5.501 2.236 6.737 3.3a7.57 7.57 0 0 0-1.107-1.218c-3.005-2.692-3.363-7.58-.382-10.932l.437-.491z" fill="#DA203E" fill-rule="nonzero"/></g><g stroke="#000" stroke-width=".952"><g fill="#FFF" fill-rule="nonzero"><path d="M226.212 11.94l.319.18a6.348 6.348 0 0 1 1.88 1.747c.59.818 1.042 1.797 1.358 2.936.313 1.13.47 2.382.47 3.756 0 1.373-.157 2.633-.47 3.778-.315 1.154-.767 2.145-1.356 2.97a6.376 6.376 0 0 1-2.198 1.952c-.872.466-1.85.699-2.925.699-1.076 0-2.053-.233-2.925-.7a6.376 6.376 0 0 1-2.197-1.95c-.59-.826-1.041-1.817-1.357-2.971-.313-1.145-.469-2.405-.469-3.778 0-1.373.152-2.624.457-3.753.308-1.14.756-2.12 1.346-2.939a6.305 6.305 0 0 1 2.2-1.927c.871-.457 1.855-.685 2.945-.685 1.075 0 2.05.228 2.922.685zm-3.754 4.242l-.097.085a2.606 2.606 0 0 0-.579.828c-.194.418-.341.92-.437 1.506-.1.6-.149 1.253-.149 1.958 0 .705.05 1.361.149 1.97.096.593.243 1.1.437 1.517.186.399.414.707.682.93.24.198.508.294.826.294.316 0 .58-.095.81-.291.262-.223.488-.532.674-.933.196-.42.346-.927.45-1.523.107-.607.16-1.261.16-1.964a11.2 11.2 0 0 0-.16-1.952 6.125 6.125 0 0 0-.45-1.512c-.185-.399-.41-.702-.668-.916a1.228 1.228 0 0 0-.816-.284c-.32 0-.592.094-.832.287zM239.367 11.743l.29.128c.665.313 1.235.721 1.707 1.223l.265.283-.223.317-1.975 2.808-.352.5-.398-.464a2.557 2.557 0 0 0-.844-.654 2.246 2.246 0 0 0-.984-.227c-.32 0-.601.098-.859.302-.213.169-.33.474-.33.96 0 .387.116.661.353.86.318.267.805.57 1.453.903.395.197.808.43 1.24.7.458.284.876.633 1.254 1.045.386.421.704.922.955 1.501.257.595.384 1.29.384 2.08 0 .965-.154 1.823-.465 2.574-.31.751-.733 1.38-1.269 1.88a5.327 5.327 0 0 1-1.84 1.122c-.687.249-1.4.374-2.137.374-1.082 0-2.073-.205-2.97-.615-.882-.403-1.599-.878-2.15-1.428l-.278-.28.222-.325 1.952-2.856.33-.484.406.423c.326.34.7.612 1.125.817.412.2.825.298 1.244.298.34 0 .61-.105.838-.321.217-.206.328-.5.328-.916 0-.42-.133-.727-.404-.96-.347-.296-.872-.621-1.564-.967-.48-.232-.93-.489-1.354-.77a5.288 5.288 0 0 1-1.176-1.072 4.79 4.79 0 0 1-.806-1.478c-.193-.561-.288-1.216-.288-1.963 0-1.001.168-1.873.508-2.614.337-.735.782-1.342 1.336-1.816a5.47 5.47 0 0 1 1.823-1.042 6.207 6.207 0 0 1 1.996-.334c.98 0 1.867.162 2.657.488zM251.938 11.918l.297.169a5.883 5.883 0 0 1 1.677 1.473l.217.284-.213.288-2.047 2.76-.38.513-.383-.51a3.092 3.092 0 0 0-.834-.786c-.276-.172-.638-.262-1.093-.262-.41 0-.752.105-1.042.314-.314.228-.586.544-.815.954-.236.422-.414.93-.532 1.525a10.14 10.14 0 0 0-.181 1.966c0 .7.06 1.35.181 1.953a5.33 5.33 0 0 0 .533 1.53c.229.415.503.733.822.96.299.21.646.316 1.058.316.416 0 .768-.1 1.068-.3.327-.219.581-.473.767-.764l.357-.561.416.518 2.117 2.642.225.28-.207.292a6.179 6.179 0 0 1-1.957 1.766c-.825.483-1.859.72-3.096.72-1.061 0-2.032-.238-2.904-.713a6.67 6.67 0 0 1-2.216-1.97c-.604-.831-1.072-1.817-1.404-2.954-.33-1.132-.495-2.37-.495-3.715 0-1.36.164-2.61.495-3.75.332-1.145.8-2.132 1.406-2.956a6.596 6.596 0 0 1 2.217-1.946c.872-.466 1.841-.7 2.901-.7 1.2 0 2.217.22 3.045.664zM214.06 37.748h-3.598v1.694h3.313v3.465h-3.313v1.96h3.827v3.674h-7.69V34.112h7.461zM223.75 48.541h-3.827v-.215c-.413.352-.972.52-1.656.52a2.875 2.875 0 0 1-1.67-.513 3.959 3.959 0 0 1-1.18-1.316c-.304-.533-.533-1.152-.689-1.857a10.244 10.244 0 0 1-.23-2.215c0-.77.073-1.487.22-2.15.151-.677.38-1.268.687-1.772.317-.518.714-.93 1.19-1.23a3.076 3.076 0 0 1 1.672-.464c.59 0 1.114.155 1.558.467.008.006.015.01.022.017v-4.615h3.902zm-4.835-7.6l-.037.036a1.14 1.14 0 0 0-.228.369 3.35 3.35 0 0 0-.198.75c-.047.297-.07.625-.07.982 0 .344.023.67.07.975.045.294.112.547.198.757.075.184.165.316.265.404.07.062.15.091.266.091.1 0 .176-.028.247-.09a1.16 1.16 0 0 0 .278-.414c.09-.208.159-.457.204-.748.047-.306.07-.63.07-.975 0-.357-.023-.685-.07-.983a3.032 3.032 0 0 0-.204-.74 1.16 1.16 0 0 0-.278-.413.348.348 0 0 0-.247-.091.375.375 0 0 0-.266.09zM229.06 48.541h-3.96V37.634h3.96zm-1.111-15.174c.261.123.486.289.67.497a2.334 2.334 0 0 1 .575 1.543c0 .598-.195 1.121-.58 1.547-.397.438-.919.66-1.533.66-.615 0-1.137-.222-1.533-.66a2.238 2.238 0 0 1-.58-1.547 2.334 2.334 0 0 1 .575-1.542 2.028 2.028 0 0 1 1.538-.686c.31 0 .6.063.868.188zM234.371 37.634h1.714v3.274h-1.714v3.483c0 .395.057.66.145.788.058.084.15.126.331.126.198 0 .348-.03.454-.083l.688-.344v3.395l-.25.135c-.211.114-.487.204-.833.276-.336.07-.673.105-1.01.105-1.132 0-1.995-.32-2.553-.978-.54-.636-.798-1.552-.798-2.734v-4.17h-1.2v-3.273h1.181v-2.399h3.845z"/><path d="M242.386 37.725c.578.3 1.065.716 1.457 1.243.384.517.679 1.133.884 1.846.203.704.304 1.466.304 2.283 0 .818-.1 1.576-.304 2.275-.206.706-.5 1.318-.884 1.835-.392.527-.88.943-1.457 1.243-.584.302-1.24.453-1.961.453-.722 0-1.376-.15-1.954-.454a4.426 4.426 0 0 1-1.46-1.235c-.399-.519-.701-1.134-.907-1.842a8.107 8.107 0 0 1-.305-2.275c0-.817.101-1.579.304-2.283.206-.714.504-1.331.897-1.85.397-.525.887-.94 1.464-1.239.584-.302 1.24-.453 1.96-.453.722 0 1.378.15 1.962.453zm-2.208 3.217c-.1.087-.19.22-.265.404a3.35 3.35 0 0 0-.198.75c-.047.297-.07.625-.07.982s.023.684.07.983c.045.288.112.538.198.75.075.183.165.315.265.403.07.063.146.091.247.091.115 0 .196-.03.266-.09.1-.089.19-.221.264-.405a3.35 3.35 0 0 0 .199-.75c.047-.298.07-.625.07-.982s-.023-.685-.07-.983a3.35 3.35 0 0 0-.199-.75 1.068 1.068 0 0 0-.264-.403.375.375 0 0 0-.266-.091c-.1 0-.176.028-.247.09zM251.532 37.341l.036.004c.084.011.176.031.276.06l.368.105-.024.382-.19 2.989-.037.57-.554-.139a5.889 5.889 0 0 0-.273-.061 1.39 1.39 0 0 0-.259-.02.659.659 0 0 0-.393.114 1.278 1.278 0 0 0-.353.384c-.106.17-.189.378-.247.622a3.358 3.358 0 0 0-.092.784v5.406h-3.96V37.634h3.865v.303c.412-.4.928-.608 1.542-.608.116 0 .214.004.295.012zM255.406 40.166h-2.894v-6.054h2.894zM262.22 37.685l.227.092c.52.227.987.523 1.402.89l.333.294-.27.352-1.447 1.885-.33.43-.384-.384a2.577 2.577 0 0 0-.627-.467 1.383 1.383 0 0 0-.655-.155.425.425 0 0 0-.302.109c-.065.057-.097.136-.097.272 0 .1.017.135.06.164.136.088.448.211.916.352.32.097.64.229.957.395.339.176.641.405.906.684.267.283.485.618.652 1.004.174.4.259.86.259 1.38 0 .679-.123 1.271-.374 1.773-.245.49-.56.894-.945 1.205-.378.304-.803.53-1.273.674-.456.14-.9.212-1.33.212-.719 0-1.416-.132-2.086-.395a5.2 5.2 0 0 1-1.748-1.11l-.306-.298.263-.336 1.484-1.904.34-.434.38.398c.235.247.488.446.758.6.238.137.496.205.782.205.156 0 .25-.036.314-.102.07-.072.105-.169.105-.317 0-.151-.04-.224-.142-.282-.22-.127-.573-.271-1.056-.428a6.58 6.58 0 0 1-.861-.359 2.925 2.925 0 0 1-.852-.646 3.248 3.248 0 0 1-.603-.969c-.16-.386-.236-.843-.236-1.37 0-.629.116-1.186.353-1.667.232-.47.536-.866.91-1.182.37-.311.785-.544 1.242-.697.448-.149.901-.224 1.36-.224.667 0 1.309.119 1.922.356zM226.222 53.376a4.2 4.2 0 0 1 1.5.782c.46.372.829.867 1.106 1.477.277.613.413 1.352.413 2.215 0 .808-.125 1.517-.38 2.125a4.324 4.324 0 0 1-1.027 1.516c-.429.4-.916.697-1.46.89a4.826 4.826 0 0 1-1.625.285h-.838v4.911h-3.94v-14.43h4.664c.527 0 1.056.077 1.587.229zm-1.816 5.863c.287 0 .517-.1.72-.316.2-.214.308-.545.308-1.016 0-.487-.104-.799-.283-.962a1.05 1.05 0 0 0-.745-.275h-.495v2.57zM233.448 67.577h-3.96V56.67h3.96zm-1.111-15.174l.096.048c.22.117.412.267.573.45a2.334 2.334 0 0 1 .575 1.541c0 .599-.194 1.122-.58 1.548-.396.437-.918.66-1.533.66-.614 0-1.136-.223-1.533-.66a2.238 2.238 0 0 1-.58-1.548 2.334 2.334 0 0 1 .575-1.542 2.028 2.028 0 0 1 1.538-.685c.31 0 .601.063.869.188zM240.266 56.72c.456.228.822.49 1.093.792l.22.245-.15.292-1.2 2.322-.378.732-.445-.693a.845.845 0 0 0-.268-.27.557.557 0 0 0-.303-.082c-.176 0-.337.116-.507.422-.203.363-.311.909-.311 1.634 0 .726.106 1.269.302 1.626.162.294.338.41.573.41a.503.503 0 0 0 .294-.079.796.796 0 0 0 .245-.27l.433-.758.402.774 1.2 2.303.143.276-.195.243a3.243 3.243 0 0 1-1.202.914c-.483.22-1.032.329-1.643.329-.71 0-1.347-.149-1.901-.448a3.995 3.995 0 0 1-1.382-1.24c-.364-.517-.637-1.127-.823-1.826a8.792 8.792 0 0 1-.272-2.254c0-.816.094-1.566.283-2.25a5.835 5.835 0 0 1 .831-1.812c.372-.53.838-.945 1.393-1.241.56-.298 1.199-.446 1.909-.446.629 0 1.183.117 1.66.355zM245.593 59.05l.956-2.102.127-.278h4.614l-.388.705-2.395 4.354 2.465 5.167.325.681h-4.515l-.123-.29-1.066-2.508v2.798h-3.921V52.234h3.92z"/></g><path d="M196.236 17.01c2.98 3.35 2.622 8.24-.382 10.931a7.572 7.572 0 0 0-1.112 1.223c1.156-1.003 3.056-1.886 6.085-3.054l.655-.25.625-.239.02.668c.158 4.939-3.314 8.254-8.556 8.215l-.456-.003-.016-.456c-.012-.345-.015-.67-.005-.974-.608 2.27-1.1 4.4-1.484 6.441.729-.987 1.856-1.863 3.482-2.85.603-.37 1.07-.716 2.102-1.525l.006-.005c.475-.373.69-.539.96-.741l.612-.458.141.751c1.176 6.26-1.67 10.653-7.653 11.72l-.485.086-.05-.353a47.333 47.333 0 0 0-.132 4.05c.01.983.06 1.864.18 2.983.23-1 .686-1.907 1.397-2.746a106.1 106.1 0 0 0 2.129-2.619l.522-.661.522-.661 1.038-1.309.466-.586.333.67c3.12 6.28 1.672 11.551-4.186 15.1l-.01.007c-.224.128-.405.16-.76.165.213 2.773 1.088 4.959 3.264 8.603-1.015-2.58-.806-5.284.655-8.16.399-.787.623-1.504 1.026-3.104l.011-.045c.197-.78.29-1.13.42-1.56l.174-.578.521.304c4.756 2.775 6.124 9.986 2.928 15.124a.673.673 0 0 1-.16.206l-.01.01-.001.001c-1.442 2.238-1.67 2.735-1.493 3.308.155.499.613.992 2.207 2.424 1.258 1.131 2.335 1.997 4.735 3.853l.09.07c.865.669 1.362 1.055 1.846 1.438l.003-.003a21.542 21.542 0 0 1-.109-.217c0-.002 0-.002-.002-.003-.252-.511-.375-.71-.552-.861-4.228-3.574-5.573-7.814-3.939-12.99.286-.904.422-1.856.521-3.317l.045-.71c.058-.95.09-1.382.15-1.906l.074-.66.6.283c6.615 3.113 9.248 11.163 5.867 18.05-.978 1.993-1.166 2.514-1.036 2.89.13.378.656.686 2.606 1.508 1.938.817 3.611 1.447 7.033 2.683l.238.086c1.158.418 1.828.661 2.464.896l-.558-.33-.104-.06a46.013 46.013 0 0 0-1.704-.977c-3.957-2.143-6.018-4.815-6.142-8.76-.033-1.064-.164-1.938-.53-3.865-.052-.27-.076-.393-.103-.54-.13-.67-.264-1.227-.567-2.389-.178-.686-.243-.94-.33-1.297l-.15-.621.638.033c5.46.288 10.996 5.616 11.518 10.952.114 1.178.085 2.372-.057 4.054-.025.296-.047.541-.095 1.058a89.93 89.93 0 0 0-.126 1.429c-.1 1.344.105 1.794 1.089 1.987.788.143 1.439.516 1.986 1.191l.863 1.067-1.339-.303c-.26-.06-.487-.106-.94-.195l-.04-.008c-1.2-.237-1.732-.365-2.38-.605-1.303-.483-2.061-.12-2.947 1.252-4.471 6.954-13.51 8.602-19.992 3.72l-.517-.39.526-.377c.852-.61 4.076-2.898 4.805-3.42.89-.637 1.671-1.201 2.412-1.745 2.284-1.68 4.748-2.261 7.401-1.792l-1.201-.501-6.516-2.719c-.346.302-.987.863-1.245 1.107-.229.217-.434.425-.62.629-5.237 5.827-13.533 5.88-18.71 1.033l-.473-.443.564-.32c.635-.358 3.43-1.92 4.176-2.343 1.047-.592 1.94-1.108 2.786-1.61 3.37-2 6.85-1.862 10.787.064.24.117.463.21.797.336a22.1 22.1 0 0 1-.603-.508c-.528-.463-.96-.834-1.919-1.65l-.021-.018c-2.412-2.052-3.47-2.999-4.698-4.27-1.067-1.11-1.839-1.284-3.218-.734-4.003 1.592-7.5 1.595-10.765-.36-2.258-1.354-3.916-3.3-5.113-5.867l-.29-.622.684-.054c.728-.057 1.34-.115 2.597-.242 3.15-.317 4.481-.411 6.197-.373 2.527.057 4.28 1.278 6.557 4.013-.76-1.671-1.677-3.68-2.051-4.49a196.658 196.658 0 0 0-1.831-3.86c-.133-.275-.703-.575-1.445-.779-.455-.125-.852-.2-1.698-.334l-.036-.005c-1.065-.17-1.54-.263-2.12-.446-4.349-1.359-7.29-6.103-6.688-10.667l.081-.619.576.243c.316.134.647.275 1.044.446l1.05.451c1.763.76 2.79 1.187 3.914 1.616 1.915.734 3.095 1.93 3.896 3.812-.459-2.643-.638-5.344-.565-8.158l-.428-.125c-5.844-1.709-8.53-7.382-6.052-12.704l.275-.59.48.44c.429.396 1.9 1.765 2.113 1.962.839.775 1.5 1.374 2.152 1.944 1.017.889 1.66 1.832 1.984 2.91.224-1.697.535-3.45.919-5.262.195-.923.395-1.713.729-2.87a1.883 1.883 0 0 1-.084.13l-.191.283-.329-.09c-4.182-1.153-6.052-7.058-3.288-11.466l.4-.64.405.638c.365.576.727 1.059 1.492 2.02l.276.349c1.47 1.858 2.333 3.329 2.509 4.764.121-.426.222-.796.325-1.195.134-.529.082-1.218-.13-1.695-1.26-2.78-.848-5.27 1.198-7.628.404-.465.698-.953 1.204-1.927l.095-.183c.234-.451.363-.693.518-.958l.33-.57zM274.264 17.087c.154.265.283.507.517.958l.096.183c.505.974.8 1.462 1.203 1.927 2.047 2.358 2.458 4.847 1.2 7.625-.213.48-.265 1.17-.132 1.696.104.4.204.77.326 1.197.175-1.435 1.038-2.906 2.509-4.764l.276-.348c.764-.962 1.126-1.445 1.492-2.021l.404-.637.401.639c2.763 4.408.894 10.313-3.288 11.466l-.33.09-.19-.282c-.031-.045-.06-.09-.084-.131.333 1.157.534 1.947.729 2.87.384 1.812.695 3.565.919 5.262.323-1.078.967-2.021 1.983-2.91.702-.613 1.402-1.248 2.345-2.123-.018.017 1.493-1.388 1.922-1.782l.478-.44.275.59c2.48 5.321-.208 10.994-6.051 12.703l-.429.125c.073 2.814-.106 5.515-.565 8.159.802-1.882 1.982-3.08 3.897-3.813 1.123-.429 2.15-.856 3.914-1.616l1.05-.451c.397-.17.727-.312 1.044-.446l.575-.243.082.62c.602 4.563-2.34 9.307-6.686 10.665-.583.184-1.057.278-2.122.447l-.036.005c-.847.135-1.243.21-1.698.334-.742.204-1.312.504-1.446.782a196.57 196.57 0 0 0-1.83 3.857c-.375.81-1.29 2.819-2.052 4.49 2.28-2.736 4.032-3.956 6.557-4.013 1.716-.038 3.048.056 6.198.373 1.257.127 1.868.185 2.597.242l.684.054-.29.622c-1.198 2.567-2.855 4.513-5.113 5.868-3.266 1.954-6.763 1.951-10.766.359-1.379-.55-2.15-.375-3.218.734-1.227 1.271-2.286 2.218-4.697 4.27l-.022.018a147.5 147.5 0 0 0-1.92 1.651c-.189.166-.37.319-.602.507a8.65 8.65 0 0 0 .796-.335c3.938-1.927 7.42-2.065 10.789-.065.846.502 1.739 1.018 2.786 1.61.746.422 3.54 1.985 4.176 2.344l.564.319-.473.443c-5.178 4.847-13.473 4.794-18.71-1.032a11.745 11.745 0 0 0-.62-.63 59.656 59.656 0 0 0-1.246-1.107 147233.057 147233.057 0 0 0-7.717 3.22c2.654-.47 5.118.112 7.4 1.792.742.544 1.523 1.108 2.414 1.745.729.522 3.953 2.81 4.805 3.42l.526.377-.517.39c-6.482 4.882-15.521 3.234-19.992-3.72-.886-1.371-1.645-1.735-2.948-1.252-.647.24-1.18.368-2.38.605l-.039.008c-.453.09-.68.136-.94.195l-1.34.303.864-1.067c.547-.675 1.198-1.048 1.98-1.19.99-.194 1.195-.644 1.094-1.987a89.9 89.9 0 0 0-.125-1.43c-.048-.517-.07-.762-.095-1.058-.142-1.682-.171-2.876-.058-4.055.523-5.335 6.058-10.663 11.519-10.95l.638-.034-.15.62c-.087.358-.152.612-.33 1.298-.303 1.162-.438 1.72-.567 2.387l-.103.542c-.366 1.927-.497 2.801-.53 3.865-.125 3.945-2.186 6.617-6.143 8.76-.482.26-.9.5-1.703.976l-.104.061-.558.33a413.1 413.1 0 0 1 2.464-.896l.238-.086c3.421-1.236 5.095-1.866 7.032-2.683 1.95-.822 2.477-1.13 2.607-1.507.13-.377-.059-.898-1.037-2.892-3.38-6.886-.748-14.936 5.867-18.05l.6-.282.075.66c.06.524.092.957.15 1.905.022.368.031.515.045.711.099 1.461.235 2.413.52 3.317 1.635 5.176.29 9.416-3.937 12.989-.178.151-.301.351-.554.862l-.001.003-.11.217.004.003c.484-.383.98-.77 1.845-1.438l.09-.07c2.4-1.856 3.478-2.722 4.736-3.854 1.594-1.431 2.051-1.924 2.206-2.423.179-.573-.051-1.071-1.492-3.308h-.001l-.011-.011a.591.591 0 0 1-.138-.168c-3.218-5.176-1.85-12.387 2.907-15.162l.52-.304.175.577a31.95 31.95 0 0 1 .43 1.606c.404 1.6.628 2.317 1.026 3.103 1.46 2.876 1.67 5.58.656 8.16 2.176-3.644 3.05-5.83 3.263-8.602-.354-.006-.537-.038-.77-.171-5.858-3.55-7.306-8.822-4.185-15.1l.331-.668.466.582.417.522c.33.415 1.472 1.864 1.667 2.11a106.101 106.101 0 0 0 2.128 2.62v-.002c.711.84 1.168 1.747 1.398 2.747.12-1.119.17-2 .18-2.983a47.322 47.322 0 0 0-.132-4.05l-.05.353-.486-.087c-5.982-1.066-8.829-5.459-7.653-11.719l.141-.75.612.457c.27.202.485.368.96.74l.007.006c1.032.809 1.499 1.154 2.102 1.525l-.003-.001c1.628.987 2.756 1.864 3.485 2.852a87.359 87.359 0 0 0-1.484-6.44c.01.304.006.628-.006.972l-.016.456-.456.003c-5.241.04-8.714-3.276-8.556-8.215l.021-.666.623.236c3.417 1.297 5.501 2.236 6.737 3.3a7.57 7.57 0 0 0-1.107-1.218c-3.005-2.692-3.363-7.58-.382-10.932l.437-.491z" fill="#096"/></g></g></svg>