<svg width="296" height="133" viewBox="0 0 296 133" xmlns="http://www.w3.org/2000/svg" xmlns:xlink="http://www.w3.org/1999/xlink"><defs><linearGradient x1="9.791%" y1="47.804%" x2="89.585%" y2="51.646%" id="b"><stop stop-color="#04B1CC" offset="0%"/><stop stop-color="#9A4EE6" offset="100%"/></linearGradient><path d="M9.18 24H4.308L.204 7.008h4.344L6.852 19.44H6.9L9.18 7.008h4.176L9.18 24zm5.664 0V7.008h3.888v13.44h4.536V24h-8.424zm21.792-8.544c0 1.344-.152 2.572-.456 3.684-.304 1.112-.736 2.06-1.296 2.844a5.952 5.952 0 0 1-2.052 1.824c-.808.432-1.716.648-2.724.648-1.008 0-1.916-.216-2.724-.648a5.952 5.952 0 0 1-2.052-1.824c-.56-.784-.992-1.732-1.296-2.844-.304-1.112-.456-2.34-.456-3.684 0-1.344.148-2.564.444-3.66.296-1.096.724-2.032 1.284-2.808a5.88 5.88 0 0 1 2.052-1.8c.808-.424 1.724-.636 2.748-.636 1.008 0 1.916.212 2.724.636a5.88 5.88 0 0 1 2.052 1.8c.56.776.992 1.712 1.296 2.808.304 1.096.456 2.316.456 3.66zm-3.936 0c0-.736-.056-1.42-.168-2.052a6.647 6.647 0 0 0-.492-1.644c-.216-.464-.484-.828-.804-1.092a1.718 1.718 0 0 0-1.128-.396c-.432 0-.812.132-1.14.396-.328.264-.6.628-.816 1.092-.216.464-.376 1.012-.48 1.644a12.657 12.657 0 0 0-.156 2.052c0 .736.052 1.424.156 2.064.104.64.264 1.192.48 1.656.216.464.488.832.816 1.104.328.272.708.408 1.14.408.432 0 .808-.136 1.128-.408.32-.272.588-.64.804-1.104.216-.464.38-1.016.492-1.656.112-.64.168-1.328.168-2.064zm18.624 0c0 1.344-.152 2.572-.456 3.684-.304 1.112-.736 2.06-1.296 2.844a5.952 5.952 0 0 1-2.052 1.824c-.808.432-1.716.648-2.724.648-1.008 0-1.916-.216-2.724-.648a5.952 5.952 0 0 1-2.052-1.824c-.56-.784-.992-1.732-1.296-2.844-.304-1.112-.456-2.34-.456-3.684 0-1.344.148-2.564.444-3.66.296-1.096.724-2.032 1.284-2.808a5.88 5.88 0 0 1 2.052-1.8c.808-.424 1.724-.636 2.748-.636 1.008 0 1.916.212 2.724.636a5.88 5.88 0 0 1 2.052 1.8c.56.776.992 1.712 1.296 2.808.304 1.096.456 2.316.456 3.66zm-3.936 0c0-.736-.056-1.42-.168-2.052a6.647 6.647 0 0 0-.492-1.644c-.216-.464-.484-.828-.804-1.092a1.718 1.718 0 0 0-1.128-.396c-.432 0-.812.132-1.14.396-.328.264-.6.628-.816 1.092-.216.464-.376 1.012-.48 1.644a12.657 12.657 0 0 0-.156 2.052c0 .736.052 1.424.156 2.064.104.64.264 1.192.48 1.656.216.464.488.832.816 1.104.328.272.708.408 1.14.408.432 0 .808-.136 1.128-.408.32-.272.588-.64.804-1.104.216-.464.38-1.016.492-1.656.112-.64.168-1.328.168-2.064zM61.212 24l-3.624-7.896h-.072V24h-3.864V7.008h3.864v7.08h.072l3.504-7.08h4.296l-4.368 7.776L65.652 24h-4.44z" id="a"/><path d="M183.18 24h-4.872l-4.104-16.992h4.344l2.304 12.432h.048l2.28-12.432h4.176L183.18 24zm5.664 0V7.008h3.888v13.44h4.536V24h-8.424zm21.792-8.544c0 1.344-.152 2.572-.456 3.684-.304 1.112-.736 2.06-1.296 2.844a5.952 5.952 0 0 1-2.052 1.824c-.808.432-1.716.648-2.724.648-1.008 0-1.916-.216-2.724-.648a5.952 5.952 0 0 1-2.052-1.824c-.56-.784-.992-1.732-1.296-2.844-.304-1.112-.456-2.34-.456-3.684 0-1.344.148-2.564.444-3.66.296-1.096.724-2.032 1.284-2.808a5.88 5.88 0 0 1 2.052-1.8c.808-.424 1.724-.636 2.748-.636 1.008 0 1.916.212 2.724.636a5.88 5.88 0 0 1 2.052 1.8c.56.776.992 1.712 1.296 2.808.304 1.096.456 2.316.456 3.66zm-3.936 0c0-.736-.056-1.42-.168-2.052a6.647 6.647 0 0 0-.492-1.644c-.216-.464-.484-.828-.804-1.092a1.718 1.718 0 0 0-1.128-.396c-.432 0-.812.132-1.14.396-.328.264-.6.628-.816 1.092-.216.464-.376 1.012-.48 1.644a12.657 12.657 0 0 0-.156 2.052c0 .736.052 1.424.156 2.064.104.64.264 1.192.48 1.656.216.464.488.832.816 1.104.328.272.708.408 1.14.408.432 0 .808-.136 1.128-.408.32-.272.588-.64.804-1.104.216-.464.38-1.016.492-1.656.112-.64.168-1.328.168-2.064zm18.624 0c0 1.344-.152 2.572-.456 3.684-.304 1.112-.736 2.06-1.296 2.844a5.952 5.952 0 0 1-2.052 1.824c-.808.432-1.716.648-2.724.648-1.008 0-1.916-.216-2.724-.648a5.952 5.952 0 0 1-2.052-1.824c-.56-.784-.992-1.732-1.296-2.844-.304-1.112-.456-2.34-.456-3.684 0-1.344.148-2.564.444-3.66.296-1.096.724-2.032 1.284-2.808a5.88 5.88 0 0 1 2.052-1.8c.808-.424 1.724-.636 2.748-.636 1.008 0 1.916.212 2.724.636a5.88 5.88 0 0 1 2.052 1.8c.56.776.992 1.712 1.296 2.808.304 1.096.456 2.316.456 3.66zm-3.936 0c0-.736-.056-1.42-.168-2.052a6.647 6.647 0 0 0-.492-1.644c-.216-.464-.484-.828-.804-1.092a1.718 1.718 0 0 0-1.128-.396c-.432 0-.812.132-1.14.396-.328.264-.6.628-.816 1.092-.216.464-.376 1.012-.48 1.644a12.657 12.657 0 0 0-.156 2.052c0 .736.052 1.424.156 2.064.104.64.264 1.192.48 1.656.216.464.488.832.816 1.104.328.272.708.408 1.14.408.432 0 .808-.136 1.128-.408.32-.272.588-.64.804-1.104.216-.464.38-1.016.492-1.656.112-.64.168-1.328.168-2.064zM235.212 24l-3.624-7.896h-.072V24h-3.864V7.008h3.864v7.08h.072l3.504-7.08h4.296l-4.368 7.776L239.652 24h-4.44z" id="c"/></defs><g fill="none" fill-rule="evenodd"><g fill-rule="nonzero"><g transform="translate(28 100)"><use fill="#333" xlink:href="#a"/><path stroke="#FFF" d="M33.064 6.745a6.38 6.38 0 0 1 2.225 1.95c.597.827 1.054 1.817 1.373 2.967.316 1.142.474 2.407.474 3.794s-.157 2.66-.474 3.816c-.319 1.166-.775 2.168-1.371 3.003a6.451 6.451 0 0 1-2.223 1.974c-.883.472-1.872.707-2.96.707-1.088 0-2.077-.235-2.96-.707a6.451 6.451 0 0 1-2.223-1.974 8.815 8.815 0 0 1-1.157-2.31V24.5h-9.424V6.508h4.888v13.44h4.53a10.196 10.196 0 0 1-.208-.676c-.317-1.157-.474-2.429-.474-3.816 0-1.386.153-2.65.461-3.79.311-1.152.765-2.143 1.362-2.97a6.38 6.38 0 0 1 2.225-1.95c.882-.464 1.877-.694 2.98-.694 1.087 0 2.075.23 2.956.693zm14.688 0a6.38 6.38 0 0 1 2.225 1.95c.597.827 1.054 1.817 1.373 2.967.316 1.142.474 2.407.474 3.794s-.157 2.66-.474 3.816c-.319 1.166-.775 2.168-1.371 3.003a6.451 6.451 0 0 1-2.223 1.974c-.883.472-1.872.707-2.96.707-1.088 0-2.077-.235-2.96-.707a6.451 6.451 0 0 1-2.223-1.974c-.596-.835-1.052-1.837-1.371-3.003-.317-1.157-.474-2.429-.474-3.816 0-1.386.153-2.65.461-3.79.311-1.152.765-2.143 1.362-2.97a6.38 6.38 0 0 1 2.225-1.95c.882-.464 1.877-.694 2.98-.694 1.087 0 2.075.23 2.956.693zM5.04 6.917l1.834 9.895 1.814-9.894.075-.41h5.23l-.151.62-4.176 16.991-.094.381H3.914l-.092-.383L-.282 7.125l-.15-.617h5.396zm52.976 5.179l2.628-5.31.138-.278h5.46l-.418.745-4.238 7.544 4.513 8.978.364.725H60.89l-.133-.291-2.742-5.974V24.5h-4.864V6.508h4.864zm-28.734-1.038c-.266.213-.492.515-.677.913-.195.42-.343.925-.44 1.514-.1.604-.149 1.261-.149 1.971 0 .71.05 1.371.15 1.984.097.597.244 1.105.44 1.525.185.4.413.708.681.93.238.197.505.293.821.293.314 0 .575-.094.804-.289.262-.223.488-.532.675-.934.196-.422.348-.932.452-1.531.107-.61.161-1.27.161-1.978s-.054-1.363-.16-1.965a6.158 6.158 0 0 0-.453-1.52c-.186-.4-.41-.704-.67-.917a1.219 1.219 0 0 0-.809-.282c-.319 0-.588.094-.826.286zm14.688 0c-.266.213-.492.515-.677.913-.195.42-.343.925-.44 1.514-.1.604-.149 1.261-.149 1.971 0 .71.05 1.371.15 1.984.097.597.244 1.105.44 1.525.185.4.413.708.681.93.238.197.505.293.821.293.314 0 .575-.094.804-.289.262-.223.488-.532.675-.934.196-.422.348-.932.452-1.531.107-.61.161-1.27.161-1.978s-.054-1.363-.16-1.965a6.158 6.158 0 0 0-.453-1.52c-.186-.4-.41-.704-.67-.917a1.219 1.219 0 0 0-.809-.282c-.319 0-.588.094-.826.286z" fill="url(#b)" fill-rule="evenodd"/></g><g transform="translate(28 100)"><use fill="#333" xlink:href="#c"/><path stroke="#FFF" d="M207.064 6.745a6.38 6.38 0 0 1 2.225 1.95c.597.827 1.054 1.817 1.373 2.967.316 1.142.474 2.407.474 3.794s-.157 2.66-.474 3.816c-.319 1.166-.775 2.168-1.371 3.003a6.451 6.451 0 0 1-2.223 1.974c-.883.472-1.872.707-2.96.707-1.088 0-2.077-.235-2.96-.707a6.451 6.451 0 0 1-2.223-1.974 8.815 8.815 0 0 1-1.157-2.31V24.5h-9.424V6.508h4.888v13.44h4.53a10.197 10.197 0 0 1-.208-.676c-.317-1.157-.474-2.429-.474-3.816 0-1.386.153-2.65.461-3.79.311-1.152.765-2.143 1.362-2.97a6.38 6.38 0 0 1 2.225-1.95c.882-.464 1.877-.694 2.98-.694 1.087 0 2.075.23 2.956.693zm14.688 0a6.38 6.38 0 0 1 2.225 1.95c.597.827 1.054 1.817 1.373 2.967.316 1.142.474 2.407.474 3.794s-.157 2.66-.474 3.816c-.319 1.166-.775 2.168-1.371 3.003a6.451 6.451 0 0 1-2.223 1.974c-.883.472-1.872.707-2.96.707-1.088 0-2.077-.235-2.96-.707a6.451 6.451 0 0 1-2.223-1.974c-.596-.835-1.052-1.837-1.371-3.003-.317-1.157-.474-2.429-.474-3.816 0-1.386.153-2.65.461-3.79.311-1.152.765-2.143 1.362-2.97a6.38 6.38 0 0 1 2.225-1.95c.882-.464 1.877-.694 2.98-.694 1.087 0 2.075.23 2.956.693zm-42.712.172l1.834 9.895 1.814-9.894.075-.41h5.23l-.151.62-4.176 16.991-.094.381h-5.658l-.092-.383-4.104-16.992-.15-.617h5.396zm52.976 5.179l2.628-5.31.138-.278h5.46l-.418.745-4.238 7.544 4.513 8.978.364.725h-5.572l-.133-.291-2.742-5.974V24.5h-4.864V6.508h4.864zm-28.734-1.038l-.098.084a2.609 2.609 0 0 0-.579.829c-.195.42-.343.925-.44 1.514-.1.604-.149 1.261-.149 1.971 0 .71.05 1.371.15 1.984.097.597.244 1.105.44 1.525.185.4.413.708.681.93.238.197.505.293.821.293.314 0 .575-.094.804-.289.262-.223.488-.532.675-.934.196-.422.348-.932.452-1.531.107-.61.161-1.27.161-1.978s-.054-1.363-.16-1.965a6.158 6.158 0 0 0-.453-1.52c-.186-.4-.41-.704-.67-.917a1.219 1.219 0 0 0-.809-.282c-.319 0-.588.094-.826.286zm14.688 0l-.098.084a2.609 2.609 0 0 0-.579.829c-.195.42-.343.925-.44 1.514-.1.604-.149 1.261-.149 1.971 0 .71.05 1.371.15 1.984.097.597.244 1.105.44 1.525.185.4.413.708.681.93.238.197.505.293.821.293.314 0 .575-.094.804-.289.262-.223.488-.532.675-.934.196-.422.348-.932.452-1.531.107-.61.161-1.27.161-1.978s-.054-1.363-.16-1.965a6.158 6.158 0 0 0-.453-1.52c-.186-.4-.41-.704-.67-.917a1.219 1.219 0 0 0-.809-.282c-.319 0-.588.094-.826.286z" fill="url(#b)" fill-rule="evenodd"/></g></g><g fill="#000" stroke="#FFF" stroke-width=".948" fill-rule="nonzero"><path d="M37.883 7.798l3.244 13.429.141.585H37.12l-.083-.37-.467-2.076h-2.257l-.467 2.076-.083.37h-4.017l.142-.586 3.262-13.429.088-.362h4.559zm-3.031 8.267h1.145l-.558-2.944zM45.294 10.944h1.707v3.263h-1.707v3.47c0 .394.057.657.144.785.058.084.15.126.33.126.197 0 .346-.03.452-.083l.686-.343v3.384l-.25.134c-.21.113-.485.202-.83.274-.334.07-.67.105-1.006.105-1.128 0-1.988-.318-2.543-.974-.538-.634-.795-1.547-.795-2.725v-4.153h-1.195v-3.263h1.176v-2.39h3.831z"/><path d="M53.28 11.035l.211.118a4.2 4.2 0 0 1 1.24 1.12c.384.516.677 1.13.882 1.84.202.702.303 1.46.303 2.275s-.101 1.57-.304 2.266c-.205.704-.498 1.314-.88 1.83-.391.525-.876.939-1.453 1.237-.581.302-1.235.452-1.953.452-.72 0-1.37-.15-1.947-.453a4.41 4.41 0 0 1-1.454-1.23c-.398-.517-.7-1.13-.905-1.836a8.078 8.078 0 0 1-.303-2.266c0-.815.1-1.573.303-2.275.205-.711.502-1.327.893-1.843a4.288 4.288 0 0 1 1.459-1.235c.581-.301 1.235-.451 1.954-.451.718 0 1.372.15 1.953.451zm-2.2 3.205l-.038.035a1.135 1.135 0 0 0-.226.368c-.086.21-.153.459-.198.747-.047.297-.07.623-.07.979 0 .355.023.682.07.979.045.288.112.537.198.747.075.183.164.315.263.403.071.062.146.09.247.09.114 0 .195-.03.265-.09.1-.088.188-.22.263-.403.087-.21.153-.46.198-.747.047-.297.07-.624.07-.98 0-.355-.023-.681-.07-.978a3.338 3.338 0 0 0-.198-.747 1.064 1.064 0 0 0-.263-.403.373.373 0 0 0-.265-.09c-.1 0-.176.028-.247.09zM68.999 11.013c.426.281.754.66.981 1.128.212.439.356.936.432 1.489.072.527.109 1.074.109 1.639v6.543h-3.889V15.25c0-.36-.053-.667-.156-.924-.053-.134-.117-.176-.28-.176-.195 0-.322.075-.435.267-.149.256-.229.614-.229 1.08v6.315h-3.87V15.25c0-.363-.05-.673-.149-.932-.049-.13-.107-.168-.268-.168-.195 0-.322.075-.434.267-.15.256-.23.614-.23 1.08v6.315h-3.869V10.944h3.85v.323a.75.75 0 0 1 .052-.047c.495-.425 1.123-.636 1.864-.636.823 0 1.47.209 1.916.648.178.174.333.366.463.575a3.103 3.103 0 0 1 1.41-1.042c.328-.121.69-.181 1.086-.181.656 0 1.208.14 1.646.43zM79.45 7.59c.675.342 1.216.776 1.615 1.304l.215.284-.212.285-1.65 2.22-.387.52-.379-.527c-.366-.508-.842-.75-1.474-.75-.32 0-.582.08-.802.24a2.14 2.14 0 0 0-.62.741 4.15 4.15 0 0 0-.397 1.192 8.27 8.27 0 0 0-.135 1.525c0 .542.042 1.052.126 1.53.08.46.208.858.381 1.192.165.32.367.568.607.752.212.162.467.243.783.243.243 0 .438-.03.588-.089v-1.75h-1.441v-3.585h5.045v7.859l-.186.142a5.763 5.763 0 0 1-1.694.87c-.658.22-1.423.328-2.293.328-.92 0-1.75-.188-2.483-.565a5.367 5.367 0 0 1-1.85-1.568c-.498-.662-.878-1.45-1.14-2.364-.259-.905-.388-1.903-.388-2.995s.13-2.093.388-3.004c.261-.917.636-1.714 1.125-2.387a5.314 5.314 0 0 1 1.801-1.59c.709-.379 1.497-.568 2.357-.568.98 0 1.815.17 2.5.515zM86.32 21.812h-3.945V10.944h3.945zm-1.107-15.12c.26.123.484.289.667.496a2.325 2.325 0 0 1 .573 1.537 2.23 2.23 0 0 1-.578 1.542c-.395.436-.915.658-1.527.658-.612 0-1.133-.222-1.528-.658a2.23 2.23 0 0 1-.578-1.542 2.325 2.325 0 0 1 .573-1.537 2.02 2.02 0 0 1 1.533-.682c.308 0 .598.062.865.187zM91.612 10.944h1.707v3.263h-1.707v3.47c0 .394.057.657.145.785.057.084.149.126.33.126.196 0 .346-.03.451-.083l.686-.343v3.384l-.249.134c-.21.113-.485.202-.83.274-.335.07-.67.105-1.007.105-1.127 0-1.987-.318-2.543-.974-.538-.634-.795-1.547-.795-2.725v-4.153h-1.195v-3.263h1.176v-2.39h3.831zM43.862 26.546l.303.162c.689.391 1.248.869 1.675 1.433l.215.284-.212.285-2.063 2.774-.387.52-.378-.526c-.48-.666-1.111-.988-1.939-.988-.424 0-.776.108-1.072.324-.32.233-.589.553-.81.966-.228.43-.399.937-.509 1.524-.113.603-.17 1.245-.17 1.928 0 .684.054 1.329.16 1.933a5.3 5.3 0 0 0 .487 1.524c.214.414.478.739.792.98.286.219.63.328 1.051.328.356 0 .64-.052.853-.15V37.46h-1.801v-4.243h6.07v9.646l-.187.143c-.581.444-1.276.8-2.082 1.069-.81.27-1.754.403-2.83.403-1.131 0-2.15-.23-3.05-.692a6.59 6.59 0 0 1-2.272-1.927c-.613-.815-1.08-1.788-1.404-2.916-.321-1.12-.48-2.357-.48-3.711 0-1.354.159-2.595.48-3.722.322-1.134.785-2.117 1.388-2.947a6.524 6.524 0 0 1 2.21-1.953c.87-.464 1.835-.696 2.892-.696 1.207 0 2.232.208 3.07.632zM52.456 38.954h-5.5v-3.77h5.5z"/><path d="M61.125 26.4a5.647 5.647 0 0 1 1.99 1.347l.265.282-.222.315-1.968 2.798-.351.499-.397-.463a2.548 2.548 0 0 0-.84-.652 2.238 2.238 0 0 0-.981-.226c-.32 0-.6.098-.856.301-.213.168-.33.473-.33.956 0 .387.117.66.353.858.316.266.801.568 1.448.899.393.197.805.429 1.236.697.456.284.872.632 1.249 1.043.384.42.701.918.95 1.495.257.593.383 1.285.383 2.073 0 .96-.153 1.816-.462 2.564-.31.749-.731 1.374-1.265 1.873a5.308 5.308 0 0 1-1.833 1.118 6.204 6.204 0 0 1-2.13.373c-1.078 0-2.066-.204-2.959-.612-.878-.402-1.593-.876-2.142-1.424l-.278-.278.222-.325 1.944-2.845.33-.482.404.421c.325.339.697.61 1.12.814.412.199.824.297 1.24.297.34 0 .61-.105.836-.32.216-.205.326-.499.326-.913 0-.418-.132-.724-.402-.955-.346-.296-.869-.62-1.558-.965-.478-.23-.928-.487-1.35-.768a5.269 5.269 0 0 1-1.171-1.067 4.773 4.773 0 0 1-.804-1.473c-.192-.559-.286-1.21-.286-1.956 0-.997.167-1.866.505-2.604.336-.732.78-1.337 1.332-1.81a5.45 5.45 0 0 1 1.816-1.038 6.185 6.185 0 0 1 1.99-.333c.976 0 1.86.161 2.646.487z"/><path d="M68.84 30.75h2.133v3.842H68.84v4.457c0 .514.075.865.2 1.048.096.139.248.209.51.209.264 0 .469-.041.619-.116l.686-.343v3.966l-.25.135c-.251.135-.585.243-1.005.33a6.04 6.04 0 0 1-1.235.13c-1.377 0-2.419-.386-3.088-1.176-.651-.769-.966-1.883-.966-3.33v-5.31h-1.494V30.75h1.47v-2.988h4.553z"/><path d="M78.085 30.79c.66.285 1.201.71 1.615 1.267.405.545.692 1.203.864 1.968.166.74.249 1.585.249 2.535v7.54h-4.007v-.48c-.072.066-.15.127-.23.187-.554.403-1.256.6-2.094.6-.415 0-.837-.072-1.264-.214a3.333 3.333 0 0 1-1.215-.73c-.368-.34-.666-.783-.897-1.324-.233-.546-.346-1.205-.346-1.976 0-.929.171-1.71.522-2.34a4.244 4.244 0 0 1 1.36-1.492 5.308 5.308 0 0 1 1.86-.769 9.664 9.664 0 0 1 2.006-.211c-.032-.326-.123-.549-.258-.68-.183-.178-.432-.269-.772-.269-.38 0-.715.083-1.015.249a2.948 2.948 0 0 0-.829.675l-.392.461-.354-.492-1.636-2.276-.215-.3.237-.282a5.617 5.617 0 0 1 2.056-1.527c.81-.358 1.622-.539 2.433-.539.898 0 1.673.138 2.322.419zm-1.635 7.903c-.24 0-.471.021-.695.063a1.19 1.19 0 0 0-.477.194.967.967 0 0 0-.304.353c-.072.14-.112.338-.112.6 0 .38.073.626.193.755a.543.543 0 0 0 .423.193c.193 0 .35-.045.484-.134.15-.1.268-.229.357-.392.104-.187.183-.404.237-.653.056-.26.084-.515.084-.765v-.214zM89.609 30.386l.041.004c.1.013.207.037.326.07l.367.106-.024.38-.237 3.723-.036.568-.552-.138a7.453 7.453 0 0 0-.346-.078 1.84 1.84 0 0 0-.345-.026.938.938 0 0 0-.558.163 1.71 1.71 0 0 0-.473.513 2.748 2.748 0 0 0-.322.81 4.3 4.3 0 0 0-.117 1.003V44.1h-4.695V30.751h4.576v.56c.523-.618 1.205-.94 2.04-.94.14 0 .258.005.355.015z"/></g><path d="M72.58 60.094l-1.973-1.985v-2.81a2.57 2.57 0 0 0-.746-1.81 2.537 2.537 0 0 0-1.8-.751h-2.79l-1.974-1.99a2.534 2.534 0 0 0-3.594 0l-1.972 1.986h-2.794a2.53 2.53 0 0 0-1.802.752 2.563 2.563 0 0 0-.744 1.814v2.809l-1.974 1.985a2.575 2.575 0 0 0 0 3.624l1.974 1.985v2.809c0 .68.269 1.33.746 1.811.477.48 1.125.75 1.8.75h2.79l1.976 1.986a2.542 2.542 0 0 0 1.8.75 2.53 2.53 0 0 0 1.798-.75l1.974-1.985h2.79c.676 0 1.323-.27 1.8-.75a2.57 2.57 0 0 0 .746-1.812v-2.809l1.972-1.985a2.562 2.562 0 0 0 .744-1.813 2.574 2.574 0 0 0-.748-1.811zm-8.414-3.199l-.287.163c-.143.08-.274.154-.403.23a2.803 2.803 0 0 1-1.727.425 3.297 3.297 0 0 0-1.126.073c-.647.177-1.236.067-1.834-.175a4.373 4.373 0 0 0-.469-.126l.015.337c.008.202.016.39.03.578.033.44-.084.841-.297 1.23a5.43 5.43 0 0 0-.702 2.74c.033 1.557.965 2.713 2.53 3.21 1.373.437 2.754.418 4.134.077a3.869 3.869 0 0 0 1.962-1.168 2.81 2.81 0 0 0 .341-.456c.4-.68.133-1.315-.644-1.444-.273-.045-.552-.048-.831-.051a7.85 7.85 0 0 1-.583-.02 27.256 27.256 0 0 1-1.998-.22c-.328-.055-.604-.272-.643-.634-.041-.397.066-.798.435-.991a2.8 2.8 0 0 1 1.068-.327 12.428 12.428 0 0 1 3.356.216c1.933.4 2.943 2.32 2.014 4.077-1.31 2.477-3.361 3.906-6.21 3.973-2.224.054-4.183-.657-5.726-2.305-3.606-3.853-1.867-10.136 3.214-11.645 2.357-.697 4.544-.298 6.535 1.148.717.52.9 1.383.478 2.087-.35.588-1 .854-1.689.693-.471-.11-.804-.6-.864-1.266a2.495 2.495 0 0 0-.043-.249l-.036-.18z" fill="#E9A014"/><path d="M23.152 16.948c2.97 3.34 2.613 8.21-.38 10.893-.426.38-.793.781-1.108 1.218 1.152-.999 3.044-1.879 6.063-3.043l.653-.25.622-.237.021.666c.157 4.92-3.303 8.224-8.526 8.185l-.454-.003-.016-.455a14.745 14.745 0 0 1-.005-.97 87.05 87.05 0 0 0-1.479 6.418c.726-.984 1.85-1.856 3.47-2.84.6-.37 1.066-.714 2.094-1.52l.006-.005c.474-.37.687-.536.957-.738l.61-.456.14.748c1.172 6.238-1.664 10.615-7.625 11.678l-.484.086-.05-.351a47.163 47.163 0 0 0-.131 4.035c.009.98.06 1.857.179 2.972.229-.997.684-1.9 1.392-2.736.64-.759 1.281-1.55 2.121-2.61l.52-.659.52-.659 1.035-1.303.464-.585.332.669c3.109 6.256 1.666 11.509-4.17 15.046l-.011.006c-.223.127-.404.159-.757.164.212 2.764 1.084 4.942 3.253 8.573-1.012-2.57-.803-5.266.652-8.131.397-.784.62-1.5 1.022-3.093l.011-.045c.196-.777.288-1.126.418-1.555l.174-.575.519.303c4.739 2.765 6.102 9.95 2.917 15.069a.67.67 0 0 1-.158.205l-.011.01-.001.002c-1.437 2.23-1.665 2.725-1.487 3.296.154.496.61.988 2.199 2.415 1.253 1.127 2.326 1.99 4.717 3.839l.09.07c.862.666 1.357 1.051 1.84 1.433l.002-.003a21.462 21.462 0 0 1-.108-.217l-.002-.003c-.251-.509-.374-.708-.55-.858-4.212-3.56-5.553-7.786-3.925-12.942.285-.902.42-1.85.52-3.306l.044-.708c.058-.945.09-1.376.149-1.899l.074-.657.599.282c6.59 3.102 9.214 11.123 5.845 17.984-.974 1.987-1.161 2.506-1.033 2.881.13.376.655.683 2.598 1.502 1.93.814 3.598 1.442 7.007 2.674l.237.085c1.154.417 1.821.66 2.455.893l-.556-.328-.103-.061c-.801-.474-1.217-.714-1.698-.973-3.943-2.136-5.996-4.798-6.12-8.728-.033-1.06-.164-1.931-.529-3.851l-.102-.538c-.128-.668-.263-1.224-.564-2.381a71.66 71.66 0 0 1-.33-1.293l-.15-.618.636.033c5.441.286 10.957 5.595 11.478 10.912.113 1.174.084 2.364-.057 4.04-.025.295-.047.54-.095 1.054a89.607 89.607 0 0 0-.125 1.424c-.101 1.34.104 1.787 1.084 1.98.785.142 1.434.513 1.979 1.187l.86 1.063-1.334-.303a32 32 0 0 0-.937-.194l-.039-.008c-1.196-.236-1.727-.363-2.371-.603-1.299-.48-2.055-.118-2.937 1.248-4.455 6.93-13.462 8.571-19.92 3.706l-.516-.388.525-.376c.848-.608 4.06-2.888 4.787-3.407.888-.635 1.665-1.197 2.404-1.739 2.275-1.674 4.73-2.253 7.374-1.786l-1.197-.5c-.082-.033-4.703-1.962-6.492-2.708-.345.301-.984.86-1.24 1.103-.229.216-.434.423-.618.626-5.22 5.806-13.485 5.86-18.644 1.03l-.47-.442.561-.317c.633-.358 3.418-1.915 4.161-2.335 1.043-.59 1.933-1.104 2.777-1.606 3.356-1.992 6.825-1.854 10.747.065.24.116.462.21.795.334a22.755 22.755 0 0 1-.602-.505c-.525-.462-.956-.832-1.911-1.644-.01-.01-.01-.01-.021-.018-2.403-2.045-3.458-2.988-4.681-4.256-1.064-1.104-1.832-1.279-3.206-.73-3.989 1.586-7.473 1.588-10.727-.36-2.25-1.349-3.902-3.287-5.095-5.845l-.289-.62.682-.054c.726-.056 1.335-.114 2.587-.24 3.138-.317 4.466-.41 6.176-.372 2.517.056 4.263 1.273 6.533 3.997-.758-1.664-1.67-3.666-2.044-4.473a195.95 195.95 0 0 0-1.825-3.845c-.132-.275-.7-.574-1.439-.777-.454-.124-.849-.199-1.692-.333l-.036-.005c-1.061-.169-1.534-.262-2.113-.445-4.333-1.354-7.264-6.08-6.663-10.628l.081-.617.573.243c.316.133.645.273 1.04.443l1.046.45c1.758.757 2.781 1.183 3.9 1.61 1.909.732 3.084 1.924 3.883 3.799-.457-2.634-.636-5.326-.563-8.129l-.427-.125c-5.822-1.702-8.5-7.355-6.03-12.658l.274-.588.478.44c.428.394 1.894 1.757 2.106 1.953.836.773 1.495 1.37 2.145 1.937 1.013.886 1.654 1.826 1.976 2.9.223-1.69.533-3.438.915-5.243.195-.92.394-1.707.727-2.86a1.876 1.876 0 0 1-.083.13l-.191.282-.328-.09c-4.167-1.148-6.03-7.032-3.276-11.425l.399-.637.403.635c.364.574.725 1.055 1.486 2.014l.276.347c1.465 1.851 2.325 3.317 2.5 4.747.12-.425.22-.793.324-1.191.133-.527.08-1.214-.13-1.689-1.255-2.77-.845-5.25 1.194-7.6.402-.463.696-.95 1.2-1.92l.094-.183c.233-.45.362-.69.516-.955l.329-.567zM100.9 17.025c.153.265.282.505.515.955l.095.183c.504.97.798 1.457 1.2 1.92 2.039 2.35 2.448 4.83 1.195 7.597-.212.478-.264 1.165-.131 1.69.103.398.203.767.324 1.193.175-1.43 1.035-2.896 2.5-4.747l.275-.347c.762-.959 1.123-1.44 1.487-2.014l.403-.635.399.637c2.754 4.393.89 10.277-3.276 11.425l-.328.09-.19-.281a1.876 1.876 0 0 1-.084-.131 37.98 37.98 0 0 1 .726 2.86c.383 1.805.693 3.552.916 5.243.322-1.074.963-2.014 1.976-2.9.7-.61 1.397-1.243 2.337-2.115-.018.017 1.488-1.383 1.914-1.776l.477-.439.274.588c2.47 5.303-.207 10.956-6.03 12.658l-.427.125c.073 2.804-.105 5.495-.563 8.13.8-1.876 1.975-3.069 3.884-3.8 1.119-.427 2.142-.853 3.9-1.61l1.045-.45c.396-.17.725-.31 1.04-.443l.574-.243.081.617c.6 4.547-2.33 9.274-6.662 10.628-.58.183-1.053.276-2.114.445l-.036.005c-.843.134-1.239.209-1.692.333-.74.203-1.307.502-1.44.78a195.86 195.86 0 0 0-1.824 3.842c-.373.807-1.286 2.809-2.044 4.474 2.271-2.726 4.017-3.942 6.533-3.998 1.71-.039 3.037.055 6.175.371 1.253.127 1.862.185 2.588.241l.681.054-.289.62c-1.193 2.558-2.844 4.496-5.094 5.846-3.254 1.947-6.738 1.945-10.727.358-1.374-.548-2.143-.373-3.207.732-1.222 1.267-2.277 2.21-4.68 4.255l-.021.018a146.97 146.97 0 0 0-1.913 1.645c-.189.164-.37.317-.6.504.333-.124.555-.218.793-.334 3.924-1.919 7.392-2.057 10.75-.065.842.502 1.732 1.015 2.776 1.606.743.42 3.528 1.977 4.16 2.335l.563.317-.472.442c-5.159 4.83-13.424 4.776-18.642-1.028-.186-.205-.39-.412-.618-.628A59.441 59.441 0 0 0 89.11 83.7a146931.764 146931.764 0 0 0-7.69 3.208c2.645-.467 5.1.112 7.374 1.786.74.542 1.517 1.104 2.405 1.739.726.52 3.939 2.799 4.787 3.407l.525.376-.516.388c-6.458 4.865-15.465 3.223-19.92-3.705-.883-1.367-1.638-1.73-2.937-1.249-.645.24-1.176.367-2.371.603l-.039.008a32 32 0 0 0-.938.194l-1.333.303.86-1.063c.545-.674 1.193-1.045 1.972-1.186.987-.194 1.192-.642 1.091-1.98-.03-.392-.058-.697-.125-1.425-.048-.515-.07-.76-.095-1.054-.141-1.676-.17-2.866-.057-4.04.52-5.317 6.036-10.626 11.477-10.912l.636-.033-.15.618a59.197 59.197 0 0 1-.232.92l-.24.923a30.368 30.368 0 0 0-.523 2.369c-.366 1.92-.496 2.79-.53 3.85-.123 3.931-2.177 6.593-6.12 8.73-.48.258-.896.498-1.697.972l-.103.06-.557.329a411.62 411.62 0 0 1 2.456-.893l.237-.085c3.409-1.232 5.076-1.86 7.007-2.674 1.943-.819 2.468-1.126 2.597-1.502.129-.375-.058-.894-1.033-2.88-3.368-6.862-.745-14.883 5.846-17.985l.598-.282.075.657c.059.523.09.954.149 1.9l.044.707c.099 1.456.235 2.404.52 3.305 1.628 5.157.287 9.382-3.924 12.942-.177.151-.3.35-.552.86l-.001.002-.109.217.003.003c.482-.382.977-.767 1.84-1.433l.09-.07c2.39-1.849 3.464-2.712 4.717-3.84 1.588-1.426 2.044-1.918 2.199-2.414.178-.571-.051-1.068-1.487-3.296l-.001-.001-.011-.01a.59.59 0 0 1-.137-.168c-3.206-5.157-1.843-12.342 2.896-15.107l.519-.303.174.575c.13.429.222.778.417 1.555l.012.045c.402 1.594.625 2.309 1.021 3.092 1.456 2.866 1.665 5.56.654 8.13 2.168-3.63 3.04-5.808 3.251-8.57-.353-.006-.535-.039-.767-.171-5.836-3.537-7.28-8.79-4.17-15.046l.33-.665.464.58c.133.165.27.337.415.52.329.413 1.467 1.857 1.662 2.102.84 1.06 1.48 1.851 2.12 2.61.708.836 1.164 1.74 1.393 2.736.119-1.115.17-1.993.179-2.973a47.152 47.152 0 0 0-.132-4.035l-.05.352-.483-.086c-5.961-1.063-8.797-5.44-7.625-11.678l.14-.748.61.456c.27.202.483.367.956.738l.007.006c1.028.805 1.494 1.15 2.095 1.52l-.003-.002c1.621.984 2.746 1.857 3.472 2.842a87.045 87.045 0 0 0-1.478-6.416c.009.302.005.625-.006.967l-.016.455-.455.003c-5.222.04-8.682-3.265-8.525-8.185l.02-.664.622.235c3.404 1.293 5.481 2.228 6.713 3.287a7.544 7.544 0 0 0-1.104-1.212c-2.994-2.683-3.35-7.554-.38-10.893l.435-.49z" stroke="#FFF" stroke-width=".948" fill="#DA203E"/><g stroke="#FFF" stroke-width=".948" fill-rule="nonzero"><g fill="#000"><path d="M226.02 9.526l.319.179a6.325 6.325 0 0 1 1.873 1.742c.588.814 1.038 1.79 1.353 2.924.312 1.126.467 2.374.467 3.743 0 1.368-.155 2.623-.467 3.764-.314 1.15-.764 2.138-1.352 2.96a6.353 6.353 0 0 1-2.19 1.945c-.868.464-1.842.696-2.914.696s-2.045-.232-2.914-.696a6.353 6.353 0 0 1-2.19-1.945c-.587-.822-1.037-1.81-1.351-2.96-.312-1.14-.468-2.396-.468-3.764 0-1.368.152-2.615.455-3.74.307-1.135.754-2.112 1.342-2.927a6.282 6.282 0 0 1 2.191-1.92c.869-.457 1.85-.683 2.935-.683 1.071 0 2.044.227 2.912.682zm-3.74 4.227l-.097.084c-.222.206-.415.48-.576.826-.194.417-.34.917-.436 1.5a12.033 12.033 0 0 0-.148 1.95c0 .703.05 1.357.148 1.964.096.591.242 1.095.436 1.512.185.397.412.704.679.925.238.198.507.294.823.294.315 0 .578-.095.808-.29.26-.222.485-.53.671-.93.195-.418.345-.923.449-1.517.106-.604.159-1.257.159-1.957 0-.7-.053-1.349-.159-1.945a6.103 6.103 0 0 0-.449-1.506c-.185-.398-.408-.7-.666-.913a1.224 1.224 0 0 0-.813-.283c-.319 0-.59.094-.828.286zM239.128 9.33l.29.128c.662.312 1.23.718 1.7 1.218l.265.282-.222.316-1.968 2.798-.351.498-.397-.463a2.548 2.548 0 0 0-.84-.651 2.238 2.238 0 0 0-.981-.226c-.32 0-.6.098-.856.3-.213.169-.33.473-.33.956 0 .387.117.66.353.858.316.266.801.569 1.448.9.393.196.805.428 1.236.697.455.284.872.631 1.248 1.042.385.42.702.919.951 1.495.257.593.383 1.285.383 2.074 0 .96-.153 1.816-.463 2.564-.31.748-.73 1.374-1.264 1.872a5.308 5.308 0 0 1-1.834 1.119 6.204 6.204 0 0 1-2.129.372c-1.078 0-2.066-.204-2.96-.612-.878-.402-1.592-.875-2.14-1.424l-.279-.278.222-.325 1.944-2.845.33-.482.404.422c.324.338.697.61 1.12.814.412.198.823.296 1.24.296.339 0 .609-.104.836-.32.215-.205.326-.498.326-.913 0-.418-.132-.724-.403-.955-.345-.295-.868-.62-1.557-.965-.478-.23-.928-.486-1.35-.767a5.269 5.269 0 0 1-1.171-1.068 4.773 4.773 0 0 1-.804-1.472c-.192-.56-.286-1.211-.286-1.956 0-.998.167-1.867.505-2.605.336-.732.78-1.337 1.332-1.81a5.45 5.45 0 0 1 1.816-1.037 6.185 6.185 0 0 1 1.99-.333c.976 0 1.86.16 2.646.486zM251.654 9.504c.809.435 1.466.98 1.967 1.636l.216.284-.212.286-2.04 2.75-.378.511-.382-.508a3.081 3.081 0 0 0-.831-.783c-.275-.171-.635-.26-1.09-.26-.408 0-.749.104-1.037.312-.313.227-.584.542-.812.95-.236.42-.413.927-.53 1.52-.12.61-.18 1.262-.18 1.96 0 .696.06 1.345.18 1.945a5.31 5.31 0 0 0 .531 1.524c.228.414.5.73.819.956.297.21.644.316 1.054.316.414 0 .765-.1 1.064-.3.326-.217.58-.47.764-.76l.356-.56.414.517 2.11 2.632.224.279-.206.291a6.157 6.157 0 0 1-1.95 1.76c-.822.48-1.852.717-3.085.717-1.057 0-2.024-.236-2.894-.71a6.647 6.647 0 0 1-2.207-1.963c-.603-.828-1.069-1.81-1.4-2.944-.329-1.127-.493-2.361-.493-3.7 0-1.356.164-2.601.493-3.737.331-1.142.798-2.125 1.401-2.946a6.572 6.572 0 0 1 2.21-1.94c.868-.464 1.834-.695 2.89-.695 1.196 0 2.209.217 3.034.66zM213.913 35.241h-3.585v1.688h3.3v3.452h-3.3v1.954h3.812v3.66h-7.663V31.62h7.436zM223.567 45.996h-3.812v-.214c-.412.35-.969.517-1.65.517a2.865 2.865 0 0 1-1.665-.51 3.945 3.945 0 0 1-1.175-1.312c-.303-.53-.532-1.148-.687-1.85a10.207 10.207 0 0 1-.23-2.208c0-.767.074-1.48.22-2.141.15-.675.378-1.265.685-1.767a3.705 3.705 0 0 1 1.185-1.225 3.065 3.065 0 0 1 1.666-.462c.588 0 1.11.155 1.553.465l.022.017v-4.598h3.888zm-4.817-7.573l-.037.035a1.135 1.135 0 0 0-.227.368c-.086.21-.153.46-.198.747-.046.297-.07.624-.07.98 0 .342.024.666.07.97.046.294.112.546.198.755.075.183.164.315.264.403.07.061.15.09.265.09.1 0 .175-.028.246-.09.102-.09.196-.226.277-.412.09-.207.158-.455.203-.746.047-.304.07-.628.07-.97 0-.356-.023-.683-.07-.98a3.02 3.02 0 0 0-.203-.738 1.155 1.155 0 0 0-.277-.412.347.347 0 0 0-.246-.09.373.373 0 0 0-.265.09zM228.859 45.996h-3.945V35.127h3.945zm-1.108-15.12l.096.048a2 2 0 0 1 .571.448 2.325 2.325 0 0 1 .574 1.536 2.23 2.23 0 0 1-.578 1.542c-.395.436-.916.659-1.528.659s-1.132-.223-1.527-.659a2.23 2.23 0 0 1-.578-1.542 2.325 2.325 0 0 1 .573-1.537 2.02 2.02 0 0 1 1.532-.682c.309 0 .599.062.865.187zM234.15 35.127h1.708v3.263h-1.707v3.47c0 .394.057.658.144.785.058.084.15.126.33.126.196 0 .346-.03.452-.082l.686-.343v3.383l-.25.134c-.21.114-.485.203-.83.275-.334.07-.67.104-1.006.104-1.128 0-1.988-.317-2.544-.973-.537-.635-.795-1.548-.795-2.725V38.39h-1.195v-3.263h1.176v-2.39h3.832z"/><path d="M242.136 35.219l.212.117a4.2 4.2 0 0 1 1.24 1.12c.383.516.677 1.13.881 1.84.203.702.303 1.46.303 2.275s-.1 1.57-.303 2.267c-.205.703-.498 1.313-.88 1.828-.391.526-.877.94-1.453 1.239-.581.301-1.235.451-1.954.451-.72 0-1.37-.15-1.946-.452a4.41 4.41 0 0 1-1.455-1.231c-.397-.517-.699-1.13-.904-1.835a8.078 8.078 0 0 1-.304-2.267c0-.814.101-1.573.303-2.275.206-.711.503-1.326.893-1.842a4.288 4.288 0 0 1 1.46-1.235c.581-.302 1.235-.452 1.953-.452.72 0 1.373.15 1.954.452zm-2.2 3.204l-.037.035a1.135 1.135 0 0 0-.226.368c-.087.21-.153.46-.198.747-.047.297-.07.624-.07.98 0 .355.023.681.07.978.045.288.111.537.198.747.075.183.164.315.263.403.071.062.146.09.246.09.115 0 .196-.029.266-.09.1-.088.188-.22.263-.403.086-.21.153-.46.198-.747.046-.297.07-.623.07-.979 0-.355-.024-.682-.07-.979a3.338 3.338 0 0 0-.198-.747 1.064 1.064 0 0 0-.263-.403.373.373 0 0 0-.266-.09c-.1 0-.175.028-.246.09zM251.25 34.836l.035.004c.085.01.176.03.275.06l.367.104-.024.381-.19 2.978-.036.568-.552-.138a5.867 5.867 0 0 0-.272-.061 1.385 1.385 0 0 0-.258-.02.656.656 0 0 0-.392.114 1.273 1.273 0 0 0-.352.382c-.105.17-.187.376-.245.62-.061.254-.092.515-.092.781v5.387h-3.945V35.127h3.85v.303c.411-.398.925-.606 1.537-.606.115 0 .213.004.294.012zM255.11 37.65h-2.883V31.62h2.883zM261.9 35.178c.608.235 1.15.562 1.622.979l.333.293-.27.35-1.442 1.879-.329.428-.382-.382a2.567 2.567 0 0 0-.625-.465 1.378 1.378 0 0 0-.652-.155.423.423 0 0 0-.301.108c-.065.058-.097.136-.097.272 0 .1.017.134.06.163.135.088.446.21.912.35.32.098.638.229.954.394.338.176.639.404.903.682.266.282.483.616.65 1 .173.399.257.858.257 1.375 0 .677-.122 1.267-.372 1.767-.245.489-.559.89-.942 1.2-.376.304-.8.528-1.268.673-.455.14-.897.21-1.325.21-.717 0-1.41-.131-2.08-.393a5.181 5.181 0 0 1-1.74-1.106l-.306-.297.262-.335 1.48-1.897.337-.433.38.397c.234.246.485.445.755.599.237.136.494.203.78.203.155 0 .249-.035.312-.101.069-.072.104-.169.104-.316 0-.15-.04-.223-.141-.282-.22-.126-.571-.27-1.052-.426a6.557 6.557 0 0 1-.858-.357 2.914 2.914 0 0 1-.85-.644 3.237 3.237 0 0 1-.6-.965c-.159-.385-.235-.84-.235-1.366 0-.626.116-1.181.352-1.66.23-.47.533-.863.907-1.178.368-.31.782-.543 1.237-.694a4.261 4.261 0 0 1 1.354-.224c.665 0 1.305.118 1.916.354zM226.03 50.813a4.185 4.185 0 0 1 1.496.78c.458.37.825.863 1.1 1.471.278.61.413 1.347.413 2.207 0 .805-.125 1.512-.378 2.118a4.308 4.308 0 0 1-1.024 1.51 4.151 4.151 0 0 1-1.455.887 4.808 4.808 0 0 1-1.62.284h-.834v4.893h-3.926V50.586h4.647c.525 0 1.053.076 1.581.227zm-1.809 5.842a.93.93 0 0 0 .717-.315c.2-.213.308-.543.308-1.012 0-.486-.104-.796-.282-.959a1.046 1.046 0 0 0-.743-.274h-.493v2.56zM233.23 64.963h-3.944V54.095h3.945zm-1.107-15.12l.096.048a2 2 0 0 1 .571.448 2.325 2.325 0 0 1 .574 1.537 2.23 2.23 0 0 1-.578 1.541c-.395.436-.916.659-1.528.659s-1.132-.223-1.527-.659a2.23 2.23 0 0 1-.578-1.541 2.325 2.325 0 0 1 .573-1.537 2.02 2.02 0 0 1 1.532-.683c.309 0 .599.063.865.188zM240.025 54.145l.166.087c.378.206.686.44.922.703l.22.243-.15.291-1.196 2.314-.376.73-.444-.69a.842.842 0 0 0-.267-.27.555.555 0 0 0-.301-.082c-.176 0-.337.116-.506.42-.202.363-.31.906-.31 1.628 0 .724.105 1.265.302 1.621.16.292.336.409.57.409a.5.5 0 0 0 .293-.08.793.793 0 0 0 .244-.27l.431-.753.401.77 1.195 2.295.144.276-.195.241a3.232 3.232 0 0 1-1.197.912c-.482.219-1.03.327-1.638.327-.708 0-1.342-.148-1.894-.446a3.98 3.98 0 0 1-1.377-1.235c-.362-.516-.635-1.124-.82-1.82a8.76 8.76 0 0 1-.271-2.247c0-.812.093-1.56.282-2.241a5.814 5.814 0 0 1 .828-1.806 3.954 3.954 0 0 1 1.388-1.236c.559-.297 1.195-.445 1.902-.445.626 0 1.18.117 1.654.354zM245.332 56.467l.953-2.094.126-.278h4.598l-.387.703-2.386 4.339 2.455 5.148.324.678h-4.498l-.123-.289-1.062-2.498v2.787h-3.907V49.675h3.907z"/></g><path d="M196.1 17.022c2.962 3.352 2.606 8.241-.38 10.934a7.56 7.56 0 0 0-1.104 1.223c1.228-1.064 3.3-2.003 6.697-3.301l.653-.25-.01.7-.012.878c-.268 4.461-3.63 7.354-8.494 7.318l-.455-.004-.016-.454c-.012-.341-.015-.662-.006-.963a87.87 87.87 0 0 0-1.473 6.44c.719-.985 1.838-1.865 3.459-2.855.6-.372 1.064-.717 2.09-1.527l.006-.005c.472-.373.685-.539.955-.741l.61-.46.141.752c1.169 6.262-1.66 10.656-7.608 11.723l-.492.089-.041-.33a47.473 47.473 0 0 0-.13 4.03c.009.981.06 1.862.178 2.978.229-.997.682-1.902 1.387-2.739.639-.762 1.278-1.556 2.116-2.62.194-.247 1.33-1.697 1.657-2.112l.414-.523.483-.606.32.706.515 1.136c2.39 5.781.772 10.628-4.682 13.955l-.01.006c-.217.124-.394.158-.727.165v.33c.253 2.623 1.136 4.778 3.212 8.276-1.008-2.58-.8-5.283.652-8.158.396-.788.619-1.506 1.02-3.107l.01-.045c.196-.78.288-1.13.418-1.561l.173-.579.52.306c4.728 2.777 6.088 9.99 2.911 15.129a.672.672 0 0 1-.158.206l-.01.01-.002.001c-1.434 2.24-1.661 2.739-1.484 3.314.155.5.61.993 2.195 2.426 1.25 1.132 2.321 1.999 4.706 3.856l.09.07c.859.668 1.353 1.054 1.833 1.437l.003-.002a21.465 21.465 0 0 1-.11-.221l-.001-.003c-.251-.511-.374-.712-.55-.862-4.202-3.576-5.539-7.817-3.915-12.994.284-.905.42-1.858.518-3.32.013-.196.023-.343.045-.711.058-.95.09-1.382.148-1.907l.075-.66.6.285c6.575 3.115 9.191 11.168 5.831 18.056-.973 1.997-1.16 2.518-1.03 2.897.129.378.652.686 2.591 1.509 1.926.817 3.59 1.448 6.99 2.685l.237.086c1.16.421 1.826.665 2.463.9l-.571-.338-.103-.062a45.662 45.662 0 0 0-1.694-.977c-3.933-2.144-5.982-4.817-6.105-8.762-.033-1.065-.164-1.94-.528-3.868l-.102-.54c-.128-.671-.262-1.23-.563-2.392-.177-.686-.242-.94-.328-1.298l-.15-.618.636.034c5.43.287 10.932 5.618 11.451 10.956.113 1.179.084 2.374-.057 4.056-.024.296-.047.542-.094 1.059-.067.73-.095 1.037-.125 1.43-.1 1.346.104 1.797 1.09 1.992l.122.025c.725.16 1.333.528 1.845 1.166l.854 1.063-1.33-.304a31.74 31.74 0 0 0-.935-.195l-.038-.008c-1.194-.237-1.723-.365-2.367-.605-1.294-.483-2.046-.12-2.927 1.252-4.445 6.96-13.433 8.609-19.877 3.722l-.511-.387.52-.375c.847-.611 4.052-2.9 4.776-3.422a244.69 244.69 0 0 0 2.398-1.746c2.275-1.684 4.73-2.266 7.373-1.792l-1.21-.508-6.474-2.72c-.345.304-.981.864-1.237 1.108-.227.217-.432.425-.615.628-5.208 5.832-13.457 5.885-18.604 1.034l-.467-.44.557-.317c.632-.36 3.41-1.923 4.151-2.345 1.041-.593 1.93-1.109 2.77-1.612 3.35-2.002 6.812-1.863 10.727.065a8.6 8.6 0 0 0 .797.337 22.087 22.087 0 0 1-.608-.514c-.524-.464-.955-.835-1.907-1.651-.01-.01-.01-.01-.022-.018-2.397-2.054-3.45-3.001-4.67-4.274-1.06-1.109-1.825-1.283-3.195-.734-3.98 1.594-7.457 1.597-10.705-.36-2.244-1.355-3.892-3.301-5.082-5.87l-.287-.619.68-.053c.724-.057 1.331-.115 2.58-.242 3.132-.318 4.456-.412 6.162-.373 2.512.056 4.254 1.277 6.517 4.01-.756-1.671-1.667-3.682-2.04-4.492a197.365 197.365 0 0 0-1.82-3.862c-.132-.277-.698-.576-1.435-.78-.453-.125-.847-.2-1.688-.334l-.036-.006c-1.059-.169-1.53-.262-2.108-.446-4.323-1.36-7.247-6.106-6.648-10.67l.08-.62.575.245c.315.134.644.275 1.038.446l1.044.452c1.753.76 2.774 1.187 3.89 1.617 1.902.733 3.073 1.927 3.87 3.803-.454-2.636-.632-5.328-.56-8.133l-.448-.156-1.028-.358c-5.108-2.064-7.259-7.387-4.966-12.343l.274-.592.479.444c.427.396 1.89 1.765 2.101 1.962.834.776 1.492 1.375 2.14 1.945 1.009.888 1.648 1.83 1.97 2.905.222-1.696.53-3.448.912-5.26a38.33 38.33 0 0 1 .724-2.87 1.8 1.8 0 0 1-.08.126l-.19.284-.33-.092c-4.157-1.153-6.015-7.059-3.269-11.468l.4-.643.404.64c.363.577.723 1.06 1.483 2.023l.275.348c1.46 1.857 2.316 3.327 2.492 4.76.12-.424.22-.792.322-1.19.133-.53.081-1.22-.13-1.698-1.25-2.781-.843-5.27 1.191-7.629.401-.465.694-.954 1.197-1.928l.095-.184c.232-.451.36-.693.514-.959l.33-.57zM272.9 17.022c-2.962 3.352-2.606 8.241.38 10.934.424.382.79.785 1.104 1.223-1.228-1.064-3.3-2.003-6.697-3.301l-.653-.25.01.7.012.878c.268 4.461 3.63 7.354 8.494 7.318l.455-.004.016-.454c.011-.341.015-.662.006-.963a87.87 87.87 0 0 1 1.473 6.44c-.719-.985-1.838-1.865-3.46-2.855-.598-.372-1.063-.717-2.089-1.527l-.006-.005a48.72 48.72 0 0 0-.955-.741l-.61-.46-.141.752c-1.169 6.262 1.66 10.656 7.608 11.723l.492.089.041-.33c.101 1.362.144 2.7.13 4.03-.01.981-.06 1.862-.178 2.978-.229-.997-.682-1.902-1.387-2.739-.64-.762-1.278-1.556-2.116-2.62-.194-.247-1.33-1.697-1.657-2.112l-.414-.523-.483-.606-.32.706-.515 1.136c-2.39 5.781-.773 10.628 4.682 13.955l.01.006c.217.124.394.158.727.165v.33c-.253 2.623-1.137 4.778-3.212 8.276 1.008-2.58.8-5.283-.652-8.158-.396-.788-.619-1.506-1.02-3.107l-.01-.045c-.196-.78-.288-1.13-.418-1.561l-.173-.579-.521.306c-4.727 2.777-6.087 9.99-2.91 15.129a.672.672 0 0 0 .157.206c.007.005.007.005.011.01l.002.001c1.434 2.24 1.661 2.739 1.484 3.314-.155.5-.61.993-2.195 2.426-1.25 1.132-2.321 1.999-4.706 3.856l-.09.07c-.859.668-1.353 1.054-1.833 1.437l-.003-.002.11-.221.001-.003c.251-.511.374-.712.55-.862 4.202-3.576 5.539-7.817 3.915-12.994-.284-.905-.42-1.858-.518-3.32a99.532 99.532 0 0 1-.045-.711c-.058-.95-.09-1.382-.148-1.907l-.075-.66-.6.285c-6.575 3.115-9.191 11.168-5.831 18.056.973 1.997 1.16 2.518 1.03 2.897-.129.378-.652.686-2.591 1.509-1.926.817-3.59 1.448-6.99 2.685l-.237.086c-1.16.421-1.827.665-2.463.9l.571-.338.103-.062a45.662 45.662 0 0 1 1.694-.977c3.933-2.144 5.982-4.817 6.105-8.762.033-1.065.163-1.94.528-3.868l.102-.54c.128-.671.262-1.23.563-2.392.177-.686.242-.94.328-1.298l.149-.618-.635.034c-5.43.287-10.932 5.618-11.451 10.956-.113 1.179-.085 2.374.057 4.056.024.296.046.542.094 1.059.067.73.095 1.037.125 1.43.1 1.346-.104 1.797-1.09 1.992l-.122.025c-.726.16-1.333.528-1.845 1.166l-.854 1.063 1.33-.304c.258-.059.484-.106.935-.195l.038-.008c1.193-.237 1.723-.365 2.366-.605 1.295-.483 2.047-.12 2.928 1.252 4.444 6.96 13.433 8.609 19.877 3.722l.51-.387-.52-.375c-.846-.611-4.05-2.9-4.775-3.422a244.691 244.691 0 0 1-2.399-1.746c-2.274-1.684-4.728-2.266-7.372-1.792l1.21-.508 6.474-2.72c.345.304.98.864 1.237 1.108.227.217.431.425.615.628 5.208 5.832 13.457 5.885 18.604 1.034l.467-.44-.558-.317c-.631-.36-3.41-1.923-4.15-2.345a148.062 148.062 0 0 1-2.77-1.612c-3.35-2.002-6.812-1.863-10.727.065a8.6 8.6 0 0 1-.797.337c.228-.187.421-.35.608-.514.524-.464.954-.835 1.907-1.651.01-.01.01-.01.022-.018 2.397-2.054 3.45-3.001 4.67-4.274 1.06-1.109 1.825-1.283 3.195-.734 3.98 1.594 7.457 1.597 10.705-.36 2.244-1.355 3.892-3.301 5.082-5.87l.287-.619-.68-.053c-.724-.057-1.331-.115-2.58-.242-3.132-.318-4.456-.412-6.162-.373-2.512.056-4.254 1.277-6.517 4.01.756-1.671 1.667-3.682 2.04-4.492.657-1.43 1.243-2.676 1.82-3.862.132-.277.698-.576 1.435-.78.453-.125.847-.2 1.688-.334l.036-.006c1.059-.169 1.53-.262 2.108-.446 4.323-1.36 7.247-6.106 6.648-10.67l-.08-.62-.575.245c-.315.134-.644.275-1.038.446l-1.044.452c-1.753.76-2.774 1.187-3.89 1.617-1.902.733-3.073 1.927-3.87 3.803.454-2.636.631-5.328.56-8.133l.448-.156 1.028-.358c5.108-2.064 7.259-7.387 4.966-12.343l-.274-.592-.479.444c-.425.394-1.928 1.8-1.91 1.783a104.44 104.44 0 0 1-2.331 2.124c-1.009.888-1.648 1.83-1.97 2.905a69.305 69.305 0 0 0-.912-5.26 38.331 38.331 0 0 0-.724-2.87c.022.04.05.083.08.126l.19.284.33-.092c4.157-1.153 6.015-7.059 3.269-11.468l-.4-.643-.404.64c-.363.577-.723 1.06-1.483 2.023l-.275.348c-1.46 1.857-2.316 3.327-2.492 4.76-.12-.424-.22-.792-.322-1.19-.133-.53-.081-1.22.13-1.698 1.25-2.781.843-5.27-1.191-7.629-.401-.465-.694-.954-1.197-1.928l-.095-.184a21.773 21.773 0 0 0-.514-.959l-.33-.57z" fill="#096"/></g></g></svg>