<svg width="160" height="28" viewBox="0 0 160 28" xmlns="http://www.w3.org/2000/svg"><g fill="none" fill-rule="evenodd"><path d="M6 0h140c7.732 0 14 6.268 14 14s-6.268 14-14 14H6a6 6 0 0 1-6-6V6a6 6 0 0 1 6-6z" fill="#000"/><path d="M146 3c6.075 0 11 4.925 11 11s-4.925 11-11 11-11-4.925-11-11 4.925-11 11-11zm.018 3.454c-3.392 0-4.818 2.89-4.726 6.335-.537 1.335-.881 2.145-1.185 3.117-.642 2.066-.436 2.917-.277 2.938.339.041 1.323-1.553 1.323-1.553 0 .925.475 2.13 1.506 3-.498.153-1.618.565-1.35 1.013.215.363 3.701.23 4.709.118 1.007.115 4.493.245 4.708-.118.265-.448-.854-.86-1.352-1.013 1.028-.873 1.505-2.078 1.505-3l.01.014.065.104c.235.368.966 1.47 1.248 1.435.156-.018.366-.872-.274-2.938-.303-.972-.65-1.785-1.184-3.117.085-3.503-1.37-6.335-4.726-6.335z" fill="#FFF" fill-rule="nonzero"/><g fill="#FFF" fill-rule="nonzero"><path d="M7.638 21h2.664v-5.4h4.734v-2.232h-4.734V9.894h5.544V7.662H7.638zM22.002 21.252c1.242 0 2.52-.432 3.51-1.116l-.9-1.62c-.738.45-1.44.684-2.25.684-1.512 0-2.592-.846-2.808-2.484h6.21c.072-.252.126-.738.126-1.224 0-2.808-1.44-4.824-4.212-4.824-2.394 0-4.698 2.034-4.698 5.292 0 3.33 2.196 5.292 5.022 5.292zM19.5 14.934c.216-1.458 1.152-2.214 2.214-2.214 1.314 0 1.908.864 1.908 2.214H19.5zM32.46 21.252c1.242 0 2.52-.432 3.51-1.116l-.9-1.62c-.738.45-1.44.684-2.25.684-1.512 0-2.592-.846-2.808-2.484h6.21c.072-.252.126-.738.126-1.224 0-2.808-1.44-4.824-4.212-4.824-2.394 0-4.698 2.034-4.698 5.292 0 3.33 2.196 5.292 5.022 5.292zm-2.502-6.318c.216-1.458 1.152-2.214 2.214-2.214 1.314 0 1.908.864 1.908 2.214h-4.122zM42.072 21.252c1.044 0 2.052-.558 2.79-1.296h.072L45.132 21h2.16V6.636h-2.646v3.546l.09 1.584c-.72-.666-1.422-1.098-2.556-1.098-2.16 0-4.23 2.016-4.23 5.292 0 3.312 1.602 5.292 4.122 5.292zm.684-2.178c-1.332 0-2.088-1.044-2.088-3.15 0-1.998.954-3.078 2.088-3.078.648 0 1.278.198 1.89.756v4.428c-.576.756-1.188 1.044-1.89 1.044zM55.176 21.252c2.214 0 4.284-1.998 4.284-5.472 0-3.078-1.494-5.112-3.978-5.112-.99 0-1.998.486-2.808 1.206l.09-1.62V6.636h-2.646V21h2.07l.216-1.062h.09c.81.846 1.782 1.314 2.682 1.314zm-.576-2.178c-.558 0-1.224-.198-1.836-.756v-4.446c.684-.684 1.296-1.026 1.98-1.026 1.386 0 1.998 1.062 1.998 2.988 0 2.196-.954 3.24-2.142 3.24zM63.924 21.252c1.17 0 2.178-.558 3.042-1.332h.09l.18 1.08h2.16v-5.886c0-2.916-1.314-4.446-3.87-4.446-1.584 0-3.024.612-4.194 1.332l.936 1.764c.936-.558 1.836-.972 2.772-.972 1.242 0 1.674.756 1.71 1.746-4.05.432-5.796 1.566-5.796 3.708 0 1.728 1.17 3.006 2.97 3.006zm.882-2.07c-.774 0-1.332-.342-1.332-1.134 0-.918.81-1.584 3.276-1.872v2.016c-.63.63-1.188.99-1.944.99zM76.38 21.252c1.116 0 2.34-.378 3.294-1.224l-1.044-1.746c-.558.468-1.224.81-1.962.81-1.458 0-2.502-1.224-2.502-3.132 0-1.89 1.044-3.132 2.592-3.132.558 0 1.026.234 1.53.648l1.26-1.674c-.738-.666-1.692-1.134-2.934-1.134-2.736 0-5.148 1.944-5.148 5.292s2.142 5.292 4.914 5.292zM81.582 21h2.61v-2.556l1.404-1.638L88.044 21h2.88l-3.78-5.922L90.6 10.92h-2.898l-3.438 4.32h-.072V6.636h-2.61z"/></g><g fill="#FFF" fill-rule="nonzero"><path d="M104.762 21h1.926l3.456-9.774h-1.62l-1.854 5.562c-.288.954-.612 1.944-.9 2.88h-.09c-.288-.936-.594-1.926-.9-2.88l-1.836-5.562h-1.71L104.762 21zM112.034 21h1.656v-9.774h-1.656V21zm.828-11.79c.648 0 1.098-.432 1.098-1.098 0-.63-.45-1.062-1.098-1.062-.648 0-1.08.432-1.08 1.062 0 .666.432 1.098 1.08 1.098zM119.234 21.234c1.206 0 2.304-.63 3.24-1.404h.054l.144 1.17h1.35v-6.012c0-2.43-.99-4.014-3.384-4.014-1.584 0-2.952.702-3.834 1.278l.63 1.134c.774-.522 1.8-1.044 2.934-1.044 1.602 0 2.016 1.206 2.016 2.466-4.158.468-5.994 1.53-5.994 3.654 0 1.764 1.206 2.772 2.844 2.772zm.468-1.332c-.972 0-1.728-.432-1.728-1.548 0-1.26 1.116-2.07 4.41-2.448v2.718c-.954.846-1.746 1.278-2.682 1.278z"/></g></g></svg>