<svg width="27" height="33" viewBox="0 0 27 33" xmlns="http://www.w3.org/2000/svg"><path d="M17.623.75v11.865l9 15.484c.503.867.503 1.9 0 2.766a2.759 2.759 0 0 1-2.411 1.385H2.788a2.759 2.759 0 0 1-2.41-1.385 2.724 2.724 0 0 1 0-2.766l8.995-15.484V.75h8.25zm-1.487 1.477h-5.272v10.785L4.323 24.275l18.565.353-6.752-11.616V2.227zm-4.5 14.749c1.742 0 3.158 1.407 3.158 3.137s-1.416 3.137-3.158 3.137c-1.737 0-3.157-1.407-3.157-3.137s1.416-3.137 3.157-3.137zm1.982-5.753a2.11 2.11 0 0 1 2.115 2.101 2.11 2.11 0 0 1-2.115 2.102 2.112 2.112 0 0 1-2.115-2.102c0-1.16.95-2.1 2.115-2.1z" fill-rule="nonzero" fill="#000"/></svg>