<svg xmlns="http://www.w3.org/2000/svg" width="30" height="30" viewBox="0 0 30 30"><path fill-rule="evenodd" d="M25 0a5 5 0 0 1 5 5v20a5 5 0 0 1-5 5H5a5 5 0 0 1-5-5V5a5 5 0 0 1 5-5h20ZM15 22a1 1 0 0 0-.993.883L14 23v1a1 1 0 0 0 1.993.117L16 24v-1a1 1 0 0 0-1-1Zm6.364-2.05a1 1 0 0 0-1.497 1.32l.083.094.707.707a1 1 0 0 0 1.497-1.32l-.083-.094-.707-.707Zm-11.314 0a1 1 0 0 0-1.32-.083l-.094.083-.707.707a1 1 0 0 0 1.32 1.497l.094-.083.707-.707a1 1 0 0 0 0-1.414ZM15 9a6 6 0 1 0 0 12 6 6 0 0 0 0-12Zm9 5h-1a1 1 0 0 0-.117 1.993L23 16h1a1 1 0 0 0 .117-1.993L24 14ZM7 14H6a1 1 0 0 0-.117 1.993L6 16h1a1 1 0 0 0 .117-1.993L7 14Zm15.071-6.071a1 1 0 0 0-1.32-.083l-.094.083-.707.707a1 1 0 0 0 1.32 1.497l.094-.083.707-.707a1 1 0 0 0 0-1.414Zm-12.728 0a1 1 0 0 0-1.497 1.32l.083.094.707.707a1 1 0 0 0 1.497-1.32l-.083-.094-.707-.707ZM15 5a1 1 0 0 0-.993.883L14 6v1a1 1 0 0 0 1.993.117L16 7V6a1 1 0 0 0-1-1Z"/></svg>