<svg width="30" height="30" viewBox="0 0 30 30" xmlns="http://www.w3.org/2000/svg"><path d="M25 0a5 5 0 0 1 5 5v20a5 5 0 0 1-5 5H5a5 5 0 0 1-5-5V5a5 5 0 0 1 5-5h20zm-6 6a2 2 0 0 1 2 2v2h2a2 2 0 0 1 2 2v6a2 2 0 0 1-2 2h-1v2a2 2 0 0 1-2 2H10a2 2 0 0 1-2-2v-2H7a2 2 0 0 1-2-2v-6a2 2 0 0 1 2-2h2V8a2 2 0 0 1 2-2h8zm2 11H9v5a1 1 0 0 0 1 1h10a1 1 0 0 0 1-1v-5zm-2 3v1h-8v-1h8zm0-2v1h-8v-1h8zm3.5-6h-1a.5.5 0 1 0 0 1h1a.5.5 0 1 0 0-1zm-3.372 0a.5.5 0 1 0 0 1 .5.5 0 0 0 0-1zM19 7h-8a1 1 0 0 0-1 1v2h10V8a1 1 0 0 0-.883-.993L19 7z" fill="#000" fill-rule="evenodd"/></svg>