<svg width="30" height="30" viewBox="0 0 30 30" xmlns="http://www.w3.org/2000/svg"><path d="M25 0a5 5 0 0 1 5 5v20a5 5 0 0 1-5 5H5a5 5 0 0 1-5-5V5a5 5 0 0 1 5-5h20zM11.185 15.94h-1.57a1 1 0 0 0-.93.634l-2.65 6.74a.5.5 0 0 0 .466.684h1.761l.59-1.85h3.015l.589 1.85h1.843a.5.5 0 0 0 .465-.683l-2.648-6.74a1 1 0 0 0-.931-.635zm8.308.5c-1.261 0-2.41.377-3.472.942l.879 1.47c.807-.402 1.473-.628 2.111-.628.822 0 1.162.34 1.219.917-3.146.302-4.478 1.118-4.478 2.626 0 1.193.907 2.173 2.395 2.173.892 0 1.643-.364 2.31-.892h.07l.17.716h2.055v-4.058c0-2.236-1.176-3.266-3.26-3.266zm.737 4.058v1.143c-.369.352-.709.565-1.219.565-.524 0-.864-.2-.864-.615 0-.503.51-.917 2.083-1.093zm-9.857-3.109c.274.822.534 1.785.808 2.585l.22.682H9.317l.22-.682c.26-.8.534-1.741.78-2.585h.056zM19.803 6h-1.492l-3.373 7.693-.49.086c.054-.08.105-.168.152-.262l-.243-.182c-.271.39-.428.493-.643.493-.271 0-.443-.168-.443-.662V9.674C13.271 7.792 12.457 7 10.43 7c-2.215 0-3.458.779-3.572 2 .114.428.472.661.986.661.543 0 1.028-.35 1.071-1.233l.1-.922c.215-.039.4-.052.6-.052 1.086 0 1.429.403 1.429 1.753v.792c-.5.117-1 .233-1.4.337-2.3.61-3.043 1.247-3.043 2.428 0 1.09.857 1.765 2.086 1.765 1.143 0 1.685-.402 2.414-1.129.214.701.743 1.13 1.686 1.13.565 0 .989-.115 1.314-.371v.242h2.62v-.562l-.712-.146.8-1.853h3.2l.728 1.864-1.066.124v.573H24v-.573l-.724-.079L19.803 6zm-8.76 4.35v2.7c-.529.428-.857.597-1.243.597-.671 0-1.071-.364-1.071-1.143 0-.947.528-1.558 1.528-1.934.172-.065.457-.143.786-.22zm7.43-2.615l1.364 3.533h-2.871l1.507-3.533z" fill="#000" fill-rule="evenodd"/></svg>