<svg width="30" height="30" viewBox="0 0 30 30" xmlns="http://www.w3.org/2000/svg"><path d="M24 0a6 6 0 0 1 6 6v18a6 6 0 0 1-6 6H6a6 6 0 0 1-6-6V6a6 6 0 0 1 6-6h18zm-9 5c2.652 0 5.196 1.039 7.071 2.887A9.786 9.786 0 0 1 25 14.857v.286C25 20.587 20.523 25 15 25S5 20.587 5 15.143v-.286C5 9.413 9.477 5 15 5zm8.532 10.714h-4.348a13.967 13.967 0 0 1-2.835 7.753c3.934-.62 6.912-3.835 7.183-7.753zm-12.716 0H6.468c.27 3.918 3.25 7.133 7.183 7.753a13.967 13.967 0 0 1-2.835-7.753zm6.917 0h-5.468c.145 2.6 1.1 5.093 2.734 7.139a12.558 12.558 0 0 0 2.734-7.139zM16.35 6.533a13.967 13.967 0 0 1 2.835 7.753h4.348c-.27-3.918-3.25-7.133-7.183-7.753zM15 7.147a12.558 12.558 0 0 0-2.733 7.139h5.466c-.145-2.6-1.1-5.093-2.733-7.139zm-1.348-.614c-3.934.62-6.913 3.835-7.184 7.753h4.348a13.967 13.967 0 0 1 2.835-7.753h.001z" fill="#000" fill-rule="evenodd"/></svg>