<?xml version="1.0" encoding="UTF-8"?>
<svg width="32px" height="26px" viewBox="0 0 32 26" version="1.1" xmlns="http://www.w3.org/2000/svg" xmlns:xlink="http://www.w3.org/1999/xlink">
    <title>icon-table-wrap</title>
    <g id="Icons" stroke="none" stroke-width="1" fill="none" fill-rule="evenodd">
        <g id="画板" transform="translate(-760, -615)" fill="#000000">
            <g id="icon-table-wrap" transform="translate(760, 615)">
                <path d="M24,0 C28.418278,8.11624501e-16 32,3.581722 32,8 L32,18 C32,22.418278 28.418278,26 24,26 L8,26 C3.581722,26 -1.0658141e-14,22.418278 -1.0658141e-14,18 L-1.0658141e-14,8 C-1.0658141e-14,3.581722 3.581722,-8.11624501e-16 8,0 Z M15,12 L10,12 C8.8954305,12 8,12.8954305 8,14 L8,19 C8,20.1045695 8.8954305,21 10,21 L15,21 C16.1045695,21 17,20.1045695 17,19 L17,14 C17,12.8954305 16.1045695,12 15,12 Z M24,11.1 L22.2,11.1 L22.2,14.5 C22.2,15.1075132 21.7075132,15.6 21.1,15.6 L20.299,15.6 L20.3,13.5 C19.6472274,13.7946373 19.1472274,14.1279707 18.8,14.5 C18.4527726,14.8720293 18.0194393,15.538696 17.5,16.5 C18.0395444,17.4161785 18.4728777,18.0495119 18.8,18.4 C19.1271223,18.7504881 19.6271223,19.1171548 20.3,19.5 L20.299,17.4 L21.1,17.4 C22.7016258,17.4 24,16.1016258 24,14.5 L24,11.1 Z M12.5,18 C12.7761424,18 13,18.2238576 13,18.5 C13,18.7761424 12.7761424,19 12.5,19 L10.5,19 C10.2238576,19 10,18.7761424 10,18.5 C10,18.2238576 10.2238576,18 10.5,18 Z M14.5,16 C14.7761424,16 15,16.2238576 15,16.5 C15,16.7761424 14.7761424,17 14.5,17 L10.5,17 C10.2238576,17 10,16.7761424 10,16.5 C10,16.2238576 10.2238576,16 10.5,16 Z M14.5,14 C14.7761424,14 15,14.2238576 15,14.5 C15,14.7761424 14.7761424,15 14.5,15 L10.5,15 C10.2238576,15 10,14.7761424 10,14.5 C10,14.2238576 10.2238576,14 10.5,14 Z M19,5 L10,5 C8.8954305,5 8,5.8954305 8,7 L8,8 C8,9.1045695 8.8954305,10 10,10 L19,10 C20.1045695,10 21,9.1045695 21,8 L23.5,8 C23.7761424,8 24,7.77614237 24,7.5 C24,7.22385763 23.7761424,7 23.5,7 L21,7 L20.9945143,6.85073766 C20.9181651,5.81587779 20.0543618,5 19,5 Z M19,6 C19.5522847,6 20,6.44771525 20,7 L10.5,7 C10.2238576,7 10,7.22385763 10,7.5 C10,7.77614237 10.2238576,8 10.5,8 L20,8 C20,8.55228475 19.5522847,9 19,9 L10,9 C9.44771525,9 9,8.55228475 9,8 L9,7 C9,6.44771525 9.44771525,6 10,6 Z" id="形状结合"></path>
            </g>
        </g>
    </g>
</svg>