<svg xmlns="http://www.w3.org/2000/svg" width="30" height="30" viewBox="0 0 30 30"><path fill-rule="evenodd" d="M25 0a5 5 0 0 1 5 5v20a5 5 0 0 1-5 5H5a5 5 0 0 1-5-5V5a5 5 0 0 1 5-5h20Zm-2 10v8.5a2.5 2.5 0 0 1-2.336 2.495L20.5 21H7l.005.15a2 2 0 0 0 1.838 1.844L9 23h14a2 2 0 0 0 1.995-1.85L25 21v-9a2 2 0 0 0-1.85-1.995L23 10Zm-3-3H7a2 2 0 0 0-1.995 1.85L5 9v9a2 2 0 0 0 1.85 1.995L7 20h13a2 2 0 0 0 1.995-1.85L22 18V9a2 2 0 0 0-1.85-1.995L20 7ZM9.453 11.806a1 1 0 0 1 1.63-.05l.063.095 1.75 2.951.066.097a1 1 0 0 0 1.192.311l.112-.058 2.379-1.52.11-.062a1 1 0 0 1 1.125.185l.085.093 2.028 2.533.072.103a1 1 0 0 1-.718 1.513l-.135.01H7.924l-.117-.008a1 1 0 0 1-.822-1.338l.047-.108 2.363-4.646.058-.1ZM16 9a2 2 0 1 1 0 4 2 2 0 0 1 0-4Z"/></svg>