<svg width="30" height="30" viewBox="0 0 30 30" xmlns="http://www.w3.org/2000/svg"><path d="M24 0a6 6 0 0 1 6 6v18a6 6 0 0 1-6 6H6a6 6 0 0 1-6-6V6a6 6 0 0 1 6-6h18zm-6.5 24a.5.5 0 1 1 0 1h-5a.5.5 0 1 1 0-1h5zm3.014-19l.35.01A1.2 1.2 0 0 1 22 6.21v12.123a1.5 1.5 0 0 1-1.504 1.497h-.01a6.119 6.119 0 0 0-2.794.621 9.371 9.371 0 0 0-2.192 1.475v.046l7.5.001a1 1 0 0 0 1-1v-11a1 1 0 0 0-1-1v-1a2 2 0 0 1 2 2v11a2 2 0 0 1-2 2h-7.5V23H7a2 2 0 0 1-2-2V10a2 2 0 0 1 2-2h5.5c.813 0 1.55.323 2.09.848L14.5 9c.582-1.023 1.31-1.927 2.7-2.85.967-.641 2.272-1.155 3.314-1.15zM12.5 9H7a1 1 0 0 0-1 1v11a1 1 0 0 0 1 1h7.5V11a2 2 0 0 0-2-2zm7.978-3c-.887 0-2.04.49-2.865 1.062-1.028.712-1.508 1.398-2.001 2.062l-.112.16v11.344l.098-.074c.407-.3.841-.575 1.302-.821l.351-.18a7.118 7.118 0 0 1 3.244-.723.5.5 0 0 0 .505-.497V6.21a.2.2 0 0 0-.19-.2L20.479 6zM13 19v1H8v-1h5zm0-2v1H8v-1h5zm-2-6v3H8v-3h3z" fill="#000" fill-rule="evenodd"/></svg>