<svg width="32" height="26" viewBox="0 0 32 26" xmlns="http://www.w3.org/2000/svg"><g fill="none" fill-rule="evenodd"><path d="M24 0a8 8 0 0 1 8 8v10a8 8 0 0 1-8 8H8a8 8 0 0 1-8-8V8a8 8 0 0 1 8-8zm-1 14h-5a2 2 0 0 0-2 2v3a2 2 0 0 0 2 2h5a2 2 0 0 0 2-2v-3a2 2 0 0 0-2-2zM7 9.238V16a3 3 0 0 0 3 3h4v-1h-4l-.15-.005A2 2 0 0 1 8 16v-5.796l-1-.966zM21 5h-9.753l1.036 1H21l.15.005A2 2 0 0 1 23 8v4h1V8a3 3 0 0 0-3-3zm-11.879.707a1 1 0 0 0-1.414 1.414l3.086 3.086L9 12h5V7l-1.793 1.793z" fill="#000"/></g></svg>