<svg xmlns="http://www.w3.org/2000/svg" width="30" height="30" viewBox="0 0 30 30"><path fill-rule="evenodd" d="M25 0a5 5 0 0 1 5 5v20a5 5 0 0 1-5 5H5a5 5 0 0 1-5-5V5a5 5 0 0 1 5-5h20Zm-7.662 6c.707 1.223 1.142 2.626 1.142 4.142a8.336 8.336 0 0 1-8.336 8.336c-1.516 0-2.918-.435-4.144-1.14C7.107 21.174 10.607 24 14.802 24 19.882 24 24 19.88 24 14.8c0-4.195-2.824-7.693-6.662-8.8Zm-6.595 5.243-.831 2.106a1 1 0 0 1-.456.513l-.107.05-2.106.83 2.106.831a1 1 0 0 1 .513.457l.05.107.83 2.104.831-2.104a1 1 0 0 1 .457-.514l.107-.05 2.106-.83-2.106-.831a1 1 0 0 1-.514-.456l-.05-.107-.83-2.106Zm4.085-4.415-.689 1.748a1 1 0 0 1-.456.514l-.107.05-1.748.688 1.748.69a1 1 0 0 1 .514.456l.05.107.688 1.747.69-1.747a1 1 0 0 1 .456-.514l.107-.05 1.747-.689-1.747-.689a1 1 0 0 1-.514-.456l-.05-.107-.689-1.748Zm-5.5 0-.547 1.39a1 1 0 0 1-.457.513l-.107.05-1.389.547 1.39.548a1 1 0 0 1 .513.457l.05.107.547 1.388.548-1.388a1 1 0 0 1 .457-.514l.107-.05 1.388-.548-1.388-.547a1 1 0 0 1-.514-.457l-.05-.107-.548-1.389Z"/></svg>