<?xml version="1.0" encoding="UTF-8"?>
<svg width="32px" height="26px" viewBox="0 0 32 26" version="1.1" xmlns="http://www.w3.org/2000/svg" xmlns:xlink="http://www.w3.org/1999/xlink">
    <title>icon-wrap-unwrap</title>
    <g id="Icons" stroke="none" stroke-width="1" fill="none" fill-rule="evenodd">
        <g id="画板" transform="translate(-760, -505)" fill="#000000">
            <g id="icon-wrap-unwrap" transform="translate(760, 505)">
                <path d="M24,0 L8,0 C3.581722,-8.11624501e-16 0,3.581722 0,8 L0,18 C0,22.418278 3.581722,26 8,26 L24,26 C28.418278,26 32,22.418278 32,18 L32,8 C32,3.581722 28.418278,5.41083001e-16 24,0 Z M19,5 C20.1045695,5 21,5.8954305 21,7 L21,7 L26.5,7 C26.7761424,7 27,7.22385763 27,7.5 C27,7.77614237 26.7761424,8 26.5,8 L21,8 C21,9.1045695 20.1045695,10 19,10 L9,10 C7.8954305,10 7,9.1045695 7,8 L7,7 C7,5.8954305 7.8954305,5 9,5 L19,5 Z M9.5,8 C9.22385763,8 9,7.77614237 9,7.5 C9,7.22385763 9.22385763,7 9.5,7 L20,7 C20,6.44771525 19.5522847,6 19,6 L9,6 C8.44771525,6 8,6.44771525 8,7 L8,8 C8,8.55228475 8.44771525,9 9,9 L19,9 C19.5522847,9 20,8.55228475 20,8 L9.5,8 Z M24,10.1 C24.961304,10.6194393 25.6279707,11.0527726 26,11.4 C26.3720293,11.7472274 26.7053627,12.2472274 27,12.9 L24.999,12.899 L25,15.5 C25,17.1016258 23.7016258,18.4 22.1,18.4 L21.299,18.4 L21.3,20.5 C20.6271223,20.1171548 20.1271223,19.7504881 19.8,19.4 C19.4728777,19.0495119 19.0395444,18.4161785 18.5,17.5 C19.0194393,16.538696 19.4527726,15.8720293 19.8,15.5 C20.1472274,15.1279707 20.6472274,14.7946373 21.3,14.5 L21.299,16.6 L22.1,16.6 C22.7075132,16.6 23.2,16.1075132 23.2,15.5 L23.199,12.9 L21,12.9 C21.3828452,12.2271223 21.7495119,11.7271223 22.1,11.4 C22.4504881,11.0728777 23.0838215,10.6395444 24,10.1 Z M15,12 C16.1045695,12 17,12.8954305 17,14 L17,19 C17,20.1045695 16.1045695,21 15,21 L9,21 C7.8954305,21 7,20.1045695 7,19 L7,14 C7,12.8954305 7.8954305,12 9,12 L15,12 Z M12.5,18 L9.5,18 C9.22385763,18 9,18.2238576 9,18.5 C9,18.7761424 9.22385763,19 9.5,19 L12.5,19 C12.7761424,19 13,18.7761424 13,18.5 C13,18.2238576 12.7761424,18 12.5,18 Z M14.5,16 L9.5,16 C9.22385763,16 9,16.2238576 9,16.5 C9,16.7761424 9.22385763,17 9.5,17 L14.5,17 C14.7761424,17 15,16.7761424 15,16.5 C15,16.2238576 14.7761424,16 14.5,16 Z M14.5,14 L9.5,14 C9.22385763,14 9,14.2238576 9,14.5 C9,14.7761424 9.22385763,15 9.5,15 L14.5,15 C14.7761424,15 15,14.7761424 15,14.5 C15,14.2238576 14.7761424,14 14.5,14 Z" id="形状结合"></path>
            </g>
        </g>
    </g>
</svg>