<svg xmlns="http://www.w3.org/2000/svg" width="30" height="30" viewBox="0 0 30 30"><path fill-rule="evenodd" d="M25 0a5 5 0 0 1 5 5v20a5 5 0 0 1-5 5H5a5 5 0 0 1-5-5V5a5 5 0 0 1 5-5h20Zm-5 5H10a2 2 0 0 0-1.995 1.85L8 7v4H7a2 2 0 0 0-1.995 1.85L5 13v6a2 2 0 0 0 1.85 1.995L7 21h1v1a2 2 0 0 0 1.85 1.995L10 24h10a2 2 0 0 0 1.995-1.85L22 22v-1h1a2 2 0 0 0 1.995-1.85L25 19v-6a2 2 0 0 0-1.85-1.995L23 11h-1V7a2 2 0 0 0-1.85-1.995L20 5Zm1 13v4l-.007.117a1 1 0 0 1-.876.876L20 23H10l-.117-.007a1 1 0 0 1-.876-.876L9 22v-4h12Zm-2 2h-8v1h8v-1Zm3.5-7a.5.5 0 0 1 .09.992L22.5 14h-1l-.09-.008a.5.5 0 0 1 0-.984L21.5 13h1Zm-3.372 0a.5.5 0 1 1 0 1 .5.5 0 0 1 0-1ZM20 6l.117.007a1 1 0 0 1 .876.876L21 7v4H9V7l.007-.117a1 1 0 0 1 .876-.876L10 6h10Z"/></svg>