<svg xmlns="http://www.w3.org/2000/svg" width="30" height="30" viewBox="0 0 30 30"><path fill-rule="evenodd" d="M25 0a5 5 0 0 1 5 5v20a5 5 0 0 1-5 5H5a5 5 0 0 1-5-5V5a5 5 0 0 1 5-5h20zm-3.75 6H8.75A3.75 3.75 0 0 0 5 9.75v10.5A3.75 3.75 0 0 0 8.75 24h5v-1.286h-5l-.164-.005a2.5 2.5 0 0 1-2.336-2.495V9.786l.005-.165A2.5 2.5 0 0 1 8.75 7.286h12.5l.164.005a2.5 2.5 0 0 1 2.336 2.495v3.928H25V9.75A3.75 3.75 0 0 0 21.25 6zm1.25 9h-5a2.5 2.5 0 0 0-2.5 2.5v4a2.5 2.5 0 0 0 2.5 2.5h5a2.5 2.5 0 0 0 2.5-2.5v-4a2.5 2.5 0 0 0-2.5-2.5zM9.225 9.348a.68.68 0 0 0-.897.076.729.729 0 0 0 0 1.01l3.714 3.78H9.513l-.094.007a.708.708 0 0 0-.6.707c0 .395.31.715.694.715h4.167l.095-.007a.708.708 0 0 0 .6-.708v-4.286l-.006-.097a.702.702 0 0 0-.689-.617.705.705 0 0 0-.694.714v2.522L9.31 9.424z"/></svg>