<svg xmlns="http://www.w3.org/2000/svg" width="30" height="30" viewBox="0 0 30 30"><path fill-rule="evenodd" d="M25 0a5 5 0 0 1 5 5v20a5 5 0 0 1-5 5H5a5 5 0 0 1-5-5V5a5 5 0 0 1 5-5h20Zm-3 6H8a3 3 0 0 0-2.995 2.824L5 9v12a3 3 0 0 0 2.824 2.995L8 24h14a3 3 0 0 0 2.995-2.824L25 21V9a3 3 0 0 0-2.824-2.995L22 6Zm2 13v2l-.005.15a2 2 0 0 1-1.838 1.844L22 23h-3v-4h5Zm-13 0v4H8l-.15-.005a2 2 0 0 1-1.844-1.838L6 21v-2h5Zm8-4v4h-8v-4h8Zm3-8a2 2 0 0 1 1.995 1.85L24 9v6h-5V7h3ZM11 7v8H6V9l.005-.15a2 2 0 0 1 1.838-1.844L8 7h3Z"/></svg>