<svg width="30" height="30" viewBox="0 0 30 30" xmlns="http://www.w3.org/2000/svg"><path d="M24 0a6 6 0 0 1 6 6v18a6 6 0 0 1-6 6H6a6 6 0 0 1-6-6V6a6 6 0 0 1 6-6h18zm-1.857 17.857c-.496 0-.956.139-1.362.362l-3.095-2.278c.103-.296.171-.61.171-.941 0-.1-.02-.194-.03-.292l2.86-1.716a2.13 2.13 0 0 0 1.456.58A2.143 2.143 0 1 0 20 11.428c0 .1.016.195.03.292l-2.71 1.625a2.852 2.852 0 0 0-1.606-1.102v-1.631a2.855 2.855 0 0 0 2.143-2.756A2.86 2.86 0 0 0 15 5a2.86 2.86 0 0 0-2.857 2.857c0 1.327.914 2.437 2.143 2.756v1.631c-.697.18-1.3.617-1.689 1.223L9.951 11.88a2.143 2.143 0 1 0-2.094 1.692c.488-.001.96-.17 1.337-.48l2.962 1.778c-.002.045-.013.086-.013.131 0 .332.068.646.172.942l-3.06 2.296a2.816 2.816 0 0 0-1.398-.38A2.86 2.86 0 0 0 5 20.713a2.86 2.86 0 0 0 2.857 2.857 2.86 2.86 0 0 0 2.857-2.857c0-.54-.159-1.039-.42-1.47l2.82-2.115c.335.299.737.513 1.172.627v3.09a2.136 2.136 0 0 0-1.429 2.011 2.143 2.143 0 1 0 4.286 0 2.136 2.136 0 0 0-1.429-2.011v-3.09a2.837 2.837 0 0 0 1.174-.627l2.834 2.085c-.283.45-.435.97-.436 1.5a2.86 2.86 0 0 0 2.857 2.857A2.86 2.86 0 0 0 25 20.714a2.86 2.86 0 0 0-2.857-2.857zm-8.572-10a1.43 1.43 0 0 1 2.857 0A1.43 1.43 0 0 1 15 9.286a1.43 1.43 0 0 1-1.429-1.429zM7.857 22.143a1.43 1.43 0 0 1-1.428-1.429c0-.788.64-1.428 1.428-1.428.788 0 1.429.64 1.429 1.428a1.43 1.43 0 0 1-1.429 1.429zM15 16.429A1.43 1.43 0 0 1 13.571 15a1.43 1.43 0 0 1 2.857 0A1.43 1.43 0 0 1 15 16.429zm7.143 5.714a1.43 1.43 0 0 1-1.429-1.429 1.43 1.43 0 0 1 2.857 0 1.43 1.43 0 0 1-1.428 1.429z" fill="#000" fill-rule="evenodd"/></svg>