<svg width="30" height="30" viewBox="0 0 30 30" xmlns="http://www.w3.org/2000/svg"><path d="M24 0a6 6 0 0 1 6 6v18a6 6 0 0 1-6 6H6a6 6 0 0 1-6-6V6a6 6 0 0 1 6-6h18zm1 15a9.95 9.95 0 0 0-.773-3.856v-.037h-.013a10.006 10.006 0 0 0-9.098-6.101L15.104 5l-.008.004C15.063 5.004 15.03 5 15 5 9.477 5 5 9.479 5 15c0 5.523 4.476 10 10 10 .031 0 .063-.004.094-.004a.07.07 0 0 1 .01.004l.012-.006C20.584 24.931 25 20.484 25 15zm-9.894 8.621c-.696-.577-1.945-2-2.517-5.037h5.028c-.573 3.045-1.821 4.466-2.511 5.037zm-2.676-6.187a19.427 19.427 0 0 1 .061-5.176h5.223a19.214 19.214 0 0 1 .065 5.176H12.43zM6.15 15c0-.957.157-1.877.44-2.741h4.723a21.412 21.412 0 0 0-.177 2.81c0 .862.053 1.64.133 2.365h-4.77A8.778 8.778 0 0 1 6.15 15zm8.95-8.593c.661.589 1.803 1.982 2.41 4.7h-4.82c.601-2.727 1.737-4.11 2.41-4.7zm3.796 5.852h4.514c.281.864.439 1.784.439 2.741 0 .846-.126 1.66-.349 2.434h-4.56c.08-.725.133-1.503.133-2.365 0-1.035-.066-1.968-.177-2.81zm4.04-1.152h-4.232c-.484-2.374-1.358-3.88-2.127-4.807a8.872 8.872 0 0 1 6.359 4.807zM13.66 6.263c-.774.923-1.667 2.438-2.157 4.844h-4.44a8.855 8.855 0 0 1 6.597-4.844zM6.914 18.584h4.517c.458 2.583 1.373 4.19 2.18 5.146a8.87 8.87 0 0 1-6.697-5.146zm9.716 5.109c.8-.96 1.696-2.562 2.147-5.109h4.307a8.874 8.874 0 0 1-6.454 5.109z" fill="#000" fill-rule="evenodd"/></svg>