<svg xmlns="http://www.w3.org/2000/svg" width="30" height="30" viewBox="0 0 30 30"><path fill-rule="evenodd" d="M25 0a5 5 0 0 1 5 5v20a5 5 0 0 1-5 5H5a5 5 0 0 1-5-5V5a5 5 0 0 1 5-5h20Zm-6.424 6c-.418 1.178-1.872 1.92-3.549 1.92-1.604 0-3.054-.68-3.543-1.769L11.424 6 5.376 8.73l-.077.043a.5.5 0 0 0-.217.44l.013.088.98 4.133.033.112a1 1 0 0 0 1.055.65l.135-.025 1.093-.283-.368 9.068.002.116a1 1 0 0 0 .957.923l12.02.001.116-.007a1 1 0 0 0 .877-.876l.006-.138-.392-9.087 1.093.283.114.023a1 1 0 0 0 1.069-.629l.04-.131.98-4.133.013-.088a.5.5 0 0 0-.217-.44l-.077-.044L18.576 6Zm.76 15a.5.5 0 0 1 .09.992l-.09.008h-9l-.09-.008a.5.5 0 0 1 0-.984l.09-.008h9Zm0-2a.5.5 0 0 1 .09.992l-.09.008h-9l-.09-.008a.5.5 0 0 1 0-.984l.09-.008h9Zm-4.167-9a1 1 0 0 1 .842.46l.062.111 3.081 6.488.035.09a.659.659 0 0 1-.533.844L18.56 18h-.39l-.131-.009a1 1 0 0 1-.724-.471l-.06-.116-.566-1.28h-3.703l-.604 1.298-.062.113a1 1 0 0 1-.717.457l-.128.008h-.379L11 17.993a.644.644 0 0 1-.52-.823l.033-.089 3.076-6.508.062-.112a1 1 0 0 1 .715-.453l.128-.008h.675Zm-.333 1.813-1.281 2.967h2.589l-1.308-2.967Z"/></svg>