<?xml version="1.0" encoding="UTF-8"?>
<svg width="16px" height="14px" viewBox="0 0 16 14" version="1.1" xmlns="http://www.w3.org/2000/svg" xmlns:xlink="http://www.w3.org/1999/xlink">
    <title>icon-download</title>
    <g id="Icons" stroke="none" stroke-width="1" fill="none" fill-rule="evenodd">
        <g id="画板" transform="translate(-672, -186)" fill="#000000" fill-rule="nonzero">
            <path d="M686.993822,195.568113 C687.549787,195.568113 688.00243,196.021966 687.99998,196.587422 L687.99998,198.494597 C687.91633,199.29318 687.281644,199.928078 686.487058,200 L673.488312,200 C672.686346,199.913198 672.05658,199.255979 672,198.437555 L672,196.587422 C672,196.024446 672.450184,195.570593 673.008608,195.570593 C673.567033,195.570593 674.017216,196.026926 674.017216,196.587422 L674.017216,197.428167 C674.056577,197.696014 674.258298,197.9093 674.519061,197.966342 L685.45631,197.966342 C685.721992,197.924181 685.931093,197.720815 685.985214,197.457927 L685.985214,196.584942 C685.985214,196.021966 686.437858,195.568113 686.993822,195.568113 Z M680.007365,186 C680.56579,186 681.015973,186.453853 681.015973,187.014349 L681.015,192.813 L682.260744,191.557839 C682.62407,191.191551 683.194911,191.163375 683.590162,191.473311 L683.685095,191.557839 C684.078698,191.95465 684.078698,192.596988 683.685095,192.9938 L680.757456,195.945474 C680.572654,196.15248 680.304795,196.282374 680.007365,196.282374 C679.703564,196.282374 679.431799,196.147312 679.247129,195.933894 L676.317335,192.978919 C675.923732,192.582108 675.923732,191.93977 676.317335,191.542958 C676.710938,191.146147 677.348084,191.146147 677.741687,191.542958 L678.998,192.81 L678.998757,187.016829 C678.998757,186.491385 679.39306,186.060999 679.897653,186.005949 Z" id="icon-download"></path>
        </g>
    </g>
</svg>