<svg width="32" height="26" viewBox="0 0 32 26" xmlns="http://www.w3.org/2000/svg"><path d="M24 0H8a8 8 0 0 0-8 8v10a8 8 0 0 0 8 8h16a8 8 0 0 0 8-8V8a8 8 0 0 0-8-8zm-1.4 5A2.4 2.4 0 0 1 25 7.4v11.2a2.4 2.4 0 0 1-2.4 2.4H9.4A2.4 2.4 0 0 1 7 18.6V7.4A2.4 2.4 0 0 1 9.4 5h13.2zM19 6h-6v4.5a1.5 1.5 0 0 1-1.5 1.5H8V18.464 17h3.5a1.5 1.5 0 0 1 1.5 1.5V20h6v-1.5a1.5 1.5 0 0 1 1.5-1.5H24v-5h-3.5a1.5 1.5 0 0 1-1.5-1.5V6zm-1.5 6a1.5 1.5 0 0 1 1.5 1.5v2a1.5 1.5 0 0 1-1.5 1.5h-3a1.5 1.5 0 0 1-1.5-1.5v-2a1.5 1.5 0 0 1 1.5-1.5h3zm-.167 1h-2.666a.667.667 0 0 0-.667.667v1.666c0 .369.298.667.667.667h2.666a.667.667 0 0 0 .667-.667v-1.666a.667.667 0 0 0-.667-.667z" fill="#000" fill-rule="evenodd"/></svg>