<svg width="30" height="30" viewBox="0 0 30 30" xmlns="http://www.w3.org/2000/svg"><path d="M24 0a6 6 0 0 1 6 6v18a6 6 0 0 1-6 6H6a6 6 0 0 1-6-6V6a6 6 0 0 1 6-6h18zm-6.5 24a.5.5 0 1 1 0 1h-5a.5.5 0 1 1 0-1h5zm3.014-19l.35.01A1.2 1.2 0 0 1 22 6.21v1.762l1 .001a2 2 0 0 1 2 2v11a2 2 0 0 1-2 2l-8.477-.001a8.82 8.82 0 0 0-.023.03v-.03l-7.5.001a2 2 0 0 1-2-2v-11a2 2 0 0 1 2-2h7.517l.105-.172c.595-.914 1.554-1.55 2.878-2.15a7.145 7.145 0 0 1 3.014-.65zM22 18.333a1.5 1.5 0 0 1-1.504 1.497h-.01a6.119 6.119 0 0 0-2.794.621 9.371 9.371 0 0 0-2.192 1.475v.046l7.5.001a1 1 0 0 0 1-1v-11a1 1 0 0 0-1-1h-1v9.36zm-7.5-9.36H7a1 1 0 0 0-1 1v11a1 1 0 0 0 1 1h7.5v-13zM20.478 6c-.887 0-1.74.187-2.565.562-1.048.475-1.808.898-2.301 1.562l-.112.16v12.344l.098-.074c.407-.3.841-.575 1.302-.821l.351-.18a7.118 7.118 0 0 1 3.244-.723.5.5 0 0 0 .505-.497V6.21a.2.2 0 0 0-.19-.2L20.479 6zM13 18v1H8v-1h5zm0-3v1H8v-1h5zm0-3v1H8v-1h5z" fill="#000" fill-rule="evenodd"/></svg>