<svg xmlns="http://www.w3.org/2000/svg" width="30" height="30" viewBox="0 0 30 30"><path fill-rule="evenodd" d="M25 0a5 5 0 0 1 5 5v20a5 5 0 0 1-5 5H5a5 5 0 0 1-5-5V5a5 5 0 0 1 5-5h20zm-3.75 6H8.75A3.75 3.75 0 0 0 5 9.75v10.5A3.75 3.75 0 0 0 8.75 24h12.5A3.75 3.75 0 0 0 25 20.25V9.75A3.75 3.75 0 0 0 21.25 6zm.312 8.357c.475 0 .867.363.93.834l.008.13v3.852l-.005.16c-.076 1.107-.93 1.993-2.004 2.082l-.18.008h-3.748l-.11-.007a.955.955 0 0 1-.828-.957c0-.489.353-.892.81-.956l.128-.009h3.749l.071-.008a.318.318 0 0 0 .233-.24l.008-.073V15.32l.007-.112a.948.948 0 0 1 .931-.852zm-8.127-5.786c.517 0 .937.432.937.965a.956.956 0 0 1-.81.955l-.127.009H9.687l-.071.008a.318.318 0 0 0-.233.24l-.008.073v3.852l-.006.112a.948.948 0 0 1-.931.852.947.947 0 0 1-.93-.833l-.008-.131V10.82l.005-.16c.076-1.106.93-1.993 2.003-2.082l.18-.008z"/></svg>