<?xml version="1.0" encoding="UTF-8"?>
<svg width="32px" height="26px" viewBox="0 0 32 26" version="1.1" xmlns="http://www.w3.org/2000/svg" xmlns:xlink="http://www.w3.org/1999/xlink">
    <title>icon-table-cross</title>
    <g id="Icons" stroke="none" stroke-width="1" fill="none" fill-rule="evenodd">
        <g id="画板" transform="translate(-664, -615)" fill="#000000">
            <g id="icon-table-cross" transform="translate(664, 615)">
                <path d="M24,0 C28.418278,8.11624501e-16 32,3.581722 32,8 L32,18 C32,22.418278 28.418278,26 24,26 L8,26 C3.581722,26 -1.0658141e-14,22.418278 -1.0658141e-14,18 L-1.0658141e-14,8 C-1.0658141e-14,3.581722 3.581722,-8.11624501e-16 8,0 Z M21.6,6 L10.4,6 C9.0745166,6 8,7.0745166 8,8.4 L8,17.6 C8,18.9254834 9.0745166,20 10.4,20 L21.6,20 C22.9254834,20 24,18.9254834 24,17.6 L24,8.4 C24,7.0745166 22.9254834,6 21.6,6 Z M19,7 L19,11.5 C19,12.3284271 19.6715729,13 20.5,13 L23,13 L23,16 L20.5,16 C19.6715729,16 19,16.6715729 19,17.5 L19,19 L13,19 L13,17.5 C13,16.6715729 12.3284271,16 11.5,16 L9,16 L9,13 L11.5,13 C12.3284271,13 13,12.3284271 13,11.5 L13,7 L19,7 Z M17.5,12 L14.5,12 C13.6715729,12 13,12.6715729 13,13.5 L13,15.5 C13,16.3284271 13.6715729,17 14.5,17 L17.5,17 C18.3284271,17 19,16.3284271 19,15.5 L19,13.5 C19,12.6715729 18.3284271,12 17.5,12 Z M17.3333333,13 C17.7015232,13 18,13.2984768 18,13.6666667 L18,15.3333333 C18,15.7015232 17.7015232,16 17.3333333,16 L14.6666667,16 C14.2984768,16 14,15.7015232 14,15.3333333 L14,13.6666667 C14,13.2984768 14.2984768,13 14.6666667,13 Z" id="形状结合"></path>
            </g>
        </g>
    </g>
</svg>