<?xml version="1.0" encoding="UTF-8"?>
<svg width="32px" height="26px" viewBox="0 0 32 26" version="1.1" xmlns="http://www.w3.org/2000/svg" xmlns:xlink="http://www.w3.org/1999/xlink">
    <title>icon-pic-in-pic</title>
    <g id="Icons" stroke="none" stroke-width="1" fill="none" fill-rule="evenodd">
        <g id="画板" transform="translate(-824, -505)">
            <g id="icon-pic-in-pic" transform="translate(824, 505)">
                <path d="M24,0 L8,0 C3.581722,-8.11624501e-16 0,3.581722 0,8 L0,18 C0,22.418278 3.581722,26 8,26 L24,26 C28.418278,26 32,22.418278 32,18 L32,8 C32,3.581722 28.418278,5.41083001e-16 24,0 Z M23,14 C24.1045695,14 25,14.8954305 25,16 L25,19 C25,20.1045695 24.1045695,21 23,21 L16,21 C14.8954305,21 14,20.1045695 14,19 L14,16 C14,14.8954305 14.8954305,14 16,14 L23,14 Z M8,13 L8,18 C8,18.5522847 8.44771525,19 9,19 L12,19 L12,20 L9,20 C7.8954305,20 7,19.1045695 7,18 L7,13 L8,13 Z M22,5 C23.1045695,5 24,5.8954305 24,7 L24,12 L23,12 L23,7 C23,6.48716416 22.6139598,6.06449284 22.1166211,6.00672773 L22,6 L15,6 L15,5 L22,5 Z M7.47111061,5.50826224 C7.75424072,5.22513213 8.21328533,5.22513213 8.49641545,5.50826224 L11.9767482,8.98773136 L11.9754068,6.64241426 C11.9753728,6.27718358 12.2714232,5.98107807 12.6366539,5.9810441 L12.650344,5.98118455 C13.0252664,5.98891276 13.3250667,6.29523937 13.3247204,6.67024131 L13.3210032,10.6944168 C13.3208351,10.8764634 13.2468939,11.0412075 13.1213662,11.1665148 C13.0021758,11.2859256 12.8374317,11.3598668 12.6553851,11.3600349 L8.6312096,11.3637521 C8.25620766,11.3640985 7.94988105,11.0642982 7.94215284,10.6893757 L7.94201239,10.6756856 C7.94204636,10.310455 8.23815187,10.0144045 8.60338255,10.0144385 L10.9528575,10.0144504 L7.47111061,6.53356708 C7.1879805,6.25043697 7.1879805,5.79139236 7.47111061,5.50826224 Z" id="形状结合" fill="#000000"></path>
                <g id="编组-3" transform="translate(8, 5)"></g>
            </g>
        </g>
    </g>
</svg>