<svg width="32" height="26" viewBox="0 0 32 26" xmlns="http://www.w3.org/2000/svg"><path d="M24 0H8a8 8 0 0 0-8 8v10a8 8 0 0 0 8 8h16a8 8 0 0 0 8-8V8a8 8 0 0 0-8-8zm-1 5a2 2 0 0 1 2 2v10a2 2 0 0 1-2 2h-3a2 2 0 0 1-2 2H9a2 2 0 0 1-2-2V9a2 2 0 0 1 2-2h4a2 2 0 0 1 2-2h8zm-5 3H9a1 1 0 0 0-1 1v10a1 1 0 0 0 1 1h9a1 1 0 0 0 1-1V9a1 1 0 0 0-1-1zm-4.5 9a.5.5 0 1 1 0 1h-3a.5.5 0 1 1 0-1h3zm3-3a.5.5 0 1 1 0 1h-6a.5.5 0 1 1 0-1h6zm0-3a.5.5 0 1 1 0 1h-6a.5.5 0 1 1 0-1h6z" fill="#000" fill-rule="evenodd"/></svg>