<?xml version="1.0" encoding="UTF-8"?>
<svg width="30px" height="30px" viewBox="0 0 30 30" version="1.1" xmlns="http://www.w3.org/2000/svg" xmlns:xlink="http://www.w3.org/1999/xlink">
    <title>icon-gray 2</title>
    <g id="Icons" stroke="none" stroke-width="1" fill="none" fill-rule="evenodd">
        <g id="画板" transform="translate(-605, -327)" fill="#000000">
            <g id="icon-gray" transform="translate(605, 327)">
                <path d="M5,0 L25,0 C27.7614237,-8.8817842e-16 30,2.23857625 30,5 L30,25 C30,27.7614237 27.7614237,30 25,30 L5,30 C2.23857625,30 0,27.7614237 0,25 L0,5 C0,2.23857625 2.23857625,0 5,0 Z M7,9.8 C7.55228475,9.8 8,9.35228475 8,8.8 C8,8.24771525 7.55228475,7.8 7,7.8 C6.44771525,7.8 6,8.24771525 6,8.8 C6,9.35228475 6.44771525,9.8 7,9.8 Z M12.33,9.8 C12.8822847,9.8 13.33,9.35228475 13.33,8.8 C13.33,8.24771525 12.8822847,7.8 12.33,7.8 C11.7777153,7.8 11.33,8.24771525 11.33,8.8 C11.33,9.35228475 11.7777153,9.8 12.33,9.8 Z M17.67,9.8 C18.2222847,9.8 18.67,9.35228475 18.67,8.8 C18.67,8.24771525 18.2222847,7.8 17.67,7.8 C17.1177153,7.8 16.67,8.24771525 16.67,8.8 C16.67,9.35228475 17.1177153,9.8 17.67,9.8 Z M23,9.8 C23.5522847,9.8 24,9.35228475 24,8.8 C24,8.24771525 23.5522847,7.8 23,7.8 C22.4477153,7.8 22,8.24771525 22,8.8 C22,9.35228475 22.4477153,9.8 23,9.8 Z M7,24 C8.1045695,24 9,23.1045695 9,22 C9,20.8954305 8.1045695,20 7,20 C5.8954305,20 5,20.8954305 5,22 C5,23.1045695 5.8954305,24 7,24 Z M12.33,24 C13.4345695,24 14.33,23.1045695 14.33,22 C14.33,20.8954305 13.4345695,20 12.33,20 C11.2254305,20 10.33,20.8954305 10.33,22 C10.33,23.1045695 11.2254305,24 12.33,24 Z M17.67,24 C18.7745695,24 19.67,23.1045695 19.67,22 C19.67,20.8954305 18.7745695,20 17.67,20 C16.5654305,20 15.67,20.8954305 15.67,22 C15.67,23.1045695 16.5654305,24 17.67,24 Z M23,24 C24.1045695,24 25,23.1045695 25,22 C25,20.8954305 24.1045695,20 23,20 C21.8954305,20 21,20.8954305 21,22 C21,23.1045695 21.8954305,24 23,24 Z M7,15.8 C7.82842712,15.8 8.5,15.1284271 8.5,14.3 C8.5,13.4715729 7.82842712,12.8 7,12.8 C6.17157288,12.8 5.5,13.4715729 5.5,14.3 C5.5,15.1284271 6.17157288,15.8 7,15.8 Z M12.33,15.8 C13.1584271,15.8 13.83,15.1284271 13.83,14.3 C13.83,13.4715729 13.1584271,12.8 12.33,12.8 C11.5015729,12.8 10.83,13.4715729 10.83,14.3 C10.83,15.1284271 11.5015729,15.8 12.33,15.8 Z M17.67,15.8 C18.4984271,15.8 19.17,15.1284271 19.17,14.3 C19.17,13.4715729 18.4984271,12.8 17.67,12.8 C16.8415729,12.8 16.17,13.4715729 16.17,14.3 C16.17,15.1284271 16.8415729,15.8 17.67,15.8 Z M23,15.8 C23.8284271,15.8 24.5,15.1284271 24.5,14.3 C24.5,13.4715729 23.8284271,12.8 23,12.8 C22.1715729,12.8 21.5,13.4715729 21.5,14.3 C21.5,15.1284271 22.1715729,15.8 23,15.8 Z M9.66,19.6 C10.5988841,19.6 11.36,18.8388841 11.36,17.9 C11.36,16.9611159 10.5988841,16.2 9.66,16.2 C8.72111593,16.2 7.96,16.9611159 7.96,17.9 C7.96,18.8388841 8.72111593,19.6 9.66,19.6 Z M14.99,19.6 C15.9288841,19.6 16.69,18.8388841 16.69,17.9 C16.69,16.9611159 15.9288841,16.2 14.99,16.2 C14.0511159,16.2 13.29,16.9611159 13.29,17.9 C13.29,18.8388841 14.0511159,19.6 14.99,19.6 Z M20.33,19.6 C21.2688841,19.6 22.03,18.8388841 22.03,17.9 C22.03,16.9611159 21.2688841,16.2 20.33,16.2 C19.3911159,16.2 18.63,16.9611159 18.63,17.9 C18.63,18.8388841 19.3911159,19.6 20.33,19.6 Z M9.66,12.6 C10.3779702,12.6 10.96,12.0179702 10.96,11.3 C10.96,10.5820298 10.3779702,10 9.66,10 C8.94202983,10 8.36,10.5820298 8.36,11.3 C8.36,12.0179702 8.94202983,12.6 9.66,12.6 Z M14.99,12.6 C15.7079702,12.6 16.29,12.0179702 16.29,11.3 C16.29,10.5820298 15.7079702,10 14.99,10 C14.2720298,10 13.69,10.5820298 13.69,11.3 C13.69,12.0179702 14.2720298,12.6 14.99,12.6 Z M20.33,12.6 C21.0479702,12.6 21.63,12.0179702 21.63,11.3 C21.63,10.5820298 21.0479702,10 20.33,10 C19.6120298,10 19.03,10.5820298 19.03,11.3 C19.03,12.0179702 19.6120298,12.6 20.33,12.6 Z M9.66,7.6 C10.1018278,7.6 10.46,7.2418278 10.46,6.8 C10.46,6.3581722 10.1018278,6 9.66,6 C9.2181722,6 8.86,6.3581722 8.86,6.8 C8.86,7.2418278 9.2181722,7.6 9.66,7.6 Z M14.99,7.6 C15.4318278,7.6 15.79,7.2418278 15.79,6.8 C15.79,6.3581722 15.4318278,6 14.99,6 C14.5481722,6 14.19,6.3581722 14.19,6.8 C14.19,7.2418278 14.5481722,7.6 14.99,7.6 Z M20.33,7.6 C20.7718278,7.6 21.13,7.2418278 21.13,6.8 C21.13,6.3581722 20.7718278,6 20.33,6 C19.8881722,6 19.53,6.3581722 19.53,6.8 C19.53,7.2418278 19.8881722,7.6 20.33,7.6 Z" id="Combined-Shape"></path>
            </g>
        </g>
    </g>
</svg>