<?xml version="1.0" encoding="UTF-8"?>
<svg width="32px" height="26px" viewBox="0 0 32 26" version="1.1" xmlns="http://www.w3.org/2000/svg" xmlns:xlink="http://www.w3.org/1999/xlink">
    <title>icon-copy-as-markdown</title>
    <g id="Icons" stroke="none" stroke-width="1" fill="none" fill-rule="evenodd">
        <g id="画板" transform="translate(-728, -615)" fill="#000000">
            <g id="icon-copy-as-markdown" transform="translate(728, 615)">
                <path d="M24,0 C28.418278,8.11624501e-16 32,3.581722 32,8 L32,18 C32,22.418278 28.418278,26 24,26 L8,26 C3.581722,26 -1.0658141e-14,22.418278 -1.0658141e-14,18 L-1.0658141e-14,8 C-1.0658141e-14,3.581722 3.581722,-8.11624501e-16 8,0 Z M22,5 L14,5 C12.8954305,5 12,5.8954305 12,7 L10,7 C8.8954305,7 8,7.8954305 8,9 L8,19 C8,20.1045695 8.8954305,21 10,21 L18,21 C19.1045695,21 20,20.1045695 20,19 L22,19 C23.1045695,19 24,18.1045695 24,17 L24,7 C24,5.8954305 23.1045695,5 22,5 Z M18,8 C18.5522847,8 19,8.44771525 19,9 L19,19 C19,19.5522847 18.5522847,20 18,20 L10,20 C9.44771525,20 9,19.5522847 9,19 L9,9 C9,8.44771525 9.44771525,8 10,8 Z M22,11 L22,13.5 L24,13.5 L21.5,16 L19,13.5 L21,13.5 L21,11 L22,11 Z M12.5483871,11 L11,11 L11,16 L12.5483871,16 L12.5483871,13.1323529 L14.0967742,14.9705882 L15.6451613,13.1323529 L15.6451613,16 L17.1935484,16 L17.1935484,11 L15.6451613,11 L14.0967742,12.8382353 L12.5483871,11 Z" id="形状结合"></path>
            </g>
        </g>
    </g>
</svg>