<svg width="30" height="30" viewBox="0 0 30 30" xmlns="http://www.w3.org/2000/svg"><title>icon-table-cross</title><g fill="none" fill-rule="evenodd"><rect fill="#000" width="30" height="30" rx="5"/><path d="M22 6a3 3 0 0 1 3 3v12a3 3 0 0 1-3 3H8a3 3 0 0 1-3-3V9a3 3 0 0 1 3-3h14Zm-3 1h-8v5.5A1.5 1.5 0 0 1 9.5 14H6v5h3.5a1.5 1.5 0 0 1 1.5 1.5V23h8v-2.5a1.5 1.5 0 0 1 1.5-1.5H24v-5h-3.5a1.5 1.5 0 0 1-1.5-1.5V7Zm-2 6a2 2 0 0 1 2 2v3a2 2 0 0 1-2 2h-4a2 2 0 0 1-2-2v-3a2 2 0 0 1 2-2h4Zm0 1h-4a1 1 0 0 0-.993.883L12 15v3a1 1 0 0 0 .883.993L13 19h4a1 1 0 0 0 .993-.883L18 18v-3a1 1 0 0 0-1-1Z" fill="#FFF" fill-rule="nonzero"/></g></svg>