<svg width="30" height="30" viewBox="0 0 30 30" xmlns="http://www.w3.org/2000/svg"><path d="M25 0a5 5 0 0 1 5 5v20a5 5 0 0 1-5 5H5a5 5 0 0 1-5-5V5a5 5 0 0 1 5-5h20zm-5 5a2 2 0 0 1 2 2v4h1a2 2 0 0 1 2 2v8a2 2 0 0 1-2 2h-1a2 2 0 0 1-2 2H10a2 2 0 0 1-2-2H7a2 2 0 0 1-2-2v-8a2 2 0 0 1 2-2h1V7a2 2 0 0 1 2-2h10zm1 16H9v2a1 1 0 0 0 1 1h10a1 1 0 0 0 1-1v-2zM9.714 13H7.5v6h1.37v-2.19h.87c.64 0 1.158-.176 1.552-.53.394-.353.592-.803.592-1.349 0-.598-.192-1.069-.574-1.414-.382-.345-.914-.517-1.596-.517zm5.135 0h-2.08v6h1.929c1.162 0 1.92-.397 2.276-1.19.148-.339.222-.977.222-1.913 0-.874-.08-1.469-.24-1.785C16.59 13.371 15.886 13 14.85 13zm7.651 0h-4.108v6h1.37v-2.397h2.293v-1.146h-2.294V14.19H22.5V13zm-7.873 1.198c.426 0 .735.1.924.302.19.201.285.511.285.931v1.095c0 .42-.09.738-.267.957-.178.218-.483.327-.916.327h-.515v-3.612zm-4.94-.008c.243 0 .439.06.587.18.148.121.222.3.222.535a.67.67 0 0 1-.213.522c-.142.129-.329.194-.56.194h-.854V14.19zM20 6H10a1 1 0 0 0-1 1v4h12V7a1 1 0 0 0-.883-.993L20 6z" fill="#000" fill-rule="evenodd"/></svg>