<svg xmlns="http://www.w3.org/2000/svg" width="135" height="32" viewBox="0 0 135 32"><g fill="none" fill-rule="evenodd"><path fill="#FFF" d="M41.871 18.468c0 3.845-1.333 5.768-4 5.768-.412 0-.816-.055-1.211-.167v-1.067a3.87 3.87 0 0 0 1.233.222c1.023 0 1.76-.388 2.212-1.16.452-.775.678-1.98.678-3.619V8.021h1.088v10.447zm3.311 4.924v-1.256c1.14.725 2.298 1.09 3.468 1.09 1.244 0 2.189-.258 2.834-.774.644-.515.967-1.236.967-2.16 0-.816-.217-1.467-.651-1.951-.433-.486-1.372-1.146-2.818-1.985-1.615-.94-2.637-1.727-3.067-2.361-.43-.634-.644-1.365-.644-2.195 0-1.125.437-2.082 1.311-2.868.875-.784 2.041-1.178 3.501-1.178a8.822 8.822 0 0 1 2.845.478v1.156a7.085 7.085 0 0 0-2.989-.634c-1.082 0-1.939.276-2.574.824-.632.548-.95 1.245-.95 2.09 0 .814.217 1.463.65 1.945.434.48 1.369 1.136 2.806 1.966 1.489.846 2.48 1.596 2.973 2.251.494.657.74 1.41.74 2.262 0 1.223-.425 2.218-1.273 2.99-.848.77-2.047 1.155-3.596 1.155-.549 0-1.18-.086-1.894-.255-.715-.171-1.26-.368-1.639-.59zm11.558.567V8.02h5.646c5.659 0 8.49 2.59 8.49 7.77 0 2.48-.773 4.463-2.317 5.945-1.545 1.482-3.603 2.223-6.173 2.223H56.74zm3.59-13.014v10.101h1.778c1.556 0 2.776-.466 3.662-1.4.885-.934 1.327-2.204 1.327-3.81 0-1.52-.438-2.715-1.317-3.585-.877-.871-2.11-1.306-3.696-1.306H60.33zm23.037 13.014H73.81V8.02H83v2.924h-5.6v3.545h5.213V17.4H77.4v3.644h5.968v2.914zm12.53 0h-9.491V8.02h3.59v13.025h5.901v2.913zM101.75 8.02v15.938h-3.59V8.02h3.59zm17.132 0-5.49 15.938h-4.067L103.899 8.02h3.868l3.323 11.09c.179.6.285 1.132.323 1.591h.065c.065-.555.18-1.1.346-1.634l3.301-11.047h3.756zM134.4 23.959h-4.123l-2.478-4.102a15.56 15.56 0 0 0-.533-.834 4.706 4.706 0 0 0-.517-.627 2.026 2.026 0 0 0-.545-.4 1.37 1.37 0 0 0-.617-.139h-.966v6.102h-3.59V8.02h5.689c3.868 0 5.801 1.446 5.801 4.334a4.45 4.45 0 0 1-.255 1.54c-.171.47-.411.895-.722 1.272a4.56 4.56 0 0 1-1.129.98c-.46.282-.952.497-1.473.642v.046a2.3 2.3 0 0 1 .69.36c.222.167.437.361.644.585.208.222.407.46.594.716.19.256.362.505.518.751l3.012 4.712zm-9.778-13.248v4.434h1.556c.77 0 1.39-.222 1.854-.666a2.133 2.133 0 0 0 .713-1.68c0-1.391-.836-2.09-2.501-2.09h-1.622v.002z"/><path fill="#E64E3D" d="M14.771 0 0 5.32l2.099 19.673 12.672 6.998"/><path fill="#BD483B" d="m14.771 31.991 12.737-7.07L29.892 5.25 14.771 0"/><path fill="#FEC82F" d="M12.09 23.76a8.846 8.846 0 0 1-3.782-2.334l-.003-.002a8.843 8.843 0 0 1-2.149-3.661c.241.224.498.429.765.621.003.008.007.015.01.026a.118.118 0 0 0-.01-.026 8.23 8.23 0 0 0 1.628.886c.17.067.345.13.52.187.01.006.023.006.034.01l.093.032c.036.362.178.677.426.945.247.267.55.433.908.498.276 1.111.8 2.06 1.56 2.818zm.557-12.762c0 .31.085.602.233.847-1.2 1.683-2.023 3.51-2.38 5.318-.039.2-.073.4-.1.594a1.64 1.64 0 0 0-.976.732.067.067 0 0 1-.033-.01c-.022-.006-.039-.013-.059-.02a6.78 6.78 0 0 1-2.983-1.965l-.039-.047-.11-.132-.045-.056c-.014-.018-.023-.03-.036-.044-.005-.01-.012-.015-.016-.022-.02-.02-.036-.045-.051-.065-.008-.012-.016-.021-.022-.028l-.004-.008c-.013-.013-.023-.031-.036-.047a3.77 3.77 0 0 1-.15-.216c-.009-.011-.019-.023-.024-.037a.14.14 0 0 1-.02-.026 8.881 8.881 0 0 1 .438-3.427 8.881 8.881 0 0 1 1.7-3.008 8.816 8.816 0 0 1 4.127-2.733c.025.175.057.352.092.531.184.928.492 1.864.91 2.782-.26.288-.416.67-.416 1.087zm-.958 8.337a.817.817 0 0 1-.296.653.842.842 0 0 1-.498.213.842.842 0 0 1-.527-.126.857.857 0 0 1-.414-.74c0-.296.12-.53.362-.702a.828.828 0 0 1 .668-.15.828.828 0 0 1 .566.385.808.808 0 0 1 .139.467zm3.082.201v4.631l-.137-.002a4.84 4.84 0 0 1-1.815-1.133c-.606-.604-1.031-1.361-1.266-2.234.37-.188.66-.508.805-.902l.123-.008a11.212 11.212 0 0 0 2.29-.352zm-1.102-7.02c.317.126.642.152.975.076.04.059.083.11.127.167v5.709c-.779.222-1.564.358-2.34.395-.017 0-.03 0-.045.004a1.648 1.648 0 0 0-.956-1.048c.023-.15.049-.3.08-.456.324-1.64 1.07-3.306 2.16-4.847zm.647-2.383a.84.84 0 0 1 .588.267c.16.167.24.366.242.598 0 .24-.083.444-.253.614a.834.834 0 0 1-.613.255 1.27 1.27 0 0 1-.123-.006c-.008-.004-.015-.004-.024-.006a.837.837 0 0 1-.552-.32.837.837 0 0 1-.184-.61.837.837 0 0 1 .285-.57.837.837 0 0 1 .598-.222h.036zm.455-3.95V9.44a1.601 1.601 0 0 0-.81-.044 11.465 11.465 0 0 1-.796-2.472 8.075 8.075 0 0 1-.097-.581 8.778 8.778 0 0 1 1.703-.162z"/><path fill="#DF9C26" d="M23.762 15.173c0 .87-.124 1.71-.353 2.505a12.21 12.21 0 0 1-2.304-.877c.064-.32.035-.633-.089-.936a14.27 14.27 0 0 0 2.4-3.174c.224.788.346 1.623.346 2.482zm-.836-3.79a13.18 13.18 0 0 1-2.58 3.696 1.6 1.6 0 0 0-.917-.232 1.6 1.6 0 0 0-.891.313c-.503-.396-.98-.82-1.43-1.274a15.859 15.859 0 0 1-1.582-1.832 1.59 1.59 0 0 0 .383-.917 1.59 1.59 0 0 0-.222-.969 15.255 15.255 0 0 1 3.76-2.676 8.85 8.85 0 0 1 3.479 3.892zm-2.558 5.095a.835.835 0 0 1-.226.623.835.835 0 0 1-.6.281.835.835 0 0 1-.624-.226.835.835 0 0 1-.282-.6c.011-.01.02-.015.027-.021-.01-.008-.02-.013-.028-.022l-.001-.036a.86.86 0 0 1 .352-.694.86.86 0 0 1 .766-.135c.182.056.33.16.444.314a.851.851 0 0 1 .172.516zm.226 1.214c.792.401 1.615.722 2.47.96a8.95 8.95 0 0 1-1.361 2.25 8.95 8.95 0 0 1-1.954 1.76 8.95 8.95 0 0 1-2.378 1.12 8.95 8.95 0 0 1-2.601.385v-4.631a13.082 13.082 0 0 0 3.709-1.63c.036-.02.073-.045.11-.07.312.21.654.3 1.028.273.373-.027.7-.166.977-.417zm-5.823-4.933A17.091 17.091 0 0 0 17.939 16a1.646 1.646 0 0 0 .02 1.017 12.29 12.29 0 0 1-3.188 1.45zm0-6.577a8.835 8.835 0 0 1 3.569.738 16.479 16.479 0 0 0-3.43 2.573 1.291 1.291 0 0 0-.14-.052z"/></g></svg>