<?xml version="1.0" encoding="UTF-8"?>
<svg width="60px" height="60px" viewBox="0 0 60 60" version="1.1" xmlns="http://www.w3.org/2000/svg" xmlns:xlink="http://www.w3.org/1999/xlink">
    <title>logo-browser</title>
    <g id="Other-Icons" stroke="none" stroke-width="1" fill="none" fill-rule="evenodd">
        <g id="Artboard" transform="translate(-20, -120)" fill="#303438" fill-rule="nonzero">
            <path d="M50.0000458,120 C33.4314712,120 20,133.431894 20,150.000873 C20,158.013793 23.1203469,165.547086 28.7860457,171.213198 C34.2784375,176.705763 43.0000351,179.999403 49.9032563,179.999403 C50.6458166,179.999403 52.6910506,179.909759 54.0129415,179.732813 C55.2754229,179.563837 56.2120309,178.426115 56.078213,177.159492 C55.9387705,175.839434 54.7388624,174.903969 53.4324391,175.0815 C53.030787,175.13587 52.6278897,175.180608 52.2240942,175.215673 L52.2240942,125.173478 C56.3653004,126.884924 60.0406048,132.992344 61.6059927,141.183498 C61.8489038,142.454807 63.0763488,143.28809 64.347853,143.045523 C65.6191228,142.802604 66.4527308,141.574886 66.2098197,140.303576 C65.2435656,135.247633 63.5531482,130.805724 61.2912512,127.351778 C69.577882,131.500848 75.2854136,140.066048 75.3081462,149.941814 C75.4268481,153.100109 79.8462361,153.141825 79.9954044,150.000991 L79.9954044,149.99642 C79.9954044,133.429785 66.5660424,120 50.0000458,120 Z M38.3529692,127.530949 C34.8066783,133.214638 33.1007934,139.877267 32.7055502,147.657346 L24.7947109,147.657346 C25.6028911,138.894226 30.8970169,131.410852 38.3529692,127.530949 L38.3529692,127.530949 Z M24.7947109,152.344518 L32.7055502,152.344518 C33.1013792,160.126706 34.8059752,166.785116 38.3529692,172.470914 C30.8970169,168.591011 25.6028911,161.107638 24.7947109,152.344518 Z M47.5369532,174.82241 C40.5335443,171.426587 37.8398444,160.710976 37.3970268,152.344635 L47.5369532,152.344635 L47.5369532,174.82241 Z M47.5369532,147.657346 L37.3970268,147.657346 C37.8373836,139.300731 40.5349505,128.570942 47.5369532,125.179454 L47.5369532,147.657346 Z M79.6347289,164.856063 C78.9187681,166.608991 77.3081493,167.741206 75.4313009,167.811047 C75.4022406,167.812101 75.3732975,167.812687 75.3442372,167.812687 L73.1764346,167.812687 L77.4204063,176.640492 C77.9812227,177.807041 77.4902447,179.207368 76.3237325,179.768203 C75.183234,180.323998 73.7586946,179.849879 73.1961205,178.671494 L67.3371943,166.484544 C66.9881919,165.758312 67.036668,164.90372 67.4655572,164.221616 C67.8944464,163.539511 68.6436185,163.125526 69.4493372,163.125399 L75.2713522,163.125399 C75.2910381,163.103837 75.3096695,163.053566 75.308615,163.025208 L62.9572954,151.881531 C62.9538203,151.878995 62.9501354,151.876761 62.9462807,151.874851 C62.9332739,151.872273 62.9028075,151.887507 62.8882773,151.900514 C62.887608,151.906859 62.887295,151.913235 62.8873398,151.919615 L62.8873398,169.412107 C62.8873398,169.475503 62.9850667,169.554484 63.0373283,169.570655 C66.1239278,169.734241 66.091235,174.137831 63.0048699,174.257709 L62.989168,174.257709 C60.3933122,174.2406 58.2001989,172.021638 58.2001989,169.412107 L58.2001989,151.919615 C58.2001989,150.062746 59.2475405,148.421609 60.9336223,147.636605 C62.6247428,146.848906 64.5618209,147.105418 65.9888211,148.305481 C66.0096789,148.322941 78.655468,159.734965 78.6977694,159.779612 C79.9950529,161.149824 80.3540879,163.095048 79.6347289,164.856063 Z" id="logo-browser"></path>
        </g>
    </g>
</svg>