<svg xmlns="http://www.w3.org/2000/svg" width="37" height="40" viewBox="0 0 37 40"><path d="M16.796 10.55h-2.903c-1.479 0-2.628-.387-3.448-1.16-.82-.775-1.23-1.682-1.23-2.723 0-1.028.33-1.832.988-2.413.658-.58 1.512-.87 2.56-.87 1.116 0 2.067.403 2.854 1.21.786.808 1.18 1.892 1.18 3.254v2.703zm3.408-2.702c0-1.362.393-2.446 1.18-3.253.786-.808 1.744-1.212 2.873-1.212 1.035 0 1.882.29 2.54.871.659.58.988 1.385.988 2.413 0 1.04-.41 1.948-1.23 2.722-.82.774-1.969 1.162-3.448 1.162h-2.903V7.848zM16.796 40V23.203H2.682v11.892c0 1.588.45 2.803 1.35 3.644C4.934 39.579 6.19 40 7.804 40h8.993zm12.38 0c1.614 0 2.874-.42 3.781-1.261.908-.841 1.361-2.056 1.361-3.644V23.203H20.204V40h8.973zm-12.38-29.45h3.408v10.491h13.51c1.048 0 1.858-.234 2.43-.7.57-.468.856-1.222.856-2.263v-4.384c0-1.108-.302-1.909-.907-2.403s-1.466-.74-2.581-.74h-4.053a5.973 5.973 0 0 0 1.3-1.852 5.563 5.563 0 0 0 .474-2.313c0-1.24-.299-2.342-.897-3.303a6.343 6.343 0 0 0-2.42-2.262C26.901.274 25.77 0 24.52 0c-1.385 0-2.615.367-3.69 1.101-1.076.734-1.848 1.769-2.319 3.103-.323-.894-.78-1.651-1.371-2.272A6.113 6.113 0 0 0 15.062.5a6.588 6.588 0 0 0-2.58-.5c-1.237 0-2.367.274-3.388.82a6.4 6.4 0 0 0-2.44 2.263c-.605.961-.907 2.062-.907 3.303 0 .841.158 1.612.473 2.313.316.7.75 1.318 1.301 1.852H3.468c-1.062 0-1.905.246-2.53.74C.313 11.785 0 12.586 0 13.694v4.384c0 1.041.289 1.795.867 2.262.578.467 1.385.701 2.42.701h13.51v-10.49z"/></svg>