<svg width="60" height="60" viewBox="0 0 60 60" xmlns="http://www.w3.org/2000/svg"><path d="M21.26 4.36a2.46 2.46 0 0 1 3.3-1.1L39 10.48V54.6a2.4 2.4 0 0 1-3.473 2.146L21 49.482V5.461c0-.382.089-.76.26-1.1zM59.525 6.75A4.5 4.5 0 0 1 60 8.76v35.16a9 9 0 0 1-4.975 8.049l-9.552 4.776A2.4 2.4 0 0 1 42 54.6V10.481l11.487-5.744a4.5 4.5 0 0 1 6.038 2.012zM17.74 4.36c.171.342.26.719.26 1.1v44.022L6.513 55.226A4.5 4.5 0 0 1 0 51.202v-35.16a9 9 0 0 1 4.975-8.05L14.44 3.26a2.46 2.46 0 0 1 3.3 1.1zm39.228 3.737a1.5 1.5 0 0 0-2.006-.69l-8.13 3.964a1.5 1.5 0 0 0-.137 2.62l8.13 5.081A1.5 1.5 0 0 0 57.12 17.8V8.755a1.5 1.5 0 0 0-.152-.658z" fill="#303438" fill-rule="nonzero"/></svg>