<svg xmlns="http://www.w3.org/2000/svg" width="44" height="44" viewBox="0 0 44 44"><path fill="#303438" d="M42.625 29.198a1.346 1.346 0 0 1 1.346 1.345v12.111A1.346 1.346 0 0 1 42.625 44H1.345A1.343 1.343 0 0 1 0 42.658V30.543a1.346 1.346 0 0 1 1.346-1.345zM42.643 0C43.393 0 44 .607 44 1.357v11.025h-2.713V2.677H28.05v19.946h2.383v2.714h-3.74a1.378 1.378 0 0 1-1.356-1.357V1.357c0-.77.623-1.357 1.356-1.357zM20.17 14.615a1.346 1.346 0 0 1 1.346 1.346v8.023a1.346 1.346 0 0 1-1.346 1.345H1.346A1.344 1.344 0 0 1 0 23.984v-8.02a1.346 1.346 0 0 1 1.346-1.349zm12.764-6.787c.39-.175.847-.087 1.144.22l9.544 9.541c.308.308.484.74.308 1.151-.176.426-.616.624-1.056.62H39.99l1.613 3.81a.968.968 0 0 1 0 .806.968.968 0 0 1-.543.558l-1.657.704a.968.968 0 0 1-.807 0 1.063 1.063 0 0 1-.557-.543l-1.525-3.604-2.435 2.434c-.304.308-.913.605-1.309.312-.37-.271-.48-.722-.48-1.162V8.782a.997.997 0 0 1 .645-.954zM20.174 0a1.342 1.342 0 0 1 1.342 1.346v8.022c0 .744-.602 1.346-1.346 1.346H1.346A1.347 1.347 0 0 1 0 9.368V1.35A1.342 1.342 0 0 1 1.346 0z"/></svg>