<?xml version="1.0" encoding="UTF-8"?>
<svg width="60px" height="60px" viewBox="0 0 60 60" version="1.1" xmlns="http://www.w3.org/2000/svg" xmlns:xlink="http://www.w3.org/1999/xlink">
    <title>qico-theme-light</title>
    <g id="Other-Icons" stroke="none" stroke-width="1" fill="none" fill-rule="evenodd">
        <g id="Artboard" transform="translate(-320, -21)" fill="#303438" fill-rule="nonzero">
            <path d="M367.286026,50.0059402 C367.598475,49.7010663 367.818839,49.3054862 367.891901,48.8574817 C368.036004,47.9632609 367.585765,47.0895222 366.7602,46.6780115 L353.115654,39.8752036 L355.48688,25.0718749 C355.628542,24.1779791 355.244379,23.3743834 354.41814,22.964986 C353.591902,22.5565639 352.749503,22.8677775 352.094724,23.5074355 L341.598064,33.7614708 L327.50715,27.16771 C326.680576,26.7565245 325.53768,26.7756248 324.881134,27.4163395 L324.920526,27.4562469 C324.265411,28.0966365 324.185616,29.1554452 324.606647,29.9632676 L331.381447,43.9039927 L320.879652,54.0034372 C320.225631,54.6430952 319.906112,55.4668479 320.325039,56.2739387 C320.743293,57.0810295 321.486537,57.3785884 322.401746,57.2407408 L337.598603,54.9577224 L344.605046,68.3403926 C345.026751,69.1464267 345.932448,69.5954878 346.847657,69.4534138 C347.305219,69.3829458 347.713961,69.1721105 348.02641,68.8661801 C348.338522,68.5616314 348.555351,68.1632878 348.627402,67.7163399 L351.032045,52.9584456 L366.108704,50.5889474 C366.564836,50.5175041 366.974335,50.3108953 367.286026,50.0059402 Z M357.349956,54.3830868 L355.110544,54.8345049 C353.957464,54.9712958 352.877782,55.8780335 352.692939,57.0108865 L352.392443,58.8545972 L371.318483,79.8352994 C372.363738,80.9941615 374.0615,81.331384 375.473664,80.6514121 C376.2462,80.2794839 377.045671,79.8019755 377.636899,79.2230321 C378.421304,78.4545484 379.081301,77.4428809 379.589872,76.5090777 C380.372256,75.0720822 380.005685,73.2867292 378.742254,72.2354793 L357.349956,54.3830868 Z M371.386747,32.8240914 C371.400467,32.7400499 371.388851,32.6529199 371.348112,32.5736739 C371.266212,32.4163196 371.093321,32.3302462 370.915128,32.359425 L367.970013,32.843842 L366.614161,30.2402632 C366.531924,30.0833153 366.377299,30.0003304 366.199442,30.0301594 C366.021586,30.0599885 365.924955,30.205151 365.896505,30.380549 L365.440374,33.1942316 L362.449216,33.7626901 C362.271023,33.792194 362.093166,33.9255713 362.064379,34.1012944 L362.075237,34.1034076 C362.047124,34.2788056 362.158148,34.4548538 362.318749,34.5340185 L365.015386,35.958172 L364.540232,38.7482027 C364.511782,38.9236007 364.557824,39.0898955 364.718089,39.1691416 C364.878353,39.2486315 365.030201,39.2107544 365.15848,39.084775 L367.286868,36.9910531 L369.954719,38.301011 C370.11532,38.3798507 370.310348,38.3471769 370.437954,38.2204645 C370.501925,38.1572302 370.541654,38.0774152 370.555374,37.9933737 C370.568758,37.9100637 370.556469,37.8225273 370.515645,37.7436876 L369.170314,35.1436037 L371.269495,33.050207 C371.332961,32.9869726 371.373364,32.9074827 371.386747,32.8240914 Z M345.119593,23.3719451 C345.130873,23.3010707 345.121361,23.2271076 345.086598,23.1600533 C345.017324,23.0266761 344.870779,22.9537697 344.719689,22.978397 L342.224393,23.388851 L341.075521,21.1829655 C341.00591,21.0499134 340.87519,20.9797704 340.724437,21.0051291 C340.573684,21.0304879 340.491784,21.1534615 340.467879,21.3020378 L340.081274,23.6857596 L337.547006,24.1674132 C337.395916,24.1923656 337.245079,24.3052607 337.220837,24.4542434 L337.230348,24.4559502 C337.206107,24.6045264 337.300296,24.7535903 337.436319,24.8209698 L339.7211,26.0277046 L339.31867,28.3912694 C339.294765,28.5398457 339.333401,28.6805379 339.469423,28.7479174 C339.60511,28.8152969 339.733725,28.7832733 339.842308,28.6763928 L341.645538,26.9024999 L343.906077,28.0123513 C344.0421,28.0789993 344.207247,28.0516086 344.315492,27.9439152 C344.369615,27.8904343 344.403369,27.8227296 344.414984,27.7518552 C344.426264,27.681062 344.416079,27.6066927 344.381231,27.5400447 L343.24145,25.3372477 L345.019765,23.5633548 C345.073888,23.5101178 345.107978,23.4428195 345.119593,23.3719451 Z M323.632517,38.1669835 C323.598427,38.1242313 323.551712,38.0913137 323.496494,38.0756271 C323.385807,38.0450665 323.269144,38.0878188 323.205173,38.1836456 L322.149817,39.7658035 L320.316706,39.2598478 C320.206019,39.2296124 320.09912,39.2653747 320.03557,39.3612828 C319.972272,39.4571096 319.999375,39.5651281 320.070333,39.6551028 L321.212218,41.0963248 L320.176895,42.7365152 C320.112924,42.832342 320.098867,42.9733594 320.170246,43.0636592 L320.175885,43.0591077 C320.247264,43.1490825 320.379751,43.1740348 320.487661,43.1341273 L322.34434,42.5010528 L323.466529,43.9404866 C323.537486,44.0304614 323.636978,44.081504 323.744888,44.0415152 C323.852797,44.0016077 323.900944,43.9143964 323.896735,43.7997944 L323.828555,41.8949626 L325.617728,41.2253943 C325.725637,41.1850804 325.795248,41.0802318 325.790619,40.9653046 C325.788178,40.9080036 325.767387,40.8545227 325.733297,40.8117705 C325.699544,40.7686932 325.652491,40.7364257 325.596937,40.7208203 L323.77014,40.2116948 L323.689334,38.3204365 C323.68664,38.2631354 323.666607,38.2096544 323.632517,38.1669835 Z" id="qico-theme-light"></path>
        </g>
    </g>
</svg>