<svg xmlns="http://www.w3.org/2000/svg" width="32" height="40" viewBox="0 0 32 40"><path d="M30.35 40c.464 0 .855-.157 1.173-.47.318-.315.477-.7.477-1.158a1.52 1.52 0 0 0-.348-.981 2.055 2.055 0 0 0-.825-.628c-.781-.327-1.341-.847-1.68-1.56-.337-.712-.417-1.497-.238-2.354.18-.856.66-1.664 1.441-2.422a7.7 7.7 0 0 0 .815-.854c.252-.307.45-.68.596-1.118.146-.438.22-.964.22-1.58V5.984c0-1.974-.501-3.465-1.501-4.472C29.48.504 27.985 0 25.998 0H5.983C4.008 0 2.518.504 1.51 1.51.504 2.519 0 4.01 0 5.984v28.112c0 1.962.5 3.436 1.5 4.424C2.502 39.506 3.983 40 5.944 40H30.35zM5.645 28.19a1.08 1.08 0 0 1-.785-.323 1.05 1.05 0 0 1-.328-.775V4.12c0-.314.109-.579.328-.795.218-.216.48-.324.785-.324.291 0 .546.108.765.324.219.216.328.48.328.795v22.972c0 .3-.11.559-.328.775a1.055 1.055 0 0 1-.765.323zm20.174-16.164H11.786a1.31 1.31 0 0 1-.954-.393 1.276 1.276 0 0 1-.397-.941c0-.367.132-.68.397-.942a1.31 1.31 0 0 1 .954-.392H25.82c.357 0 .672.13.944.392.271.261.407.575.407.942 0 .366-.136.68-.407.941a1.32 1.32 0 0 1-.944.393zm-3.38 5.335H11.787a1.31 1.31 0 0 1-.954-.392 1.299 1.299 0 0 1-.397-.961c0-.353.132-.66.397-.922a1.31 1.31 0 0 1 .954-.393H22.44c.37 0 .689.131.954.393.265.261.397.569.397.922 0 .38-.132.7-.397.961a1.31 1.31 0 0 1-.954.392zm3.877 19.383H6.3c-.994 0-1.74-.252-2.236-.756-.497-.503-.746-1.2-.746-2.089 0-.824.279-1.494.835-2.01.557-.517 1.318-.776 2.286-.776h19.02c.12 0 .23-.006.329-.02l.308-.039c-.464.968-.67 1.956-.616 2.963.053 1.007.331 1.916.835 2.727z"/></svg>