<svg width="60" height="60" viewBox="0 0 60 60" xmlns="http://www.w3.org/2000/svg"><path d="M6.563 3.75h31.875A6.565 6.565 0 0 1 45 10.313v20.624a6.562 6.562 0 0 1-6.563 6.563H26.48l-9.653 9.649A5.467 5.467 0 0 1 7.5 43.286V37.5h-.938A6.562 6.562 0 0 1 0 30.937V10.313A6.565 6.565 0 0 1 6.563 3.75zm-.938 6.563v20.624c0 .518.42.938.938.938h3.75a2.812 2.812 0 0 1 2.812 2.813V42.9l10.2-10.2a2.809 2.809 0 0 1 1.988-.825h13.125c.517 0 .937-.42.937-.938V10.313a.937.937 0 0 0-.938-.937H6.564a.938.938 0 0 0-.938.938zm48.75 7.5a.937.937 0 0 0-.938-.938h-1.874a2.812 2.812 0 1 1 0-5.625h1.874A6.565 6.565 0 0 1 60 17.813v20.625A6.562 6.562 0 0 1 53.437 45H52.5v5.786a5.468 5.468 0 0 1-9.326 3.863l-8.599-8.599a2.809 2.809 0 0 1 1.222-4.781 2.809 2.809 0 0 1 2.753.806l8.325 8.325v-8.212a2.812 2.812 0 0 1 2.813-2.813h3.75c.517 0 .937-.42.937-.938V17.814z" fill="#000"/></svg>