<svg xmlns="http://www.w3.org/2000/svg" width="40" height="33" viewBox="0 0 40 33"><path d="M34.587 33c1.805 0 3.158-.44 4.06-1.32.902-.88 1.353-2.2 1.353-3.96V11.238c0-1.772-.451-3.098-1.353-3.978-.902-.88-2.255-1.32-4.06-1.32h-4.33V4.192c0-1.308-.406-2.334-1.218-3.077C28.227.372 27.112 0 25.692 0H14.29c-1.396 0-2.5.372-3.311 1.115-.812.743-1.218 1.769-1.218 3.077V5.94H5.43c-1.792 0-3.146.44-4.06 1.32C.457 8.14 0 9.466 0 11.238V27.72c0 1.76.457 3.08 1.371 3.96.914.88 2.268 1.32 4.06 1.32h29.156zM26.973 5.94h-13.91V4.352c0-.416.132-.743.397-.98.264-.238.613-.357 1.046-.357h11.006c.457 0 .815.119 1.073.356.26.238.388.565.388.981V5.94zm-5.358 22.012h-3.212c-.505 0-.91-.155-1.218-.464-.306-.31-.46-.713-.46-1.213v-3.55h-3.608c-.493 0-.896-.151-1.209-.454-.313-.304-.47-.705-.47-1.205v-3.175c0-.5.157-.9.47-1.204.313-.303.716-.455 1.209-.455h3.608v-3.531c0-.512.154-.922.46-1.231.307-.31.713-.464 1.218-.464h3.212c.493 0 .893.155 1.2.464.306.309.46.72.46 1.23v3.532h3.608c.505 0 .914.152 1.227.455.313.304.47.705.47 1.204v3.175c0 .5-.157.901-.47 1.205-.313.303-.722.454-1.227.454h-3.608v3.55c0 .5-.154.904-.46 1.213-.307.31-.707.464-1.2.464z"/></svg>