<svg width="60" height="60" viewBox="0 0 60 60" xmlns="http://www.w3.org/2000/svg"><path d="M45 0a6 6 0 0 1 6 6v15h3a6 6 0 0 1 6 6v21a6 6 0 0 1-6 6h-3a6 6 0 0 1-6 6H15a6 6 0 0 1-6-6H6a6 6 0 0 1-6-6V27a6 6 0 0 1 6-6h3V6a6 6 0 0 1 6-6h30zm3 48H12v6a3 3 0 0 0 3 3h30a3 3 0 0 0 3-3v-6zM16.152 27h-5.976v16.5h3.696v-6.022h2.352c1.728 0 3.124-.486 4.188-1.458 1.064-.972 1.596-2.208 1.596-3.71 0-1.643-.516-2.94-1.548-3.888S17.992 27 16.152 27zm13.86 0h-5.616v16.5h5.208c3.136 0 5.184-1.09 6.144-3.272.4-.932.6-2.686.6-5.262 0-2.403-.216-4.039-.648-4.908C34.708 28.02 32.812 27 30.012 27zm20.652 0H39.576v16.5h3.696v-6.59h6.192v-3.154h-6.192v-3.484h7.392V27zm-21.252 3.295c1.152 0 1.984.277 2.496.83.512.553.768 1.407.768 2.56v3.011c0 1.154-.24 2.031-.72 2.632-.48.6-1.304.9-2.472.9h-1.392v-9.933zm-13.332-.023c.656 0 1.184.166 1.584.497.4.332.6.822.6 1.47 0 .6-.192 1.079-.576 1.434-.384.356-.888.534-1.512.534h-2.304v-3.935zM45 3H15a3 3 0 0 0-3 3v15h36V6a3 3 0 0 0-2.824-2.995L45 3zM18 51h12v3H18v-3zm0-36h24v3H18zm0-6h24v3H18z" fill="#000" fill-rule="nonzero"/></svg>