<svg width="24" height="24" viewBox="0 0 24 24" xmlns="http://www.w3.org/2000/svg" xmlns:xlink="http://www.w3.org/1999/xlink"><defs><path d="M6.85 0h10.3c2.382 0 3.245.248 4.116.714a4.856 4.856 0 0 1 2.02 2.02c.466.87.714 1.734.714 4.116v10.3c0 2.382-.248 3.245-.714 4.116a4.856 4.856 0 0 1-2.02 2.02c-.87.466-1.734.714-4.116.714H6.85c-2.382 0-3.245-.248-4.116-.714a4.856 4.856 0 0 1-2.02-2.02C.248 20.396 0 19.532 0 17.15V6.85c0-2.382.248-3.245.714-4.116a4.856 4.856 0 0 1 2.02-2.02C3.604.248 4.468 0 6.85 0z" id="a"/><radialGradient cy="100%" fx="50%" fy="100%" r="100%" gradientTransform="matrix(0 -1 .79966 0 -.3 1.5)" id="c"><stop stop-color="#00DAD8" stop-opacity=".8" offset="0%"/><stop stop-color="#00DAD8" stop-opacity=".7" offset="19.9%"/><stop stop-color="#00DAD8" stop-opacity="0" offset="100%"/></radialGradient></defs><g fill="none" fill-rule="evenodd"><path d="M6.85 0h10.3c2.382 0 3.245.248 4.116.714a4.856 4.856 0 0 1 2.02 2.02c.466.87.714 1.734.714 4.116v10.3c0 2.382-.248 3.245-.714 4.116a4.856 4.856 0 0 1-2.02 2.02c-.87.466-1.734.714-4.116.714H6.85c-2.382 0-3.245-.248-4.116-.714a4.856 4.856 0 0 1-2.02-2.02C.248 20.396 0 19.532 0 17.15V6.85c0-2.382.248-3.245.714-4.116a4.856 4.856 0 0 1 2.02-2.02C3.604.248 4.468 0 6.85 0z" fill="#303438"/><path d="M12.215 16.976l.956.795a.26.26 0 0 1 .05.345l-.956 1.432a.26.26 0 0 1-.434 0l-.956-1.432a.26.26 0 0 1 .05-.345l.956-.795a.26.26 0 0 1 .334 0zM7.27 9.292a4.34 4.34 0 0 1 4.343 4.336 4.34 4.34 0 0 1-4.343 4.336 4.34 4.34 0 0 1-4.343-4.336 4.34 4.34 0 0 1 4.343-4.336zm9.554 0a4.34 4.34 0 0 1 4.343 4.336 4.34 4.34 0 0 1-4.343 4.336 4.34 4.34 0 0 1-4.343-4.336 4.34 4.34 0 0 1 4.343-4.336zm-9.554 1.3a3.038 3.038 0 0 0-3.04 3.036 3.038 3.038 0 0 0 3.04 3.035 3.038 3.038 0 0 0 3.04-3.035 3.038 3.038 0 0 0-3.04-3.035zm9.554 0a3.038 3.038 0 0 0-3.04 3.036 3.038 3.038 0 0 0 3.04 3.035 3.038 3.038 0 0 0 3.04-3.035 3.038 3.038 0 0 0-3.04-3.035zM11.752 9.22l-.014-.006-7.035-2.93a.65.65 0 0 1 .537-1.186l.014.006 6.793 2.83 6.795-2.83.013-.006a.65.65 0 1 1 .537 1.185l-7.034 2.931-.014.006a.649.649 0 0 1-.293.055.653.653 0 0 1-.3-.055z" fill="#FFF"/><g><mask id="b" fill="#fff"><use xlink:href="#a"/></mask><path fill="#1C1E1F" mask="url(#b)" d="M0 0h24v24H0z"/><path fill="url(#c)" mask="url(#b)" d="M0 20.16h24v4.8H0z"/><g mask="url(#b)" fill="#FFF"><path d="M12.167 16.976l.956.795a.26.26 0 0 1 .05.345l-.956 1.432a.26.26 0 0 1-.434 0l-.956-1.432a.26.26 0 0 1 .05-.345l.956-.795a.26.26 0 0 1 .334 0zM7.223 9.292a4.34 4.34 0 0 1 4.343 4.336 4.34 4.34 0 0 1-4.343 4.336 4.34 4.34 0 0 1-4.343-4.336 4.34 4.34 0 0 1 4.343-4.336zm9.554 0a4.34 4.34 0 0 1 4.343 4.336 4.34 4.34 0 0 1-4.343 4.336 4.34 4.34 0 0 1-4.343-4.336 4.34 4.34 0 0 1 4.343-4.336zm-9.554 1.3a3.038 3.038 0 0 0-3.04 3.036 3.038 3.038 0 0 0 3.04 3.035 3.038 3.038 0 0 0 3.04-3.035 3.038 3.038 0 0 0-3.04-3.035zm9.554 0a3.038 3.038 0 0 0-3.04 3.036 3.038 3.038 0 0 0 3.04 3.035 3.038 3.038 0 0 0 3.04-3.035 3.038 3.038 0 0 0-3.04-3.035zM11.704 9.22l-.014-.006-7.035-2.93a.65.65 0 0 1 .537-1.186l.014.006 6.793 2.83 6.795-2.83.013-.006a.65.65 0 1 1 .537 1.185L12.31 9.213l-.014.006a.649.649 0 0 1-.293.055.653.653 0 0 1-.3-.055z"/></g></g></g></svg>