<svg width="500" height="219" viewBox="0 0 500 219" xmlns="http://www.w3.org/2000/svg" xmlns:xlink="http://www.w3.org/1999/xlink"><defs><path d="M30.782 0h46.28c10.703 0 14.584 1.114 18.497 3.207 3.913 2.093 6.984 5.164 9.077 9.077 2.093 3.913 3.207 7.794 3.207 18.498v46.353c0 10.703-1.114 14.585-3.207 18.498-2.093 3.913-5.164 6.984-9.077 9.076-3.913 2.093-7.794 3.208-18.498 3.208h-46.28c-10.703 0-14.584-1.115-18.497-3.208-3.913-2.092-6.984-5.163-9.077-9.076C1.114 91.72 0 87.838 0 77.135V30.782c0-10.704 1.114-14.585 3.207-18.498C5.3 8.371 8.371 5.3 12.284 3.207 16.197 1.114 20.078 0 30.782 0z" id="a"/><radialGradient cy="100%" fx="50%" fy="100%" r="72.558%" gradientTransform="matrix(0 -1 2.40112 0 -1.901 1.5)" id="c"><stop stop-color="#04AAC2" stop-opacity=".45" offset="0%"/><stop stop-color="#9639CC" stop-opacity=".18" offset="30.303%"/><stop stop-color="#9639CC" stop-opacity=".08" offset="59.775%"/><stop stop-color="#9639CC" stop-opacity="0" offset="100%"/></radialGradient></defs><g fill="none" fill-rule="evenodd"><g transform="translate(20.833 20.833)"><mask id="b" fill="#fff"><use xlink:href="#a"/></mask><g mask="url(#b)"><path fill="#FFF" d="M0 0h107.843v107.917H0z"/><path fill="url(#c)" d="M0 64.75h107.843v43.167H0z"/></g><g mask="url(#b)" fill="#000"><path d="M54.67 76.332l4.297 3.577a1.17 1.17 0 0 1 .225 1.55l-4.296 6.438a1.17 1.17 0 0 1-1.948 0l-4.296-6.439a1.17 1.17 0 0 1 .224-1.55l4.296-3.576a1.17 1.17 0 0 1 1.499 0zM32.457 41.78c10.777 0 19.514 8.73 19.514 19.499 0 10.769-8.737 19.498-19.514 19.498-10.778 0-19.515-8.73-19.515-19.498 0-10.769 8.737-19.499 19.515-19.499zm42.932 0c10.777 0 19.514 8.73 19.514 19.499 0 10.769-8.737 19.498-19.514 19.498-10.778 0-19.515-8.73-19.515-19.498 0-10.769 8.737-19.499 19.515-19.499zm-42.932 5.85c-7.545 0-13.66 6.11-13.66 13.649 0 7.538 6.115 13.649 13.66 13.649 7.544 0 13.66-6.111 13.66-13.65 0-7.537-6.116-13.648-13.66-13.648zm42.932 0c-7.545 0-13.66 6.11-13.66 13.649 0 7.538 6.115 13.649 13.66 13.649 7.544 0 13.66-6.111 13.66-13.65 0-7.537-6.116-13.648-13.66-13.648zm9.123-24.711a2.929 2.929 0 0 1 3.83 1.442 2.923 2.923 0 0 1-1.416 3.887L55.312 41.429l-.06.028c-.433.19-.888.267-1.331.243a2.914 2.914 0 0 1-1.33-.243l-.06-.028-31.614-13.181A2.923 2.923 0 0 1 19.5 24.36a2.929 2.929 0 0 1 3.83-1.442l.06.027 30.53 12.73 30.53-12.73z"/></g></g><g fill-rule="nonzero"><path d="M443 72.976a5.39 5.39 0 0 1 7.432-.186l.194.186 26.961 26.98a5.398 5.398 0 0 1 0 7.63 5.39 5.39 0 0 1-7.43.186l-.195-.186L443 80.607a5.398 5.398 0 0 1 0-7.63z" fill="#A5B4C2"/><path d="M477.587 45.997a5.39 5.39 0 0 0-7.43-.186l-.195.186-53.922 53.958a5.398 5.398 0 0 0 0 7.631 5.39 5.39 0 0 0 7.43.186l.196-.186 53.921-53.958a5.398 5.398 0 0 0 0-7.631z" fill="#A5B4C2"/><path d="M212.333 45.186a5.39 5.39 0 0 0-7.266 1.641l-.132.21-32.353 53.958a5.398 5.398 0 0 0 1.85 7.403 5.39 5.39 0 0 0 7.266-1.642l.132-.21 32.353-53.957a5.398 5.398 0 0 0-1.85-7.403z" fill="#FFF"/><path d="M142.079 45.186a5.39 5.39 0 0 1 7.266 1.641l.132.21 32.353 53.958a5.398 5.398 0 0 1-1.85 7.403 5.39 5.39 0 0 1-7.266-1.642l-.132-.21L140.23 52.59a5.398 5.398 0 0 1 1.85-7.403z" fill="#FFF"/><path d="M241.912 44.417c-2.9 0-5.265 2.29-5.387 5.161l-.005.234v53.959a5.394 5.394 0 0 0 5.392 5.396c2.9 0 5.264-2.29 5.387-5.162l.005-.234V49.812a5.394 5.394 0 0 0-5.392-5.395z" fill="#A5B4C2"/><path d="M225.735 44.417c-2.9 0-5.265 2.29-5.387 5.161l-.005.234v5.396a5.394 5.394 0 0 0 5.392 5.396c2.9 0 5.265-2.29 5.387-5.162l.005-.234v-5.396a5.394 5.394 0 0 0-5.392-5.395z" fill="#FFF"/><path d="M419.853 44.417a5.394 5.394 0 0 1 5.392 5.395v53.959l-.005.234a5.394 5.394 0 0 1-5.387 5.162 5.394 5.394 0 0 1-5.392-5.396v-7.514a37.614 37.614 0 0 0 5.392-19.465c0-7.12-1.969-13.78-5.392-19.465v-7.515l.005-.234a5.394 5.394 0 0 1 5.387-5.161zM281.03 98.374a37.96 37.96 0 0 0 11.528 10.793h-50.646l-.234-.005a5.394 5.394 0 0 1-5.158-5.391 5.394 5.394 0 0 1 5.392-5.396z" fill="#A5B4C2"/><path d="M312.01 44.417c-17.868 0-32.353 14.494-32.353 32.375 0 17.88 14.485 32.375 32.353 32.375 17.868 0 32.353-14.495 32.353-32.375 0-17.88-14.485-32.375-32.353-32.375zm0 10.791c11.912 0 21.568 9.663 21.568 21.584 0 11.92-9.656 21.583-21.568 21.583s-21.569-9.663-21.569-21.583c0-11.92 9.657-21.584 21.569-21.584zM382.108 44.417c-17.868 0-32.353 14.494-32.353 32.375 0 17.88 14.485 32.375 32.353 32.375 17.868 0 32.353-14.495 32.353-32.375 0-17.88-14.485-32.375-32.353-32.375zm0 10.791c11.912 0 21.568 9.663 21.568 21.584 0 11.92-9.656 21.583-21.568 21.583s-21.569-9.663-21.569-21.583c0-11.92 9.657-21.584 21.569-21.584z" fill="#FFF"/></g><text font-family="SFCompactRounded-Bold, SF Compact Rounded" font-size="12" font-weight="bold" fill="#A5B4C2"><tspan x="463.846" y="29">TM</tspan></text><g fill-rule="nonzero"><g fill="#04B3CC"><path d="M59.207 168.622c.854 0 1.392-.574 1.392-1.49v-12.914h3.796c.757 0 1.257-.476 1.257-1.184s-.5-1.197-1.257-1.197H54.043c-.744 0-1.27.489-1.27 1.197 0 .695.526 1.184 1.27 1.184h3.785v12.915c0 .928.524 1.49 1.379 1.49zM79.349 168.622c.866 0 1.379-.561 1.379-1.514V153.23c0-.952-.513-1.514-1.38-1.514-.878 0-1.391.562-1.391 1.514v5.542h-7.63v-5.542c0-.952-.512-1.514-1.379-1.514-.879 0-1.391.562-1.391 1.514v13.88c0 .952.512 1.513 1.391 1.513.867 0 1.38-.561 1.38-1.514v-5.993h7.629v5.993c0 .953.513 1.514 1.392 1.514zM84.475 166.522c0 1.368.66 1.978 2.1 1.978h7.214c.782 0 1.282-.452 1.282-1.16 0-.72-.5-1.172-1.282-1.172h-6.555v-5.017h6.201c.72 0 1.197-.427 1.197-1.11 0-.684-.476-1.124-1.197-1.124h-6.2v-4.748h6.579c.757 0 1.257-.452 1.257-1.16s-.5-1.172-1.257-1.172h-7.239c-1.44 0-2.1.623-2.1 1.978v12.707zM99.38 168.622c.818 0 1.258-.513 1.258-1.477v-10.242h.11l3.71 8.9c.44 1.073.891 1.427 1.6 1.427.695 0 1.135-.341 1.586-1.428l3.711-8.899h.11v10.242c0 .977.415 1.477 1.22 1.477.831 0 1.27-.513 1.27-1.477v-13.672c0-1.135-.573-1.782-1.562-1.782-.903 0-1.367.378-1.88 1.697l-4.407 10.705h-.097l-4.42-10.693c-.512-1.318-1-1.71-1.867-1.71-.989 0-1.587.66-1.587 1.783v13.672c0 .977.427 1.477 1.245 1.477zM117.727 166.522c0 1.368.66 1.978 2.1 1.978h7.214c.782 0 1.282-.452 1.282-1.16 0-.72-.5-1.172-1.282-1.172h-6.555v-5.017h6.201c.72 0 1.197-.427 1.197-1.11 0-.684-.476-1.124-1.197-1.124h-6.2v-4.748h6.579c.757 0 1.257-.452 1.257-1.16s-.5-1.172-1.257-1.172h-7.239c-1.44 0-2.1.623-2.1 1.978v12.707zM29.165 193.622c.88 0 1.392-.561 1.392-1.514v-4.59h3.503c3.406 0 5.603-2.038 5.603-5.346 0-3.21-2.185-5.335-5.53-5.335h-4.138c-1.586 0-2.209.599-2.209 2.149v13.122c0 .953.513 1.514 1.38 1.514zm1.392-8.362v-6.128h3.308c1.917 0 3.015 1.123 3.015 3.064 0 2.27-1.11 3.064-4.016 3.064h-2.307zM41.629 193.646c.744 0 1.16-.366 1.452-1.318l1.148-3.442h6.03l1.148 3.442c.28.94.72 1.318 1.464 1.318.794 0 1.319-.463 1.319-1.196 0-.305-.073-.635-.208-1.037l-4.577-12.952c-.415-1.233-1.014-1.758-2.124-1.758-1.111 0-1.71.537-2.137 1.758l-4.577 12.952c-.159.463-.232.78-.232 1.074 0 .708.525 1.16 1.294 1.16zm3.26-6.884l2.294-7.044h.134l2.283 7.044h-4.712zM55.752 186.334c0 4.773 2.442 7.52 6.75 7.52 2.015 0 3.638-.586 4.798-1.66.916-.818 1.49-1.904 1.49-2.722 0-.708-.452-1.172-1.185-1.172-.512 0-.83.232-1.27.866-.903 1.55-2.111 2.271-3.698 2.271-2.649 0-4.126-1.843-4.126-5.176v-2.221c0-3.26 1.49-5.115 4.126-5.115 1.563 0 2.686.732 3.65 2.32.44.646.793.854 1.33.854.696 0 1.172-.452 1.172-1.172 0-.733-.512-1.77-1.33-2.588-1.184-1.196-2.881-1.831-4.956-1.831-4.285 0-6.75 2.77-6.75 7.446v2.38zM82.742 193.561c.818 0 1.38-.55 1.38-1.33 0-.416-.123-.696-.684-1.453l-4.87-6.714 4.504-4.907c.5-.537.634-.794.634-1.16 0-.684-.524-1.22-1.22-1.22-.428 0-.77.195-1.245.732l-6.507 6.97h-.146v-6.25c0-.952-.513-1.514-1.38-1.514-.879 0-1.391.562-1.391 1.514v13.88c0 .952.525 1.513 1.404 1.513.866 0 1.367-.561 1.367-1.514v-4.248l1.916-1.965 4.761 6.69c.5.683.952.976 1.477.976zM87.234 193.646c.745 0 1.16-.366 1.453-1.318l1.147-3.442h6.03l1.148 3.442c.28.94.72 1.318 1.465 1.318.793 0 1.318-.463 1.318-1.196 0-.305-.073-.635-.207-1.037L95.01 178.46c-.415-1.233-1.013-1.758-2.124-1.758-1.11 0-1.709.537-2.136 1.758l-4.578 12.952c-.158.463-.232.78-.232 1.074 0 .708.525 1.16 1.294 1.16zm3.26-6.884l2.294-7.044h.135l2.282 7.044h-4.711zM101.333 186.432c0 4.651 2.588 7.422 6.934 7.422 3.723 0 6.396-2.405 6.396-5.774v-1.587c0-1.233-.561-1.794-1.818-1.794h-3.565c-.806 0-1.282.403-1.282 1.098 0 .696.476 1.099 1.282 1.099h2.722v1.306c0 1.965-1.452 3.284-3.65 3.284-2.685 0-4.248-1.856-4.248-5.066v-2.442c0-3.259 1.502-5.053 4.163-5.053 1.733 0 2.869.903 3.845 2.441.342.513.647.708 1.111.708.696 0 1.16-.464 1.16-1.184 0-.806-.61-1.868-1.538-2.71-1.16-1.098-2.784-1.672-4.737-1.672-4.26 0-6.775 2.783-6.775 7.385v2.54zM117.727 191.522c0 1.368.66 1.978 2.1 1.978h7.214c.782 0 1.282-.452 1.282-1.16 0-.72-.5-1.172-1.282-1.172h-6.555v-5.017h6.201c.72 0 1.197-.427 1.197-1.11 0-.684-.476-1.124-1.197-1.124h-6.2v-4.748h6.579c.757 0 1.257-.452 1.257-1.16s-.5-1.172-1.257-1.172h-7.239c-1.44 0-2.1.623-2.1 1.978v12.707z"/></g><g fill="#A5B4C2"><path d="M319.503 192.997v-6.217h1.034c.504 0 .797-.277.797-.725 0-.455-.293-.724-.797-.724h-1.058v-.822c0-.74.293-1.066.878-1.066.35 0 .44.049.757.049.35 0 .578-.236.578-.602 0-.236-.114-.432-.325-.586-.245-.163-.619-.253-1.107-.253-1.71 0-2.564.79-2.564 2.523v.757h-.586c-.504 0-.797.269-.797.724 0 .456.301.725.797.725h.586v6.217c0 .635.334 1.001.904 1.001.57 0 .903-.366.903-1.001zM326.315 185.152c-2.247 0-3.85 1.432-3.85 3.882v1.147c0 2.482 1.603 3.898 3.85 3.898 2.237 0 3.84-1.416 3.84-3.898v-1.155c0-2.442-1.603-3.874-3.84-3.874zm0 1.465c1.237 0 1.985.968 1.985 2.498v1.001c0 1.555-.748 2.507-1.985 2.507-1.23 0-2.002-.952-2.002-2.507v-1c0-1.53.773-2.5 2.002-2.5zM333.891 192.997v-4.175c0-1.35.627-2.018 1.855-2.034.31-.008.546-.057.709-.171.195-.13.292-.334.292-.619 0-.268-.105-.488-.3-.618-.163-.13-.4-.195-.684-.195-.798 0-1.449.415-1.84 1.228h-.065v-.26c-.024-.578-.333-.911-.87-.911-.57 0-.904.366-.904 1v6.755c0 .635.318 1.001.896 1.001.577 0 .911-.366.911-1.001zM344.527 193.998c.57 0 .928-.382.928-.993v-8.61h2.531c.505 0 .838-.317.838-.79 0-.471-.333-.797-.838-.797h-6.901c-.496 0-.846.326-.846.798 0 .464.35.79.846.79h2.523v8.61c0 .618.35.992.92.992zM348.523 196.187a.67.67 0 0 0 .204.488c.211.212.594.326 1.074.326 1.554 0 2.482-.749 3.133-2.604l2.726-7.715c.082-.236.122-.407.122-.553 0-.489-.374-.847-.87-.847-.464 0-.765.285-.928.88l-1.888 6.151h-.073l-1.872-6.152c-.163-.594-.472-.879-.944-.879-.521 0-.904.366-.904.855 0 .146.033.325.106.545l2.637 7.349c0 .04-.106.455-.122.48-.195.659-.651 1.082-1.172 1.082-.212 0-.366-.032-.513-.032-.431 0-.716.252-.716.626zM359.306 196.008v-3.385h.09c.382.903 1.27 1.416 2.45 1.416 2.034 0 3.287-1.424 3.287-3.76v-1.343c0-2.327-1.237-3.751-3.247-3.751-1.22 0-2.19.57-2.54 1.497h-.089v-.529c-.024-.586-.342-.911-.887-.911-.561 0-.87.358-.87 1v9.766c0 .643.325 1.001.895 1.001.577 0 .911-.358.911-1zm0-5.672v-1.318c0-1.473.757-2.344 2.002-2.344 1.27 0 1.986.903 1.986 2.514v.847c0 1.595-.716 2.514-1.962 2.514-1.204 0-2.026-.887-2.026-2.213zM370.577 185.152c-2.246 0-3.85 1.432-3.85 3.882v1.147c0 2.482 1.604 3.898 3.85 3.898 2.238 0 3.841-1.416 3.841-3.898v-1.155c0-2.442-1.603-3.874-3.84-3.874zm0 1.465c1.237 0 1.986.968 1.986 2.498v1.001c0 1.555-.749 2.507-1.986 2.507-1.229 0-2.002-.952-2.002-2.507v-1c0-1.53.773-2.5 2.002-2.5zM378.154 192.997v-4.175c0-1.35.626-2.018 1.855-2.034.31-.008.545-.057.708-.171.196-.13.293-.334.293-.619 0-.268-.106-.488-.3-.618-.164-.13-.4-.195-.685-.195-.797 0-1.448.415-1.839 1.228h-.065v-.26c-.024-.578-.333-.911-.87-.911-.57 0-.904.366-.904 1v6.755c0 .635.317 1.001.895 1.001.578 0 .912-.366.912-1.001zM387.04 192.802h.09v.382c.04.513.358.814.854.814.562 0 .88-.358.88-.977v-4.923c0-1.872-1.213-2.913-3.386-2.913-.895 0-1.579.154-2.1.439-.724.39-1.066.879-1.066 1.375 0 .39.26.66.66.66.309 0 .52-.082.74-.293.496-.505.968-.75 1.652-.75 1.099 0 1.693.505 1.693 1.474v.765h-2.149c-1.92.008-3.076.976-3.076 2.563 0 1.563 1.131 2.62 2.808 2.62 1.066 0 1.928-.439 2.4-1.236zm-3.393-1.473c0-.79.553-1.237 1.514-1.237h1.896v.927c0 .928-.806 1.644-1.856 1.644-.927 0-1.554-.537-1.554-1.334zM395.024 195.951l3.597-12.76c.024-.065.04-.18.049-.269.008-.423-.35-.781-.798-.781-.374 0-.675.22-.773.57l-3.589 12.76a.78.78 0 0 0 .749 1.058c.366 0 .667-.22.765-.578zM404.342 193.998c.545 0 .838-.342.838-.985v-6.827h.073l2.474 5.932c.293.716.594.952 1.066.952.464 0 .757-.228 1.058-.952l2.474-5.932h.074v6.827c0 .651.276.985.813.985.554 0 .847-.342.847-.985V183.9c0-.757-.383-1.188-1.042-1.188-.602 0-.911.252-1.253 1.13l-2.938 7.138h-.065l-2.946-7.13c-.342-.878-.667-1.138-1.245-1.138-.66 0-1.058.439-1.058 1.188v9.114c0 .651.285.985.83.985zM421.22 192.802h.09v.382c.04.513.358.814.854.814.562 0 .879-.358.879-.977v-4.923c0-1.872-1.213-2.913-3.385-2.913-.896 0-1.58.154-2.1.439-.724.39-1.066.879-1.066 1.375 0 .39.26.66.66.66.308 0 .52-.082.74-.293.496-.505.968-.75 1.652-.75 1.098 0 1.692.505 1.692 1.474v.765h-2.148c-1.92.008-3.076.976-3.076 2.563 0 1.563 1.131 2.62 2.807 2.62 1.066 0 1.93-.439 2.401-1.236zm-3.393-1.473c0-.79.553-1.237 1.513-1.237h1.896v.927c0 .928-.805 1.644-1.855 1.644-.928 0-1.554-.537-1.554-1.334zM427.039 192.997v-4.175c0-1.35.626-2.018 1.855-2.034.31-.008.546-.057.708-.171.196-.13.293-.334.293-.619 0-.268-.106-.488-.3-.618-.164-.13-.4-.195-.684-.195-.798 0-1.449.415-1.84 1.228h-.065v-.26c-.024-.578-.333-.911-.87-.911-.57 0-.904.366-.904 1v6.755c0 .635.318 1.001.895 1.001.578 0 .912-.366.912-1.001zM433.28 192.997v-2.124l.839-.798 2.645 3.402c.26.334.512.48.814.48.455 0 .83-.382.83-.83 0-.228-.106-.48-.318-.74l-2.628-3.37 2.335-2.368c.236-.244.334-.455.334-.7a.731.731 0 0 0-.757-.756c-.277 0-.513.122-.806.423l-3.198 3.255h-.09v-5.705c0-.634-.333-1-.903-1-.577 0-.903.366-.903 1v9.831c0 .635.334 1.001.911 1.001.57 0 .896-.366.896-1.001zM445.17 192.55h.09v.528c.032.586.35.92.879.92.57 0 .879-.358.879-1.001v-9.83c0-.635-.326-1.002-.904-1.002-.577 0-.903.367-.903 1.001v3.426h-.09c-.333-.878-1.269-1.407-2.465-1.407-2.002 0-3.288 1.432-3.288 3.678v1.497c0 2.246 1.261 3.679 3.255 3.679 1.245 0 2.287-.61 2.547-1.49zm-3.955-2.458v-.96c0-1.539.716-2.458 1.937-2.458 1.213 0 2.059.911 2.059 2.213v1.327c0 1.44-.781 2.344-2.018 2.344-1.245 0-1.978-.912-1.978-2.466zM452.853 185.152c-2.246 0-3.85 1.432-3.85 3.882v1.147c0 2.482 1.604 3.898 3.85 3.898 2.238 0 3.84-1.416 3.84-3.898v-1.155c0-2.442-1.602-3.874-3.84-3.874zm0 1.465c1.237 0 1.985.968 1.985 2.498v1.001c0 1.555-.748 2.507-1.985 2.507-1.23 0-2.002-.952-2.002-2.507v-1c0-1.53.773-2.5 2.002-2.5zM459.632 192.468c.317 1.18.642 1.53 1.334 1.53.692 0 .993-.326 1.31-1.53l1.36-4.915h.065l1.391 4.915c.326 1.204.66 1.53 1.343 1.53.643 0 .968-.334 1.286-1.53l1.587-5.867c.065-.22.09-.375.09-.497 0-.488-.35-.83-.88-.83-.44 0-.757.334-.879.92l-1.261 5.72h-.081l-1.44-5.322c-.277-1.025-.562-1.318-1.189-1.318-.635 0-.911.293-1.18 1.318l-1.408 5.323H461l-1.205-5.705c-.114-.61-.44-.936-.911-.936-.553 0-.928.366-.928.895 0 .122.025.269.073.489l1.604 5.81zM478.496 193.005v-4.899c0-1.855-1.058-2.921-2.898-2.921-1.285 0-2.238.626-2.588 1.676h-.089v-.692c-.016-.594-.334-.927-.879-.927-.553 0-.895.366-.895.976v6.779c0 .635.325 1.001.903 1.001.57 0 .904-.366.904-1.001v-3.874c0-1.489.789-2.392 2.034-2.392 1.09 0 1.693.667 1.693 1.88v4.386c0 .635.333 1.001.911 1.001.57 0 .904-.358.904-.993z"/></g><path d="M143.19 181.584l6.674-6.653 6.714 6.714c.447.468 1.2.468 1.668 0a1.167 1.167 0 0 0 0-1.669l-6.714-6.713 6.673-6.694c.468-.468.489-1.22 0-1.668a1.156 1.156 0 0 0-1.688 0l-6.674 6.653-6.754-6.735a1.167 1.167 0 0 0-1.668 0c-.468.448-.448 1.2.02 1.648l6.734 6.775-6.653 6.653c-.468.448-.468 1.22.02 1.689.469.468 1.201.468 1.649 0z" fill="#A5B4C2"/><g fill="#AE46EB"><path d="M171.91 166.522c0 1.368.659 1.978 2.099 1.978h7.214c.782 0 1.282-.452 1.282-1.16 0-.72-.5-1.172-1.282-1.172h-6.555v-5.017h6.201c.72 0 1.197-.427 1.197-1.11 0-.684-.476-1.124-1.197-1.124h-6.2v-4.748h6.579c.757 0 1.257-.452 1.257-1.16s-.5-1.172-1.257-1.172h-7.239c-1.44 0-2.1.623-2.1 1.978v12.707zM188.17 167.145V156.5h.121l7.02 10.84c.646.977 1.037 1.282 1.757 1.282.928 0 1.404-.586 1.404-1.672v-13.758c0-.915-.488-1.477-1.318-1.477-.83 0-1.294.562-1.294 1.477V163.8h-.135l-6.958-10.717c-.598-.904-1.025-1.368-1.745-1.368-.977 0-1.477.598-1.477 1.722v13.708c0 .916.488 1.477 1.318 1.477.83 0 1.306-.561 1.306-1.477zM214.048 168.622c.867 0 1.38-.561 1.38-1.514V153.23c0-.952-.513-1.514-1.38-1.514-.879 0-1.392.562-1.392 1.514v5.542h-7.629v-5.542c0-.952-.513-1.514-1.38-1.514-.878 0-1.39.562-1.39 1.514v13.88c0 .952.512 1.513 1.39 1.513.867 0 1.38-.561 1.38-1.514v-5.993h7.63v5.993c0 .953.512 1.514 1.391 1.514zM219.2 168.646c.744 0 1.16-.366 1.452-1.318l1.148-3.442h6.03l1.147 3.442c.281.94.72 1.318 1.465 1.318.794 0 1.318-.463 1.318-1.196 0-.305-.073-.635-.207-1.037l-4.578-12.952c-.415-1.233-1.013-1.758-2.124-1.758-1.11 0-1.709.537-2.136 1.758l-4.578 12.952c-.158.463-.232.78-.232 1.074 0 .708.525 1.16 1.294 1.16zm3.259-6.884l2.295-7.044h.134l2.283 7.044h-4.712zM236.887 167.145V156.5h.122l7.02 10.84c.647.977 1.037 1.282 1.757 1.282.928 0 1.404-.586 1.404-1.672v-13.758c0-.915-.488-1.477-1.318-1.477-.83 0-1.294.562-1.294 1.477V163.8h-.134l-6.958-10.717c-.599-.904-1.026-1.368-1.746-1.368-.977 0-1.477.598-1.477 1.722v13.708c0 .916.488 1.477 1.318 1.477.83 0 1.306-.561 1.306-1.477zM250.352 161.334c0 4.773 2.441 7.52 6.75 7.52 2.014 0 3.638-.586 4.798-1.66.915-.818 1.489-1.904 1.489-2.722 0-.708-.452-1.172-1.184-1.172-.513 0-.83.232-1.27.866-.903 1.55-2.112 2.271-3.698 2.271-2.65 0-4.126-1.843-4.126-5.176v-2.221c0-3.26 1.489-5.115 4.126-5.115 1.562 0 2.685.732 3.65 2.32.439.646.793.854 1.33.854.696 0 1.172-.452 1.172-1.172 0-.733-.513-1.77-1.33-2.588-1.185-1.196-2.882-1.831-4.957-1.831-4.284 0-6.75 2.77-6.75 7.446v2.38zM266.416 166.522c0 1.368.66 1.978 2.1 1.978h7.214c.781 0 1.282-.452 1.282-1.16 0-.72-.5-1.172-1.282-1.172h-6.555v-5.017h6.201c.72 0 1.196-.427 1.196-1.11 0-.684-.476-1.124-1.196-1.124h-6.201v-4.748h6.58c.756 0 1.257-.452 1.257-1.16s-.5-1.172-1.257-1.172h-7.24c-1.44 0-2.099.623-2.099 1.978v12.707zM281.321 168.622c.818 0 1.257-.513 1.257-1.477v-10.242h.11l3.711 8.9c.44 1.073.891 1.427 1.6 1.427.695 0 1.135-.341 1.586-1.428l3.711-8.899h.11v10.242c0 .977.415 1.477 1.22 1.477.83 0 1.27-.513 1.27-1.477v-13.672c0-1.135-.574-1.782-1.562-1.782-.904 0-1.367.378-1.88 1.697l-4.407 10.705h-.098L283.53 153.4c-.512-1.318-1-1.71-1.867-1.71-.989 0-1.587.66-1.587 1.783v13.672c0 .977.427 1.477 1.245 1.477zM299.668 166.522c0 1.368.66 1.978 2.1 1.978h7.214c.781 0 1.282-.452 1.282-1.16 0-.72-.5-1.172-1.282-1.172h-6.555v-5.017h6.201c.72 0 1.196-.427 1.196-1.11 0-.684-.476-1.124-1.196-1.124h-6.201v-4.748h6.58c.756 0 1.257-.452 1.257-1.16s-.5-1.172-1.257-1.172h-7.24c-1.44 0-2.099.623-2.099 1.978v12.707zM315.928 167.145V156.5h.122l7.02 10.84c.646.977 1.037 1.282 1.757 1.282.928 0 1.404-.586 1.404-1.672v-13.758c0-.915-.489-1.477-1.319-1.477s-1.294.562-1.294 1.477V163.8h-.134l-6.958-10.717c-.598-.904-1.025-1.368-1.746-1.368-.976 0-1.477.598-1.477 1.722v13.708c0 .916.489 1.477 1.319 1.477s1.306-.561 1.306-1.477zM334.617 168.622c.854 0 1.392-.574 1.392-1.49v-12.914h3.796c.757 0 1.257-.476 1.257-1.184s-.5-1.197-1.257-1.197h-10.352c-.744 0-1.27.489-1.27 1.197 0 .695.526 1.184 1.27 1.184h3.785v12.915c0 .928.524 1.49 1.379 1.49zM173.289 193.622c.879 0 1.391-.561 1.391-1.514v-4.59h3.504c3.406 0 5.603-2.038 5.603-5.346 0-3.21-2.185-5.335-5.53-5.335h-4.138c-1.587 0-2.21.599-2.21 2.149v13.122c0 .953.513 1.514 1.38 1.514zm1.391-8.362v-6.128h3.309c1.916 0 3.015 1.123 3.015 3.064 0 2.27-1.111 3.064-4.016 3.064h-2.308zM196.531 192.304c0-.72-.525-1.209-1.294-1.209h-6.213V178.23c0-.952-.513-1.514-1.38-1.514-.879 0-1.391.562-1.391 1.514v13.293c0 1.368.659 1.978 2.1 1.978h6.884c.77 0 1.294-.476 1.294-1.196zM211.326 187.738v-9.533c0-.928-.537-1.49-1.392-1.49-.866 0-1.38.562-1.38 1.49v9.326c0 2.405-1.464 3.906-3.771 3.906-2.32 0-3.772-1.49-3.772-3.906v-9.326c0-.928-.537-1.49-1.392-1.49-.866 0-1.379.562-1.379 1.49v9.497c0 3.698 2.43 6.152 6.543 6.152 3.943 0 6.543-2.441 6.543-6.116zM214.219 186.432c0 4.651 2.588 7.422 6.934 7.422 3.723 0 6.396-2.405 6.396-5.774v-1.587c0-1.233-.561-1.794-1.819-1.794h-3.564c-.806 0-1.282.403-1.282 1.098 0 .696.476 1.099 1.282 1.099h2.722v1.306c0 1.965-1.453 3.284-3.65 3.284-2.686 0-4.248-1.856-4.248-5.066v-2.441c0-3.26 1.501-5.054 4.163-5.054 1.733 0 2.868.903 3.845 2.441.342.513.647.708 1.11.708.696 0 1.16-.464 1.16-1.184 0-.806-.61-1.868-1.538-2.71-1.16-1.098-2.783-1.672-4.736-1.672-4.26 0-6.775 2.783-6.775 7.385v2.54zM232.005 193.622c.866 0 1.379-.561 1.379-1.514V178.23c0-.952-.513-1.514-1.38-1.514-.878 0-1.391.562-1.391 1.514v13.88c0 .952.525 1.513 1.392 1.513zM239.793 192.145V181.5h.122l7.019 10.84c.647.977 1.037 1.282 1.758 1.282.927 0 1.403-.586 1.403-1.672v-13.758c0-.915-.488-1.477-1.318-1.477-.83 0-1.294.562-1.294 1.477V188.8h-.134l-6.958-10.717c-.598-.904-1.026-1.368-1.746-1.368-.976 0-1.477.598-1.477 1.722v13.708c0 .916.488 1.477 1.319 1.477.83 0 1.306-.561 1.306-1.477z"/></g></g></g></svg>