<svg width="425" height="100" viewBox="0 0 425 100" xmlns="http://www.w3.org/2000/svg" xmlns:xlink="http://www.w3.org/1999/xlink"><defs><path d="M28.543 0h42.914c9.925 0 13.524 1.033 17.152 2.974a20.232 20.232 0 0 1 8.417 8.417c1.94 3.628 2.974 7.227 2.974 17.152v42.914c0 9.925-1.033 13.524-2.974 17.152a20.232 20.232 0 0 1-8.417 8.417C84.981 98.966 81.382 100 71.457 100H28.543c-9.925 0-13.524-1.033-17.152-2.974a20.232 20.232 0 0 1-8.417-8.417C1.034 84.981 0 81.382 0 71.457V28.543c0-9.925 1.033-13.524 2.974-17.152a20.232 20.232 0 0 1 8.417-8.417C15.019 1.034 18.618 0 28.543 0z" id="a"/><radialGradient cy="100%" fx="50%" fy="100%" r="100%" gradientTransform="matrix(0 -1 .79966 0 -.3 1.5)" id="c"><stop stop-color="#00DAD8" stop-opacity=".8" offset="0%"/><stop stop-color="#00DAD8" stop-opacity=".7" offset="19.9%"/><stop stop-color="#00DAD8" stop-opacity="0" offset="100%"/></radialGradient></defs><g fill="none" fill-rule="evenodd"><path d="M28.543 0h42.914c9.925 0 13.524 1.033 17.152 2.974a20.232 20.232 0 0 1 8.417 8.417c1.94 3.628 2.974 7.227 2.974 17.152v42.914c0 9.925-1.033 13.524-2.974 17.152a20.232 20.232 0 0 1-8.417 8.417C84.981 98.966 81.382 100 71.457 100H28.543c-9.925 0-13.524-1.033-17.152-2.974a20.232 20.232 0 0 1-8.417-8.417C1.034 84.981 0 81.382 0 71.457V28.543c0-9.925 1.033-13.524 2.974-17.152a20.232 20.232 0 0 1 8.417-8.417C15.019 1.034 18.618 0 28.543 0z" fill="#303438"/><path d="M50.894 70.732l3.984 3.314c.427.355.516.976.208 1.438l-3.983 5.965a1.086 1.086 0 0 1-1.806 0l-3.983-5.965a1.086 1.086 0 0 1 .208-1.438l3.984-3.314a1.086 1.086 0 0 1 1.388 0zM30.295 38.715c9.994 0 18.095 8.09 18.095 18.068 0 9.98-8.101 18.069-18.095 18.069-9.993 0-18.095-8.09-18.095-18.069 0-9.978 8.102-18.068 18.095-18.068zm39.81 0c9.993 0 18.095 8.09 18.095 18.068 0 9.98-8.102 18.069-18.095 18.069-9.994 0-18.095-8.09-18.095-18.069 0-9.978 8.101-18.068 18.095-18.068zm-39.81 5.42c-6.995 0-12.666 5.663-12.666 12.648 0 6.986 5.67 12.648 12.666 12.648s12.667-5.662 12.667-12.648c0-6.985-5.671-12.647-12.667-12.647zm39.81 0c-6.996 0-12.667 5.663-12.667 12.648 0 6.986 5.671 12.648 12.667 12.648 6.995 0 12.666-5.662 12.666-12.648 0-6.985-5.67-12.647-12.666-12.647zm8.459-22.897a2.717 2.717 0 0 1 3.551 1.337 2.708 2.708 0 0 1-1.312 3.602L51.49 38.389l-.056.025a2.703 2.703 0 0 1-1.235.226 2.702 2.702 0 0 1-1.234-.226l-.056-.025-29.313-12.212a2.708 2.708 0 0 1-1.312-3.602 2.717 2.717 0 0 1 3.551-1.337l.056.026L50.2 33.056l28.309-11.792z" fill="#FFF"/><g><mask id="b" fill="#fff"><use xlink:href="#a"/></mask><path fill="#1C1E1F" mask="url(#b)" d="M0 0h100v100H0z"/><path fill="url(#c)" mask="url(#b)" d="M0 84h100v20H0z"/><g mask="url(#b)" fill="#FFF"><path d="M50.694 70.732l3.984 3.314c.427.355.516.976.208 1.438l-3.983 5.965a1.086 1.086 0 0 1-1.806 0l-3.983-5.965a1.086 1.086 0 0 1 .208-1.438l3.984-3.314a1.086 1.086 0 0 1 1.388 0zM30.095 38.715c9.994 0 18.095 8.09 18.095 18.068 0 9.98-8.101 18.069-18.095 18.069-9.993 0-18.095-8.09-18.095-18.069 0-9.978 8.102-18.068 18.095-18.068zm39.81 0c9.993 0 18.095 8.09 18.095 18.068 0 9.98-8.102 18.069-18.095 18.069-9.994 0-18.095-8.09-18.095-18.069 0-9.978 8.101-18.068 18.095-18.068zm-39.81 5.42c-6.995 0-12.666 5.663-12.666 12.648 0 6.986 5.67 12.648 12.666 12.648s12.667-5.662 12.667-12.648c0-6.985-5.671-12.647-12.667-12.647zm39.81 0c-6.996 0-12.667 5.663-12.667 12.648 0 6.986 5.671 12.648 12.667 12.648 6.995 0 12.666-5.662 12.666-12.648 0-6.985-5.67-12.647-12.666-12.647zm8.459-22.897a2.717 2.717 0 0 1 3.551 1.337 2.708 2.708 0 0 1-1.312 3.602L51.29 38.389l-.056.025A2.703 2.703 0 0 1 50 38.64a2.702 2.702 0 0 1-1.234-.226l-.056-.025-29.313-12.212a2.708 2.708 0 0 1-1.312-3.602 2.717 2.717 0 0 1 3.551-1.337l.056.026L50 33.056l28.309-11.792z"/></g></g><g fill-rule="nonzero"><path d="M391.464 46.464a5 5 0 0 1 6.89-.172l.181.172 25 25a5 5 0 0 1-6.89 7.244l-.18-.173-25-25a5 5 0 0 1 0-7.07z" fill="#7F8994"/><path d="M423.536 21.464a5 5 0 0 0-6.89-.172l-.181.172-50 50a5 5 0 0 0 6.89 7.244l.18-.173 50-50a5 5 0 0 0 0-7.07z" fill="#7F8994"/><path d="M177.573 20.712a5 5 0 0 0-6.738 1.522l-.122.193-30 50a5 5 0 0 0 8.452 5.339l.123-.194 30-50a5 5 0 0 0-1.715-6.86z" fill="#1C1E1F"/><path d="M112.427 20.712a5 5 0 0 1 6.738 1.522l.122.193 30 50a5 5 0 0 1-8.452 5.339l-.123-.194-30-50a5 5 0 0 1 1.715-6.86z" fill="#1C1E1F"/><path d="M205 20a5 5 0 0 0-4.995 4.783L200 25v50a5 5 0 0 0 9.995.217L210 75V25a5 5 0 0 0-5-5z" fill="#7F8994"/><path d="M190 20a5 5 0 0 0-4.995 4.783L185 25v5a5 5 0 0 0 9.995.217L195 30v-5a5 5 0 0 0-5-5z" fill="#1C1E1F"/><path d="M370 20a5 5 0 0 1 5 5v50l-.005.217A5 5 0 0 1 365 75v-6.962c3.174-5.267 5-11.44 5-18.038 0-6.599-1.826-12.77-5-18.039V25l.005-.217A5 5 0 0 1 370 20zM241.274 70a35.18 35.18 0 0 0 10.688 10H205l-.217-.005A5 5 0 0 1 205 70z" fill="#7F8994"/><path d="M270 20c-16.569 0-30 13.431-30 30 0 16.568 13.431 30 30 30 16.568 0 30-13.432 30-30 0-16.569-13.432-30-30-30zm0 10c11.046 0 20 8.954 20 20s-8.954 20-20 20-20-8.954-20-20 8.954-20 20-20zM335 20c-16.569 0-30 13.431-30 30 0 16.568 13.431 30 30 30 16.568 0 30-13.432 30-30 0-16.569-13.432-30-30-30zm0 10c11.046 0 20 8.954 20 20s-8.954 20-20 20-20-8.954-20-20 8.954-20 20-20z" fill="#1C1E1F"/></g></g></svg>